<svg xmlns="http://www.w3.org/2000/svg" xmlns:xlink="http://www.w3.org/1999/xlink" width="150" zoomAndPan="magnify" viewBox="0 0 112.5 112.499997" height="150" preserveAspectRatio="xMidYMid meet" version="1.0"><defs><g/><clipPath id="1b049ee03b"><path d="M 0 0 L 112.003906 0 L 112.003906 112.003906 L 0 112.003906 Z M 0 0 " clip-rule="nonzero"/></clipPath></defs><g clip-path="url(#1b049ee03b)"><path fill="#ffffff" d="M 0 0 L 112.5 0 L 112.5 120 L 0 120 Z M 0 0 " fill-opacity="1" fill-rule="nonzero"/><path fill="#ffffff" d="M 0 0 L 112.5 0 L 112.5 112.5 L 0 112.5 Z M 0 0 " fill-opacity="1" fill-rule="nonzero"/><path fill="#8a2d88" d="M 0 0 L 112.5 0 L 112.5 112.5 L 0 112.5 Z M 0 0 " fill-opacity="1" fill-rule="nonzero"/></g><g fill="#ffffff" fill-opacity="1"><g transform="translate(34.88746, 64.061589)"><g><path d="M 10.96875 0 L 9.890625 -3.546875 L 4.46875 -3.546875 L 3.390625 0 L 0 0 L 5.25 -14.921875 L 9.109375 -14.921875 L 14.375 0 Z M 9.140625 -6.1875 C 8.140625 -9.394531 7.578125 -11.207031 7.453125 -11.625 C 7.328125 -12.039062 7.238281 -12.375 7.1875 -12.625 C 6.96875 -11.75 6.328125 -9.601562 5.265625 -6.1875 Z M 9.140625 -6.1875 "/></g></g><g transform="translate(49.259572, 64.061589)"><g><path d="M 1.875 -14.875 L 6.5 -14.875 C 8.601562 -14.875 10.128906 -14.570312 11.078125 -13.96875 C 12.035156 -13.363281 12.515625 -12.410156 12.515625 -11.109375 C 12.515625 -10.210938 12.304688 -9.476562 11.890625 -8.90625 C 11.472656 -8.34375 10.921875 -8.003906 10.234375 -7.890625 L 10.234375 -7.796875 C 11.171875 -7.578125 11.847656 -7.179688 12.265625 -6.609375 C 12.679688 -6.035156 12.890625 -5.269531 12.890625 -4.3125 C 12.890625 -2.957031 12.398438 -1.898438 11.421875 -1.140625 C 10.441406 -0.378906 9.113281 0 7.4375 0 L 1.875 0 Z M 5.03125 -8.984375 L 6.859375 -8.984375 C 7.710938 -8.984375 8.328125 -9.113281 8.703125 -9.375 C 9.085938 -9.632812 9.28125 -10.070312 9.28125 -10.6875 C 9.28125 -11.257812 9.070312 -11.664062 8.65625 -11.90625 C 8.238281 -12.15625 7.582031 -12.28125 6.6875 -12.28125 L 5.03125 -12.28125 Z M 5.03125 -6.484375 L 5.03125 -2.609375 L 7.078125 -2.609375 C 7.941406 -2.609375 8.582031 -2.769531 9 -3.09375 C 9.414062 -3.425781 9.625 -3.9375 9.625 -4.625 C 9.625 -5.863281 8.742188 -6.484375 6.984375 -6.484375 Z M 5.03125 -6.484375 "/></g></g><g transform="translate(63.255344, 64.061589)"><g><path d="M 10.96875 0 L 9.890625 -3.546875 L 4.46875 -3.546875 L 3.390625 0 L 0 0 L 5.25 -14.921875 L 9.109375 -14.921875 L 14.375 0 Z M 9.140625 -6.1875 C 8.140625 -9.394531 7.578125 -11.207031 7.453125 -11.625 C 7.328125 -12.039062 7.238281 -12.375 7.1875 -12.625 C 6.96875 -11.75 6.328125 -9.601562 5.265625 -6.1875 Z M 9.140625 -6.1875 "/></g></g></g></svg>