<svg xmlns="http://www.w3.org/2000/svg" xmlns:xlink="http://www.w3.org/1999/xlink" width="1200" zoomAndPan="magnify" viewBox="0 0 900 2250.000011" height="3000" preserveAspectRatio="xMidYMid meet" version="1.0"><defs><clipPath id="dd45289b9b"><path d="M 0.199219 0 L 899.800781 0 L 899.800781 2249 L 0.199219 2249 Z M 0.199219 0 " clip-rule="nonzero"/></clipPath><clipPath id="7bdc58d60a"><path d="M 731.59375 563.566406 L 899.800781 563.566406 L 899.800781 777.511719 L 731.59375 777.511719 Z M 731.59375 563.566406 " clip-rule="nonzero"/></clipPath><clipPath id="47f672675c"><path d="M 838.570312 563.566406 C 779.488281 563.566406 731.59375 611.457031 731.59375 670.539062 C 731.59375 729.621094 779.488281 777.511719 838.570312 777.511719 C 897.648438 777.511719 945.542969 729.621094 945.542969 670.539062 C 945.542969 611.457031 897.648438 563.566406 838.570312 563.566406 " clip-rule="nonzero"/></clipPath><clipPath id="2d7bba2dd1"><path d="M 0.199219 824.882812 L 122.414062 824.882812 L 122.414062 974.328125 L 0.199219 974.328125 Z M 0.199219 824.882812 " clip-rule="nonzero"/></clipPath><clipPath id="5b0d136dde"><path d="M 47.691406 824.882812 C 6.421875 824.882812 -27.03125 858.339844 -27.03125 899.605469 C -27.03125 940.875 6.421875 974.328125 47.691406 974.328125 C 88.957031 974.328125 122.414062 940.875 122.414062 899.605469 C 122.414062 858.339844 88.957031 824.882812 47.691406 824.882812 " clip-rule="nonzero"/></clipPath><clipPath id="12bfcb3c4c"><path d="M 0.199219 1422.324219 L 186.917969 1422.324219 L 186.917969 1636.273438 L 0.199219 1636.273438 Z M 0.199219 1422.324219 " clip-rule="nonzero"/></clipPath><clipPath id="1c1c50d4cf"><path d="M 79.945312 1422.324219 C 20.863281 1422.324219 -27.03125 1470.21875 -27.03125 1529.296875 C -27.03125 1588.378906 20.863281 1636.273438 79.945312 1636.273438 C 139.023438 1636.273438 186.917969 1588.378906 186.917969 1529.296875 C 186.917969 1470.21875 139.023438 1422.324219 79.945312 1422.324219 " clip-rule="nonzero"/></clipPath><clipPath id="6d545af092"><path d="M 796.101562 1874.347656 L 899.800781 1874.347656 L 899.800781 2023.792969 L 796.101562 2023.792969 Z M 796.101562 1874.347656 " clip-rule="nonzero"/></clipPath><clipPath id="2e5a5b5603"><path d="M 870.820312 1874.347656 C 829.554688 1874.347656 796.101562 1907.800781 796.101562 1949.070312 C 796.101562 1990.335938 829.554688 2023.792969 870.820312 2023.792969 C 912.089844 2023.792969 945.542969 1990.335938 945.542969 1949.070312 C 945.542969 1907.800781 912.089844 1874.347656 870.820312 1874.347656 " clip-rule="nonzero"/></clipPath></defs><g clip-path="url(#dd45289b9b)"><path fill="#ffffff" d="M 0.199219 0 L 899.800781 0 L 899.800781 2256.496094 L 0.199219 2256.496094 Z M 0.199219 0 " fill-opacity="1" fill-rule="nonzero"/><path fill="#ffffff" d="M 0.199219 0 L 899.800781 0 L 899.800781 2249 L 0.199219 2249 Z M 0.199219 0 " fill-opacity="1" fill-rule="nonzero"/><path fill="#ffffff" d="M 0.199219 0 L 899.800781 0 L 899.800781 2249 L 0.199219 2249 Z M 0.199219 0 " fill-opacity="1" fill-rule="nonzero"/></g><g clip-path="url(#7bdc58d60a)"><g clip-path="url(#47f672675c)"><path fill="#4ebcc2" d="M 731.59375 563.566406 L 945.542969 563.566406 L 945.542969 777.511719 L 731.59375 777.511719 Z M 731.59375 563.566406 " fill-opacity="1" fill-rule="nonzero"/></g></g><g clip-path="url(#2d7bba2dd1)"><g clip-path="url(#5b0d136dde)"><path fill="#8a2d88" d="M -27.03125 824.882812 L 122.414062 824.882812 L 122.414062 974.328125 L -27.03125 974.328125 Z M -27.03125 824.882812 " fill-opacity="1" fill-rule="nonzero"/></g></g><g clip-path="url(#12bfcb3c4c)"><g clip-path="url(#1c1c50d4cf)"><path fill="#4ebcc2" d="M -27.03125 1422.324219 L 186.917969 1422.324219 L 186.917969 1636.273438 L -27.03125 1636.273438 Z M -27.03125 1422.324219 " fill-opacity="1" fill-rule="nonzero"/></g></g><g clip-path="url(#6d545af092)"><g clip-path="url(#2e5a5b5603)"><path fill="#8a2d88" d="M 796.101562 1874.347656 L 945.542969 1874.347656 L 945.542969 2023.792969 L 796.101562 2023.792969 Z M 796.101562 1874.347656 " fill-opacity="1" fill-rule="nonzero"/></g></g></svg>