<svg xmlns="http://www.w3.org/2000/svg" xmlns:xlink="http://www.w3.org/1999/xlink" width="1800" zoomAndPan="magnify" viewBox="0 0 1350 599.999999" height="800" preserveAspectRatio="xMidYMid meet" version="1.0"><defs><clipPath id="8b5d141102"><path d="M 1179.515625 19.558594 L 1350 19.558594 L 1350 340.625 L 1179.515625 340.625 Z M 1179.515625 19.558594 " clip-rule="nonzero"/></clipPath><clipPath id="ece9efcc68"><path d="M 1340.050781 19.558594 C 1251.390625 19.558594 1179.515625 91.433594 1179.515625 180.09375 C 1179.515625 268.753906 1251.390625 340.625 1340.050781 340.625 C 1428.707031 340.625 1500.582031 268.753906 1500.582031 180.09375 C 1500.582031 91.433594 1428.707031 19.558594 1340.050781 19.558594 " clip-rule="nonzero"/></clipPath><clipPath id="ebc4b3aaf4"><path d="M 0 355.871094 L 151.554688 355.871094 L 151.554688 580.136719 L 0 580.136719 Z M 0 355.871094 " clip-rule="nonzero"/></clipPath><clipPath id="09d9b0fbf5"><path d="M 39.421875 355.871094 C -22.507812 355.871094 -72.710938 406.074219 -72.710938 468.003906 C -72.710938 529.933594 -22.507812 580.136719 39.421875 580.136719 C 101.351562 580.136719 151.554688 529.933594 151.554688 468.003906 C 151.554688 406.074219 101.351562 355.871094 39.421875 355.871094 " clip-rule="nonzero"/></clipPath></defs><rect x="-135" width="1620" fill="#ffffff" y="-60" height="719.999999" fill-opacity="1"/><rect x="-135" width="1620" fill="#ffffff" y="-60" height="719.999999" fill-opacity="1"/><rect x="-135" width="1620" fill="#ffffff" y="-60" height="719.999999" fill-opacity="1"/><g clip-path="url(#8b5d141102)"><g clip-path="url(#ece9efcc68)"><path fill="#4ebcc2" d="M 1179.515625 19.558594 L 1500.582031 19.558594 L 1500.582031 340.625 L 1179.515625 340.625 Z M 1179.515625 19.558594 " fill-opacity="1" fill-rule="nonzero"/></g></g><g clip-path="url(#ebc4b3aaf4)"><g clip-path="url(#09d9b0fbf5)"><path fill="#8a2d88" d="M -72.710938 355.871094 L 151.554688 355.871094 L 151.554688 580.136719 L -72.710938 580.136719 Z M -72.710938 355.871094 " fill-opacity="1" fill-rule="nonzero"/></g></g></svg>