<svg xmlns="http://www.w3.org/2000/svg" xmlns:xlink="http://www.w3.org/1999/xlink" width="300" zoomAndPan="magnify" viewBox="0 0 224.87999 119.999999" height="160" preserveAspectRatio="xMidYMid meet" version="1.0"><defs><g/><clipPath id="bf7c4b6ec1"><path d="M 0 0.03125 L 224.761719 0.03125 L 224.761719 119.96875 L 0 119.96875 Z M 0 0.03125 " clip-rule="nonzero"/></clipPath><clipPath id="ecb4861d39"><path d="M 0 0.03125 L 224.761719 0.03125 L 224.761719 119.96875 L 0 119.96875 Z M 0 0.03125 " clip-rule="nonzero"/></clipPath><clipPath id="475d9a648f"><path d="M 5.996094 -0.480469 L 218.882812 -0.480469 C 222.195312 -0.480469 224.878906 2.207031 224.878906 5.519531 L 224.878906 114.480469 C 224.878906 117.792969 222.195312 120.480469 218.882812 120.480469 L 5.996094 120.480469 C 2.683594 120.480469 0 117.792969 0 114.480469 L 0 5.519531 C 0 2.207031 2.683594 -0.480469 5.996094 -0.480469 " clip-rule="nonzero"/></clipPath></defs><g clip-path="url(#bf7c4b6ec1)"><path fill="#ffffff" d="M 0 0.03125 L 224.878906 0.03125 L 224.878906 127.464844 L 0 127.464844 Z M 0 0.03125 " fill-opacity="1" fill-rule="nonzero"/><path fill="#ffffff" d="M 0 0.03125 L 224.878906 0.03125 L 224.878906 119.96875 L 0 119.96875 Z M 0 0.03125 " fill-opacity="1" fill-rule="nonzero"/><path fill="#ffffff" d="M 0 0.03125 L 224.878906 0.03125 L 224.878906 119.96875 L 0 119.96875 Z M 0 0.03125 " fill-opacity="1" fill-rule="nonzero"/></g><g clip-path="url(#ecb4861d39)"><g clip-path="url(#475d9a648f)"><path fill="#8a2d88" d="M 0 -0.480469 L 224.878906 -0.480469 L 224.878906 120.480469 L 0 120.480469 Z M 0 -0.480469 " fill-opacity="1" fill-rule="nonzero"/></g></g><g fill="#ffffff" fill-opacity="1"><g transform="translate(31.692562, 62.848449)"><g><path d="M 14.28125 -11.671875 C 14.28125 -9.765625 13.710938 -8.289062 12.578125 -7.25 C 11.453125 -6.207031 9.851562 -5.6875 7.78125 -5.6875 L 6.46875 -5.6875 L 6.46875 0 L 1.84375 0 L 1.84375 -17.125 L 7.78125 -17.125 C 9.9375 -17.125 11.554688 -16.648438 12.640625 -15.703125 C 13.734375 -14.753906 14.28125 -13.410156 14.28125 -11.671875 Z M 6.46875 -9.453125 L 7.3125 -9.453125 C 8.007812 -9.453125 8.5625 -9.644531 8.96875 -10.03125 C 9.382812 -10.425781 9.59375 -10.96875 9.59375 -11.65625 C 9.59375 -12.8125 8.953125 -13.390625 7.671875 -13.390625 L 6.46875 -13.390625 Z M 6.46875 -9.453125 "/></g></g><g transform="translate(46.848536, 62.848449)"><g><path d="M 10.234375 0 L 9.359375 -1.75 L 9.265625 -1.75 C 8.648438 -0.988281 8.019531 -0.46875 7.375 -0.1875 C 6.738281 0.09375 5.910156 0.234375 4.890625 0.234375 C 3.640625 0.234375 2.65625 -0.140625 1.9375 -0.890625 C 1.21875 -1.640625 0.859375 -2.691406 0.859375 -4.046875 C 0.859375 -5.460938 1.347656 -6.515625 2.328125 -7.203125 C 3.316406 -7.898438 4.742188 -8.289062 6.609375 -8.375 L 8.828125 -8.4375 L 8.828125 -8.625 C 8.828125 -9.71875 8.289062 -10.265625 7.21875 -10.265625 C 6.25 -10.265625 5.019531 -9.9375 3.53125 -9.28125 L 2.203125 -12.3125 C 3.742188 -13.101562 5.695312 -13.5 8.0625 -13.5 C 9.757812 -13.5 11.070312 -13.078125 12 -12.234375 C 12.9375 -11.390625 13.40625 -10.210938 13.40625 -8.703125 L 13.40625 0 Z M 6.84375 -3 C 7.394531 -3 7.867188 -3.171875 8.265625 -3.515625 C 8.660156 -3.867188 8.859375 -4.328125 8.859375 -4.890625 L 8.859375 -5.921875 L 7.796875 -5.875 C 6.296875 -5.820312 5.546875 -5.269531 5.546875 -4.21875 C 5.546875 -3.40625 5.976562 -3 6.84375 -3 Z M 6.84375 -3 "/></g></g><g transform="translate(61.793684, 62.848449)"><g><path d="M 9.59375 -13.5 C 9.988281 -13.5 10.367188 -13.46875 10.734375 -13.40625 L 10.984375 -13.359375 L 10.578125 -9.046875 C 10.203125 -9.140625 9.679688 -9.1875 9.015625 -9.1875 C 8.015625 -9.1875 7.285156 -8.957031 6.828125 -8.5 C 6.378906 -8.039062 6.15625 -7.378906 6.15625 -6.515625 L 6.15625 0 L 1.578125 0 L 1.578125 -13.265625 L 4.984375 -13.265625 L 5.703125 -11.15625 L 5.921875 -11.15625 C 6.304688 -11.851562 6.835938 -12.414062 7.515625 -12.84375 C 8.203125 -13.28125 8.894531 -13.5 9.59375 -13.5 Z M 9.59375 -13.5 "/></g></g><g transform="translate(73.049396, 62.848449)"><g><path d="M 8.078125 -3.390625 C 8.691406 -3.390625 9.429688 -3.539062 10.296875 -3.84375 L 10.296875 -0.5 C 9.679688 -0.238281 9.09375 -0.0507812 8.53125 0.0625 C 7.96875 0.175781 7.3125 0.234375 6.5625 0.234375 C 5.03125 0.234375 3.921875 -0.140625 3.234375 -0.890625 C 2.554688 -1.648438 2.21875 -2.8125 2.21875 -4.375 L 2.21875 -9.84375 L 0.625 -9.84375 L 0.625 -11.703125 L 2.65625 -13.140625 L 3.84375 -15.921875 L 6.84375 -15.921875 L 6.84375 -13.265625 L 10.09375 -13.265625 L 10.09375 -9.84375 L 6.84375 -9.84375 L 6.84375 -4.671875 C 6.84375 -3.816406 7.253906 -3.390625 8.078125 -3.390625 Z M 8.078125 -3.390625 "/></g></g><g transform="translate(84.08257, 62.848449)"><g><path d="M 6.1875 0 L 1.609375 0 L 1.609375 -13.265625 L 6.1875 -13.265625 Z M 1.484375 -16.578125 C 1.484375 -17.265625 1.675781 -17.773438 2.0625 -18.109375 C 2.445312 -18.441406 3.0625 -18.609375 3.90625 -18.609375 C 4.757812 -18.609375 5.378906 -18.4375 5.765625 -18.09375 C 6.160156 -17.75 6.359375 -17.242188 6.359375 -16.578125 C 6.359375 -15.234375 5.539062 -14.5625 3.90625 -14.5625 C 2.289062 -14.5625 1.484375 -15.234375 1.484375 -16.578125 Z M 1.484375 -16.578125 "/></g></g><g transform="translate(91.883094, 62.848449)"><g><path d="M 7.625 0.234375 C 5.457031 0.234375 3.8125 -0.347656 2.6875 -1.515625 C 1.5625 -2.691406 1 -4.375 1 -6.5625 C 1 -8.769531 1.601562 -10.476562 2.8125 -11.6875 C 4.03125 -12.894531 5.753906 -13.5 7.984375 -13.5 C 9.523438 -13.5 10.972656 -13.164062 12.328125 -12.5 L 10.984375 -9.109375 C 10.429688 -9.347656 9.921875 -9.539062 9.453125 -9.6875 C 8.984375 -9.832031 8.492188 -9.90625 7.984375 -9.90625 C 7.242188 -9.90625 6.671875 -9.613281 6.265625 -9.03125 C 5.859375 -8.457031 5.65625 -7.644531 5.65625 -6.59375 C 5.65625 -4.46875 6.441406 -3.40625 8.015625 -3.40625 C 9.359375 -3.40625 10.644531 -3.796875 11.875 -4.578125 L 11.875 -0.9375 C 10.695312 -0.15625 9.28125 0.234375 7.625 0.234375 Z M 7.625 0.234375 "/></g></g><g transform="translate(104.813693, 62.848449)"><g><path d="M 6.1875 0 L 1.609375 0 L 1.609375 -13.265625 L 6.1875 -13.265625 Z M 1.484375 -16.578125 C 1.484375 -17.265625 1.675781 -17.773438 2.0625 -18.109375 C 2.445312 -18.441406 3.0625 -18.609375 3.90625 -18.609375 C 4.757812 -18.609375 5.378906 -18.4375 5.765625 -18.09375 C 6.160156 -17.75 6.359375 -17.242188 6.359375 -16.578125 C 6.359375 -15.234375 5.539062 -14.5625 3.90625 -14.5625 C 2.289062 -14.5625 1.484375 -15.234375 1.484375 -16.578125 Z M 1.484375 -16.578125 "/></g></g><g transform="translate(112.614217, 62.848449)"><g><path d="M 9.546875 0.234375 C 8.867188 0.234375 8.265625 0.125 7.734375 -0.09375 C 7.203125 -0.320312 6.675781 -0.722656 6.15625 -1.296875 L 5.953125 -1.296875 C 6.085938 -0.367188 6.15625 0.207031 6.15625 0.4375 L 6.15625 5.765625 L 1.578125 5.765625 L 1.578125 -13.265625 L 5.3125 -13.265625 L 5.953125 -11.578125 L 6.15625 -11.578125 C 7.007812 -12.859375 8.1875 -13.5 9.6875 -13.5 C 11.15625 -13.5 12.304688 -12.890625 13.140625 -11.671875 C 13.972656 -10.453125 14.390625 -8.78125 14.390625 -6.65625 C 14.390625 -4.519531 13.953125 -2.835938 13.078125 -1.609375 C 12.210938 -0.378906 11.035156 0.234375 9.546875 0.234375 Z M 8.015625 -9.90625 C 7.335938 -9.90625 6.863281 -9.664062 6.59375 -9.1875 C 6.320312 -8.707031 6.175781 -7.992188 6.15625 -7.046875 L 6.15625 -6.6875 C 6.15625 -5.550781 6.304688 -4.726562 6.609375 -4.21875 C 6.921875 -3.707031 7.40625 -3.453125 8.0625 -3.453125 C 8.644531 -3.453125 9.066406 -3.703125 9.328125 -4.203125 C 9.597656 -4.710938 9.734375 -5.546875 9.734375 -6.703125 C 9.734375 -7.847656 9.597656 -8.664062 9.328125 -9.15625 C 9.066406 -9.65625 8.628906 -9.90625 8.015625 -9.90625 Z M 8.015625 -9.90625 "/></g></g><g transform="translate(128.039579, 62.848449)"><g><path d="M 10.234375 0 L 9.359375 -1.75 L 9.265625 -1.75 C 8.648438 -0.988281 8.019531 -0.46875 7.375 -0.1875 C 6.738281 0.09375 5.910156 0.234375 4.890625 0.234375 C 3.640625 0.234375 2.65625 -0.140625 1.9375 -0.890625 C 1.21875 -1.640625 0.859375 -2.691406 0.859375 -4.046875 C 0.859375 -5.460938 1.347656 -6.515625 2.328125 -7.203125 C 3.316406 -7.898438 4.742188 -8.289062 6.609375 -8.375 L 8.828125 -8.4375 L 8.828125 -8.625 C 8.828125 -9.71875 8.289062 -10.265625 7.21875 -10.265625 C 6.25 -10.265625 5.019531 -9.9375 3.53125 -9.28125 L 2.203125 -12.3125 C 3.742188 -13.101562 5.695312 -13.5 8.0625 -13.5 C 9.757812 -13.5 11.070312 -13.078125 12 -12.234375 C 12.9375 -11.390625 13.40625 -10.210938 13.40625 -8.703125 L 13.40625 0 Z M 6.84375 -3 C 7.394531 -3 7.867188 -3.171875 8.265625 -3.515625 C 8.660156 -3.867188 8.859375 -4.328125 8.859375 -4.890625 L 8.859375 -5.921875 L 7.796875 -5.875 C 6.296875 -5.820312 5.546875 -5.269531 5.546875 -4.21875 C 5.546875 -3.40625 5.976562 -3 6.84375 -3 Z M 6.84375 -3 "/></g></g><g transform="translate(142.984728, 62.848449)"><g><path d="M 8.078125 -3.390625 C 8.691406 -3.390625 9.429688 -3.539062 10.296875 -3.84375 L 10.296875 -0.5 C 9.679688 -0.238281 9.09375 -0.0507812 8.53125 0.0625 C 7.96875 0.175781 7.3125 0.234375 6.5625 0.234375 C 5.03125 0.234375 3.921875 -0.140625 3.234375 -0.890625 C 2.554688 -1.648438 2.21875 -2.8125 2.21875 -4.375 L 2.21875 -9.84375 L 0.625 -9.84375 L 0.625 -11.703125 L 2.65625 -13.140625 L 3.84375 -15.921875 L 6.84375 -15.921875 L 6.84375 -13.265625 L 10.09375 -13.265625 L 10.09375 -9.84375 L 6.84375 -9.84375 L 6.84375 -4.671875 C 6.84375 -3.816406 7.253906 -3.390625 8.078125 -3.390625 Z M 8.078125 -3.390625 "/></g></g><g transform="translate(154.017902, 62.848449)"><g><path d="M 6.1875 0 L 1.609375 0 L 1.609375 -13.265625 L 6.1875 -13.265625 Z M 1.484375 -16.578125 C 1.484375 -17.265625 1.675781 -17.773438 2.0625 -18.109375 C 2.445312 -18.441406 3.0625 -18.609375 3.90625 -18.609375 C 4.757812 -18.609375 5.378906 -18.4375 5.765625 -18.09375 C 6.160156 -17.75 6.359375 -17.242188 6.359375 -16.578125 C 6.359375 -15.234375 5.539062 -14.5625 3.90625 -14.5625 C 2.289062 -14.5625 1.484375 -15.234375 1.484375 -16.578125 Z M 1.484375 -16.578125 "/></g></g><g transform="translate(161.818426, 62.848449)"><g><path d="M 14.25 -6.65625 C 14.25 -4.488281 13.664062 -2.796875 12.5 -1.578125 C 11.332031 -0.367188 9.695312 0.234375 7.59375 0.234375 C 5.582031 0.234375 3.976562 -0.382812 2.78125 -1.625 C 1.59375 -2.863281 1 -4.539062 1 -6.65625 C 1 -8.820312 1.582031 -10.503906 2.75 -11.703125 C 3.925781 -12.898438 5.566406 -13.5 7.671875 -13.5 C 8.972656 -13.5 10.125 -13.222656 11.125 -12.671875 C 12.125 -12.117188 12.894531 -11.320312 13.4375 -10.28125 C 13.976562 -9.25 14.25 -8.039062 14.25 -6.65625 Z M 5.65625 -6.65625 C 5.65625 -5.519531 5.804688 -4.648438 6.109375 -4.046875 C 6.410156 -3.453125 6.921875 -3.15625 7.640625 -3.15625 C 8.359375 -3.15625 8.863281 -3.453125 9.15625 -4.046875 C 9.445312 -4.648438 9.59375 -5.519531 9.59375 -6.65625 C 9.59375 -7.789062 9.441406 -8.644531 9.140625 -9.21875 C 8.847656 -9.800781 8.34375 -10.09375 7.625 -10.09375 C 6.914062 -10.09375 6.410156 -9.804688 6.109375 -9.234375 C 5.804688 -8.660156 5.65625 -7.800781 5.65625 -6.65625 Z M 5.65625 -6.65625 "/></g></g><g transform="translate(177.103237, 62.848449)"><g><path d="M 9.953125 0 L 9.953125 -7.234375 C 9.953125 -8.117188 9.820312 -8.785156 9.5625 -9.234375 C 9.3125 -9.679688 8.90625 -9.90625 8.34375 -9.90625 C 7.570312 -9.90625 7.015625 -9.597656 6.671875 -8.984375 C 6.328125 -8.367188 6.15625 -7.3125 6.15625 -5.8125 L 6.15625 0 L 1.578125 0 L 1.578125 -13.265625 L 5.03125 -13.265625 L 5.609375 -11.625 L 5.875 -11.625 C 6.269531 -12.25 6.8125 -12.71875 7.5 -13.03125 C 8.1875 -13.34375 8.984375 -13.5 9.890625 -13.5 C 11.347656 -13.5 12.484375 -13.070312 13.296875 -12.21875 C 14.117188 -11.375 14.53125 -10.175781 14.53125 -8.625 L 14.53125 0 Z M 9.953125 0 "/></g></g></g></svg>