<svg xmlns="http://www.w3.org/2000/svg" xmlns:xlink="http://www.w3.org/1999/xlink" width="300" zoomAndPan="magnify" viewBox="0 0 224.87999 119.999999" height="160" preserveAspectRatio="xMidYMid meet" version="1.0"><defs><g/><clipPath id="8e80d04a6d"><path d="M 0 0.03125 L 224.761719 0.03125 L 224.761719 119.96875 L 0 119.96875 Z M 0 0.03125 " clip-rule="nonzero"/></clipPath><clipPath id="598153ce73"><path d="M 0 0.03125 L 224.761719 0.03125 L 224.761719 119.96875 L 0 119.96875 Z M 0 0.03125 " clip-rule="nonzero"/></clipPath><clipPath id="cd113531bb"><path d="M 5.996094 -0.480469 L 218.882812 -0.480469 C 222.195312 -0.480469 224.878906 2.207031 224.878906 5.519531 L 224.878906 114.480469 C 224.878906 117.792969 222.195312 120.480469 218.882812 120.480469 L 5.996094 120.480469 C 2.683594 120.480469 0 117.792969 0 114.480469 L 0 5.519531 C 0 2.207031 2.683594 -0.480469 5.996094 -0.480469 " clip-rule="nonzero"/></clipPath></defs><g clip-path="url(#8e80d04a6d)"><path fill="#ffffff" d="M 0 0.03125 L 224.878906 0.03125 L 224.878906 127.464844 L 0 127.464844 Z M 0 0.03125 " fill-opacity="1" fill-rule="nonzero"/><path fill="#ffffff" d="M 0 0.03125 L 224.878906 0.03125 L 224.878906 119.96875 L 0 119.96875 Z M 0 0.03125 " fill-opacity="1" fill-rule="nonzero"/><path fill="#ffffff" d="M 0 0.03125 L 224.878906 0.03125 L 224.878906 119.96875 L 0 119.96875 Z M 0 0.03125 " fill-opacity="1" fill-rule="nonzero"/></g><g clip-path="url(#598153ce73)"><g clip-path="url(#cd113531bb)"><path fill="#233f93" d="M 0 -0.480469 L 224.878906 -0.480469 L 224.878906 120.480469 L 0 120.480469 Z M 0 -0.480469 " fill-opacity="1" fill-rule="nonzero"/></g></g><g fill="#ffffff" fill-opacity="1"><g transform="translate(53.548085, 54.752799)"><g><path d="M 7.15625 -10.703125 L 10.390625 -10.703125 L 6.890625 0 L 3.484375 0 L 0 -10.703125 L 3.25 -10.703125 L 4.703125 -5.28125 C 5.003906 -4.070312 5.171875 -3.234375 5.203125 -2.765625 C 5.234375 -3.097656 5.300781 -3.519531 5.40625 -4.03125 C 5.507812 -4.550781 5.597656 -4.957031 5.671875 -5.25 Z M 7.15625 -10.703125 "/></g></g><g transform="translate(63.950248, 54.752799)"><g><path d="M 3.859375 0 L 1 0 L 1 -8.296875 L 3.859375 -8.296875 Z M 0.921875 -10.359375 C 0.921875 -10.785156 1.039062 -11.101562 1.28125 -11.3125 C 1.519531 -11.519531 1.90625 -11.625 2.4375 -11.625 C 2.96875 -11.625 3.351562 -11.515625 3.59375 -11.296875 C 3.84375 -11.085938 3.96875 -10.773438 3.96875 -10.359375 C 3.96875 -9.515625 3.457031 -9.09375 2.4375 -9.09375 C 1.425781 -9.09375 0.921875 -9.515625 0.921875 -10.359375 Z M 0.921875 -10.359375 "/></g></g><g transform="translate(68.825576, 54.752799)"><g><path d="M 4.984375 0.140625 C 3.609375 0.140625 2.535156 -0.222656 1.765625 -0.953125 C 1.003906 -1.691406 0.625 -2.738281 0.625 -4.09375 C 0.625 -5.488281 0.976562 -6.5625 1.6875 -7.3125 C 2.394531 -8.0625 3.40625 -8.4375 4.71875 -8.4375 C 5.96875 -8.4375 6.929688 -8.109375 7.609375 -7.453125 C 8.296875 -6.804688 8.640625 -5.867188 8.640625 -4.640625 L 8.640625 -3.375 L 3.515625 -3.375 C 3.535156 -2.90625 3.703125 -2.539062 4.015625 -2.28125 C 4.335938 -2.019531 4.773438 -1.890625 5.328125 -1.890625 C 5.835938 -1.890625 6.300781 -1.9375 6.71875 -2.03125 C 7.144531 -2.125 7.601562 -2.285156 8.09375 -2.515625 L 8.09375 -0.46875 C 7.644531 -0.226562 7.179688 -0.0664062 6.703125 0.015625 C 6.222656 0.0976562 5.648438 0.140625 4.984375 0.140625 Z M 4.828125 -6.484375 C 4.484375 -6.484375 4.195312 -6.378906 3.96875 -6.171875 C 3.75 -5.960938 3.617188 -5.628906 3.578125 -5.171875 L 6.03125 -5.171875 C 6.019531 -5.566406 5.90625 -5.882812 5.6875 -6.125 C 5.476562 -6.363281 5.191406 -6.484375 4.828125 -6.484375 Z M 4.828125 -6.484375 "/></g></g><g transform="translate(78.093091, 54.752799)"><g/></g><g transform="translate(81.987497, 54.752799)"><g><path d="M 6.390625 0 L 5.84375 -1.09375 L 5.78125 -1.09375 C 5.394531 -0.613281 5.003906 -0.285156 4.609375 -0.109375 C 4.210938 0.0546875 3.695312 0.140625 3.0625 0.140625 C 2.28125 0.140625 1.664062 -0.09375 1.21875 -0.5625 C 0.769531 -1.03125 0.546875 -1.6875 0.546875 -2.53125 C 0.546875 -3.414062 0.851562 -4.070312 1.46875 -4.5 C 2.082031 -4.9375 2.972656 -5.179688 4.140625 -5.234375 L 5.515625 -5.28125 L 5.515625 -5.390625 C 5.515625 -6.078125 5.175781 -6.421875 4.5 -6.421875 C 3.894531 -6.421875 3.128906 -6.210938 2.203125 -5.796875 L 1.375 -7.6875 C 2.34375 -8.1875 3.5625 -8.4375 5.03125 -8.4375 C 6.09375 -8.4375 6.914062 -8.171875 7.5 -7.640625 C 8.082031 -7.117188 8.375 -6.382812 8.375 -5.4375 L 8.375 0 Z M 4.265625 -1.875 C 4.617188 -1.875 4.914062 -1.984375 5.15625 -2.203125 C 5.40625 -2.421875 5.53125 -2.707031 5.53125 -3.0625 L 5.53125 -3.703125 L 4.875 -3.671875 C 3.925781 -3.640625 3.453125 -3.296875 3.453125 -2.640625 C 3.453125 -2.128906 3.722656 -1.875 4.265625 -1.875 Z M 4.265625 -1.875 "/></g></g><g transform="translate(91.328215, 54.752799)"><g><path d="M 6.046875 -6.140625 L 4.28125 -6.140625 L 4.28125 0 L 1.421875 0 L 1.421875 -6.140625 L 0.328125 -6.140625 L 0.328125 -7.546875 L 1.484375 -8.25 L 1.484375 -8.390625 C 1.484375 -9.484375 1.707031 -10.269531 2.15625 -10.75 C 2.601562 -11.226562 3.316406 -11.46875 4.296875 -11.46875 C 4.679688 -11.46875 5.039062 -11.4375 5.375 -11.375 C 5.71875 -11.320312 6.113281 -11.21875 6.5625 -11.0625 L 5.953125 -9.21875 C 5.597656 -9.3125 5.253906 -9.359375 4.921875 -9.359375 C 4.703125 -9.359375 4.539062 -9.289062 4.4375 -9.15625 C 4.332031 -9.03125 4.28125 -8.816406 4.28125 -8.515625 L 4.28125 -8.296875 L 6.046875 -8.296875 Z M 6.046875 -6.140625 "/></g></g><g transform="translate(97.521199, 54.752799)"><g><path d="M 6.046875 -6.140625 L 4.28125 -6.140625 L 4.28125 0 L 1.421875 0 L 1.421875 -6.140625 L 0.328125 -6.140625 L 0.328125 -7.546875 L 1.484375 -8.25 L 1.484375 -8.390625 C 1.484375 -9.484375 1.707031 -10.269531 2.15625 -10.75 C 2.601562 -11.226562 3.316406 -11.46875 4.296875 -11.46875 C 4.679688 -11.46875 5.039062 -11.4375 5.375 -11.375 C 5.71875 -11.320312 6.113281 -11.21875 6.5625 -11.0625 L 5.953125 -9.21875 C 5.597656 -9.3125 5.253906 -9.359375 4.921875 -9.359375 C 4.703125 -9.359375 4.539062 -9.289062 4.4375 -9.15625 C 4.332031 -9.03125 4.28125 -8.816406 4.28125 -8.515625 L 4.28125 -8.296875 L 6.046875 -8.296875 Z M 6.046875 -6.140625 "/></g></g><g transform="translate(103.714182, 54.752799)"><g><path d="M 4.984375 0.140625 C 3.609375 0.140625 2.535156 -0.222656 1.765625 -0.953125 C 1.003906 -1.691406 0.625 -2.738281 0.625 -4.09375 C 0.625 -5.488281 0.976562 -6.5625 1.6875 -7.3125 C 2.394531 -8.0625 3.40625 -8.4375 4.71875 -8.4375 C 5.96875 -8.4375 6.929688 -8.109375 7.609375 -7.453125 C 8.296875 -6.804688 8.640625 -5.867188 8.640625 -4.640625 L 8.640625 -3.375 L 3.515625 -3.375 C 3.535156 -2.90625 3.703125 -2.539062 4.015625 -2.28125 C 4.335938 -2.019531 4.773438 -1.890625 5.328125 -1.890625 C 5.835938 -1.890625 6.300781 -1.9375 6.71875 -2.03125 C 7.144531 -2.125 7.601562 -2.285156 8.09375 -2.515625 L 8.09375 -0.46875 C 7.644531 -0.226562 7.179688 -0.0664062 6.703125 0.015625 C 6.222656 0.0976562 5.648438 0.140625 4.984375 0.140625 Z M 4.828125 -6.484375 C 4.484375 -6.484375 4.195312 -6.378906 3.96875 -6.171875 C 3.75 -5.960938 3.617188 -5.628906 3.578125 -5.171875 L 6.03125 -5.171875 C 6.019531 -5.566406 5.90625 -5.882812 5.6875 -6.125 C 5.476562 -6.363281 5.191406 -6.484375 4.828125 -6.484375 Z M 4.828125 -6.484375 "/></g></g><g transform="translate(112.981697, 54.752799)"><g><path d="M 4.765625 0.140625 C 3.410156 0.140625 2.378906 -0.222656 1.671875 -0.953125 C 0.972656 -1.679688 0.625 -2.734375 0.625 -4.109375 C 0.625 -5.484375 1 -6.546875 1.75 -7.296875 C 2.507812 -8.054688 3.585938 -8.4375 4.984375 -8.4375 C 5.953125 -8.4375 6.859375 -8.226562 7.703125 -7.8125 L 6.859375 -5.6875 C 6.515625 -5.84375 6.195312 -5.960938 5.90625 -6.046875 C 5.613281 -6.140625 5.304688 -6.1875 4.984375 -6.1875 C 4.523438 -6.1875 4.164062 -6.003906 3.90625 -5.640625 C 3.65625 -5.285156 3.53125 -4.78125 3.53125 -4.125 C 3.53125 -2.789062 4.019531 -2.125 5 -2.125 C 5.84375 -2.125 6.648438 -2.367188 7.421875 -2.859375 L 7.421875 -0.578125 C 6.679688 -0.0976562 5.796875 0.140625 4.765625 0.140625 Z M 4.765625 0.140625 "/></g></g><g transform="translate(121.063322, 54.752799)"><g><path d="M 5.046875 -2.109375 C 5.429688 -2.109375 5.894531 -2.207031 6.4375 -2.40625 L 6.4375 -0.3125 C 6.050781 -0.144531 5.679688 -0.03125 5.328125 0.03125 C 4.984375 0.101562 4.578125 0.140625 4.109375 0.140625 C 3.140625 0.140625 2.441406 -0.09375 2.015625 -0.5625 C 1.597656 -1.03125 1.390625 -1.753906 1.390625 -2.734375 L 1.390625 -6.140625 L 0.390625 -6.140625 L 0.390625 -7.3125 L 1.65625 -8.203125 L 2.40625 -9.953125 L 4.265625 -9.953125 L 4.265625 -8.296875 L 6.3125 -8.296875 L 6.3125 -6.140625 L 4.265625 -6.140625 L 4.265625 -2.921875 C 4.265625 -2.378906 4.523438 -2.109375 5.046875 -2.109375 Z M 5.046875 -2.109375 "/></g></g><g transform="translate(127.959055, 54.752799)"><g><path d="M 3.859375 0 L 1 0 L 1 -8.296875 L 3.859375 -8.296875 Z M 0.921875 -10.359375 C 0.921875 -10.785156 1.039062 -11.101562 1.28125 -11.3125 C 1.519531 -11.519531 1.90625 -11.625 2.4375 -11.625 C 2.96875 -11.625 3.351562 -11.515625 3.59375 -11.296875 C 3.84375 -11.085938 3.96875 -10.773438 3.96875 -10.359375 C 3.96875 -9.515625 3.457031 -9.09375 2.4375 -9.09375 C 1.425781 -9.09375 0.921875 -9.515625 0.921875 -10.359375 Z M 0.921875 -10.359375 "/></g></g><g transform="translate(132.834383, 54.752799)"><g><path d="M 3.15625 0 L 0 -8.296875 L 2.984375 -8.296875 L 4.390625 -3.390625 C 4.390625 -3.359375 4.394531 -3.3125 4.40625 -3.25 C 4.425781 -3.195312 4.441406 -3.128906 4.453125 -3.046875 C 4.472656 -2.972656 4.488281 -2.890625 4.5 -2.796875 C 4.507812 -2.703125 4.515625 -2.617188 4.515625 -2.546875 L 4.578125 -2.546875 C 4.578125 -2.796875 4.617188 -3.070312 4.703125 -3.375 L 6.171875 -8.296875 L 9.15625 -8.296875 L 6 0 Z M 3.15625 0 "/></g></g><g transform="translate(141.992093, 54.752799)"><g><path d="M 4.984375 0.140625 C 3.609375 0.140625 2.535156 -0.222656 1.765625 -0.953125 C 1.003906 -1.691406 0.625 -2.738281 0.625 -4.09375 C 0.625 -5.488281 0.976562 -6.5625 1.6875 -7.3125 C 2.394531 -8.0625 3.40625 -8.4375 4.71875 -8.4375 C 5.96875 -8.4375 6.929688 -8.109375 7.609375 -7.453125 C 8.296875 -6.804688 8.640625 -5.867188 8.640625 -4.640625 L 8.640625 -3.375 L 3.515625 -3.375 C 3.535156 -2.90625 3.703125 -2.539062 4.015625 -2.28125 C 4.335938 -2.019531 4.773438 -1.890625 5.328125 -1.890625 C 5.835938 -1.890625 6.300781 -1.9375 6.71875 -2.03125 C 7.144531 -2.125 7.601562 -2.285156 8.09375 -2.515625 L 8.09375 -0.46875 C 7.644531 -0.226562 7.179688 -0.0664062 6.703125 0.015625 C 6.222656 0.0976562 5.648438 0.140625 4.984375 0.140625 Z M 4.828125 -6.484375 C 4.484375 -6.484375 4.195312 -6.378906 3.96875 -6.171875 C 3.75 -5.960938 3.617188 -5.628906 3.578125 -5.171875 L 6.03125 -5.171875 C 6.019531 -5.566406 5.90625 -5.882812 5.6875 -6.125 C 5.476562 -6.363281 5.191406 -6.484375 4.828125 -6.484375 Z M 4.828125 -6.484375 "/></g></g><g transform="translate(151.259608, 54.752799)"><g/></g><g transform="translate(155.154014, 54.752799)"><g><path d="M 4.984375 0.140625 C 3.609375 0.140625 2.535156 -0.222656 1.765625 -0.953125 C 1.003906 -1.691406 0.625 -2.738281 0.625 -4.09375 C 0.625 -5.488281 0.976562 -6.5625 1.6875 -7.3125 C 2.394531 -8.0625 3.40625 -8.4375 4.71875 -8.4375 C 5.96875 -8.4375 6.929688 -8.109375 7.609375 -7.453125 C 8.296875 -6.804688 8.640625 -5.867188 8.640625 -4.640625 L 8.640625 -3.375 L 3.515625 -3.375 C 3.535156 -2.90625 3.703125 -2.539062 4.015625 -2.28125 C 4.335938 -2.019531 4.773438 -1.890625 5.328125 -1.890625 C 5.835938 -1.890625 6.300781 -1.9375 6.71875 -2.03125 C 7.144531 -2.125 7.601562 -2.285156 8.09375 -2.515625 L 8.09375 -0.46875 C 7.644531 -0.226562 7.179688 -0.0664062 6.703125 0.015625 C 6.222656 0.0976562 5.648438 0.140625 4.984375 0.140625 Z M 4.828125 -6.484375 C 4.484375 -6.484375 4.195312 -6.378906 3.96875 -6.171875 C 3.75 -5.960938 3.617188 -5.628906 3.578125 -5.171875 L 6.03125 -5.171875 C 6.019531 -5.566406 5.90625 -5.882812 5.6875 -6.125 C 5.476562 -6.363281 5.191406 -6.484375 4.828125 -6.484375 Z M 4.828125 -6.484375 "/></g></g><g transform="translate(164.421529, 54.752799)"><g><path d="M 5.046875 -2.109375 C 5.429688 -2.109375 5.894531 -2.207031 6.4375 -2.40625 L 6.4375 -0.3125 C 6.050781 -0.144531 5.679688 -0.03125 5.328125 0.03125 C 4.984375 0.101562 4.578125 0.140625 4.109375 0.140625 C 3.140625 0.140625 2.441406 -0.09375 2.015625 -0.5625 C 1.597656 -1.03125 1.390625 -1.753906 1.390625 -2.734375 L 1.390625 -6.140625 L 0.390625 -6.140625 L 0.390625 -7.3125 L 1.65625 -8.203125 L 2.40625 -9.953125 L 4.265625 -9.953125 L 4.265625 -8.296875 L 6.3125 -8.296875 L 6.3125 -6.140625 L 4.265625 -6.140625 L 4.265625 -2.921875 C 4.265625 -2.378906 4.523438 -2.109375 5.046875 -2.109375 Z M 5.046875 -2.109375 "/></g></g></g><g fill="#ffffff" fill-opacity="1"><g transform="translate(79.948058, 75.741597)"><g><path d="M 7.390625 -2.546875 C 7.390625 -1.660156 7.085938 -0.988281 6.484375 -0.53125 C 5.878906 -0.0820312 5.007812 0.140625 3.875 0.140625 C 3.257812 0.140625 2.722656 0.109375 2.265625 0.046875 C 1.816406 -0.015625 1.359375 -0.132812 0.890625 -0.3125 L 0.890625 -2.609375 C 1.328125 -2.410156 1.8125 -2.25 2.34375 -2.125 C 2.875 -2 3.347656 -1.9375 3.765625 -1.9375 C 4.378906 -1.9375 4.6875 -2.078125 4.6875 -2.359375 C 4.6875 -2.503906 4.597656 -2.632812 4.421875 -2.75 C 4.253906 -2.863281 3.753906 -3.085938 2.921875 -3.421875 C 2.160156 -3.734375 1.628906 -4.085938 1.328125 -4.484375 C 1.023438 -4.878906 0.875 -5.382812 0.875 -6 C 0.875 -6.757812 1.171875 -7.351562 1.765625 -7.78125 C 2.359375 -8.21875 3.195312 -8.4375 4.28125 -8.4375 C 4.832031 -8.4375 5.347656 -8.375 5.828125 -8.25 C 6.304688 -8.132812 6.804688 -7.960938 7.328125 -7.734375 L 6.546875 -5.890625 C 6.171875 -6.054688 5.769531 -6.195312 5.34375 -6.3125 C 4.914062 -6.4375 4.566406 -6.5 4.296875 -6.5 C 3.828125 -6.5 3.59375 -6.382812 3.59375 -6.15625 C 3.59375 -6.019531 3.675781 -5.898438 3.84375 -5.796875 C 4.007812 -5.691406 4.484375 -5.488281 5.265625 -5.1875 C 5.835938 -4.945312 6.265625 -4.710938 6.546875 -4.484375 C 6.835938 -4.253906 7.050781 -3.984375 7.1875 -3.671875 C 7.320312 -3.367188 7.390625 -2.992188 7.390625 -2.546875 Z M 7.390625 -2.546875 "/></g></g><g transform="translate(87.941838, 75.741597)"><g><path d="M 4.984375 0.140625 C 3.609375 0.140625 2.535156 -0.222656 1.765625 -0.953125 C 1.003906 -1.691406 0.625 -2.738281 0.625 -4.09375 C 0.625 -5.488281 0.976562 -6.5625 1.6875 -7.3125 C 2.394531 -8.0625 3.40625 -8.4375 4.71875 -8.4375 C 5.96875 -8.4375 6.929688 -8.109375 7.609375 -7.453125 C 8.296875 -6.804688 8.640625 -5.867188 8.640625 -4.640625 L 8.640625 -3.375 L 3.515625 -3.375 C 3.535156 -2.90625 3.703125 -2.539062 4.015625 -2.28125 C 4.335938 -2.019531 4.773438 -1.890625 5.328125 -1.890625 C 5.835938 -1.890625 6.300781 -1.9375 6.71875 -2.03125 C 7.144531 -2.125 7.601562 -2.285156 8.09375 -2.515625 L 8.09375 -0.46875 C 7.644531 -0.226562 7.179688 -0.0664062 6.703125 0.015625 C 6.222656 0.0976562 5.648438 0.140625 4.984375 0.140625 Z M 4.828125 -6.484375 C 4.484375 -6.484375 4.195312 -6.378906 3.96875 -6.171875 C 3.75 -5.960938 3.617188 -5.628906 3.578125 -5.171875 L 6.03125 -5.171875 C 6.019531 -5.566406 5.90625 -5.882812 5.6875 -6.125 C 5.476562 -6.363281 5.191406 -6.484375 4.828125 -6.484375 Z M 4.828125 -6.484375 "/></g></g><g transform="translate(97.209353, 75.741597)"><g><path d="M 2.75 -4.234375 L 0.21875 -8.296875 L 3.453125 -8.296875 L 4.71875 -5.96875 L 6 -8.296875 L 9.265625 -8.296875 L 6.671875 -4.234375 L 9.359375 0 L 6.109375 0 L 4.71875 -2.515625 L 3.328125 0 L 0.078125 0 Z M 2.75 -4.234375 "/></g></g><g transform="translate(106.652555, 75.741597)"><g><path d="M 6.890625 0 L 6.53125 -1.03125 L 6.359375 -1.03125 C 6.117188 -0.65625 5.785156 -0.363281 5.359375 -0.15625 C 4.929688 0.0390625 4.429688 0.140625 3.859375 0.140625 C 2.953125 0.140625 2.242188 -0.117188 1.734375 -0.640625 C 1.222656 -1.171875 0.96875 -1.921875 0.96875 -2.890625 L 0.96875 -8.296875 L 3.828125 -8.296875 L 3.828125 -3.765625 C 3.828125 -3.222656 3.90625 -2.8125 4.0625 -2.53125 C 4.21875 -2.25 4.472656 -2.109375 4.828125 -2.109375 C 5.316406 -2.109375 5.664062 -2.300781 5.875 -2.6875 C 6.082031 -3.082031 6.1875 -3.738281 6.1875 -4.65625 L 6.1875 -8.296875 L 9.046875 -8.296875 L 9.046875 0 Z M 6.890625 0 "/></g></g><g transform="translate(116.696023, 75.741597)"><g><path d="M 4.984375 0.140625 C 3.609375 0.140625 2.535156 -0.222656 1.765625 -0.953125 C 1.003906 -1.691406 0.625 -2.738281 0.625 -4.09375 C 0.625 -5.488281 0.976562 -6.5625 1.6875 -7.3125 C 2.394531 -8.0625 3.40625 -8.4375 4.71875 -8.4375 C 5.96875 -8.4375 6.929688 -8.109375 7.609375 -7.453125 C 8.296875 -6.804688 8.640625 -5.867188 8.640625 -4.640625 L 8.640625 -3.375 L 3.515625 -3.375 C 3.535156 -2.90625 3.703125 -2.539062 4.015625 -2.28125 C 4.335938 -2.019531 4.773438 -1.890625 5.328125 -1.890625 C 5.835938 -1.890625 6.300781 -1.9375 6.71875 -2.03125 C 7.144531 -2.125 7.601562 -2.285156 8.09375 -2.515625 L 8.09375 -0.46875 C 7.644531 -0.226562 7.179688 -0.0664062 6.703125 0.015625 C 6.222656 0.0976562 5.648438 0.140625 4.984375 0.140625 Z M 4.828125 -6.484375 C 4.484375 -6.484375 4.195312 -6.378906 3.96875 -6.171875 C 3.75 -5.960938 3.617188 -5.628906 3.578125 -5.171875 L 6.03125 -5.171875 C 6.019531 -5.566406 5.90625 -5.882812 5.6875 -6.125 C 5.476562 -6.363281 5.191406 -6.484375 4.828125 -6.484375 Z M 4.828125 -6.484375 "/></g></g><g transform="translate(125.963538, 75.741597)"><g><path d="M 3.84375 0 L 0.984375 0 L 0.984375 -11.390625 L 3.84375 -11.390625 Z M 3.84375 0 "/></g></g><g transform="translate(130.809585, 75.741597)"><g><path d="M 3.84375 0 L 0.984375 0 L 0.984375 -11.390625 L 3.84375 -11.390625 Z M 3.84375 0 "/></g></g><g transform="translate(135.655631, 75.741597)"><g><path d="M 4.984375 0.140625 C 3.609375 0.140625 2.535156 -0.222656 1.765625 -0.953125 C 1.003906 -1.691406 0.625 -2.738281 0.625 -4.09375 C 0.625 -5.488281 0.976562 -6.5625 1.6875 -7.3125 C 2.394531 -8.0625 3.40625 -8.4375 4.71875 -8.4375 C 5.96875 -8.4375 6.929688 -8.109375 7.609375 -7.453125 C 8.296875 -6.804688 8.640625 -5.867188 8.640625 -4.640625 L 8.640625 -3.375 L 3.515625 -3.375 C 3.535156 -2.90625 3.703125 -2.539062 4.015625 -2.28125 C 4.335938 -2.019531 4.773438 -1.890625 5.328125 -1.890625 C 5.835938 -1.890625 6.300781 -1.9375 6.71875 -2.03125 C 7.144531 -2.125 7.601562 -2.285156 8.09375 -2.515625 L 8.09375 -0.46875 C 7.644531 -0.226562 7.179688 -0.0664062 6.703125 0.015625 C 6.222656 0.0976562 5.648438 0.140625 4.984375 0.140625 Z M 4.828125 -6.484375 C 4.484375 -6.484375 4.195312 -6.378906 3.96875 -6.171875 C 3.75 -5.960938 3.617188 -5.628906 3.578125 -5.171875 L 6.03125 -5.171875 C 6.019531 -5.566406 5.90625 -5.882812 5.6875 -6.125 C 5.476562 -6.363281 5.191406 -6.484375 4.828125 -6.484375 Z M 4.828125 -6.484375 "/></g></g></g></svg>