<svg xmlns="http://www.w3.org/2000/svg" xmlns:xlink="http://www.w3.org/1999/xlink" width="650" zoomAndPan="magnify" viewBox="0 0 487.5 187.499995" height="250" preserveAspectRatio="xMidYMid meet" version="1.0"><defs><g/><clipPath id="a2203bd360"><path d="M 0.398438 0 L 486.601562 0 L 486.601562 187 L 0.398438 187 Z M 0.398438 0 " clip-rule="nonzero"/></clipPath><clipPath id="493802f686"><path d="M 0.398438 0 L 263.699219 0 L 263.699219 187 L 0.398438 187 Z M 0.398438 0 " clip-rule="nonzero"/></clipPath><clipPath id="2c5fe602df"><path d="M 75.59375 -113.789062 C -28.058594 -113.789062 -112.085938 -38.359375 -112.085938 54.691406 C -112.085938 147.738281 -28.058594 223.167969 75.59375 223.167969 C 179.246094 223.167969 263.269531 147.738281 263.269531 54.691406 C 263.269531 -38.359375 179.246094 -113.789062 75.59375 -113.789062 " clip-rule="nonzero"/></clipPath><clipPath id="76ccb46781"><path d="M 235.527344 40.355469 L 486.601562 40.355469 L 486.601562 187 L 235.527344 187 Z M 235.527344 40.355469 " clip-rule="nonzero"/></clipPath><clipPath id="ff0f7944dd"><path d="M 423.207031 40.355469 C 319.554688 40.355469 235.527344 115.789062 235.527344 208.835938 C 235.527344 301.882812 319.554688 377.3125 423.207031 377.3125 C 526.859375 377.3125 610.882812 301.882812 610.882812 208.835938 C 610.882812 115.789062 526.859375 40.355469 423.207031 40.355469 " clip-rule="nonzero"/></clipPath></defs><g clip-path="url(#a2203bd360)"><path fill="#ffffff" d="M 0.398438 0 L 487.101562 0 L 487.101562 193.933594 L 0.398438 193.933594 Z M 0.398438 0 " fill-opacity="1" fill-rule="nonzero"/><path fill="#ffffff" d="M 0.398438 0 L 487.101562 0 L 487.101562 187.191406 L 0.398438 187.191406 Z M 0.398438 0 " fill-opacity="1" fill-rule="nonzero"/><path fill="#ffffff" d="M 0.398438 0 L 487.101562 0 L 487.101562 187.191406 L 0.398438 187.191406 Z M 0.398438 0 " fill-opacity="1" fill-rule="nonzero"/></g><g clip-path="url(#493802f686)"><g clip-path="url(#2c5fe602df)"><path fill="#4ebcc2" d="M -112.085938 -113.789062 L 263.042969 -113.789062 L 263.042969 223.167969 L -112.085938 223.167969 Z M -112.085938 -113.789062 " fill-opacity="1" fill-rule="nonzero"/></g></g><g clip-path="url(#76ccb46781)"><g clip-path="url(#ff0f7944dd)"><path fill="#fecb37" d="M 235.527344 40.355469 L 610.65625 40.355469 L 610.65625 377.3125 L 235.527344 377.3125 Z M 235.527344 40.355469 " fill-opacity="1" fill-rule="nonzero"/></g></g><g fill="#000000" fill-opacity="1"><g transform="translate(63.154112, 91.401189)"><g><path d="M 0.859375 -14.21875 C 0.859375 -15.925781 1.160156 -17.609375 1.765625 -19.265625 C 2.367188 -20.921875 3.253906 -22.40625 4.421875 -23.71875 C 5.597656 -25.03125 7.019531 -26.09375 8.6875 -26.90625 C 10.351562 -27.726562 12.253906 -28.140625 14.390625 -28.140625 C 16.878906 -28.140625 19.054688 -27.578125 20.921875 -26.453125 C 22.785156 -25.335938 24.164062 -23.863281 25.0625 -22.03125 L 19.1875 -17.84375 C 18.957031 -18.53125 18.648438 -19.097656 18.265625 -19.546875 C 17.878906 -19.992188 17.460938 -20.347656 17.015625 -20.609375 C 16.578125 -20.867188 16.109375 -21.050781 15.609375 -21.15625 C 15.109375 -21.257812 14.644531 -21.3125 14.21875 -21.3125 C 13.25 -21.3125 12.414062 -21.09375 11.71875 -20.65625 C 11.019531 -20.226562 10.441406 -19.664062 9.984375 -18.96875 C 9.523438 -18.28125 9.191406 -17.492188 8.984375 -16.609375 C 8.773438 -15.734375 8.671875 -14.859375 8.671875 -13.984375 C 8.671875 -13.015625 8.796875 -12.082031 9.046875 -11.1875 C 9.296875 -10.300781 9.660156 -9.515625 10.140625 -8.828125 C 10.628906 -8.140625 11.222656 -7.59375 11.921875 -7.1875 C 12.617188 -6.78125 13.410156 -6.578125 14.296875 -6.578125 C 14.742188 -6.578125 15.203125 -6.632812 15.671875 -6.75 C 16.148438 -6.875 16.601562 -7.070312 17.03125 -7.34375 C 17.46875 -7.625 17.863281 -7.976562 18.21875 -8.40625 C 18.570312 -8.84375 18.859375 -9.378906 19.078125 -10.015625 L 25.34375 -6.265625 C 24.945312 -5.242188 24.347656 -4.320312 23.546875 -3.5 C 22.742188 -2.6875 21.828125 -2.003906 20.796875 -1.453125 C 19.773438 -0.898438 18.6875 -0.476562 17.53125 -0.1875 C 16.375 0.09375 15.242188 0.234375 14.140625 0.234375 C 12.203125 0.234375 10.414062 -0.175781 8.78125 -1 C 7.15625 -1.832031 5.757812 -2.929688 4.59375 -4.296875 C 3.425781 -5.660156 2.507812 -7.207031 1.84375 -8.9375 C 1.1875 -10.675781 0.859375 -12.4375 0.859375 -14.21875 Z M 0.859375 -14.21875 "/></g></g></g><g fill="#000000" fill-opacity="1"><g transform="translate(88.956199, 91.401189)"><g><path d="M 12.09375 0.390625 C 10.226562 0.390625 8.59375 0.0976562 7.1875 -0.484375 C 5.78125 -1.078125 4.597656 -1.863281 3.640625 -2.84375 C 2.679688 -3.832031 1.957031 -4.976562 1.46875 -6.28125 C 0.988281 -7.582031 0.75 -8.941406 0.75 -10.359375 C 0.75 -11.773438 0.988281 -13.132812 1.46875 -14.4375 C 1.957031 -15.738281 2.679688 -16.878906 3.640625 -17.859375 C 4.597656 -18.847656 5.78125 -19.640625 7.1875 -20.234375 C 8.59375 -20.828125 10.226562 -21.125 12.09375 -21.125 C 13.9375 -21.125 15.566406 -20.828125 16.984375 -20.234375 C 18.398438 -19.640625 19.585938 -18.847656 20.546875 -17.859375 C 21.503906 -16.878906 22.226562 -15.738281 22.71875 -14.4375 C 23.207031 -13.132812 23.453125 -11.773438 23.453125 -10.359375 C 23.453125 -8.941406 23.207031 -7.582031 22.71875 -6.28125 C 22.226562 -4.976562 21.503906 -3.832031 20.546875 -2.84375 C 19.585938 -1.863281 18.398438 -1.078125 16.984375 -0.484375 C 15.566406 0.0976562 13.9375 0.390625 12.09375 0.390625 Z M 8.4375 -10.359375 C 8.4375 -8.972656 8.773438 -7.882812 9.453125 -7.09375 C 10.140625 -6.300781 11.019531 -5.90625 12.09375 -5.90625 C 13.175781 -5.90625 14.054688 -6.300781 14.734375 -7.09375 C 15.421875 -7.882812 15.765625 -8.972656 15.765625 -10.359375 C 15.765625 -11.753906 15.421875 -12.84375 14.734375 -13.625 C 14.054688 -14.414062 13.175781 -14.8125 12.09375 -14.8125 C 11.019531 -14.8125 10.140625 -14.414062 9.453125 -13.625 C 8.773438 -12.84375 8.4375 -11.753906 8.4375 -10.359375 Z M 8.4375 -10.359375 "/></g></g></g><g fill="#000000" fill-opacity="1"><g transform="translate(113.143196, 91.401189)"><g><path d="M 22.734375 0 L 15.25 0 L 15.25 -11.671875 C 15.25 -12.691406 15.019531 -13.429688 14.5625 -13.890625 C 14.101562 -14.347656 13.570312 -14.578125 12.96875 -14.578125 C 12.332031 -14.578125 11.660156 -14.300781 10.953125 -13.75 C 10.242188 -13.195312 9.71875 -12.488281 9.375 -11.625 L 9.375 0 L 1.890625 0 L 1.890625 -20.734375 L 8.625 -20.734375 L 8.625 -17.65625 C 9.363281 -18.78125 10.394531 -19.640625 11.71875 -20.234375 C 13.050781 -20.828125 14.625 -21.125 16.4375 -21.125 C 17.851562 -21.125 18.972656 -20.863281 19.796875 -20.34375 C 20.628906 -19.832031 21.257812 -19.195312 21.6875 -18.4375 C 22.125 -17.675781 22.40625 -16.863281 22.53125 -16 C 22.664062 -15.132812 22.734375 -14.347656 22.734375 -13.640625 Z M 22.734375 0 "/></g></g></g><g fill="#000000" fill-opacity="1"><g transform="translate(137.605944, 91.401189)"><g><path d="M 0.75 -10.359375 C 0.75 -11.773438 1 -13.132812 1.5 -14.4375 C 2 -15.738281 2.726562 -16.878906 3.6875 -17.859375 C 4.644531 -18.847656 5.832031 -19.640625 7.25 -20.234375 C 8.664062 -20.828125 10.296875 -21.125 12.140625 -21.125 C 14.660156 -21.125 16.765625 -20.597656 18.453125 -19.546875 C 20.148438 -18.492188 21.421875 -17.140625 22.265625 -15.484375 L 14.96875 -13.28125 C 14.257812 -14.300781 13.300781 -14.8125 12.09375 -14.8125 C 11.070312 -14.8125 10.207031 -14.421875 9.5 -13.640625 C 8.789062 -12.867188 8.4375 -11.773438 8.4375 -10.359375 C 8.4375 -8.941406 8.789062 -7.84375 9.5 -7.0625 C 10.207031 -6.289062 11.070312 -5.90625 12.09375 -5.90625 C 13.300781 -5.90625 14.257812 -6.421875 14.96875 -7.453125 L 22.265625 -5.234375 C 21.421875 -3.585938 20.148438 -2.238281 18.453125 -1.1875 C 16.765625 -0.132812 14.660156 0.390625 12.140625 0.390625 C 10.296875 0.390625 8.664062 0.0976562 7.25 -0.484375 C 5.832031 -1.078125 4.644531 -1.863281 3.6875 -2.84375 C 2.726562 -3.832031 2 -4.976562 1.5 -6.28125 C 1 -7.582031 0.75 -8.941406 0.75 -10.359375 Z M 0.75 -10.359375 "/></g></g></g><g fill="#000000" fill-opacity="1"><g transform="translate(160.296026, 91.401189)"><g><path d="M 12.09375 0.390625 C 10.28125 0.390625 8.664062 0.109375 7.25 -0.453125 C 5.832031 -1.015625 4.644531 -1.78125 3.6875 -2.75 C 2.726562 -3.726562 2 -4.847656 1.5 -6.109375 C 1 -7.367188 0.75 -8.695312 0.75 -10.09375 C 0.75 -11.582031 0.988281 -13 1.46875 -14.34375 C 1.957031 -15.6875 2.679688 -16.851562 3.640625 -17.84375 C 4.597656 -18.84375 5.78125 -19.640625 7.1875 -20.234375 C 8.59375 -20.828125 10.226562 -21.125 12.09375 -21.125 C 13.9375 -21.125 15.566406 -20.828125 16.984375 -20.234375 C 18.398438 -19.640625 19.585938 -18.847656 20.546875 -17.859375 C 21.503906 -16.878906 22.226562 -15.738281 22.71875 -14.4375 C 23.207031 -13.132812 23.453125 -11.773438 23.453125 -10.359375 C 23.453125 -9.960938 23.429688 -9.5625 23.390625 -9.15625 C 23.347656 -8.75 23.300781 -8.390625 23.25 -8.078125 L 8.703125 -8.078125 C 8.785156 -6.972656 9.191406 -6.175781 9.921875 -5.6875 C 10.660156 -5.207031 11.460938 -4.96875 12.328125 -4.96875 C 13.148438 -4.96875 13.921875 -5.148438 14.640625 -5.515625 C 15.359375 -5.878906 15.835938 -6.390625 16.078125 -7.046875 L 22.421875 -5.234375 C 21.578125 -3.585938 20.28125 -2.238281 18.53125 -1.1875 C 16.789062 -0.132812 14.644531 0.390625 12.09375 0.390625 Z M 15.40625 -12.578125 C 15.269531 -13.566406 14.898438 -14.347656 14.296875 -14.921875 C 13.691406 -15.503906 12.921875 -15.796875 11.984375 -15.796875 C 11.035156 -15.796875 10.257812 -15.503906 9.65625 -14.921875 C 9.050781 -14.347656 8.679688 -13.566406 8.546875 -12.578125 Z M 15.40625 -12.578125 "/></g></g></g><g fill="#000000" fill-opacity="1"><g transform="translate(184.325456, 91.401189)"><g><path d="M 15.84375 0.390625 C 14.34375 0.390625 13.039062 0.0976562 11.9375 -0.484375 C 10.832031 -1.078125 9.976562 -1.941406 9.375 -3.078125 L 9.375 8.390625 L 1.890625 8.390625 L 1.890625 -20.734375 L 8.390625 -20.734375 L 8.390625 -17.609375 C 9.128906 -18.742188 10.035156 -19.613281 11.109375 -20.21875 C 12.191406 -20.820312 13.519531 -21.125 15.09375 -21.125 C 16.457031 -21.125 17.726562 -20.851562 18.90625 -20.3125 C 20.09375 -19.769531 21.101562 -19.023438 21.9375 -18.078125 C 22.78125 -17.140625 23.445312 -16.015625 23.9375 -14.703125 C 24.425781 -13.390625 24.671875 -11.96875 24.671875 -10.4375 C 24.671875 -8.894531 24.445312 -7.457031 24 -6.125 C 23.550781 -4.800781 22.929688 -3.648438 22.140625 -2.671875 C 21.359375 -1.703125 20.425781 -0.945312 19.34375 -0.40625 C 18.269531 0.125 17.101562 0.390625 15.84375 0.390625 Z M 13.234375 -5.90625 C 13.785156 -5.90625 14.289062 -6.023438 14.75 -6.265625 C 15.21875 -6.503906 15.613281 -6.832031 15.9375 -7.25 C 16.269531 -7.664062 16.535156 -8.148438 16.734375 -8.703125 C 16.929688 -9.253906 17.03125 -9.847656 17.03125 -10.484375 C 17.03125 -11.796875 16.65625 -12.84375 15.90625 -13.625 C 15.15625 -14.414062 14.160156 -14.8125 12.921875 -14.8125 C 11.535156 -14.8125 10.351562 -14.101562 9.375 -12.6875 L 9.375 -9.109375 C 9.75 -8.179688 10.289062 -7.414062 11 -6.8125 C 11.707031 -6.207031 12.453125 -5.90625 13.234375 -5.90625 Z M 13.234375 -5.90625 "/></g></g></g><g fill="#000000" fill-opacity="1"><g transform="translate(209.773014, 91.401189)"><g><path d="M 16.4375 -1.140625 C 15.382812 -0.691406 14.257812 -0.316406 13.0625 -0.015625 C 11.863281 0.285156 10.6875 0.4375 9.53125 0.4375 C 8.695312 0.4375 7.894531 0.328125 7.125 0.109375 C 6.363281 -0.0976562 5.703125 -0.4375 5.140625 -0.90625 C 4.578125 -1.375 4.128906 -1.988281 3.796875 -2.75 C 3.472656 -3.519531 3.3125 -4.46875 3.3125 -5.59375 L 3.3125 -15.09375 L 0.75 -15.09375 L 0.75 -20.734375 L 3.3125 -20.734375 L 3.3125 -27.234375 L 10.796875 -27.234375 L 10.796875 -20.734375 L 14.859375 -20.734375 L 14.859375 -15.09375 L 10.796875 -15.09375 L 10.796875 -8.234375 C 10.796875 -7.554688 10.941406 -7.078125 11.234375 -6.796875 C 11.523438 -6.523438 11.914062 -6.390625 12.40625 -6.390625 C 12.78125 -6.390625 13.203125 -6.445312 13.671875 -6.5625 C 14.148438 -6.675781 14.625 -6.835938 15.09375 -7.046875 Z M 16.4375 -1.140625 "/></g></g></g><g fill="#000000" fill-opacity="1"><g transform="translate(226.47544, 91.401189)"><g><path d="M 11.109375 0.390625 C 10.242188 0.390625 9.3125 0.320312 8.3125 0.1875 C 7.3125 0.0625 6.332031 -0.101562 5.375 -0.3125 C 4.414062 -0.519531 3.488281 -0.773438 2.59375 -1.078125 C 1.707031 -1.378906 0.9375 -1.71875 0.28125 -2.09375 L 3.15625 -7.171875 C 4.59375 -6.410156 5.96875 -5.832031 7.28125 -5.4375 C 8.601562 -5.039062 9.828125 -4.84375 10.953125 -4.84375 C 12.265625 -4.84375 12.921875 -5.171875 12.921875 -5.828125 C 12.921875 -6.171875 12.65625 -6.472656 12.125 -6.734375 C 11.601562 -6.992188 10.609375 -7.3125 9.140625 -7.6875 C 7.671875 -8.082031 6.4375 -8.472656 5.4375 -8.859375 C 4.4375 -9.253906 3.632812 -9.695312 3.03125 -10.1875 C 2.425781 -10.675781 1.992188 -11.210938 1.734375 -11.796875 C 1.472656 -12.390625 1.34375 -13.082031 1.34375 -13.875 C 1.34375 -14.925781 1.554688 -15.894531 1.984375 -16.78125 C 2.421875 -17.675781 3.03125 -18.453125 3.8125 -19.109375 C 4.601562 -19.765625 5.546875 -20.269531 6.640625 -20.625 C 7.734375 -20.976562 8.921875 -21.15625 10.203125 -21.15625 C 11.597656 -21.15625 13.085938 -20.957031 14.671875 -20.5625 C 16.265625 -20.175781 17.890625 -19.601562 19.546875 -18.84375 L 16.671875 -14.0625 C 15.203125 -14.75 13.976562 -15.242188 13 -15.546875 C 12.03125 -15.847656 11.097656 -16 10.203125 -16 C 9.628906 -16 9.164062 -15.910156 8.8125 -15.734375 C 8.457031 -15.566406 8.28125 -15.300781 8.28125 -14.9375 C 8.28125 -14.726562 8.332031 -14.550781 8.4375 -14.40625 C 8.539062 -14.257812 8.722656 -14.117188 8.984375 -13.984375 C 9.242188 -13.859375 9.601562 -13.722656 10.0625 -13.578125 C 10.53125 -13.429688 11.101562 -13.28125 11.78125 -13.125 C 13.351562 -12.726562 14.675781 -12.3125 15.75 -11.875 C 16.832031 -11.445312 17.695312 -10.972656 18.34375 -10.453125 C 18.988281 -9.941406 19.445312 -9.363281 19.71875 -8.71875 C 20 -8.082031 20.140625 -7.34375 20.140625 -6.5 C 20.140625 -4.375 19.332031 -2.691406 17.71875 -1.453125 C 16.101562 -0.222656 13.898438 0.390625 11.109375 0.390625 Z M 11.109375 0.390625 "/></g></g></g><g fill="#000000" fill-opacity="1"><g transform="translate(247.235287, 91.401189)"><g/></g></g><g fill="#000000" fill-opacity="1"><g transform="translate(256.098613, 91.401189)"><g><path d="M 8 0.390625 C 6.976562 0.390625 6.019531 0.222656 5.125 -0.109375 C 4.226562 -0.453125 3.457031 -0.921875 2.8125 -1.515625 C 2.175781 -2.109375 1.671875 -2.8125 1.296875 -3.625 C 0.929688 -4.4375 0.75 -5.316406 0.75 -6.265625 C 0.75 -7.316406 0.972656 -8.273438 1.421875 -9.140625 C 1.867188 -10.003906 2.484375 -10.75 3.265625 -11.375 C 4.054688 -12.007812 4.992188 -12.5 6.078125 -12.84375 C 7.171875 -13.1875 8.375 -13.359375 9.6875 -13.359375 C 11.375 -13.359375 12.769531 -13.097656 13.875 -12.578125 L 13.875 -13.203125 C 13.875 -14.171875 13.585938 -14.890625 13.015625 -15.359375 C 12.453125 -15.835938 11.539062 -16.078125 10.28125 -16.078125 C 9.101562 -16.078125 8.015625 -15.882812 7.015625 -15.5 C 6.015625 -15.125 4.960938 -14.566406 3.859375 -13.828125 L 1.6875 -18.484375 C 4.425781 -20.242188 7.539062 -21.125 11.03125 -21.125 C 14.34375 -21.125 16.890625 -20.382812 18.671875 -18.90625 C 20.460938 -17.4375 21.359375 -15.234375 21.359375 -12.296875 L 21.359375 -8.28125 C 21.359375 -7.570312 21.488281 -7.078125 21.75 -6.796875 C 22.007812 -6.523438 22.484375 -6.363281 23.171875 -6.3125 L 23.171875 0 C 22.484375 0.132812 21.835938 0.234375 21.234375 0.296875 C 20.628906 0.359375 20.09375 0.390625 19.625 0.390625 C 18.28125 0.390625 17.257812 0.148438 16.5625 -0.328125 C 15.875 -0.816406 15.421875 -1.535156 15.203125 -2.484375 L 15.046875 -3.234375 C 14.128906 -2.046875 13.066406 -1.144531 11.859375 -0.53125 C 10.648438 0.0820312 9.363281 0.390625 8 0.390625 Z M 10.25 -4.96875 C 10.695312 -4.96875 11.15625 -5.039062 11.625 -5.1875 C 12.09375 -5.332031 12.515625 -5.519531 12.890625 -5.75 C 13.171875 -5.957031 13.40625 -6.1875 13.59375 -6.4375 C 13.78125 -6.6875 13.875 -6.945312 13.875 -7.21875 L 13.875 -8.75 C 13.425781 -8.90625 12.9375 -9.035156 12.40625 -9.140625 C 11.882812 -9.242188 11.414062 -9.296875 11 -9.296875 C 10.070312 -9.296875 9.304688 -9.070312 8.703125 -8.625 C 8.097656 -8.175781 7.796875 -7.613281 7.796875 -6.9375 C 7.796875 -6.351562 8.023438 -5.878906 8.484375 -5.515625 C 8.953125 -5.148438 9.539062 -4.96875 10.25 -4.96875 Z M 10.25 -4.96875 "/></g></g></g><g fill="#000000" fill-opacity="1"><g transform="translate(279.891698, 91.401189)"><g><path d="M 11.109375 0.390625 C 10.242188 0.390625 9.3125 0.320312 8.3125 0.1875 C 7.3125 0.0625 6.332031 -0.101562 5.375 -0.3125 C 4.414062 -0.519531 3.488281 -0.773438 2.59375 -1.078125 C 1.707031 -1.378906 0.9375 -1.71875 0.28125 -2.09375 L 3.15625 -7.171875 C 4.59375 -6.410156 5.96875 -5.832031 7.28125 -5.4375 C 8.601562 -5.039062 9.828125 -4.84375 10.953125 -4.84375 C 12.265625 -4.84375 12.921875 -5.171875 12.921875 -5.828125 C 12.921875 -6.171875 12.65625 -6.472656 12.125 -6.734375 C 11.601562 -6.992188 10.609375 -7.3125 9.140625 -7.6875 C 7.671875 -8.082031 6.4375 -8.472656 5.4375 -8.859375 C 4.4375 -9.253906 3.632812 -9.695312 3.03125 -10.1875 C 2.425781 -10.675781 1.992188 -11.210938 1.734375 -11.796875 C 1.472656 -12.390625 1.34375 -13.082031 1.34375 -13.875 C 1.34375 -14.925781 1.554688 -15.894531 1.984375 -16.78125 C 2.421875 -17.675781 3.03125 -18.453125 3.8125 -19.109375 C 4.601562 -19.765625 5.546875 -20.269531 6.640625 -20.625 C 7.734375 -20.976562 8.921875 -21.15625 10.203125 -21.15625 C 11.597656 -21.15625 13.085938 -20.957031 14.671875 -20.5625 C 16.265625 -20.175781 17.890625 -19.601562 19.546875 -18.84375 L 16.671875 -14.0625 C 15.203125 -14.75 13.976562 -15.242188 13 -15.546875 C 12.03125 -15.847656 11.097656 -16 10.203125 -16 C 9.628906 -16 9.164062 -15.910156 8.8125 -15.734375 C 8.457031 -15.566406 8.28125 -15.300781 8.28125 -14.9375 C 8.28125 -14.726562 8.332031 -14.550781 8.4375 -14.40625 C 8.539062 -14.257812 8.722656 -14.117188 8.984375 -13.984375 C 9.242188 -13.859375 9.601562 -13.722656 10.0625 -13.578125 C 10.53125 -13.429688 11.101562 -13.28125 11.78125 -13.125 C 13.351562 -12.726562 14.675781 -12.3125 15.75 -11.875 C 16.832031 -11.445312 17.695312 -10.972656 18.34375 -10.453125 C 18.988281 -9.941406 19.445312 -9.363281 19.71875 -8.71875 C 20 -8.082031 20.140625 -7.34375 20.140625 -6.5 C 20.140625 -4.375 19.332031 -2.691406 17.71875 -1.453125 C 16.101562 -0.222656 13.898438 0.390625 11.109375 0.390625 Z M 11.109375 0.390625 "/></g></g></g><g fill="#000000" fill-opacity="1"><g transform="translate(300.651533, 91.401189)"><g><path d="M 11.109375 0.390625 C 10.242188 0.390625 9.3125 0.320312 8.3125 0.1875 C 7.3125 0.0625 6.332031 -0.101562 5.375 -0.3125 C 4.414062 -0.519531 3.488281 -0.773438 2.59375 -1.078125 C 1.707031 -1.378906 0.9375 -1.71875 0.28125 -2.09375 L 3.15625 -7.171875 C 4.59375 -6.410156 5.96875 -5.832031 7.28125 -5.4375 C 8.601562 -5.039062 9.828125 -4.84375 10.953125 -4.84375 C 12.265625 -4.84375 12.921875 -5.171875 12.921875 -5.828125 C 12.921875 -6.171875 12.65625 -6.472656 12.125 -6.734375 C 11.601562 -6.992188 10.609375 -7.3125 9.140625 -7.6875 C 7.671875 -8.082031 6.4375 -8.472656 5.4375 -8.859375 C 4.4375 -9.253906 3.632812 -9.695312 3.03125 -10.1875 C 2.425781 -10.675781 1.992188 -11.210938 1.734375 -11.796875 C 1.472656 -12.390625 1.34375 -13.082031 1.34375 -13.875 C 1.34375 -14.925781 1.554688 -15.894531 1.984375 -16.78125 C 2.421875 -17.675781 3.03125 -18.453125 3.8125 -19.109375 C 4.601562 -19.765625 5.546875 -20.269531 6.640625 -20.625 C 7.734375 -20.976562 8.921875 -21.15625 10.203125 -21.15625 C 11.597656 -21.15625 13.085938 -20.957031 14.671875 -20.5625 C 16.265625 -20.175781 17.890625 -19.601562 19.546875 -18.84375 L 16.671875 -14.0625 C 15.203125 -14.75 13.976562 -15.242188 13 -15.546875 C 12.03125 -15.847656 11.097656 -16 10.203125 -16 C 9.628906 -16 9.164062 -15.910156 8.8125 -15.734375 C 8.457031 -15.566406 8.28125 -15.300781 8.28125 -14.9375 C 8.28125 -14.726562 8.332031 -14.550781 8.4375 -14.40625 C 8.539062 -14.257812 8.722656 -14.117188 8.984375 -13.984375 C 9.242188 -13.859375 9.601562 -13.722656 10.0625 -13.578125 C 10.53125 -13.429688 11.101562 -13.28125 11.78125 -13.125 C 13.351562 -12.726562 14.675781 -12.3125 15.75 -11.875 C 16.832031 -11.445312 17.695312 -10.972656 18.34375 -10.453125 C 18.988281 -9.941406 19.445312 -9.363281 19.71875 -8.71875 C 20 -8.082031 20.140625 -7.34375 20.140625 -6.5 C 20.140625 -4.375 19.332031 -2.691406 17.71875 -1.453125 C 16.101562 -0.222656 13.898438 0.390625 11.109375 0.390625 Z M 11.109375 0.390625 "/></g></g></g><g fill="#000000" fill-opacity="1"><g transform="translate(321.411369, 91.401189)"><g><path d="M 12.09375 0.390625 C 10.226562 0.390625 8.59375 0.0976562 7.1875 -0.484375 C 5.78125 -1.078125 4.597656 -1.863281 3.640625 -2.84375 C 2.679688 -3.832031 1.957031 -4.976562 1.46875 -6.28125 C 0.988281 -7.582031 0.75 -8.941406 0.75 -10.359375 C 0.75 -11.773438 0.988281 -13.132812 1.46875 -14.4375 C 1.957031 -15.738281 2.679688 -16.878906 3.640625 -17.859375 C 4.597656 -18.847656 5.78125 -19.640625 7.1875 -20.234375 C 8.59375 -20.828125 10.226562 -21.125 12.09375 -21.125 C 13.9375 -21.125 15.566406 -20.828125 16.984375 -20.234375 C 18.398438 -19.640625 19.585938 -18.847656 20.546875 -17.859375 C 21.503906 -16.878906 22.226562 -15.738281 22.71875 -14.4375 C 23.207031 -13.132812 23.453125 -11.773438 23.453125 -10.359375 C 23.453125 -8.941406 23.207031 -7.582031 22.71875 -6.28125 C 22.226562 -4.976562 21.503906 -3.832031 20.546875 -2.84375 C 19.585938 -1.863281 18.398438 -1.078125 16.984375 -0.484375 C 15.566406 0.0976562 13.9375 0.390625 12.09375 0.390625 Z M 8.4375 -10.359375 C 8.4375 -8.972656 8.773438 -7.882812 9.453125 -7.09375 C 10.140625 -6.300781 11.019531 -5.90625 12.09375 -5.90625 C 13.175781 -5.90625 14.054688 -6.300781 14.734375 -7.09375 C 15.421875 -7.882812 15.765625 -8.972656 15.765625 -10.359375 C 15.765625 -11.753906 15.421875 -12.84375 14.734375 -13.625 C 14.054688 -14.414062 13.175781 -14.8125 12.09375 -14.8125 C 11.019531 -14.8125 10.140625 -14.414062 9.453125 -13.625 C 8.773438 -12.84375 8.4375 -11.753906 8.4375 -10.359375 Z M 8.4375 -10.359375 "/></g></g></g><g fill="#000000" fill-opacity="1"><g transform="translate(345.598355, 91.401189)"><g><path d="M 0.75 -10.359375 C 0.75 -11.773438 1 -13.132812 1.5 -14.4375 C 2 -15.738281 2.726562 -16.878906 3.6875 -17.859375 C 4.644531 -18.847656 5.832031 -19.640625 7.25 -20.234375 C 8.664062 -20.828125 10.296875 -21.125 12.140625 -21.125 C 14.660156 -21.125 16.765625 -20.597656 18.453125 -19.546875 C 20.148438 -18.492188 21.421875 -17.140625 22.265625 -15.484375 L 14.96875 -13.28125 C 14.257812 -14.300781 13.300781 -14.8125 12.09375 -14.8125 C 11.070312 -14.8125 10.207031 -14.421875 9.5 -13.640625 C 8.789062 -12.867188 8.4375 -11.773438 8.4375 -10.359375 C 8.4375 -8.941406 8.789062 -7.84375 9.5 -7.0625 C 10.207031 -6.289062 11.070312 -5.90625 12.09375 -5.90625 C 13.300781 -5.90625 14.257812 -6.421875 14.96875 -7.453125 L 22.265625 -5.234375 C 21.421875 -3.585938 20.148438 -2.238281 18.453125 -1.1875 C 16.765625 -0.132812 14.660156 0.390625 12.140625 0.390625 C 10.296875 0.390625 8.664062 0.0976562 7.25 -0.484375 C 5.832031 -1.078125 4.644531 -1.863281 3.6875 -2.84375 C 2.726562 -3.832031 2 -4.976562 1.5 -6.28125 C 1 -7.582031 0.75 -8.941406 0.75 -10.359375 Z M 0.75 -10.359375 "/></g></g></g><g fill="#000000" fill-opacity="1"><g transform="translate(368.288436, 91.401189)"><g><path d="M 1.890625 0 L 1.890625 -20.734375 L 9.375 -20.734375 L 9.375 0 Z M 1.890625 -22.46875 L 1.890625 -28.765625 L 9.375 -28.765625 L 9.375 -22.46875 Z M 1.890625 -22.46875 "/></g></g></g><g fill="#000000" fill-opacity="1"><g transform="translate(379.554687, 91.401189)"><g><path d="M 12.09375 0.390625 C 10.28125 0.390625 8.664062 0.109375 7.25 -0.453125 C 5.832031 -1.015625 4.644531 -1.78125 3.6875 -2.75 C 2.726562 -3.726562 2 -4.847656 1.5 -6.109375 C 1 -7.367188 0.75 -8.695312 0.75 -10.09375 C 0.75 -11.582031 0.988281 -13 1.46875 -14.34375 C 1.957031 -15.6875 2.679688 -16.851562 3.640625 -17.84375 C 4.597656 -18.84375 5.78125 -19.640625 7.1875 -20.234375 C 8.59375 -20.828125 10.226562 -21.125 12.09375 -21.125 C 13.9375 -21.125 15.566406 -20.828125 16.984375 -20.234375 C 18.398438 -19.640625 19.585938 -18.847656 20.546875 -17.859375 C 21.503906 -16.878906 22.226562 -15.738281 22.71875 -14.4375 C 23.207031 -13.132812 23.453125 -11.773438 23.453125 -10.359375 C 23.453125 -9.960938 23.429688 -9.5625 23.390625 -9.15625 C 23.347656 -8.75 23.300781 -8.390625 23.25 -8.078125 L 8.703125 -8.078125 C 8.785156 -6.972656 9.191406 -6.175781 9.921875 -5.6875 C 10.660156 -5.207031 11.460938 -4.96875 12.328125 -4.96875 C 13.148438 -4.96875 13.921875 -5.148438 14.640625 -5.515625 C 15.359375 -5.878906 15.835938 -6.390625 16.078125 -7.046875 L 22.421875 -5.234375 C 21.578125 -3.585938 20.28125 -2.238281 18.53125 -1.1875 C 16.789062 -0.132812 14.644531 0.390625 12.09375 0.390625 Z M 15.40625 -12.578125 C 15.269531 -13.566406 14.898438 -14.347656 14.296875 -14.921875 C 13.691406 -15.503906 12.921875 -15.796875 11.984375 -15.796875 C 11.035156 -15.796875 10.257812 -15.503906 9.65625 -14.921875 C 9.050781 -14.347656 8.679688 -13.566406 8.546875 -12.578125 Z M 14.390625 -21.90625 L 9.65625 -23.171875 L 11.625 -28.765625 L 18.28125 -28.765625 Z M 14.390625 -21.90625 "/></g></g></g><g fill="#000000" fill-opacity="1"><g transform="translate(403.584117, 91.401189)"><g><path d="M 11.109375 0.390625 C 10.242188 0.390625 9.3125 0.320312 8.3125 0.1875 C 7.3125 0.0625 6.332031 -0.101562 5.375 -0.3125 C 4.414062 -0.519531 3.488281 -0.773438 2.59375 -1.078125 C 1.707031 -1.378906 0.9375 -1.71875 0.28125 -2.09375 L 3.15625 -7.171875 C 4.59375 -6.410156 5.96875 -5.832031 7.28125 -5.4375 C 8.601562 -5.039062 9.828125 -4.84375 10.953125 -4.84375 C 12.265625 -4.84375 12.921875 -5.171875 12.921875 -5.828125 C 12.921875 -6.171875 12.65625 -6.472656 12.125 -6.734375 C 11.601562 -6.992188 10.609375 -7.3125 9.140625 -7.6875 C 7.671875 -8.082031 6.4375 -8.472656 5.4375 -8.859375 C 4.4375 -9.253906 3.632812 -9.695312 3.03125 -10.1875 C 2.425781 -10.675781 1.992188 -11.210938 1.734375 -11.796875 C 1.472656 -12.390625 1.34375 -13.082031 1.34375 -13.875 C 1.34375 -14.925781 1.554688 -15.894531 1.984375 -16.78125 C 2.421875 -17.675781 3.03125 -18.453125 3.8125 -19.109375 C 4.601562 -19.765625 5.546875 -20.269531 6.640625 -20.625 C 7.734375 -20.976562 8.921875 -21.15625 10.203125 -21.15625 C 11.597656 -21.15625 13.085938 -20.957031 14.671875 -20.5625 C 16.265625 -20.175781 17.890625 -19.601562 19.546875 -18.84375 L 16.671875 -14.0625 C 15.203125 -14.75 13.976562 -15.242188 13 -15.546875 C 12.03125 -15.847656 11.097656 -16 10.203125 -16 C 9.628906 -16 9.164062 -15.910156 8.8125 -15.734375 C 8.457031 -15.566406 8.28125 -15.300781 8.28125 -14.9375 C 8.28125 -14.726562 8.332031 -14.550781 8.4375 -14.40625 C 8.539062 -14.257812 8.722656 -14.117188 8.984375 -13.984375 C 9.242188 -13.859375 9.601562 -13.722656 10.0625 -13.578125 C 10.53125 -13.429688 11.101562 -13.28125 11.78125 -13.125 C 13.351562 -12.726562 14.675781 -12.3125 15.75 -11.875 C 16.832031 -11.445312 17.695312 -10.972656 18.34375 -10.453125 C 18.988281 -9.941406 19.445312 -9.363281 19.71875 -8.71875 C 20 -8.082031 20.140625 -7.34375 20.140625 -6.5 C 20.140625 -4.375 19.332031 -2.691406 17.71875 -1.453125 C 16.101562 -0.222656 13.898438 0.390625 11.109375 0.390625 Z M 11.109375 0.390625 "/></g></g></g></svg>