<svg xmlns="http://www.w3.org/2000/svg" xmlns:xlink="http://www.w3.org/1999/xlink" width="150" zoomAndPan="magnify" viewBox="0 0 112.5 112.499997" height="150" preserveAspectRatio="xMidYMid meet" version="1.0"><defs><g/><clipPath id="45fdb0770e"><path d="M 0 0 L 112.003906 0 L 112.003906 112.003906 L 0 112.003906 Z M 0 0 " clip-rule="nonzero"/></clipPath></defs><g clip-path="url(#45fdb0770e)"><path fill="#ffffff" d="M 0 0 L 112.5 0 L 112.5 120 L 0 120 Z M 0 0 " fill-opacity="1" fill-rule="nonzero"/><path fill="#ffffff" d="M 0 0 L 112.5 0 L 112.5 112.5 L 0 112.5 Z M 0 0 " fill-opacity="1" fill-rule="nonzero"/><path fill="#ff3131" d="M 0 0 L 112.5 0 L 112.5 112.5 L 0 112.5 Z M 0 0 " fill-opacity="1" fill-rule="nonzero"/></g><g fill="#ffffff" fill-opacity="1"><g transform="translate(30.829768, 64.061589)"><g><path d="M 4.96875 0 L 1.875 0 L 1.875 -14.875 L 10.390625 -14.875 L 10.390625 -12.28125 L 4.96875 -12.28125 L 4.96875 -8.453125 L 10.015625 -8.453125 L 10.015625 -5.875 L 4.96875 -5.875 Z M 4.96875 0 "/></g></g><g transform="translate(42.262361, 64.061589)"><g><path d="M 10.96875 0 L 9.890625 -3.546875 L 4.46875 -3.546875 L 3.390625 0 L 0 0 L 5.25 -14.921875 L 9.109375 -14.921875 L 14.375 0 Z M 9.140625 -6.1875 C 8.140625 -9.394531 7.578125 -11.207031 7.453125 -11.625 C 7.328125 -12.039062 7.238281 -12.375 7.1875 -12.625 C 6.96875 -11.75 6.328125 -9.601562 5.265625 -6.1875 Z M 9.140625 -6.1875 "/></g></g><g transform="translate(56.634473, 64.061589)"><g><path d="M 1.875 0 L 1.875 -14.875 L 5.03125 -14.875 L 5.03125 -2.609375 L 11.0625 -2.609375 L 11.0625 0 Z M 1.875 0 "/></g></g><g transform="translate(68.402721, 64.061589)"><g><path d="M 8.1875 -12.453125 C 7 -12.453125 6.078125 -12.003906 5.421875 -11.109375 C 4.773438 -10.222656 4.453125 -8.984375 4.453125 -7.390625 C 4.453125 -4.078125 5.695312 -2.421875 8.1875 -2.421875 C 9.226562 -2.421875 10.492188 -2.679688 11.984375 -3.203125 L 11.984375 -0.5625 C 10.765625 -0.0507812 9.398438 0.203125 7.890625 0.203125 C 5.722656 0.203125 4.066406 -0.453125 2.921875 -1.765625 C 1.773438 -3.078125 1.203125 -4.957031 1.203125 -7.40625 C 1.203125 -8.957031 1.484375 -10.3125 2.046875 -11.46875 C 2.617188 -12.632812 3.429688 -13.523438 4.484375 -14.140625 C 5.535156 -14.765625 6.769531 -15.078125 8.1875 -15.078125 C 9.632812 -15.078125 11.085938 -14.726562 12.546875 -14.03125 L 11.515625 -11.46875 C 10.960938 -11.738281 10.40625 -11.96875 9.84375 -12.15625 C 9.28125 -12.351562 8.726562 -12.453125 8.1875 -12.453125 Z M 8.1875 -12.453125 "/></g></g></g></svg>