<svg xmlns="http://www.w3.org/2000/svg" xmlns:xlink="http://www.w3.org/1999/xlink" width="300" zoomAndPan="magnify" viewBox="0 0 224.87999 119.999999" height="160" preserveAspectRatio="xMidYMid meet" version="1.0"><defs><g/><clipPath id="826a85b504"><path d="M 0 0.03125 L 224.761719 0.03125 L 224.761719 119.96875 L 0 119.96875 Z M 0 0.03125 " clip-rule="nonzero"/></clipPath><clipPath id="b9038e0b03"><path d="M 0 0.03125 L 224.761719 0.03125 L 224.761719 119.96875 L 0 119.96875 Z M 0 0.03125 " clip-rule="nonzero"/></clipPath><clipPath id="1aae3699f8"><path d="M 5.996094 0.03125 L 218.882812 0.03125 C 222.195312 0.03125 224.878906 2.71875 224.878906 6.027344 L 224.878906 114.992188 C 224.878906 118.304688 222.195312 120.988281 218.882812 120.988281 L 5.996094 120.988281 C 2.683594 120.988281 0 118.304688 0 114.992188 L 0 6.027344 C 0 2.71875 2.683594 0.03125 5.996094 0.03125 " clip-rule="nonzero"/></clipPath></defs><g clip-path="url(#826a85b504)"><path fill="#ffffff" d="M 0 0.03125 L 224.878906 0.03125 L 224.878906 127.464844 L 0 127.464844 Z M 0 0.03125 " fill-opacity="1" fill-rule="nonzero"/><path fill="#ffffff" d="M 0 0.03125 L 224.878906 0.03125 L 224.878906 119.96875 L 0 119.96875 Z M 0 0.03125 " fill-opacity="1" fill-rule="nonzero"/><path fill="#ffffff" d="M 0 0.03125 L 224.878906 0.03125 L 224.878906 119.96875 L 0 119.96875 Z M 0 0.03125 " fill-opacity="1" fill-rule="nonzero"/></g><g clip-path="url(#b9038e0b03)"><g clip-path="url(#1aae3699f8)"><path fill="#233f93" d="M 0 0.03125 L 224.878906 0.03125 L 224.878906 120.988281 L 0 120.988281 Z M 0 0.03125 " fill-opacity="1" fill-rule="nonzero"/></g></g><g fill="#ffffff" fill-opacity="1"><g transform="translate(29.555543, 66.091643)"><g><path d="M 8.5 -12.9375 C 7.269531 -12.9375 6.316406 -12.472656 5.640625 -11.546875 C 4.960938 -10.628906 4.625 -9.34375 4.625 -7.6875 C 4.625 -4.238281 5.914062 -2.515625 8.5 -2.515625 C 9.59375 -2.515625 10.910156 -2.785156 12.453125 -3.328125 L 12.453125 -0.578125 C 11.179688 -0.046875 9.765625 0.21875 8.203125 0.21875 C 5.953125 0.21875 4.226562 -0.460938 3.03125 -1.828125 C 1.84375 -3.191406 1.25 -5.148438 1.25 -7.703125 C 1.25 -9.304688 1.539062 -10.710938 2.125 -11.921875 C 2.71875 -13.128906 3.5625 -14.054688 4.65625 -14.703125 C 5.75 -15.347656 7.03125 -15.671875 8.5 -15.671875 C 10 -15.671875 11.507812 -15.304688 13.03125 -14.578125 L 11.96875 -11.921875 C 11.394531 -12.191406 10.8125 -12.425781 10.21875 -12.625 C 9.632812 -12.832031 9.0625 -12.9375 8.5 -12.9375 Z M 8.5 -12.9375 "/></g></g></g><g fill="#ffffff" fill-opacity="1"><g transform="translate(43.34345, 66.091643)"><g><path d="M 1.546875 -14.875 C 1.546875 -15.914062 2.132812 -16.4375 3.3125 -16.4375 C 4.476562 -16.4375 5.0625 -15.914062 5.0625 -14.875 C 5.0625 -14.363281 4.914062 -13.96875 4.625 -13.6875 C 4.332031 -13.414062 3.894531 -13.28125 3.3125 -13.28125 C 2.132812 -13.28125 1.546875 -13.8125 1.546875 -14.875 Z M 4.90625 0 L 1.6875 0 L 1.6875 -11.8125 L 4.90625 -11.8125 Z M 4.90625 0 "/></g></g></g><g fill="#ffffff" fill-opacity="1"><g transform="translate(49.946854, 66.091643)"><g><path d="M 8.265625 -12.03125 C 9.660156 -12.03125 10.75 -11.484375 11.53125 -10.390625 C 12.320312 -9.304688 12.71875 -7.816406 12.71875 -5.921875 C 12.71875 -3.972656 12.3125 -2.460938 11.5 -1.390625 C 10.6875 -0.316406 9.578125 0.21875 8.171875 0.21875 C 6.785156 0.21875 5.695312 -0.285156 4.90625 -1.296875 L 4.6875 -1.296875 L 4.15625 0 L 1.6875 0 L 1.6875 -16.4375 L 4.90625 -16.4375 L 4.90625 -12.609375 C 4.90625 -12.128906 4.863281 -11.351562 4.78125 -10.28125 L 4.90625 -10.28125 C 5.664062 -11.445312 6.785156 -12.03125 8.265625 -12.03125 Z M 7.234375 -9.453125 C 6.429688 -9.453125 5.847656 -9.207031 5.484375 -8.71875 C 5.117188 -8.226562 4.925781 -7.421875 4.90625 -6.296875 L 4.90625 -5.953125 C 4.90625 -4.679688 5.09375 -3.769531 5.46875 -3.21875 C 5.851562 -2.675781 6.453125 -2.40625 7.265625 -2.40625 C 7.929688 -2.40625 8.457031 -2.707031 8.84375 -3.3125 C 9.238281 -3.925781 9.4375 -4.8125 9.4375 -5.96875 C 9.4375 -7.132812 9.238281 -8.003906 8.84375 -8.578125 C 8.445312 -9.160156 7.910156 -9.453125 7.234375 -9.453125 Z M 7.234375 -9.453125 "/></g></g></g><g fill="#ffffff" fill-opacity="1"><g transform="translate(63.639672, 66.091643)"><g><path d="M 4.90625 0 L 1.6875 0 L 1.6875 -16.4375 L 4.90625 -16.4375 Z M 4.90625 0 "/></g></g></g><g fill="#ffffff" fill-opacity="1"><g transform="translate(70.243076, 66.091643)"><g><path d="M 6.578125 -9.75 C 5.898438 -9.75 5.363281 -9.53125 4.96875 -9.09375 C 4.582031 -8.65625 4.363281 -8.039062 4.3125 -7.25 L 8.828125 -7.25 C 8.816406 -8.039062 8.609375 -8.65625 8.203125 -9.09375 C 7.804688 -9.53125 7.265625 -9.75 6.578125 -9.75 Z M 7.03125 0.21875 C 5.132812 0.21875 3.648438 -0.304688 2.578125 -1.359375 C 1.503906 -2.410156 0.96875 -3.898438 0.96875 -5.828125 C 0.96875 -7.804688 1.460938 -9.332031 2.453125 -10.40625 C 3.441406 -11.488281 4.8125 -12.03125 6.5625 -12.03125 C 8.226562 -12.03125 9.523438 -11.554688 10.453125 -10.609375 C 11.390625 -9.660156 11.859375 -8.347656 11.859375 -6.671875 L 11.859375 -5.109375 L 4.234375 -5.109375 C 4.273438 -4.191406 4.546875 -3.472656 5.046875 -2.953125 C 5.554688 -2.441406 6.269531 -2.1875 7.1875 -2.1875 C 7.894531 -2.1875 8.566406 -2.257812 9.203125 -2.40625 C 9.835938 -2.550781 10.5 -2.785156 11.1875 -3.109375 L 11.1875 -0.625 C 10.625 -0.34375 10.019531 -0.132812 9.375 0 C 8.738281 0.144531 7.957031 0.21875 7.03125 0.21875 Z M 7.03125 0.21875 "/></g></g></g><g fill="#ffffff" fill-opacity="1"><g transform="translate(83.027266, 66.091643)"><g/></g></g><g fill="#ffffff" fill-opacity="1"><g transform="translate(88.648083, 66.091643)"><g><path d="M 5.4375 0.21875 C 4.039062 0.21875 2.945312 -0.316406 2.15625 -1.390625 C 1.363281 -2.472656 0.96875 -3.972656 0.96875 -5.890625 C 0.96875 -7.828125 1.367188 -9.332031 2.171875 -10.40625 C 2.984375 -11.488281 4.097656 -12.03125 5.515625 -12.03125 C 7.003906 -12.03125 8.140625 -11.453125 8.921875 -10.296875 L 9.03125 -10.296875 C 8.863281 -11.179688 8.78125 -11.96875 8.78125 -12.65625 L 8.78125 -16.4375 L 12.015625 -16.4375 L 12.015625 0 L 9.546875 0 L 8.921875 -1.53125 L 8.78125 -1.53125 C 8.050781 -0.363281 6.9375 0.21875 5.4375 0.21875 Z M 6.5625 -2.359375 C 7.382812 -2.359375 7.988281 -2.597656 8.375 -3.078125 C 8.757812 -3.554688 8.96875 -4.367188 9 -5.515625 L 9 -5.859375 C 9 -7.128906 8.800781 -8.039062 8.40625 -8.59375 C 8.019531 -9.144531 7.390625 -9.421875 6.515625 -9.421875 C 5.796875 -9.421875 5.234375 -9.113281 4.828125 -8.5 C 4.429688 -7.894531 4.234375 -7.007812 4.234375 -5.84375 C 4.234375 -4.675781 4.429688 -3.800781 4.828125 -3.21875 C 5.234375 -2.644531 5.8125 -2.359375 6.5625 -2.359375 Z M 6.5625 -2.359375 "/></g></g></g><g fill="#ffffff" fill-opacity="1"><g transform="translate(102.340901, 66.091643)"><g><path d="M 6.578125 -9.75 C 5.898438 -9.75 5.363281 -9.53125 4.96875 -9.09375 C 4.582031 -8.65625 4.363281 -8.039062 4.3125 -7.25 L 8.828125 -7.25 C 8.816406 -8.039062 8.609375 -8.65625 8.203125 -9.09375 C 7.804688 -9.53125 7.265625 -9.75 6.578125 -9.75 Z M 7.03125 0.21875 C 5.132812 0.21875 3.648438 -0.304688 2.578125 -1.359375 C 1.503906 -2.410156 0.96875 -3.898438 0.96875 -5.828125 C 0.96875 -7.804688 1.460938 -9.332031 2.453125 -10.40625 C 3.441406 -11.488281 4.8125 -12.03125 6.5625 -12.03125 C 8.226562 -12.03125 9.523438 -11.554688 10.453125 -10.609375 C 11.390625 -9.660156 11.859375 -8.347656 11.859375 -6.671875 L 11.859375 -5.109375 L 4.234375 -5.109375 C 4.273438 -4.191406 4.546875 -3.472656 5.046875 -2.953125 C 5.554688 -2.441406 6.269531 -2.1875 7.1875 -2.1875 C 7.894531 -2.1875 8.566406 -2.257812 9.203125 -2.40625 C 9.835938 -2.550781 10.5 -2.785156 11.1875 -3.109375 L 11.1875 -0.625 C 10.625 -0.34375 10.019531 -0.132812 9.375 0 C 8.738281 0.144531 7.957031 0.21875 7.03125 0.21875 Z M 7.03125 0.21875 "/></g></g></g><g fill="#ffffff" fill-opacity="1"><g transform="translate(115.125091, 66.091643)"><g/></g></g><g fill="#ffffff" fill-opacity="1"><g transform="translate(120.745908, 66.091643)"><g><path d="M 11.0625 -4.296875 C 11.0625 -2.898438 10.554688 -1.796875 9.546875 -0.984375 C 8.546875 -0.179688 7.15625 0.21875 5.375 0.21875 C 3.71875 0.21875 2.257812 -0.09375 1 -0.71875 L 1 -3.765625 C 2.039062 -3.296875 2.921875 -2.96875 3.640625 -2.78125 C 4.359375 -2.59375 5.019531 -2.5 5.625 -2.5 C 6.34375 -2.5 6.890625 -2.632812 7.265625 -2.90625 C 7.648438 -3.175781 7.84375 -3.582031 7.84375 -4.125 C 7.84375 -4.4375 7.757812 -4.707031 7.59375 -4.9375 C 7.425781 -5.175781 7.175781 -5.40625 6.84375 -5.625 C 6.519531 -5.84375 5.851562 -6.191406 4.84375 -6.671875 C 3.90625 -7.109375 3.195312 -7.53125 2.71875 -7.9375 C 2.25 -8.351562 1.875 -8.832031 1.59375 -9.375 C 1.3125 -9.914062 1.171875 -10.550781 1.171875 -11.28125 C 1.171875 -12.644531 1.632812 -13.71875 2.5625 -14.5 C 3.488281 -15.28125 4.769531 -15.671875 6.40625 -15.671875 C 7.207031 -15.671875 7.972656 -15.570312 8.703125 -15.375 C 9.429688 -15.1875 10.191406 -14.921875 10.984375 -14.578125 L 9.9375 -12.03125 C 9.113281 -12.375 8.429688 -12.609375 7.890625 -12.734375 C 7.347656 -12.867188 6.816406 -12.9375 6.296875 -12.9375 C 5.679688 -12.9375 5.207031 -12.789062 4.875 -12.5 C 4.539062 -12.21875 4.375 -11.84375 4.375 -11.375 C 4.375 -11.09375 4.441406 -10.84375 4.578125 -10.625 C 4.710938 -10.40625 4.925781 -10.195312 5.21875 -10 C 5.507812 -9.800781 6.203125 -9.441406 7.296875 -8.921875 C 8.734375 -8.222656 9.71875 -7.523438 10.25 -6.828125 C 10.789062 -6.140625 11.0625 -5.296875 11.0625 -4.296875 Z M 11.0625 -4.296875 "/></g></g></g><g fill="#ffffff" fill-opacity="1"><g transform="translate(132.663731, 66.091643)"><g><path d="M 1.9375 0 L 1.9375 -15.453125 L 5.21875 -15.453125 L 5.21875 -2.703125 L 11.484375 -2.703125 L 11.484375 0 Z M 1.9375 0 "/></g></g></g><g fill="#ffffff" fill-opacity="1"><g transform="translate(144.887952, 66.091643)"><g><path d="M 14.515625 -15.453125 L 14.515625 -5.453125 C 14.515625 -4.304688 14.257812 -3.300781 13.75 -2.4375 C 13.238281 -1.582031 12.5 -0.925781 11.53125 -0.46875 C 10.570312 -0.0078125 9.429688 0.21875 8.109375 0.21875 C 6.128906 0.21875 4.585938 -0.289062 3.484375 -1.3125 C 2.390625 -2.332031 1.84375 -3.726562 1.84375 -5.5 L 1.84375 -15.453125 L 5.109375 -15.453125 L 5.109375 -5.984375 C 5.109375 -4.796875 5.347656 -3.921875 5.828125 -3.359375 C 6.304688 -2.804688 7.097656 -2.53125 8.203125 -2.53125 C 9.273438 -2.53125 10.050781 -2.8125 10.53125 -3.375 C 11.007812 -3.9375 11.25 -4.816406 11.25 -6.015625 L 11.25 -15.453125 Z M 14.515625 -15.453125 "/></g></g></g><g fill="#ffffff" fill-opacity="1"><g transform="translate(161.243263, 66.091643)"><g><path d="M 12.015625 0 L 0.515625 0 L 0.515625 -2.125 L 7.921875 -12.75 L 0.71875 -12.75 L 0.71875 -15.453125 L 11.8125 -15.453125 L 11.8125 -13.328125 L 4.421875 -2.703125 L 12.015625 -2.703125 Z M 12.015625 0 "/></g></g></g><g fill="#ffffff" fill-opacity="1"><g transform="translate(173.773882, 66.091643)"><g><path d="M 14.375 0 L 10.65625 0 L 6.609375 -6.515625 L 5.21875 -5.515625 L 5.21875 0 L 1.9375 0 L 1.9375 -15.453125 L 5.21875 -15.453125 L 5.21875 -8.375 L 6.515625 -10.203125 L 10.6875 -15.453125 L 14.328125 -15.453125 L 8.9375 -8.609375 Z M 14.375 0 "/></g></g></g><g fill="#ffffff" fill-opacity="1"><g transform="translate(188.142888, 66.091643)"><g><path d="M 1.9375 0 L 1.9375 -15.453125 L 5.21875 -15.453125 L 5.21875 0 Z M 1.9375 0 "/></g></g></g></svg>