<svg xmlns="http://www.w3.org/2000/svg" xmlns:xlink="http://www.w3.org/1999/xlink" width="300" zoomAndPan="magnify" viewBox="0 0 224.87999 119.999999" height="160" preserveAspectRatio="xMidYMid meet" version="1.0"><defs><g/><clipPath id="a922194c5e"><path d="M 0 0.03125 L 224.761719 0.03125 L 224.761719 119.96875 L 0 119.96875 Z M 0 0.03125 " clip-rule="nonzero"/></clipPath><clipPath id="9b1dd8b9e7"><path d="M 0 0.03125 L 224.761719 0.03125 L 224.761719 119.96875 L 0 119.96875 Z M 0 0.03125 " clip-rule="nonzero"/></clipPath><clipPath id="c2f3b319c1"><path d="M 5.996094 0.03125 L 218.882812 0.03125 C 222.195312 0.03125 224.878906 2.71875 224.878906 6.027344 L 224.878906 114.992188 C 224.878906 118.304688 222.195312 120.988281 218.882812 120.988281 L 5.996094 120.988281 C 2.683594 120.988281 0 118.304688 0 114.992188 L 0 6.027344 C 0 2.71875 2.683594 0.03125 5.996094 0.03125 " clip-rule="nonzero"/></clipPath></defs><g clip-path="url(#a922194c5e)"><path fill="#ffffff" d="M 0 0.03125 L 224.878906 0.03125 L 224.878906 127.464844 L 0 127.464844 Z M 0 0.03125 " fill-opacity="1" fill-rule="nonzero"/><path fill="#ffffff" d="M 0 0.03125 L 224.878906 0.03125 L 224.878906 119.96875 L 0 119.96875 Z M 0 0.03125 " fill-opacity="1" fill-rule="nonzero"/><path fill="#ffffff" d="M 0 0.03125 L 224.878906 0.03125 L 224.878906 119.96875 L 0 119.96875 Z M 0 0.03125 " fill-opacity="1" fill-rule="nonzero"/></g><g clip-path="url(#9b1dd8b9e7)"><g clip-path="url(#c2f3b319c1)"><path fill="#8a2d88" d="M 0 0.03125 L 224.878906 0.03125 L 224.878906 120.988281 L 0 120.988281 Z M 0 0.03125 " fill-opacity="1" fill-rule="nonzero"/></g></g><g fill="#ffffff" fill-opacity="1"><g transform="translate(33.883128, 69.877048)"><g><path d="M 8.375 0 L 3.15625 0 L 3.15625 -25.046875 L 17.515625 -25.046875 L 17.515625 -20.703125 L 8.375 -20.703125 L 8.375 -14.234375 L 16.875 -14.234375 L 16.875 -9.90625 L 8.375 -9.90625 Z M 8.375 0 "/></g></g></g><g fill="#ffffff" fill-opacity="1"><g transform="translate(53.138273, 69.877048)"><g><path d="M 13.4375 -19.515625 C 14.144531 -19.515625 14.734375 -19.460938 15.203125 -19.359375 L 14.8125 -14.46875 C 14.382812 -14.582031 13.867188 -14.640625 13.265625 -14.640625 C 11.597656 -14.640625 10.296875 -14.207031 9.359375 -13.34375 C 8.429688 -12.488281 7.96875 -11.289062 7.96875 -9.75 L 7.96875 0 L 2.734375 0 L 2.734375 -19.15625 L 6.703125 -19.15625 L 7.46875 -15.9375 L 7.734375 -15.9375 C 8.328125 -17.007812 9.128906 -17.875 10.140625 -18.53125 C 11.148438 -19.1875 12.25 -19.515625 13.4375 -19.515625 Z M 13.4375 -19.515625 "/></g></g></g><g fill="#ffffff" fill-opacity="1"><g transform="translate(69.070021, 69.877048)"><g><path d="M 14.90625 0 L 13.890625 -2.609375 L 13.765625 -2.609375 C 12.878906 -1.492188 11.96875 -0.722656 11.03125 -0.296875 C 10.101562 0.128906 8.894531 0.34375 7.40625 0.34375 C 5.5625 0.34375 4.109375 -0.179688 3.046875 -1.234375 C 1.992188 -2.285156 1.46875 -3.78125 1.46875 -5.71875 C 1.46875 -7.757812 2.175781 -9.257812 3.59375 -10.21875 C 5.019531 -11.1875 7.171875 -11.722656 10.046875 -11.828125 L 13.359375 -11.921875 L 13.359375 -12.765625 C 13.359375 -14.703125 12.367188 -15.671875 10.390625 -15.671875 C 8.859375 -15.671875 7.054688 -15.210938 4.984375 -14.296875 L 3.25 -17.828125 C 5.457031 -18.972656 7.90625 -19.546875 10.59375 -19.546875 C 13.164062 -19.546875 15.132812 -18.984375 16.5 -17.859375 C 17.875 -16.742188 18.5625 -15.046875 18.5625 -12.765625 L 18.5625 0 Z M 13.359375 -8.875 L 11.34375 -8.8125 C 9.820312 -8.757812 8.691406 -8.484375 7.953125 -7.984375 C 7.210938 -7.484375 6.84375 -6.71875 6.84375 -5.6875 C 6.84375 -4.21875 7.6875 -3.484375 9.375 -3.484375 C 10.582031 -3.484375 11.546875 -3.828125 12.265625 -4.515625 C 12.992188 -5.210938 13.359375 -6.140625 13.359375 -7.296875 Z M 13.359375 -8.875 "/></g></g></g><g fill="#ffffff" fill-opacity="1"><g transform="translate(90.260959, 69.877048)"><g><path d="M 10.8125 -3.828125 C 11.726562 -3.828125 12.828125 -4.023438 14.109375 -4.421875 L 14.109375 -0.53125 C 12.804688 0.0507812 11.203125 0.34375 9.296875 0.34375 C 7.210938 0.34375 5.691406 -0.179688 4.734375 -1.234375 C 3.785156 -2.296875 3.3125 -3.882812 3.3125 -6 L 3.3125 -15.234375 L 0.8125 -15.234375 L 0.8125 -17.4375 L 3.6875 -19.1875 L 5.1875 -23.234375 L 8.53125 -23.234375 L 8.53125 -19.15625 L 13.890625 -19.15625 L 13.890625 -15.234375 L 8.53125 -15.234375 L 8.53125 -6 C 8.53125 -5.257812 8.738281 -4.710938 9.15625 -4.359375 C 9.570312 -4.003906 10.125 -3.828125 10.8125 -3.828125 Z M 10.8125 -3.828125 "/></g></g></g><g fill="#ffffff" fill-opacity="1"><g transform="translate(105.49034, 69.877048)"><g><path d="M 10.671875 -15.796875 C 9.566406 -15.796875 8.695312 -15.441406 8.0625 -14.734375 C 7.4375 -14.035156 7.078125 -13.039062 6.984375 -11.75 L 14.328125 -11.75 C 14.304688 -13.039062 13.96875 -14.035156 13.3125 -14.734375 C 12.664062 -15.441406 11.785156 -15.796875 10.671875 -15.796875 Z M 11.40625 0.34375 C 8.320312 0.34375 5.910156 -0.503906 4.171875 -2.203125 C 2.441406 -3.910156 1.578125 -6.320312 1.578125 -9.4375 C 1.578125 -12.644531 2.378906 -15.125 3.984375 -16.875 C 5.585938 -18.632812 7.804688 -19.515625 10.640625 -19.515625 C 13.347656 -19.515625 15.453125 -18.742188 16.953125 -17.203125 C 18.460938 -15.660156 19.21875 -13.53125 19.21875 -10.8125 L 19.21875 -8.28125 L 6.875 -8.28125 C 6.925781 -6.789062 7.363281 -5.628906 8.1875 -4.796875 C 9.007812 -3.960938 10.164062 -3.546875 11.65625 -3.546875 C 12.8125 -3.546875 13.898438 -3.664062 14.921875 -3.90625 C 15.953125 -4.144531 17.023438 -4.53125 18.140625 -5.0625 L 18.140625 -1.015625 C 17.234375 -0.554688 16.257812 -0.21875 15.21875 0 C 14.175781 0.226562 12.90625 0.34375 11.40625 0.34375 Z M 11.40625 0.34375 "/></g></g></g><g fill="#ffffff" fill-opacity="1"><g transform="translate(126.218744, 69.877048)"><g><path d="M 13.4375 -19.515625 C 14.144531 -19.515625 14.734375 -19.460938 15.203125 -19.359375 L 14.8125 -14.46875 C 14.382812 -14.582031 13.867188 -14.640625 13.265625 -14.640625 C 11.597656 -14.640625 10.296875 -14.207031 9.359375 -13.34375 C 8.429688 -12.488281 7.96875 -11.289062 7.96875 -9.75 L 7.96875 0 L 2.734375 0 L 2.734375 -19.15625 L 6.703125 -19.15625 L 7.46875 -15.9375 L 7.734375 -15.9375 C 8.328125 -17.007812 9.128906 -17.875 10.140625 -18.53125 C 11.148438 -19.1875 12.25 -19.515625 13.4375 -19.515625 Z M 13.4375 -19.515625 "/></g></g></g><g fill="#ffffff" fill-opacity="1"><g transform="translate(142.150492, 69.877048)"><g><path d="M 2.515625 -24.109375 C 2.515625 -25.804688 3.460938 -26.65625 5.359375 -26.65625 C 7.253906 -26.65625 8.203125 -25.804688 8.203125 -24.109375 C 8.203125 -23.296875 7.960938 -22.664062 7.484375 -22.21875 C 7.015625 -21.769531 6.304688 -21.546875 5.359375 -21.546875 C 3.460938 -21.546875 2.515625 -22.398438 2.515625 -24.109375 Z M 7.96875 0 L 2.734375 0 L 2.734375 -19.15625 L 7.96875 -19.15625 Z M 7.96875 0 "/></g></g></g><g fill="#ffffff" fill-opacity="1"><g transform="translate(152.857312, 69.877048)"><g><path d="M 10.671875 -15.796875 C 9.566406 -15.796875 8.695312 -15.441406 8.0625 -14.734375 C 7.4375 -14.035156 7.078125 -13.039062 6.984375 -11.75 L 14.328125 -11.75 C 14.304688 -13.039062 13.96875 -14.035156 13.3125 -14.734375 C 12.664062 -15.441406 11.785156 -15.796875 10.671875 -15.796875 Z M 11.40625 0.34375 C 8.320312 0.34375 5.910156 -0.503906 4.171875 -2.203125 C 2.441406 -3.910156 1.578125 -6.320312 1.578125 -9.4375 C 1.578125 -12.644531 2.378906 -15.125 3.984375 -16.875 C 5.585938 -18.632812 7.804688 -19.515625 10.640625 -19.515625 C 13.347656 -19.515625 15.453125 -18.742188 16.953125 -17.203125 C 18.460938 -15.660156 19.21875 -13.53125 19.21875 -10.8125 L 19.21875 -8.28125 L 6.875 -8.28125 C 6.925781 -6.789062 7.363281 -5.628906 8.1875 -4.796875 C 9.007812 -3.960938 10.164062 -3.546875 11.65625 -3.546875 C 12.8125 -3.546875 13.898438 -3.664062 14.921875 -3.90625 C 15.953125 -4.144531 17.023438 -4.53125 18.140625 -5.0625 L 18.140625 -1.015625 C 17.234375 -0.554688 16.257812 -0.21875 15.21875 0 C 14.175781 0.226562 12.90625 0.34375 11.40625 0.34375 Z M 11.40625 0.34375 "/></g></g></g><g fill="#ffffff" fill-opacity="1"><g transform="translate(173.585716, 69.877048)"><g><path d="M 16.109375 -5.6875 C 16.109375 -3.71875 15.425781 -2.21875 14.0625 -1.1875 C 12.695312 -0.164062 10.65625 0.34375 7.9375 0.34375 C 6.539062 0.34375 5.347656 0.25 4.359375 0.0625 C 3.378906 -0.125 2.460938 -0.398438 1.609375 -0.765625 L 1.609375 -5.09375 C 2.578125 -4.632812 3.671875 -4.25 4.890625 -3.9375 C 6.109375 -3.632812 7.179688 -3.484375 8.109375 -3.484375 C 10.003906 -3.484375 10.953125 -4.03125 10.953125 -5.125 C 10.953125 -5.53125 10.828125 -5.863281 10.578125 -6.125 C 10.328125 -6.382812 9.890625 -6.675781 9.265625 -7 C 8.648438 -7.320312 7.828125 -7.703125 6.796875 -8.140625 C 5.328125 -8.753906 4.242188 -9.320312 3.546875 -9.84375 C 2.859375 -10.375 2.359375 -10.976562 2.046875 -11.65625 C 1.734375 -12.34375 1.578125 -13.179688 1.578125 -14.171875 C 1.578125 -15.867188 2.234375 -17.179688 3.546875 -18.109375 C 4.867188 -19.046875 6.742188 -19.515625 9.171875 -19.515625 C 11.472656 -19.515625 13.71875 -19.015625 15.90625 -18.015625 L 14.328125 -14.234375 C 13.367188 -14.648438 12.472656 -14.988281 11.640625 -15.25 C 10.804688 -15.507812 9.953125 -15.640625 9.078125 -15.640625 C 7.535156 -15.640625 6.765625 -15.222656 6.765625 -14.390625 C 6.765625 -13.921875 7.015625 -13.515625 7.515625 -13.171875 C 8.015625 -12.828125 9.101562 -12.320312 10.78125 -11.65625 C 12.269531 -11.050781 13.363281 -10.484375 14.0625 -9.953125 C 14.757812 -9.429688 15.273438 -8.828125 15.609375 -8.140625 C 15.941406 -7.453125 16.109375 -6.632812 16.109375 -5.6875 Z M 16.109375 -5.6875 "/></g></g></g></svg>