<svg xmlns="http://www.w3.org/2000/svg" xmlns:xlink="http://www.w3.org/1999/xlink" width="300" zoomAndPan="magnify" viewBox="0 0 224.87999 119.999999" height="160" preserveAspectRatio="xMidYMid meet" version="1.0"><defs><g/><clipPath id="dbb8034e41"><path d="M 0 0.03125 L 224.761719 0.03125 L 224.761719 119.96875 L 0 119.96875 Z M 0 0.03125 " clip-rule="nonzero"/></clipPath><clipPath id="4163195fe0"><path d="M 0 0.03125 L 224.761719 0.03125 L 224.761719 119.96875 L 0 119.96875 Z M 0 0.03125 " clip-rule="nonzero"/></clipPath><clipPath id="23d3fc76ef"><path d="M 5.996094 0.03125 L 218.882812 0.03125 C 222.195312 0.03125 224.878906 2.71875 224.878906 6.027344 L 224.878906 114.992188 C 224.878906 118.304688 222.195312 120.988281 218.882812 120.988281 L 5.996094 120.988281 C 2.683594 120.988281 0 118.304688 0 114.992188 L 0 6.027344 C 0 2.71875 2.683594 0.03125 5.996094 0.03125 " clip-rule="nonzero"/></clipPath></defs><g clip-path="url(#dbb8034e41)"><path fill="#ffffff" d="M 0 0.03125 L 224.878906 0.03125 L 224.878906 127.464844 L 0 127.464844 Z M 0 0.03125 " fill-opacity="1" fill-rule="nonzero"/><path fill="#ffffff" d="M 0 0.03125 L 224.878906 0.03125 L 224.878906 119.96875 L 0 119.96875 Z M 0 0.03125 " fill-opacity="1" fill-rule="nonzero"/><path fill="#ffffff" d="M 0 0.03125 L 224.878906 0.03125 L 224.878906 119.96875 L 0 119.96875 Z M 0 0.03125 " fill-opacity="1" fill-rule="nonzero"/></g><g clip-path="url(#4163195fe0)"><g clip-path="url(#23d3fc76ef)"><path fill="#8a2d88" d="M 0 0.03125 L 224.878906 0.03125 L 224.878906 120.988281 L 0 120.988281 Z M 0 0.03125 " fill-opacity="1" fill-rule="nonzero"/></g></g><g fill="#ffffff" fill-opacity="1"><g transform="translate(35.443294, 41.259201)"><g><path d="M 2.671875 -4.1875 L 3.234375 -4.1875 C 3.742188 -4.1875 4.125 -4.289062 4.375 -4.5 C 4.632812 -4.707031 4.765625 -5.003906 4.765625 -5.390625 C 4.765625 -5.785156 4.65625 -6.078125 4.4375 -6.265625 C 4.226562 -6.453125 3.894531 -6.546875 3.4375 -6.546875 L 2.671875 -6.546875 Z M 6.46875 -5.453125 C 6.46875 -4.597656 6.203125 -3.941406 5.671875 -3.484375 C 5.140625 -3.035156 4.378906 -2.8125 3.390625 -2.8125 L 2.671875 -2.8125 L 2.671875 0 L 1 0 L 1 -7.921875 L 3.53125 -7.921875 C 4.488281 -7.921875 5.21875 -7.710938 5.71875 -7.296875 C 6.21875 -6.878906 6.46875 -6.265625 6.46875 -5.453125 Z M 6.46875 -5.453125 "/></g></g></g><g fill="#ffffff" fill-opacity="1"><g transform="translate(42.410055, 41.259201)"><g><path d="M 4.25 -6.171875 C 4.46875 -6.171875 4.65625 -6.15625 4.8125 -6.125 L 4.6875 -4.578125 C 4.550781 -4.609375 4.382812 -4.625 4.1875 -4.625 C 3.664062 -4.625 3.253906 -4.488281 2.953125 -4.21875 C 2.660156 -3.945312 2.515625 -3.566406 2.515625 -3.078125 L 2.515625 0 L 0.859375 0 L 0.859375 -6.0625 L 2.125 -6.0625 L 2.359375 -5.03125 L 2.4375 -5.03125 C 2.625 -5.375 2.878906 -5.648438 3.203125 -5.859375 C 3.523438 -6.066406 3.875 -6.171875 4.25 -6.171875 Z M 4.25 -6.171875 "/></g></g></g><g fill="#ffffff" fill-opacity="1"><g transform="translate(47.448227, 41.259201)"><g><path d="M 4.71875 0 L 4.390625 -0.828125 L 4.34375 -0.828125 C 4.070312 -0.472656 3.785156 -0.226562 3.484375 -0.09375 C 3.191406 0.0390625 2.8125 0.109375 2.34375 0.109375 C 1.757812 0.109375 1.300781 -0.0546875 0.96875 -0.390625 C 0.632812 -0.722656 0.46875 -1.195312 0.46875 -1.8125 C 0.46875 -2.457031 0.691406 -2.929688 1.140625 -3.234375 C 1.585938 -3.535156 2.265625 -3.703125 3.171875 -3.734375 L 4.21875 -3.765625 L 4.21875 -4.03125 C 4.21875 -4.644531 3.90625 -4.953125 3.28125 -4.953125 C 2.800781 -4.953125 2.234375 -4.804688 1.578125 -4.515625 L 1.03125 -5.640625 C 1.726562 -6.003906 2.5 -6.1875 3.34375 -6.1875 C 4.15625 -6.1875 4.773438 -6.007812 5.203125 -5.65625 C 5.640625 -5.300781 5.859375 -4.757812 5.859375 -4.03125 L 5.859375 0 Z M 4.21875 -2.8125 L 3.59375 -2.78125 C 3.101562 -2.769531 2.738281 -2.679688 2.5 -2.515625 C 2.269531 -2.359375 2.15625 -2.117188 2.15625 -1.796875 C 2.15625 -1.328125 2.425781 -1.09375 2.96875 -1.09375 C 3.34375 -1.09375 3.644531 -1.203125 3.875 -1.421875 C 4.101562 -1.648438 4.21875 -1.945312 4.21875 -2.3125 Z M 4.21875 -2.8125 "/></g></g></g><g fill="#ffffff" fill-opacity="1"><g transform="translate(54.149537, 41.259201)"><g><path d="M 3.421875 -1.203125 C 3.703125 -1.203125 4.046875 -1.265625 4.453125 -1.390625 L 4.453125 -0.171875 C 4.046875 0.015625 3.539062 0.109375 2.9375 0.109375 C 2.28125 0.109375 1.800781 -0.0546875 1.5 -0.390625 C 1.195312 -0.722656 1.046875 -1.222656 1.046875 -1.890625 L 1.046875 -4.8125 L 0.25 -4.8125 L 0.25 -5.515625 L 1.171875 -6.0625 L 1.640625 -7.34375 L 2.703125 -7.34375 L 2.703125 -6.0625 L 4.390625 -6.0625 L 4.390625 -4.8125 L 2.703125 -4.8125 L 2.703125 -1.890625 C 2.703125 -1.660156 2.765625 -1.488281 2.890625 -1.375 C 3.023438 -1.257812 3.203125 -1.203125 3.421875 -1.203125 Z M 3.421875 -1.203125 "/></g></g></g><g fill="#ffffff" fill-opacity="1"><g transform="translate(58.965595, 41.259201)"><g><path d="M 0.796875 -7.625 C 0.796875 -8.15625 1.097656 -8.421875 1.703125 -8.421875 C 2.296875 -8.421875 2.59375 -8.15625 2.59375 -7.625 C 2.59375 -7.363281 2.515625 -7.160156 2.359375 -7.015625 C 2.210938 -6.878906 1.992188 -6.8125 1.703125 -6.8125 C 1.097656 -6.8125 0.796875 -7.082031 0.796875 -7.625 Z M 2.515625 0 L 0.859375 0 L 0.859375 -6.0625 L 2.515625 -6.0625 Z M 2.515625 0 "/></g></g></g><g fill="#ffffff" fill-opacity="1"><g transform="translate(62.351463, 41.259201)"><g><path d="M 3.375 -1.1875 C 3.789062 -1.1875 4.097656 -1.304688 4.296875 -1.546875 C 4.492188 -1.785156 4.597656 -2.207031 4.609375 -2.8125 L 4.609375 -3 C 4.609375 -3.65625 4.507812 -4.125 4.3125 -4.40625 C 4.113281 -4.6875 3.789062 -4.828125 3.34375 -4.828125 C 2.570312 -4.828125 2.1875 -4.21875 2.1875 -3 C 2.1875 -2.382812 2.28125 -1.925781 2.46875 -1.625 C 2.664062 -1.332031 2.96875 -1.1875 3.375 -1.1875 Z M 2.78125 0.109375 C 2.070312 0.109375 1.515625 -0.164062 1.109375 -0.71875 C 0.703125 -1.269531 0.5 -2.035156 0.5 -3.015625 C 0.5 -4.003906 0.703125 -4.773438 1.109375 -5.328125 C 1.523438 -5.890625 2.09375 -6.171875 2.8125 -6.171875 C 3.195312 -6.171875 3.53125 -6.097656 3.8125 -5.953125 C 4.101562 -5.804688 4.359375 -5.582031 4.578125 -5.28125 L 4.609375 -5.28125 L 4.765625 -6.0625 L 6.15625 -6.0625 L 6.15625 2.671875 L 4.5 2.671875 L 4.5 0.125 C 4.5 -0.09375 4.523438 -0.394531 4.578125 -0.78125 L 4.5 -0.78125 C 4.320312 -0.488281 4.085938 -0.265625 3.796875 -0.109375 C 3.503906 0.0351562 3.164062 0.109375 2.78125 0.109375 Z M 2.78125 0.109375 "/></g></g></g><g fill="#ffffff" fill-opacity="1"><g transform="translate(69.372399, 41.259201)"><g><path d="M 5.15625 0 L 4.9375 -0.78125 L 4.84375 -0.78125 C 4.664062 -0.5 4.414062 -0.28125 4.09375 -0.125 C 3.769531 0.03125 3.398438 0.109375 2.984375 0.109375 C 2.273438 0.109375 1.738281 -0.078125 1.375 -0.453125 C 1.007812 -0.835938 0.828125 -1.390625 0.828125 -2.109375 L 0.828125 -6.0625 L 2.484375 -6.0625 L 2.484375 -2.515625 C 2.484375 -2.078125 2.5625 -1.75 2.71875 -1.53125 C 2.875 -1.3125 3.125 -1.203125 3.46875 -1.203125 C 3.925781 -1.203125 4.253906 -1.359375 4.453125 -1.671875 C 4.660156 -1.984375 4.765625 -2.492188 4.765625 -3.203125 L 4.765625 -6.0625 L 6.421875 -6.0625 L 6.421875 0 Z M 5.15625 0 "/></g></g></g><g fill="#ffffff" fill-opacity="1"><g transform="translate(76.664204, 41.259201)"><g><path d="M 3.375 -5 C 3.019531 -5 2.742188 -4.882812 2.546875 -4.65625 C 2.347656 -4.4375 2.234375 -4.125 2.203125 -3.71875 L 4.53125 -3.71875 C 4.519531 -4.125 4.410156 -4.4375 4.203125 -4.65625 C 4.003906 -4.882812 3.726562 -5 3.375 -5 Z M 3.609375 0.109375 C 2.628906 0.109375 1.863281 -0.15625 1.3125 -0.6875 C 0.769531 -1.226562 0.5 -1.992188 0.5 -2.984375 C 0.5 -3.992188 0.75 -4.773438 1.25 -5.328125 C 1.757812 -5.890625 2.460938 -6.171875 3.359375 -6.171875 C 4.210938 -6.171875 4.878906 -5.925781 5.359375 -5.4375 C 5.835938 -4.945312 6.078125 -4.273438 6.078125 -3.421875 L 6.078125 -2.609375 L 2.171875 -2.609375 C 2.191406 -2.140625 2.332031 -1.773438 2.59375 -1.515625 C 2.851562 -1.253906 3.21875 -1.125 3.6875 -1.125 C 4.050781 -1.125 4.394531 -1.160156 4.71875 -1.234375 C 5.039062 -1.304688 5.378906 -1.425781 5.734375 -1.59375 L 5.734375 -0.3125 C 5.441406 -0.175781 5.128906 -0.0703125 4.796875 0 C 4.472656 0.0703125 4.078125 0.109375 3.609375 0.109375 Z M 3.609375 0.109375 "/></g></g></g><g fill="#ffffff" fill-opacity="1"><g transform="translate(83.219244, 41.259201)"><g><path d="M 5.09375 -1.796875 C 5.09375 -1.171875 4.875 -0.695312 4.4375 -0.375 C 4.007812 -0.0507812 3.367188 0.109375 2.515625 0.109375 C 2.066406 0.109375 1.6875 0.078125 1.375 0.015625 C 1.070312 -0.046875 0.785156 -0.132812 0.515625 -0.25 L 0.515625 -1.609375 C 0.816406 -1.460938 1.160156 -1.335938 1.546875 -1.234375 C 1.929688 -1.140625 2.269531 -1.09375 2.5625 -1.09375 C 3.164062 -1.09375 3.46875 -1.269531 3.46875 -1.625 C 3.46875 -1.75 3.425781 -1.851562 3.34375 -1.9375 C 3.257812 -2.019531 3.117188 -2.109375 2.921875 -2.203125 C 2.734375 -2.304688 2.476562 -2.429688 2.15625 -2.578125 C 1.6875 -2.765625 1.34375 -2.941406 1.125 -3.109375 C 0.90625 -3.273438 0.742188 -3.46875 0.640625 -3.6875 C 0.546875 -3.90625 0.5 -4.171875 0.5 -4.484375 C 0.5 -5.015625 0.707031 -5.425781 1.125 -5.71875 C 1.539062 -6.019531 2.128906 -6.171875 2.890625 -6.171875 C 3.628906 -6.171875 4.34375 -6.007812 5.03125 -5.6875 L 4.53125 -4.5 C 4.226562 -4.632812 3.941406 -4.742188 3.671875 -4.828125 C 3.410156 -4.910156 3.144531 -4.953125 2.875 -4.953125 C 2.382812 -4.953125 2.140625 -4.816406 2.140625 -4.546875 C 2.140625 -4.398438 2.21875 -4.269531 2.375 -4.15625 C 2.53125 -4.050781 2.875 -3.894531 3.40625 -3.6875 C 3.875 -3.488281 4.21875 -3.304688 4.4375 -3.140625 C 4.664062 -2.972656 4.832031 -2.78125 4.9375 -2.5625 C 5.039062 -2.351562 5.09375 -2.097656 5.09375 -1.796875 Z M 5.09375 -1.796875 "/></g></g></g><g fill="#ffffff" fill-opacity="1"><g transform="translate(88.734146, 41.259201)"><g/></g></g><g fill="#ffffff" fill-opacity="1"><g transform="translate(91.616197, 41.259201)"><g><path d="M 2.78125 0.109375 C 2.070312 0.109375 1.515625 -0.164062 1.109375 -0.71875 C 0.703125 -1.269531 0.5 -2.035156 0.5 -3.015625 C 0.5 -4.003906 0.703125 -4.773438 1.109375 -5.328125 C 1.523438 -5.890625 2.097656 -6.171875 2.828125 -6.171875 C 3.585938 -6.171875 4.171875 -5.875 4.578125 -5.28125 L 4.625 -5.28125 C 4.539062 -5.726562 4.5 -6.128906 4.5 -6.484375 L 4.5 -8.421875 L 6.15625 -8.421875 L 6.15625 0 L 4.890625 0 L 4.578125 -0.78125 L 4.5 -0.78125 C 4.125 -0.1875 3.550781 0.109375 2.78125 0.109375 Z M 3.359375 -1.203125 C 3.785156 -1.203125 4.097656 -1.320312 4.296875 -1.5625 C 4.492188 -1.8125 4.597656 -2.234375 4.609375 -2.828125 L 4.609375 -3 C 4.609375 -3.65625 4.507812 -4.125 4.3125 -4.40625 C 4.113281 -4.6875 3.789062 -4.828125 3.34375 -4.828125 C 2.96875 -4.828125 2.675781 -4.671875 2.46875 -4.359375 C 2.269531 -4.046875 2.171875 -3.59375 2.171875 -3 C 2.171875 -2.40625 2.273438 -1.957031 2.484375 -1.65625 C 2.691406 -1.351562 2.984375 -1.203125 3.359375 -1.203125 Z M 3.359375 -1.203125 "/></g></g></g><g fill="#ffffff" fill-opacity="1"><g transform="translate(98.637132, 41.259201)"><g><path d="M 3.375 -5 C 3.019531 -5 2.742188 -4.882812 2.546875 -4.65625 C 2.347656 -4.4375 2.234375 -4.125 2.203125 -3.71875 L 4.53125 -3.71875 C 4.519531 -4.125 4.410156 -4.4375 4.203125 -4.65625 C 4.003906 -4.882812 3.726562 -5 3.375 -5 Z M 3.609375 0.109375 C 2.628906 0.109375 1.863281 -0.15625 1.3125 -0.6875 C 0.769531 -1.226562 0.5 -1.992188 0.5 -2.984375 C 0.5 -3.992188 0.75 -4.773438 1.25 -5.328125 C 1.757812 -5.890625 2.460938 -6.171875 3.359375 -6.171875 C 4.210938 -6.171875 4.878906 -5.925781 5.359375 -5.4375 C 5.835938 -4.945312 6.078125 -4.273438 6.078125 -3.421875 L 6.078125 -2.609375 L 2.171875 -2.609375 C 2.191406 -2.140625 2.332031 -1.773438 2.59375 -1.515625 C 2.851562 -1.253906 3.21875 -1.125 3.6875 -1.125 C 4.050781 -1.125 4.394531 -1.160156 4.71875 -1.234375 C 5.039062 -1.304688 5.378906 -1.425781 5.734375 -1.59375 L 5.734375 -0.3125 C 5.441406 -0.175781 5.128906 -0.0703125 4.796875 0 C 4.472656 0.0703125 4.078125 0.109375 3.609375 0.109375 Z M 3.609375 0.109375 "/></g></g></g><g fill="#ffffff" fill-opacity="1"><g transform="translate(105.192173, 41.259201)"><g/></g></g><g fill="#ffffff" fill-opacity="1"><g transform="translate(108.074224, 41.259201)"><g><path d="M 3.328125 0.109375 C 1.441406 0.109375 0.5 -0.925781 0.5 -3 C 0.5 -4.03125 0.753906 -4.816406 1.265625 -5.359375 C 1.773438 -5.898438 2.507812 -6.171875 3.46875 -6.171875 C 4.164062 -6.171875 4.796875 -6.035156 5.359375 -5.765625 L 4.875 -4.484375 C 4.613281 -4.585938 4.367188 -4.671875 4.140625 -4.734375 C 3.921875 -4.804688 3.695312 -4.84375 3.46875 -4.84375 C 2.613281 -4.84375 2.1875 -4.226562 2.1875 -3 C 2.1875 -1.820312 2.613281 -1.234375 3.46875 -1.234375 C 3.789062 -1.234375 4.085938 -1.273438 4.359375 -1.359375 C 4.628906 -1.441406 4.898438 -1.570312 5.171875 -1.75 L 5.171875 -0.34375 C 4.898438 -0.175781 4.628906 -0.0625 4.359375 0 C 4.085938 0.0703125 3.742188 0.109375 3.328125 0.109375 Z M 3.328125 0.109375 "/></g></g></g><g fill="#ffffff" fill-opacity="1"><g transform="translate(113.778734, 41.259201)"><g><path d="M 2.1875 -3.03125 C 2.1875 -2.4375 2.285156 -1.984375 2.484375 -1.671875 C 2.679688 -1.367188 3 -1.21875 3.4375 -1.21875 C 3.875 -1.21875 4.191406 -1.367188 4.390625 -1.671875 C 4.585938 -1.984375 4.6875 -2.4375 4.6875 -3.03125 C 4.6875 -3.632812 4.585938 -4.085938 4.390625 -4.390625 C 4.191406 -4.691406 3.867188 -4.84375 3.421875 -4.84375 C 2.984375 -4.84375 2.664062 -4.691406 2.46875 -4.390625 C 2.28125 -4.085938 2.1875 -3.632812 2.1875 -3.03125 Z M 6.375 -3.03125 C 6.375 -2.050781 6.113281 -1.28125 5.59375 -0.71875 C 5.070312 -0.164062 4.347656 0.109375 3.421875 0.109375 C 2.835938 0.109375 2.320312 -0.015625 1.875 -0.265625 C 1.4375 -0.523438 1.097656 -0.890625 0.859375 -1.359375 C 0.617188 -1.835938 0.5 -2.394531 0.5 -3.03125 C 0.5 -4.019531 0.753906 -4.789062 1.265625 -5.34375 C 1.785156 -5.894531 2.515625 -6.171875 3.453125 -6.171875 C 4.035156 -6.171875 4.546875 -6.039062 4.984375 -5.78125 C 5.429688 -5.53125 5.773438 -5.171875 6.015625 -4.703125 C 6.253906 -4.234375 6.375 -3.675781 6.375 -3.03125 Z M 6.375 -3.03125 "/></g></g></g><g fill="#ffffff" fill-opacity="1"><g transform="translate(120.647983, 41.259201)"><g><path d="M 2.1875 -3.03125 C 2.1875 -2.4375 2.285156 -1.984375 2.484375 -1.671875 C 2.679688 -1.367188 3 -1.21875 3.4375 -1.21875 C 3.875 -1.21875 4.191406 -1.367188 4.390625 -1.671875 C 4.585938 -1.984375 4.6875 -2.4375 4.6875 -3.03125 C 4.6875 -3.632812 4.585938 -4.085938 4.390625 -4.390625 C 4.191406 -4.691406 3.867188 -4.84375 3.421875 -4.84375 C 2.984375 -4.84375 2.664062 -4.691406 2.46875 -4.390625 C 2.28125 -4.085938 2.1875 -3.632812 2.1875 -3.03125 Z M 6.375 -3.03125 C 6.375 -2.050781 6.113281 -1.28125 5.59375 -0.71875 C 5.070312 -0.164062 4.347656 0.109375 3.421875 0.109375 C 2.835938 0.109375 2.320312 -0.015625 1.875 -0.265625 C 1.4375 -0.523438 1.097656 -0.890625 0.859375 -1.359375 C 0.617188 -1.835938 0.5 -2.394531 0.5 -3.03125 C 0.5 -4.019531 0.753906 -4.789062 1.265625 -5.34375 C 1.785156 -5.894531 2.515625 -6.171875 3.453125 -6.171875 C 4.035156 -6.171875 4.546875 -6.039062 4.984375 -5.78125 C 5.429688 -5.53125 5.773438 -5.171875 6.015625 -4.703125 C 6.253906 -4.234375 6.375 -3.675781 6.375 -3.03125 Z M 6.375 -3.03125 "/></g></g></g><g fill="#ffffff" fill-opacity="1"><g transform="translate(127.517232, 41.259201)"><g><path d="M 4.1875 0.109375 C 3.476562 0.109375 2.921875 -0.148438 2.515625 -0.671875 L 2.4375 -0.671875 C 2.488281 -0.160156 2.515625 0.132812 2.515625 0.21875 L 2.515625 2.671875 L 0.859375 2.671875 L 0.859375 -6.0625 L 2.203125 -6.0625 L 2.4375 -5.265625 L 2.515625 -5.265625 C 2.898438 -5.867188 3.472656 -6.171875 4.234375 -6.171875 C 4.953125 -6.171875 5.507812 -5.894531 5.90625 -5.34375 C 6.3125 -4.789062 6.515625 -4.019531 6.515625 -3.03125 C 6.515625 -2.382812 6.421875 -1.820312 6.234375 -1.34375 C 6.046875 -0.875 5.773438 -0.515625 5.421875 -0.265625 C 5.078125 -0.015625 4.664062 0.109375 4.1875 0.109375 Z M 3.703125 -4.84375 C 3.296875 -4.84375 3 -4.71875 2.8125 -4.46875 C 2.625 -4.21875 2.523438 -3.804688 2.515625 -3.234375 L 2.515625 -3.046875 C 2.515625 -2.398438 2.609375 -1.9375 2.796875 -1.65625 C 2.992188 -1.375 3.304688 -1.234375 3.734375 -1.234375 C 4.472656 -1.234375 4.84375 -1.84375 4.84375 -3.0625 C 4.84375 -3.65625 4.75 -4.097656 4.5625 -4.390625 C 4.382812 -4.691406 4.097656 -4.84375 3.703125 -4.84375 Z M 3.703125 -4.84375 "/></g></g></g><g fill="#ffffff" fill-opacity="1"><g transform="translate(134.538167, 41.259201)"><g><path d="M 3.375 -5 C 3.019531 -5 2.742188 -4.882812 2.546875 -4.65625 C 2.347656 -4.4375 2.234375 -4.125 2.203125 -3.71875 L 4.53125 -3.71875 C 4.519531 -4.125 4.410156 -4.4375 4.203125 -4.65625 C 4.003906 -4.882812 3.726562 -5 3.375 -5 Z M 3.609375 0.109375 C 2.628906 0.109375 1.863281 -0.15625 1.3125 -0.6875 C 0.769531 -1.226562 0.5 -1.992188 0.5 -2.984375 C 0.5 -3.992188 0.75 -4.773438 1.25 -5.328125 C 1.757812 -5.890625 2.460938 -6.171875 3.359375 -6.171875 C 4.210938 -6.171875 4.878906 -5.925781 5.359375 -5.4375 C 5.835938 -4.945312 6.078125 -4.273438 6.078125 -3.421875 L 6.078125 -2.609375 L 2.171875 -2.609375 C 2.191406 -2.140625 2.332031 -1.773438 2.59375 -1.515625 C 2.851562 -1.253906 3.21875 -1.125 3.6875 -1.125 C 4.050781 -1.125 4.394531 -1.160156 4.71875 -1.234375 C 5.039062 -1.304688 5.378906 -1.425781 5.734375 -1.59375 L 5.734375 -0.3125 C 5.441406 -0.175781 5.128906 -0.0703125 4.796875 0 C 4.472656 0.0703125 4.078125 0.109375 3.609375 0.109375 Z M 2.421875 -6.71875 L 2.421875 -6.875 C 3.046875 -7.59375 3.472656 -8.132812 3.703125 -8.5 L 5.546875 -8.5 L 5.546875 -8.390625 C 5.359375 -8.203125 5.035156 -7.921875 4.578125 -7.546875 C 4.128906 -7.179688 3.773438 -6.90625 3.515625 -6.71875 Z M 2.421875 -6.71875 "/></g></g></g><g fill="#ffffff" fill-opacity="1"><g transform="translate(141.093208, 41.259201)"><g><path d="M 4.25 -6.171875 C 4.46875 -6.171875 4.65625 -6.15625 4.8125 -6.125 L 4.6875 -4.578125 C 4.550781 -4.609375 4.382812 -4.625 4.1875 -4.625 C 3.664062 -4.625 3.253906 -4.488281 2.953125 -4.21875 C 2.660156 -3.945312 2.515625 -3.566406 2.515625 -3.078125 L 2.515625 0 L 0.859375 0 L 0.859375 -6.0625 L 2.125 -6.0625 L 2.359375 -5.03125 L 2.4375 -5.03125 C 2.625 -5.375 2.878906 -5.648438 3.203125 -5.859375 C 3.523438 -6.066406 3.875 -6.171875 4.25 -6.171875 Z M 4.25 -6.171875 "/></g></g></g><g fill="#ffffff" fill-opacity="1"><g transform="translate(146.131379, 41.259201)"><g><path d="M 4.71875 0 L 4.390625 -0.828125 L 4.34375 -0.828125 C 4.070312 -0.472656 3.785156 -0.226562 3.484375 -0.09375 C 3.191406 0.0390625 2.8125 0.109375 2.34375 0.109375 C 1.757812 0.109375 1.300781 -0.0546875 0.96875 -0.390625 C 0.632812 -0.722656 0.46875 -1.195312 0.46875 -1.8125 C 0.46875 -2.457031 0.691406 -2.929688 1.140625 -3.234375 C 1.585938 -3.535156 2.265625 -3.703125 3.171875 -3.734375 L 4.21875 -3.765625 L 4.21875 -4.03125 C 4.21875 -4.644531 3.90625 -4.953125 3.28125 -4.953125 C 2.800781 -4.953125 2.234375 -4.804688 1.578125 -4.515625 L 1.03125 -5.640625 C 1.726562 -6.003906 2.5 -6.1875 3.34375 -6.1875 C 4.15625 -6.1875 4.773438 -6.007812 5.203125 -5.65625 C 5.640625 -5.300781 5.859375 -4.757812 5.859375 -4.03125 L 5.859375 0 Z M 4.21875 -2.8125 L 3.59375 -2.78125 C 3.101562 -2.769531 2.738281 -2.679688 2.5 -2.515625 C 2.269531 -2.359375 2.15625 -2.117188 2.15625 -1.796875 C 2.15625 -1.328125 2.425781 -1.09375 2.96875 -1.09375 C 3.34375 -1.09375 3.644531 -1.203125 3.875 -1.421875 C 4.101562 -1.648438 4.21875 -1.945312 4.21875 -2.3125 Z M 4.21875 -2.8125 "/></g></g></g><g fill="#ffffff" fill-opacity="1"><g transform="translate(152.832689, 41.259201)"><g><path d="M 3.421875 -1.203125 C 3.703125 -1.203125 4.046875 -1.265625 4.453125 -1.390625 L 4.453125 -0.171875 C 4.046875 0.015625 3.539062 0.109375 2.9375 0.109375 C 2.28125 0.109375 1.800781 -0.0546875 1.5 -0.390625 C 1.195312 -0.722656 1.046875 -1.222656 1.046875 -1.890625 L 1.046875 -4.8125 L 0.25 -4.8125 L 0.25 -5.515625 L 1.171875 -6.0625 L 1.640625 -7.34375 L 2.703125 -7.34375 L 2.703125 -6.0625 L 4.390625 -6.0625 L 4.390625 -4.8125 L 2.703125 -4.8125 L 2.703125 -1.890625 C 2.703125 -1.660156 2.765625 -1.488281 2.890625 -1.375 C 3.023438 -1.257812 3.203125 -1.203125 3.421875 -1.203125 Z M 3.421875 -1.203125 "/></g></g></g><g fill="#ffffff" fill-opacity="1"><g transform="translate(157.648747, 41.259201)"><g><path d="M 0.796875 -7.625 C 0.796875 -8.15625 1.097656 -8.421875 1.703125 -8.421875 C 2.296875 -8.421875 2.59375 -8.15625 2.59375 -7.625 C 2.59375 -7.363281 2.515625 -7.160156 2.359375 -7.015625 C 2.210938 -6.878906 1.992188 -6.8125 1.703125 -6.8125 C 1.097656 -6.8125 0.796875 -7.082031 0.796875 -7.625 Z M 2.515625 0 L 0.859375 0 L 0.859375 -6.0625 L 2.515625 -6.0625 Z M 2.515625 0 "/></g></g></g><g fill="#ffffff" fill-opacity="1"><g transform="translate(161.034615, 41.259201)"><g><path d="M 2.1875 -3.03125 C 2.1875 -2.4375 2.285156 -1.984375 2.484375 -1.671875 C 2.679688 -1.367188 3 -1.21875 3.4375 -1.21875 C 3.875 -1.21875 4.191406 -1.367188 4.390625 -1.671875 C 4.585938 -1.984375 4.6875 -2.4375 4.6875 -3.03125 C 4.6875 -3.632812 4.585938 -4.085938 4.390625 -4.390625 C 4.191406 -4.691406 3.867188 -4.84375 3.421875 -4.84375 C 2.984375 -4.84375 2.664062 -4.691406 2.46875 -4.390625 C 2.28125 -4.085938 2.1875 -3.632812 2.1875 -3.03125 Z M 6.375 -3.03125 C 6.375 -2.050781 6.113281 -1.28125 5.59375 -0.71875 C 5.070312 -0.164062 4.347656 0.109375 3.421875 0.109375 C 2.835938 0.109375 2.320312 -0.015625 1.875 -0.265625 C 1.4375 -0.523438 1.097656 -0.890625 0.859375 -1.359375 C 0.617188 -1.835938 0.5 -2.394531 0.5 -3.03125 C 0.5 -4.019531 0.753906 -4.789062 1.265625 -5.34375 C 1.785156 -5.894531 2.515625 -6.171875 3.453125 -6.171875 C 4.035156 -6.171875 4.546875 -6.039062 4.984375 -5.78125 C 5.429688 -5.53125 5.773438 -5.171875 6.015625 -4.703125 C 6.253906 -4.234375 6.375 -3.675781 6.375 -3.03125 Z M 6.375 -3.03125 "/></g></g></g><g fill="#ffffff" fill-opacity="1"><g transform="translate(167.903864, 41.259201)"><g><path d="M 6.453125 0 L 4.8125 0 L 4.8125 -3.53125 C 4.8125 -3.96875 4.734375 -4.296875 4.578125 -4.515625 C 4.421875 -4.734375 4.171875 -4.84375 3.828125 -4.84375 C 3.367188 -4.84375 3.035156 -4.6875 2.828125 -4.375 C 2.617188 -4.070312 2.515625 -3.5625 2.515625 -2.84375 L 2.515625 0 L 0.859375 0 L 0.859375 -6.0625 L 2.125 -6.0625 L 2.34375 -5.28125 L 2.4375 -5.28125 C 2.625 -5.570312 2.878906 -5.789062 3.203125 -5.9375 C 3.523438 -6.09375 3.894531 -6.171875 4.3125 -6.171875 C 5.007812 -6.171875 5.539062 -5.976562 5.90625 -5.59375 C 6.269531 -5.21875 6.453125 -4.671875 6.453125 -3.953125 Z M 6.453125 0 "/></g></g></g><g fill="#ffffff" fill-opacity="1"><g transform="translate(175.195669, 41.259201)"><g/></g></g><g fill="#ffffff" fill-opacity="1"><g transform="translate(178.07772, 41.259201)"><g><path d="M 3.375 -5 C 3.019531 -5 2.742188 -4.882812 2.546875 -4.65625 C 2.347656 -4.4375 2.234375 -4.125 2.203125 -3.71875 L 4.53125 -3.71875 C 4.519531 -4.125 4.410156 -4.4375 4.203125 -4.65625 C 4.003906 -4.882812 3.726562 -5 3.375 -5 Z M 3.609375 0.109375 C 2.628906 0.109375 1.863281 -0.15625 1.3125 -0.6875 C 0.769531 -1.226562 0.5 -1.992188 0.5 -2.984375 C 0.5 -3.992188 0.75 -4.773438 1.25 -5.328125 C 1.757812 -5.890625 2.460938 -6.171875 3.359375 -6.171875 C 4.210938 -6.171875 4.878906 -5.925781 5.359375 -5.4375 C 5.835938 -4.945312 6.078125 -4.273438 6.078125 -3.421875 L 6.078125 -2.609375 L 2.171875 -2.609375 C 2.191406 -2.140625 2.332031 -1.773438 2.59375 -1.515625 C 2.851562 -1.253906 3.21875 -1.125 3.6875 -1.125 C 4.050781 -1.125 4.394531 -1.160156 4.71875 -1.234375 C 5.039062 -1.304688 5.378906 -1.425781 5.734375 -1.59375 L 5.734375 -0.3125 C 5.441406 -0.175781 5.128906 -0.0703125 4.796875 0 C 4.472656 0.0703125 4.078125 0.109375 3.609375 0.109375 Z M 3.609375 0.109375 "/></g></g></g><g fill="#ffffff" fill-opacity="1"><g transform="translate(184.63276, 41.259201)"><g><path d="M 3.421875 -1.203125 C 3.703125 -1.203125 4.046875 -1.265625 4.453125 -1.390625 L 4.453125 -0.171875 C 4.046875 0.015625 3.539062 0.109375 2.9375 0.109375 C 2.28125 0.109375 1.800781 -0.0546875 1.5 -0.390625 C 1.195312 -0.722656 1.046875 -1.222656 1.046875 -1.890625 L 1.046875 -4.8125 L 0.25 -4.8125 L 0.25 -5.515625 L 1.171875 -6.0625 L 1.640625 -7.34375 L 2.703125 -7.34375 L 2.703125 -6.0625 L 4.390625 -6.0625 L 4.390625 -4.8125 L 2.703125 -4.8125 L 2.703125 -1.890625 C 2.703125 -1.660156 2.765625 -1.488281 2.890625 -1.375 C 3.023438 -1.257812 3.203125 -1.203125 3.421875 -1.203125 Z M 3.421875 -1.203125 "/></g></g></g><g fill="#ffffff" fill-opacity="1"><g transform="translate(59.991785, 55.835376)"><g><path d="M 2.78125 0.109375 C 2.070312 0.109375 1.515625 -0.164062 1.109375 -0.71875 C 0.703125 -1.269531 0.5 -2.035156 0.5 -3.015625 C 0.5 -4.003906 0.703125 -4.773438 1.109375 -5.328125 C 1.523438 -5.890625 2.097656 -6.171875 2.828125 -6.171875 C 3.585938 -6.171875 4.171875 -5.875 4.578125 -5.28125 L 4.625 -5.28125 C 4.539062 -5.726562 4.5 -6.128906 4.5 -6.484375 L 4.5 -8.421875 L 6.15625 -8.421875 L 6.15625 0 L 4.890625 0 L 4.578125 -0.78125 L 4.5 -0.78125 C 4.125 -0.1875 3.550781 0.109375 2.78125 0.109375 Z M 3.359375 -1.203125 C 3.785156 -1.203125 4.097656 -1.320312 4.296875 -1.5625 C 4.492188 -1.8125 4.597656 -2.234375 4.609375 -2.828125 L 4.609375 -3 C 4.609375 -3.65625 4.507812 -4.125 4.3125 -4.40625 C 4.113281 -4.6875 3.789062 -4.828125 3.34375 -4.828125 C 2.96875 -4.828125 2.675781 -4.671875 2.46875 -4.359375 C 2.269531 -4.046875 2.171875 -3.59375 2.171875 -3 C 2.171875 -2.40625 2.273438 -1.957031 2.484375 -1.65625 C 2.691406 -1.351562 2.984375 -1.203125 3.359375 -1.203125 Z M 3.359375 -1.203125 "/></g></g></g><g fill="#ffffff" fill-opacity="1"><g transform="translate(67.012721, 55.835376)"><g><path d="M 3.375 -5 C 3.019531 -5 2.742188 -4.882812 2.546875 -4.65625 C 2.347656 -4.4375 2.234375 -4.125 2.203125 -3.71875 L 4.53125 -3.71875 C 4.519531 -4.125 4.410156 -4.4375 4.203125 -4.65625 C 4.003906 -4.882812 3.726562 -5 3.375 -5 Z M 3.609375 0.109375 C 2.628906 0.109375 1.863281 -0.15625 1.3125 -0.6875 C 0.769531 -1.226562 0.5 -1.992188 0.5 -2.984375 C 0.5 -3.992188 0.75 -4.773438 1.25 -5.328125 C 1.757812 -5.890625 2.460938 -6.171875 3.359375 -6.171875 C 4.210938 -6.171875 4.878906 -5.925781 5.359375 -5.4375 C 5.835938 -4.945312 6.078125 -4.273438 6.078125 -3.421875 L 6.078125 -2.609375 L 2.171875 -2.609375 C 2.191406 -2.140625 2.332031 -1.773438 2.59375 -1.515625 C 2.851562 -1.253906 3.21875 -1.125 3.6875 -1.125 C 4.050781 -1.125 4.394531 -1.160156 4.71875 -1.234375 C 5.039062 -1.304688 5.378906 -1.425781 5.734375 -1.59375 L 5.734375 -0.3125 C 5.441406 -0.175781 5.128906 -0.0703125 4.796875 0 C 4.472656 0.0703125 4.078125 0.109375 3.609375 0.109375 Z M 3.609375 0.109375 "/></g></g></g><g fill="#ffffff" fill-opacity="1"><g transform="translate(73.567761, 55.835376)"><g/></g></g><g fill="#ffffff" fill-opacity="1"><g transform="translate(76.449812, 55.835376)"><g><path d="M 3.328125 0.109375 C 1.441406 0.109375 0.5 -0.925781 0.5 -3 C 0.5 -4.03125 0.753906 -4.816406 1.265625 -5.359375 C 1.773438 -5.898438 2.507812 -6.171875 3.46875 -6.171875 C 4.164062 -6.171875 4.796875 -6.035156 5.359375 -5.765625 L 4.875 -4.484375 C 4.613281 -4.585938 4.367188 -4.671875 4.140625 -4.734375 C 3.921875 -4.804688 3.695312 -4.84375 3.46875 -4.84375 C 2.613281 -4.84375 2.1875 -4.226562 2.1875 -3 C 2.1875 -1.820312 2.613281 -1.234375 3.46875 -1.234375 C 3.789062 -1.234375 4.085938 -1.273438 4.359375 -1.359375 C 4.628906 -1.441406 4.898438 -1.570312 5.171875 -1.75 L 5.171875 -0.34375 C 4.898438 -0.175781 4.628906 -0.0625 4.359375 0 C 4.085938 0.0703125 3.742188 0.109375 3.328125 0.109375 Z M 3.328125 0.109375 "/></g></g></g><g fill="#ffffff" fill-opacity="1"><g transform="translate(82.154322, 55.835376)"><g><path d="M 2.1875 -3.03125 C 2.1875 -2.4375 2.285156 -1.984375 2.484375 -1.671875 C 2.679688 -1.367188 3 -1.21875 3.4375 -1.21875 C 3.875 -1.21875 4.191406 -1.367188 4.390625 -1.671875 C 4.585938 -1.984375 4.6875 -2.4375 4.6875 -3.03125 C 4.6875 -3.632812 4.585938 -4.085938 4.390625 -4.390625 C 4.191406 -4.691406 3.867188 -4.84375 3.421875 -4.84375 C 2.984375 -4.84375 2.664062 -4.691406 2.46875 -4.390625 C 2.28125 -4.085938 2.1875 -3.632812 2.1875 -3.03125 Z M 6.375 -3.03125 C 6.375 -2.050781 6.113281 -1.28125 5.59375 -0.71875 C 5.070312 -0.164062 4.347656 0.109375 3.421875 0.109375 C 2.835938 0.109375 2.320312 -0.015625 1.875 -0.265625 C 1.4375 -0.523438 1.097656 -0.890625 0.859375 -1.359375 C 0.617188 -1.835938 0.5 -2.394531 0.5 -3.03125 C 0.5 -4.019531 0.753906 -4.789062 1.265625 -5.34375 C 1.785156 -5.894531 2.515625 -6.171875 3.453125 -6.171875 C 4.035156 -6.171875 4.546875 -6.039062 4.984375 -5.78125 C 5.429688 -5.53125 5.773438 -5.171875 6.015625 -4.703125 C 6.253906 -4.234375 6.375 -3.675781 6.375 -3.03125 Z M 6.375 -3.03125 "/></g></g></g><g fill="#ffffff" fill-opacity="1"><g transform="translate(89.023571, 55.835376)"><g><path d="M 2.1875 -3.03125 C 2.1875 -2.4375 2.285156 -1.984375 2.484375 -1.671875 C 2.679688 -1.367188 3 -1.21875 3.4375 -1.21875 C 3.875 -1.21875 4.191406 -1.367188 4.390625 -1.671875 C 4.585938 -1.984375 4.6875 -2.4375 4.6875 -3.03125 C 4.6875 -3.632812 4.585938 -4.085938 4.390625 -4.390625 C 4.191406 -4.691406 3.867188 -4.84375 3.421875 -4.84375 C 2.984375 -4.84375 2.664062 -4.691406 2.46875 -4.390625 C 2.28125 -4.085938 2.1875 -3.632812 2.1875 -3.03125 Z M 6.375 -3.03125 C 6.375 -2.050781 6.113281 -1.28125 5.59375 -0.71875 C 5.070312 -0.164062 4.347656 0.109375 3.421875 0.109375 C 2.835938 0.109375 2.320312 -0.015625 1.875 -0.265625 C 1.4375 -0.523438 1.097656 -0.890625 0.859375 -1.359375 C 0.617188 -1.835938 0.5 -2.394531 0.5 -3.03125 C 0.5 -4.019531 0.753906 -4.789062 1.265625 -5.34375 C 1.785156 -5.894531 2.515625 -6.171875 3.453125 -6.171875 C 4.035156 -6.171875 4.546875 -6.039062 4.984375 -5.78125 C 5.429688 -5.53125 5.773438 -5.171875 6.015625 -4.703125 C 6.253906 -4.234375 6.375 -3.675781 6.375 -3.03125 Z M 6.375 -3.03125 "/></g></g></g><g fill="#ffffff" fill-opacity="1"><g transform="translate(95.89282, 55.835376)"><g><path d="M 4.25 -6.171875 C 4.46875 -6.171875 4.65625 -6.15625 4.8125 -6.125 L 4.6875 -4.578125 C 4.550781 -4.609375 4.382812 -4.625 4.1875 -4.625 C 3.664062 -4.625 3.253906 -4.488281 2.953125 -4.21875 C 2.660156 -3.945312 2.515625 -3.566406 2.515625 -3.078125 L 2.515625 0 L 0.859375 0 L 0.859375 -6.0625 L 2.125 -6.0625 L 2.359375 -5.03125 L 2.4375 -5.03125 C 2.625 -5.375 2.878906 -5.648438 3.203125 -5.859375 C 3.523438 -6.066406 3.875 -6.171875 4.25 -6.171875 Z M 4.25 -6.171875 "/></g></g></g><g fill="#ffffff" fill-opacity="1"><g transform="translate(100.930992, 55.835376)"><g><path d="M 2.78125 0.109375 C 2.070312 0.109375 1.515625 -0.164062 1.109375 -0.71875 C 0.703125 -1.269531 0.5 -2.035156 0.5 -3.015625 C 0.5 -4.003906 0.703125 -4.773438 1.109375 -5.328125 C 1.523438 -5.890625 2.097656 -6.171875 2.828125 -6.171875 C 3.585938 -6.171875 4.171875 -5.875 4.578125 -5.28125 L 4.625 -5.28125 C 4.539062 -5.726562 4.5 -6.128906 4.5 -6.484375 L 4.5 -8.421875 L 6.15625 -8.421875 L 6.15625 0 L 4.890625 0 L 4.578125 -0.78125 L 4.5 -0.78125 C 4.125 -0.1875 3.550781 0.109375 2.78125 0.109375 Z M 3.359375 -1.203125 C 3.785156 -1.203125 4.097656 -1.320312 4.296875 -1.5625 C 4.492188 -1.8125 4.597656 -2.234375 4.609375 -2.828125 L 4.609375 -3 C 4.609375 -3.65625 4.507812 -4.125 4.3125 -4.40625 C 4.113281 -4.6875 3.789062 -4.828125 3.34375 -4.828125 C 2.96875 -4.828125 2.675781 -4.671875 2.46875 -4.359375 C 2.269531 -4.046875 2.171875 -3.59375 2.171875 -3 C 2.171875 -2.40625 2.273438 -1.957031 2.484375 -1.65625 C 2.691406 -1.351562 2.984375 -1.203125 3.359375 -1.203125 Z M 3.359375 -1.203125 "/></g></g></g><g fill="#ffffff" fill-opacity="1"><g transform="translate(107.951927, 55.835376)"><g><path d="M 0.796875 -7.625 C 0.796875 -8.15625 1.097656 -8.421875 1.703125 -8.421875 C 2.296875 -8.421875 2.59375 -8.15625 2.59375 -7.625 C 2.59375 -7.363281 2.515625 -7.160156 2.359375 -7.015625 C 2.210938 -6.878906 1.992188 -6.8125 1.703125 -6.8125 C 1.097656 -6.8125 0.796875 -7.082031 0.796875 -7.625 Z M 2.515625 0 L 0.859375 0 L 0.859375 -6.0625 L 2.515625 -6.0625 Z M 2.515625 0 "/></g></g></g><g fill="#ffffff" fill-opacity="1"><g transform="translate(111.337795, 55.835376)"><g><path d="M 6.453125 0 L 4.8125 0 L 4.8125 -3.53125 C 4.8125 -3.96875 4.734375 -4.296875 4.578125 -4.515625 C 4.421875 -4.734375 4.171875 -4.84375 3.828125 -4.84375 C 3.367188 -4.84375 3.035156 -4.6875 2.828125 -4.375 C 2.617188 -4.070312 2.515625 -3.5625 2.515625 -2.84375 L 2.515625 0 L 0.859375 0 L 0.859375 -6.0625 L 2.125 -6.0625 L 2.34375 -5.28125 L 2.4375 -5.28125 C 2.625 -5.570312 2.878906 -5.789062 3.203125 -5.9375 C 3.523438 -6.09375 3.894531 -6.171875 4.3125 -6.171875 C 5.007812 -6.171875 5.539062 -5.976562 5.90625 -5.59375 C 6.269531 -5.21875 6.453125 -4.671875 6.453125 -3.953125 Z M 6.453125 0 "/></g></g></g><g fill="#ffffff" fill-opacity="1"><g transform="translate(118.6296, 55.835376)"><g><path d="M 4.71875 0 L 4.390625 -0.828125 L 4.34375 -0.828125 C 4.070312 -0.472656 3.785156 -0.226562 3.484375 -0.09375 C 3.191406 0.0390625 2.8125 0.109375 2.34375 0.109375 C 1.757812 0.109375 1.300781 -0.0546875 0.96875 -0.390625 C 0.632812 -0.722656 0.46875 -1.195312 0.46875 -1.8125 C 0.46875 -2.457031 0.691406 -2.929688 1.140625 -3.234375 C 1.585938 -3.535156 2.265625 -3.703125 3.171875 -3.734375 L 4.21875 -3.765625 L 4.21875 -4.03125 C 4.21875 -4.644531 3.90625 -4.953125 3.28125 -4.953125 C 2.800781 -4.953125 2.234375 -4.804688 1.578125 -4.515625 L 1.03125 -5.640625 C 1.726562 -6.003906 2.5 -6.1875 3.34375 -6.1875 C 4.15625 -6.1875 4.773438 -6.007812 5.203125 -5.65625 C 5.640625 -5.300781 5.859375 -4.757812 5.859375 -4.03125 L 5.859375 0 Z M 4.21875 -2.8125 L 3.59375 -2.78125 C 3.101562 -2.769531 2.738281 -2.679688 2.5 -2.515625 C 2.269531 -2.359375 2.15625 -2.117188 2.15625 -1.796875 C 2.15625 -1.328125 2.425781 -1.09375 2.96875 -1.09375 C 3.34375 -1.09375 3.644531 -1.203125 3.875 -1.421875 C 4.101562 -1.648438 4.21875 -1.945312 4.21875 -2.3125 Z M 4.21875 -2.8125 "/></g></g></g><g fill="#ffffff" fill-opacity="1"><g transform="translate(125.33091, 55.835376)"><g><path d="M 3.421875 -1.203125 C 3.703125 -1.203125 4.046875 -1.265625 4.453125 -1.390625 L 4.453125 -0.171875 C 4.046875 0.015625 3.539062 0.109375 2.9375 0.109375 C 2.28125 0.109375 1.800781 -0.0546875 1.5 -0.390625 C 1.195312 -0.722656 1.046875 -1.222656 1.046875 -1.890625 L 1.046875 -4.8125 L 0.25 -4.8125 L 0.25 -5.515625 L 1.171875 -6.0625 L 1.640625 -7.34375 L 2.703125 -7.34375 L 2.703125 -6.0625 L 4.390625 -6.0625 L 4.390625 -4.8125 L 2.703125 -4.8125 L 2.703125 -1.890625 C 2.703125 -1.660156 2.765625 -1.488281 2.890625 -1.375 C 3.023438 -1.257812 3.203125 -1.203125 3.421875 -1.203125 Z M 3.421875 -1.203125 "/></g></g></g><g fill="#ffffff" fill-opacity="1"><g transform="translate(130.146969, 55.835376)"><g><path d="M 0.796875 -7.625 C 0.796875 -8.15625 1.097656 -8.421875 1.703125 -8.421875 C 2.296875 -8.421875 2.59375 -8.15625 2.59375 -7.625 C 2.59375 -7.363281 2.515625 -7.160156 2.359375 -7.015625 C 2.210938 -6.878906 1.992188 -6.8125 1.703125 -6.8125 C 1.097656 -6.8125 0.796875 -7.082031 0.796875 -7.625 Z M 2.515625 0 L 0.859375 0 L 0.859375 -6.0625 L 2.515625 -6.0625 Z M 2.515625 0 "/></g></g></g><g fill="#ffffff" fill-opacity="1"><g transform="translate(133.532837, 55.835376)"><g><path d="M 2.1875 -3.03125 C 2.1875 -2.4375 2.285156 -1.984375 2.484375 -1.671875 C 2.679688 -1.367188 3 -1.21875 3.4375 -1.21875 C 3.875 -1.21875 4.191406 -1.367188 4.390625 -1.671875 C 4.585938 -1.984375 4.6875 -2.4375 4.6875 -3.03125 C 4.6875 -3.632812 4.585938 -4.085938 4.390625 -4.390625 C 4.191406 -4.691406 3.867188 -4.84375 3.421875 -4.84375 C 2.984375 -4.84375 2.664062 -4.691406 2.46875 -4.390625 C 2.28125 -4.085938 2.1875 -3.632812 2.1875 -3.03125 Z M 6.375 -3.03125 C 6.375 -2.050781 6.113281 -1.28125 5.59375 -0.71875 C 5.070312 -0.164062 4.347656 0.109375 3.421875 0.109375 C 2.835938 0.109375 2.320312 -0.015625 1.875 -0.265625 C 1.4375 -0.523438 1.097656 -0.890625 0.859375 -1.359375 C 0.617188 -1.835938 0.5 -2.394531 0.5 -3.03125 C 0.5 -4.019531 0.753906 -4.789062 1.265625 -5.34375 C 1.785156 -5.894531 2.515625 -6.171875 3.453125 -6.171875 C 4.035156 -6.171875 4.546875 -6.039062 4.984375 -5.78125 C 5.429688 -5.53125 5.773438 -5.171875 6.015625 -4.703125 C 6.253906 -4.234375 6.375 -3.675781 6.375 -3.03125 Z M 6.375 -3.03125 "/></g></g></g><g fill="#ffffff" fill-opacity="1"><g transform="translate(140.402085, 55.835376)"><g><path d="M 6.453125 0 L 4.8125 0 L 4.8125 -3.53125 C 4.8125 -3.96875 4.734375 -4.296875 4.578125 -4.515625 C 4.421875 -4.734375 4.171875 -4.84375 3.828125 -4.84375 C 3.367188 -4.84375 3.035156 -4.6875 2.828125 -4.375 C 2.617188 -4.070312 2.515625 -3.5625 2.515625 -2.84375 L 2.515625 0 L 0.859375 0 L 0.859375 -6.0625 L 2.125 -6.0625 L 2.34375 -5.28125 L 2.4375 -5.28125 C 2.625 -5.570312 2.878906 -5.789062 3.203125 -5.9375 C 3.523438 -6.09375 3.894531 -6.171875 4.3125 -6.171875 C 5.007812 -6.171875 5.539062 -5.976562 5.90625 -5.59375 C 6.269531 -5.21875 6.453125 -4.671875 6.453125 -3.953125 Z M 6.453125 0 "/></g></g></g><g fill="#ffffff" fill-opacity="1"><g transform="translate(147.693891, 55.835376)"><g/></g></g><g fill="#ffffff" fill-opacity="1"><g transform="translate(150.575941, 55.835376)"><g><path d="M 2.78125 0.109375 C 2.070312 0.109375 1.515625 -0.164062 1.109375 -0.71875 C 0.703125 -1.269531 0.5 -2.035156 0.5 -3.015625 C 0.5 -4.003906 0.703125 -4.773438 1.109375 -5.328125 C 1.523438 -5.890625 2.097656 -6.171875 2.828125 -6.171875 C 3.585938 -6.171875 4.171875 -5.875 4.578125 -5.28125 L 4.625 -5.28125 C 4.539062 -5.726562 4.5 -6.128906 4.5 -6.484375 L 4.5 -8.421875 L 6.15625 -8.421875 L 6.15625 0 L 4.890625 0 L 4.578125 -0.78125 L 4.5 -0.78125 C 4.125 -0.1875 3.550781 0.109375 2.78125 0.109375 Z M 3.359375 -1.203125 C 3.785156 -1.203125 4.097656 -1.320312 4.296875 -1.5625 C 4.492188 -1.8125 4.597656 -2.234375 4.609375 -2.828125 L 4.609375 -3 C 4.609375 -3.65625 4.507812 -4.125 4.3125 -4.40625 C 4.113281 -4.6875 3.789062 -4.828125 3.34375 -4.828125 C 2.96875 -4.828125 2.675781 -4.671875 2.46875 -4.359375 C 2.269531 -4.046875 2.171875 -3.59375 2.171875 -3 C 2.171875 -2.40625 2.273438 -1.957031 2.484375 -1.65625 C 2.691406 -1.351562 2.984375 -1.203125 3.359375 -1.203125 Z M 3.359375 -1.203125 "/></g></g></g><g fill="#ffffff" fill-opacity="1"><g transform="translate(157.596877, 55.835376)"><g><path d="M 5.15625 0 L 4.9375 -0.78125 L 4.84375 -0.78125 C 4.664062 -0.5 4.414062 -0.28125 4.09375 -0.125 C 3.769531 0.03125 3.398438 0.109375 2.984375 0.109375 C 2.273438 0.109375 1.738281 -0.078125 1.375 -0.453125 C 1.007812 -0.835938 0.828125 -1.390625 0.828125 -2.109375 L 0.828125 -6.0625 L 2.484375 -6.0625 L 2.484375 -2.515625 C 2.484375 -2.078125 2.5625 -1.75 2.71875 -1.53125 C 2.875 -1.3125 3.125 -1.203125 3.46875 -1.203125 C 3.925781 -1.203125 4.253906 -1.359375 4.453125 -1.671875 C 4.660156 -1.984375 4.765625 -2.492188 4.765625 -3.203125 L 4.765625 -6.0625 L 6.421875 -6.0625 L 6.421875 0 Z M 5.15625 0 "/></g></g></g><g fill="#ffffff" fill-opacity="1"><g transform="translate(37.265316, 70.411552)"><g><path d="M 4.1875 0.109375 C 3.476562 0.109375 2.921875 -0.148438 2.515625 -0.671875 L 2.4375 -0.671875 C 2.488281 -0.160156 2.515625 0.132812 2.515625 0.21875 L 2.515625 2.671875 L 0.859375 2.671875 L 0.859375 -6.0625 L 2.203125 -6.0625 L 2.4375 -5.265625 L 2.515625 -5.265625 C 2.898438 -5.867188 3.472656 -6.171875 4.234375 -6.171875 C 4.953125 -6.171875 5.507812 -5.894531 5.90625 -5.34375 C 6.3125 -4.789062 6.515625 -4.019531 6.515625 -3.03125 C 6.515625 -2.382812 6.421875 -1.820312 6.234375 -1.34375 C 6.046875 -0.875 5.773438 -0.515625 5.421875 -0.265625 C 5.078125 -0.015625 4.664062 0.109375 4.1875 0.109375 Z M 3.703125 -4.84375 C 3.296875 -4.84375 3 -4.71875 2.8125 -4.46875 C 2.625 -4.21875 2.523438 -3.804688 2.515625 -3.234375 L 2.515625 -3.046875 C 2.515625 -2.398438 2.609375 -1.9375 2.796875 -1.65625 C 2.992188 -1.375 3.304688 -1.234375 3.734375 -1.234375 C 4.472656 -1.234375 4.84375 -1.84375 4.84375 -3.0625 C 4.84375 -3.65625 4.75 -4.097656 4.5625 -4.390625 C 4.382812 -4.691406 4.097656 -4.84375 3.703125 -4.84375 Z M 3.703125 -4.84375 "/></g></g></g><g fill="#ffffff" fill-opacity="1"><g transform="translate(44.286251, 70.411552)"><g><path d="M 4.71875 0 L 4.390625 -0.828125 L 4.34375 -0.828125 C 4.070312 -0.472656 3.785156 -0.226562 3.484375 -0.09375 C 3.191406 0.0390625 2.8125 0.109375 2.34375 0.109375 C 1.757812 0.109375 1.300781 -0.0546875 0.96875 -0.390625 C 0.632812 -0.722656 0.46875 -1.195312 0.46875 -1.8125 C 0.46875 -2.457031 0.691406 -2.929688 1.140625 -3.234375 C 1.585938 -3.535156 2.265625 -3.703125 3.171875 -3.734375 L 4.21875 -3.765625 L 4.21875 -4.03125 C 4.21875 -4.644531 3.90625 -4.953125 3.28125 -4.953125 C 2.800781 -4.953125 2.234375 -4.804688 1.578125 -4.515625 L 1.03125 -5.640625 C 1.726562 -6.003906 2.5 -6.1875 3.34375 -6.1875 C 4.15625 -6.1875 4.773438 -6.007812 5.203125 -5.65625 C 5.640625 -5.300781 5.859375 -4.757812 5.859375 -4.03125 L 5.859375 0 Z M 4.21875 -2.8125 L 3.59375 -2.78125 C 3.101562 -2.769531 2.738281 -2.679688 2.5 -2.515625 C 2.269531 -2.359375 2.15625 -2.117188 2.15625 -1.796875 C 2.15625 -1.328125 2.425781 -1.09375 2.96875 -1.09375 C 3.34375 -1.09375 3.644531 -1.203125 3.875 -1.421875 C 4.101562 -1.648438 4.21875 -1.945312 4.21875 -2.3125 Z M 4.21875 -2.8125 "/></g></g></g><g fill="#ffffff" fill-opacity="1"><g transform="translate(50.987561, 70.411552)"><g><path d="M 4.25 -6.171875 C 4.46875 -6.171875 4.65625 -6.15625 4.8125 -6.125 L 4.6875 -4.578125 C 4.550781 -4.609375 4.382812 -4.625 4.1875 -4.625 C 3.664062 -4.625 3.253906 -4.488281 2.953125 -4.21875 C 2.660156 -3.945312 2.515625 -3.566406 2.515625 -3.078125 L 2.515625 0 L 0.859375 0 L 0.859375 -6.0625 L 2.125 -6.0625 L 2.359375 -5.03125 L 2.4375 -5.03125 C 2.625 -5.375 2.878906 -5.648438 3.203125 -5.859375 C 3.523438 -6.066406 3.875 -6.171875 4.25 -6.171875 Z M 4.25 -6.171875 "/></g></g></g><g fill="#ffffff" fill-opacity="1"><g transform="translate(56.025733, 70.411552)"><g><path d="M 3.328125 0.109375 C 1.441406 0.109375 0.5 -0.925781 0.5 -3 C 0.5 -4.03125 0.753906 -4.816406 1.265625 -5.359375 C 1.773438 -5.898438 2.507812 -6.171875 3.46875 -6.171875 C 4.164062 -6.171875 4.796875 -6.035156 5.359375 -5.765625 L 4.875 -4.484375 C 4.613281 -4.585938 4.367188 -4.671875 4.140625 -4.734375 C 3.921875 -4.804688 3.695312 -4.84375 3.46875 -4.84375 C 2.613281 -4.84375 2.1875 -4.226562 2.1875 -3 C 2.1875 -1.820312 2.613281 -1.234375 3.46875 -1.234375 C 3.789062 -1.234375 4.085938 -1.273438 4.359375 -1.359375 C 4.628906 -1.441406 4.898438 -1.570312 5.171875 -1.75 L 5.171875 -0.34375 C 4.898438 -0.175781 4.628906 -0.0625 4.359375 0 C 4.085938 0.0703125 3.742188 0.109375 3.328125 0.109375 Z M 3.328125 0.109375 "/></g></g></g><g fill="#ffffff" fill-opacity="1"><g transform="translate(61.730243, 70.411552)"><g><path d="M 2.1875 -3.03125 C 2.1875 -2.4375 2.285156 -1.984375 2.484375 -1.671875 C 2.679688 -1.367188 3 -1.21875 3.4375 -1.21875 C 3.875 -1.21875 4.191406 -1.367188 4.390625 -1.671875 C 4.585938 -1.984375 4.6875 -2.4375 4.6875 -3.03125 C 4.6875 -3.632812 4.585938 -4.085938 4.390625 -4.390625 C 4.191406 -4.691406 3.867188 -4.84375 3.421875 -4.84375 C 2.984375 -4.84375 2.664062 -4.691406 2.46875 -4.390625 C 2.28125 -4.085938 2.1875 -3.632812 2.1875 -3.03125 Z M 6.375 -3.03125 C 6.375 -2.050781 6.113281 -1.28125 5.59375 -0.71875 C 5.070312 -0.164062 4.347656 0.109375 3.421875 0.109375 C 2.835938 0.109375 2.320312 -0.015625 1.875 -0.265625 C 1.4375 -0.523438 1.097656 -0.890625 0.859375 -1.359375 C 0.617188 -1.835938 0.5 -2.394531 0.5 -3.03125 C 0.5 -4.019531 0.753906 -4.789062 1.265625 -5.34375 C 1.785156 -5.894531 2.515625 -6.171875 3.453125 -6.171875 C 4.035156 -6.171875 4.546875 -6.039062 4.984375 -5.78125 C 5.429688 -5.53125 5.773438 -5.171875 6.015625 -4.703125 C 6.253906 -4.234375 6.375 -3.675781 6.375 -3.03125 Z M 6.375 -3.03125 "/></g></g></g><g fill="#ffffff" fill-opacity="1"><g transform="translate(68.599492, 70.411552)"><g><path d="M 5.15625 0 L 4.9375 -0.78125 L 4.84375 -0.78125 C 4.664062 -0.5 4.414062 -0.28125 4.09375 -0.125 C 3.769531 0.03125 3.398438 0.109375 2.984375 0.109375 C 2.273438 0.109375 1.738281 -0.078125 1.375 -0.453125 C 1.007812 -0.835938 0.828125 -1.390625 0.828125 -2.109375 L 0.828125 -6.0625 L 2.484375 -6.0625 L 2.484375 -2.515625 C 2.484375 -2.078125 2.5625 -1.75 2.71875 -1.53125 C 2.875 -1.3125 3.125 -1.203125 3.46875 -1.203125 C 3.925781 -1.203125 4.253906 -1.359375 4.453125 -1.671875 C 4.660156 -1.984375 4.765625 -2.492188 4.765625 -3.203125 L 4.765625 -6.0625 L 6.421875 -6.0625 L 6.421875 0 Z M 5.15625 0 "/></g></g></g><g fill="#ffffff" fill-opacity="1"><g transform="translate(75.891297, 70.411552)"><g><path d="M 4.25 -6.171875 C 4.46875 -6.171875 4.65625 -6.15625 4.8125 -6.125 L 4.6875 -4.578125 C 4.550781 -4.609375 4.382812 -4.625 4.1875 -4.625 C 3.664062 -4.625 3.253906 -4.488281 2.953125 -4.21875 C 2.660156 -3.945312 2.515625 -3.566406 2.515625 -3.078125 L 2.515625 0 L 0.859375 0 L 0.859375 -6.0625 L 2.125 -6.0625 L 2.359375 -5.03125 L 2.4375 -5.03125 C 2.625 -5.375 2.878906 -5.648438 3.203125 -5.859375 C 3.523438 -6.066406 3.875 -6.171875 4.25 -6.171875 Z M 4.25 -6.171875 "/></g></g></g><g fill="#ffffff" fill-opacity="1"><g transform="translate(80.929468, 70.411552)"><g><path d="M 5.09375 -1.796875 C 5.09375 -1.171875 4.875 -0.695312 4.4375 -0.375 C 4.007812 -0.0507812 3.367188 0.109375 2.515625 0.109375 C 2.066406 0.109375 1.6875 0.078125 1.375 0.015625 C 1.070312 -0.046875 0.785156 -0.132812 0.515625 -0.25 L 0.515625 -1.609375 C 0.816406 -1.460938 1.160156 -1.335938 1.546875 -1.234375 C 1.929688 -1.140625 2.269531 -1.09375 2.5625 -1.09375 C 3.164062 -1.09375 3.46875 -1.269531 3.46875 -1.625 C 3.46875 -1.75 3.425781 -1.851562 3.34375 -1.9375 C 3.257812 -2.019531 3.117188 -2.109375 2.921875 -2.203125 C 2.734375 -2.304688 2.476562 -2.429688 2.15625 -2.578125 C 1.6875 -2.765625 1.34375 -2.941406 1.125 -3.109375 C 0.90625 -3.273438 0.742188 -3.46875 0.640625 -3.6875 C 0.546875 -3.90625 0.5 -4.171875 0.5 -4.484375 C 0.5 -5.015625 0.707031 -5.425781 1.125 -5.71875 C 1.539062 -6.019531 2.128906 -6.171875 2.890625 -6.171875 C 3.628906 -6.171875 4.34375 -6.007812 5.03125 -5.6875 L 4.53125 -4.5 C 4.226562 -4.632812 3.941406 -4.742188 3.671875 -4.828125 C 3.410156 -4.910156 3.144531 -4.953125 2.875 -4.953125 C 2.382812 -4.953125 2.140625 -4.816406 2.140625 -4.546875 C 2.140625 -4.398438 2.21875 -4.269531 2.375 -4.15625 C 2.53125 -4.050781 2.875 -3.894531 3.40625 -3.6875 C 3.875 -3.488281 4.21875 -3.304688 4.4375 -3.140625 C 4.664062 -2.972656 4.832031 -2.78125 4.9375 -2.5625 C 5.039062 -2.351562 5.09375 -2.097656 5.09375 -1.796875 Z M 5.09375 -1.796875 "/></g></g></g><g fill="#ffffff" fill-opacity="1"><g transform="translate(86.44437, 70.411552)"><g/></g></g><g fill="#ffffff" fill-opacity="1"><g transform="translate(89.326421, 70.411552)"><g><path d="M 2.78125 0.109375 C 2.070312 0.109375 1.515625 -0.164062 1.109375 -0.71875 C 0.703125 -1.269531 0.5 -2.035156 0.5 -3.015625 C 0.5 -4.003906 0.703125 -4.773438 1.109375 -5.328125 C 1.523438 -5.890625 2.097656 -6.171875 2.828125 -6.171875 C 3.585938 -6.171875 4.171875 -5.875 4.578125 -5.28125 L 4.625 -5.28125 C 4.539062 -5.726562 4.5 -6.128906 4.5 -6.484375 L 4.5 -8.421875 L 6.15625 -8.421875 L 6.15625 0 L 4.890625 0 L 4.578125 -0.78125 L 4.5 -0.78125 C 4.125 -0.1875 3.550781 0.109375 2.78125 0.109375 Z M 3.359375 -1.203125 C 3.785156 -1.203125 4.097656 -1.320312 4.296875 -1.5625 C 4.492188 -1.8125 4.597656 -2.234375 4.609375 -2.828125 L 4.609375 -3 C 4.609375 -3.65625 4.507812 -4.125 4.3125 -4.40625 C 4.113281 -4.6875 3.789062 -4.828125 3.34375 -4.828125 C 2.96875 -4.828125 2.675781 -4.671875 2.46875 -4.359375 C 2.269531 -4.046875 2.171875 -3.59375 2.171875 -3 C 2.171875 -2.40625 2.273438 -1.957031 2.484375 -1.65625 C 2.691406 -1.351562 2.984375 -1.203125 3.359375 -1.203125 Z M 3.359375 -1.203125 "/></g></g></g><g fill="#ffffff" fill-opacity="1"><g transform="translate(96.347357, 70.411552)"><g><path d="M 3.375 -5 C 3.019531 -5 2.742188 -4.882812 2.546875 -4.65625 C 2.347656 -4.4375 2.234375 -4.125 2.203125 -3.71875 L 4.53125 -3.71875 C 4.519531 -4.125 4.410156 -4.4375 4.203125 -4.65625 C 4.003906 -4.882812 3.726562 -5 3.375 -5 Z M 3.609375 0.109375 C 2.628906 0.109375 1.863281 -0.15625 1.3125 -0.6875 C 0.769531 -1.226562 0.5 -1.992188 0.5 -2.984375 C 0.5 -3.992188 0.75 -4.773438 1.25 -5.328125 C 1.757812 -5.890625 2.460938 -6.171875 3.359375 -6.171875 C 4.210938 -6.171875 4.878906 -5.925781 5.359375 -5.4375 C 5.835938 -4.945312 6.078125 -4.273438 6.078125 -3.421875 L 6.078125 -2.609375 L 2.171875 -2.609375 C 2.191406 -2.140625 2.332031 -1.773438 2.59375 -1.515625 C 2.851562 -1.253906 3.21875 -1.125 3.6875 -1.125 C 4.050781 -1.125 4.394531 -1.160156 4.71875 -1.234375 C 5.039062 -1.304688 5.378906 -1.425781 5.734375 -1.59375 L 5.734375 -0.3125 C 5.441406 -0.175781 5.128906 -0.0703125 4.796875 0 C 4.472656 0.0703125 4.078125 0.109375 3.609375 0.109375 Z M 3.609375 0.109375 "/></g></g></g><g fill="#ffffff" fill-opacity="1"><g transform="translate(102.902397, 70.411552)"><g/></g></g><g fill="#ffffff" fill-opacity="1"><g transform="translate(105.784448, 70.411552)"><g><path d="M 2.515625 0 L 0.859375 0 L 0.859375 -8.421875 L 2.515625 -8.421875 Z M 2.515625 0 "/></g></g></g><g fill="#ffffff" fill-opacity="1"><g transform="translate(109.170316, 70.411552)"><g><path d="M 4.71875 0 L 4.390625 -0.828125 L 4.34375 -0.828125 C 4.070312 -0.472656 3.785156 -0.226562 3.484375 -0.09375 C 3.191406 0.0390625 2.8125 0.109375 2.34375 0.109375 C 1.757812 0.109375 1.300781 -0.0546875 0.96875 -0.390625 C 0.632812 -0.722656 0.46875 -1.195312 0.46875 -1.8125 C 0.46875 -2.457031 0.691406 -2.929688 1.140625 -3.234375 C 1.585938 -3.535156 2.265625 -3.703125 3.171875 -3.734375 L 4.21875 -3.765625 L 4.21875 -4.03125 C 4.21875 -4.644531 3.90625 -4.953125 3.28125 -4.953125 C 2.800781 -4.953125 2.234375 -4.804688 1.578125 -4.515625 L 1.03125 -5.640625 C 1.726562 -6.003906 2.5 -6.1875 3.34375 -6.1875 C 4.15625 -6.1875 4.773438 -6.007812 5.203125 -5.65625 C 5.640625 -5.300781 5.859375 -4.757812 5.859375 -4.03125 L 5.859375 0 Z M 4.21875 -2.8125 L 3.59375 -2.78125 C 3.101562 -2.769531 2.738281 -2.679688 2.5 -2.515625 C 2.269531 -2.359375 2.15625 -2.117188 2.15625 -1.796875 C 2.15625 -1.328125 2.425781 -1.09375 2.96875 -1.09375 C 3.34375 -1.09375 3.644531 -1.203125 3.875 -1.421875 C 4.101562 -1.648438 4.21875 -1.945312 4.21875 -2.3125 Z M 4.21875 -2.8125 "/></g></g></g><g fill="#ffffff" fill-opacity="1"><g transform="translate(115.871625, 70.411552)"><g/></g></g><g fill="#ffffff" fill-opacity="1"><g transform="translate(118.753676, 70.411552)"><g><path d="M 4.1875 0.109375 C 3.476562 0.109375 2.921875 -0.148438 2.515625 -0.671875 L 2.4375 -0.671875 C 2.488281 -0.160156 2.515625 0.132812 2.515625 0.21875 L 2.515625 2.671875 L 0.859375 2.671875 L 0.859375 -6.0625 L 2.203125 -6.0625 L 2.4375 -5.265625 L 2.515625 -5.265625 C 2.898438 -5.867188 3.472656 -6.171875 4.234375 -6.171875 C 4.953125 -6.171875 5.507812 -5.894531 5.90625 -5.34375 C 6.3125 -4.789062 6.515625 -4.019531 6.515625 -3.03125 C 6.515625 -2.382812 6.421875 -1.820312 6.234375 -1.34375 C 6.046875 -0.875 5.773438 -0.515625 5.421875 -0.265625 C 5.078125 -0.015625 4.664062 0.109375 4.1875 0.109375 Z M 3.703125 -4.84375 C 3.296875 -4.84375 3 -4.71875 2.8125 -4.46875 C 2.625 -4.21875 2.523438 -3.804688 2.515625 -3.234375 L 2.515625 -3.046875 C 2.515625 -2.398438 2.609375 -1.9375 2.796875 -1.65625 C 2.992188 -1.375 3.304688 -1.234375 3.734375 -1.234375 C 4.472656 -1.234375 4.84375 -1.84375 4.84375 -3.0625 C 4.84375 -3.65625 4.75 -4.097656 4.5625 -4.390625 C 4.382812 -4.691406 4.097656 -4.84375 3.703125 -4.84375 Z M 3.703125 -4.84375 "/></g></g></g><g fill="#ffffff" fill-opacity="1"><g transform="translate(125.774612, 70.411552)"><g><path d="M 3.375 -5 C 3.019531 -5 2.742188 -4.882812 2.546875 -4.65625 C 2.347656 -4.4375 2.234375 -4.125 2.203125 -3.71875 L 4.53125 -3.71875 C 4.519531 -4.125 4.410156 -4.4375 4.203125 -4.65625 C 4.003906 -4.882812 3.726562 -5 3.375 -5 Z M 3.609375 0.109375 C 2.628906 0.109375 1.863281 -0.15625 1.3125 -0.6875 C 0.769531 -1.226562 0.5 -1.992188 0.5 -2.984375 C 0.5 -3.992188 0.75 -4.773438 1.25 -5.328125 C 1.757812 -5.890625 2.460938 -6.171875 3.359375 -6.171875 C 4.210938 -6.171875 4.878906 -5.925781 5.359375 -5.4375 C 5.835938 -4.945312 6.078125 -4.273438 6.078125 -3.421875 L 6.078125 -2.609375 L 2.171875 -2.609375 C 2.191406 -2.140625 2.332031 -1.773438 2.59375 -1.515625 C 2.851562 -1.253906 3.21875 -1.125 3.6875 -1.125 C 4.050781 -1.125 4.394531 -1.160156 4.71875 -1.234375 C 5.039062 -1.304688 5.378906 -1.425781 5.734375 -1.59375 L 5.734375 -0.3125 C 5.441406 -0.175781 5.128906 -0.0703125 4.796875 0 C 4.472656 0.0703125 4.078125 0.109375 3.609375 0.109375 Z M 3.609375 0.109375 "/></g></g></g><g fill="#ffffff" fill-opacity="1"><g transform="translate(132.329652, 70.411552)"><g><path d="M 4.25 -6.171875 C 4.46875 -6.171875 4.65625 -6.15625 4.8125 -6.125 L 4.6875 -4.578125 C 4.550781 -4.609375 4.382812 -4.625 4.1875 -4.625 C 3.664062 -4.625 3.253906 -4.488281 2.953125 -4.21875 C 2.660156 -3.945312 2.515625 -3.566406 2.515625 -3.078125 L 2.515625 0 L 0.859375 0 L 0.859375 -6.0625 L 2.125 -6.0625 L 2.359375 -5.03125 L 2.4375 -5.03125 C 2.625 -5.375 2.878906 -5.648438 3.203125 -5.859375 C 3.523438 -6.066406 3.875 -6.171875 4.25 -6.171875 Z M 4.25 -6.171875 "/></g></g></g><g fill="#ffffff" fill-opacity="1"><g transform="translate(137.367824, 70.411552)"><g><path d="M 5.09375 -1.796875 C 5.09375 -1.171875 4.875 -0.695312 4.4375 -0.375 C 4.007812 -0.0507812 3.367188 0.109375 2.515625 0.109375 C 2.066406 0.109375 1.6875 0.078125 1.375 0.015625 C 1.070312 -0.046875 0.785156 -0.132812 0.515625 -0.25 L 0.515625 -1.609375 C 0.816406 -1.460938 1.160156 -1.335938 1.546875 -1.234375 C 1.929688 -1.140625 2.269531 -1.09375 2.5625 -1.09375 C 3.164062 -1.09375 3.46875 -1.269531 3.46875 -1.625 C 3.46875 -1.75 3.425781 -1.851562 3.34375 -1.9375 C 3.257812 -2.019531 3.117188 -2.109375 2.921875 -2.203125 C 2.734375 -2.304688 2.476562 -2.429688 2.15625 -2.578125 C 1.6875 -2.765625 1.34375 -2.941406 1.125 -3.109375 C 0.90625 -3.273438 0.742188 -3.46875 0.640625 -3.6875 C 0.546875 -3.90625 0.5 -4.171875 0.5 -4.484375 C 0.5 -5.015625 0.707031 -5.425781 1.125 -5.71875 C 1.539062 -6.019531 2.128906 -6.171875 2.890625 -6.171875 C 3.628906 -6.171875 4.34375 -6.007812 5.03125 -5.6875 L 4.53125 -4.5 C 4.226562 -4.632812 3.941406 -4.742188 3.671875 -4.828125 C 3.410156 -4.910156 3.144531 -4.953125 2.875 -4.953125 C 2.382812 -4.953125 2.140625 -4.816406 2.140625 -4.546875 C 2.140625 -4.398438 2.21875 -4.269531 2.375 -4.15625 C 2.53125 -4.050781 2.875 -3.894531 3.40625 -3.6875 C 3.875 -3.488281 4.21875 -3.304688 4.4375 -3.140625 C 4.664062 -2.972656 4.832031 -2.78125 4.9375 -2.5625 C 5.039062 -2.351562 5.09375 -2.097656 5.09375 -1.796875 Z M 5.09375 -1.796875 "/></g></g></g><g fill="#ffffff" fill-opacity="1"><g transform="translate(142.882725, 70.411552)"><g><path d="M 2.1875 -3.03125 C 2.1875 -2.4375 2.285156 -1.984375 2.484375 -1.671875 C 2.679688 -1.367188 3 -1.21875 3.4375 -1.21875 C 3.875 -1.21875 4.191406 -1.367188 4.390625 -1.671875 C 4.585938 -1.984375 4.6875 -2.4375 4.6875 -3.03125 C 4.6875 -3.632812 4.585938 -4.085938 4.390625 -4.390625 C 4.191406 -4.691406 3.867188 -4.84375 3.421875 -4.84375 C 2.984375 -4.84375 2.664062 -4.691406 2.46875 -4.390625 C 2.28125 -4.085938 2.1875 -3.632812 2.1875 -3.03125 Z M 6.375 -3.03125 C 6.375 -2.050781 6.113281 -1.28125 5.59375 -0.71875 C 5.070312 -0.164062 4.347656 0.109375 3.421875 0.109375 C 2.835938 0.109375 2.320312 -0.015625 1.875 -0.265625 C 1.4375 -0.523438 1.097656 -0.890625 0.859375 -1.359375 C 0.617188 -1.835938 0.5 -2.394531 0.5 -3.03125 C 0.5 -4.019531 0.753906 -4.789062 1.265625 -5.34375 C 1.785156 -5.894531 2.515625 -6.171875 3.453125 -6.171875 C 4.035156 -6.171875 4.546875 -6.039062 4.984375 -5.78125 C 5.429688 -5.53125 5.773438 -5.171875 6.015625 -4.703125 C 6.253906 -4.234375 6.375 -3.675781 6.375 -3.03125 Z M 6.375 -3.03125 "/></g></g></g><g fill="#ffffff" fill-opacity="1"><g transform="translate(149.751974, 70.411552)"><g><path d="M 6.453125 0 L 4.8125 0 L 4.8125 -3.53125 C 4.8125 -3.96875 4.734375 -4.296875 4.578125 -4.515625 C 4.421875 -4.734375 4.171875 -4.84375 3.828125 -4.84375 C 3.367188 -4.84375 3.035156 -4.6875 2.828125 -4.375 C 2.617188 -4.070312 2.515625 -3.5625 2.515625 -2.84375 L 2.515625 0 L 0.859375 0 L 0.859375 -6.0625 L 2.125 -6.0625 L 2.34375 -5.28125 L 2.4375 -5.28125 C 2.625 -5.570312 2.878906 -5.789062 3.203125 -5.9375 C 3.523438 -6.09375 3.894531 -6.171875 4.3125 -6.171875 C 5.007812 -6.171875 5.539062 -5.976562 5.90625 -5.59375 C 6.269531 -5.21875 6.453125 -4.671875 6.453125 -3.953125 Z M 6.453125 0 "/></g></g></g><g fill="#ffffff" fill-opacity="1"><g transform="translate(157.043779, 70.411552)"><g><path d="M 6.453125 0 L 4.8125 0 L 4.8125 -3.53125 C 4.8125 -3.96875 4.734375 -4.296875 4.578125 -4.515625 C 4.421875 -4.734375 4.171875 -4.84375 3.828125 -4.84375 C 3.367188 -4.84375 3.035156 -4.6875 2.828125 -4.375 C 2.617188 -4.070312 2.515625 -3.5625 2.515625 -2.84375 L 2.515625 0 L 0.859375 0 L 0.859375 -6.0625 L 2.125 -6.0625 L 2.34375 -5.28125 L 2.4375 -5.28125 C 2.625 -5.570312 2.878906 -5.789062 3.203125 -5.9375 C 3.523438 -6.09375 3.894531 -6.171875 4.3125 -6.171875 C 5.007812 -6.171875 5.539062 -5.976562 5.90625 -5.59375 C 6.269531 -5.21875 6.453125 -4.671875 6.453125 -3.953125 Z M 6.453125 0 "/></g></g></g><g fill="#ffffff" fill-opacity="1"><g transform="translate(164.335584, 70.411552)"><g><path d="M 3.375 -5 C 3.019531 -5 2.742188 -4.882812 2.546875 -4.65625 C 2.347656 -4.4375 2.234375 -4.125 2.203125 -3.71875 L 4.53125 -3.71875 C 4.519531 -4.125 4.410156 -4.4375 4.203125 -4.65625 C 4.003906 -4.882812 3.726562 -5 3.375 -5 Z M 3.609375 0.109375 C 2.628906 0.109375 1.863281 -0.15625 1.3125 -0.6875 C 0.769531 -1.226562 0.5 -1.992188 0.5 -2.984375 C 0.5 -3.992188 0.75 -4.773438 1.25 -5.328125 C 1.757812 -5.890625 2.460938 -6.171875 3.359375 -6.171875 C 4.210938 -6.171875 4.878906 -5.925781 5.359375 -5.4375 C 5.835938 -4.945312 6.078125 -4.273438 6.078125 -3.421875 L 6.078125 -2.609375 L 2.171875 -2.609375 C 2.191406 -2.140625 2.332031 -1.773438 2.59375 -1.515625 C 2.851562 -1.253906 3.21875 -1.125 3.6875 -1.125 C 4.050781 -1.125 4.394531 -1.160156 4.71875 -1.234375 C 5.039062 -1.304688 5.378906 -1.425781 5.734375 -1.59375 L 5.734375 -0.3125 C 5.441406 -0.175781 5.128906 -0.0703125 4.796875 0 C 4.472656 0.0703125 4.078125 0.109375 3.609375 0.109375 Z M 3.609375 0.109375 "/></g></g></g><g fill="#ffffff" fill-opacity="1"><g transform="translate(170.890625, 70.411552)"><g/></g></g><g fill="#ffffff" fill-opacity="1"><g transform="translate(173.772676, 70.411552)"><g><path d="M 3.375 -5 C 3.019531 -5 2.742188 -4.882812 2.546875 -4.65625 C 2.347656 -4.4375 2.234375 -4.125 2.203125 -3.71875 L 4.53125 -3.71875 C 4.519531 -4.125 4.410156 -4.4375 4.203125 -4.65625 C 4.003906 -4.882812 3.726562 -5 3.375 -5 Z M 3.609375 0.109375 C 2.628906 0.109375 1.863281 -0.15625 1.3125 -0.6875 C 0.769531 -1.226562 0.5 -1.992188 0.5 -2.984375 C 0.5 -3.992188 0.75 -4.773438 1.25 -5.328125 C 1.757812 -5.890625 2.460938 -6.171875 3.359375 -6.171875 C 4.210938 -6.171875 4.878906 -5.925781 5.359375 -5.4375 C 5.835938 -4.945312 6.078125 -4.273438 6.078125 -3.421875 L 6.078125 -2.609375 L 2.171875 -2.609375 C 2.191406 -2.140625 2.332031 -1.773438 2.59375 -1.515625 C 2.851562 -1.253906 3.21875 -1.125 3.6875 -1.125 C 4.050781 -1.125 4.394531 -1.160156 4.71875 -1.234375 C 5.039062 -1.304688 5.378906 -1.425781 5.734375 -1.59375 L 5.734375 -0.3125 C 5.441406 -0.175781 5.128906 -0.0703125 4.796875 0 C 4.472656 0.0703125 4.078125 0.109375 3.609375 0.109375 Z M 3.609375 0.109375 "/></g></g></g><g fill="#ffffff" fill-opacity="1"><g transform="translate(180.327716, 70.411552)"><g><path d="M 6.453125 0 L 4.8125 0 L 4.8125 -3.53125 C 4.8125 -3.96875 4.734375 -4.296875 4.578125 -4.515625 C 4.421875 -4.734375 4.171875 -4.84375 3.828125 -4.84375 C 3.367188 -4.84375 3.035156 -4.6875 2.828125 -4.375 C 2.617188 -4.070312 2.515625 -3.5625 2.515625 -2.84375 L 2.515625 0 L 0.859375 0 L 0.859375 -6.0625 L 2.125 -6.0625 L 2.34375 -5.28125 L 2.4375 -5.28125 C 2.625 -5.570312 2.878906 -5.789062 3.203125 -5.9375 C 3.523438 -6.09375 3.894531 -6.171875 4.3125 -6.171875 C 5.007812 -6.171875 5.539062 -5.976562 5.90625 -5.59375 C 6.269531 -5.21875 6.453125 -4.671875 6.453125 -3.953125 Z M 6.453125 0 "/></g></g></g><g fill="#ffffff" fill-opacity="1"><g transform="translate(52.166852, 84.987727)"><g><path d="M 5.09375 -1.796875 C 5.09375 -1.171875 4.875 -0.695312 4.4375 -0.375 C 4.007812 -0.0507812 3.367188 0.109375 2.515625 0.109375 C 2.066406 0.109375 1.6875 0.078125 1.375 0.015625 C 1.070312 -0.046875 0.785156 -0.132812 0.515625 -0.25 L 0.515625 -1.609375 C 0.816406 -1.460938 1.160156 -1.335938 1.546875 -1.234375 C 1.929688 -1.140625 2.269531 -1.09375 2.5625 -1.09375 C 3.164062 -1.09375 3.46875 -1.269531 3.46875 -1.625 C 3.46875 -1.75 3.425781 -1.851562 3.34375 -1.9375 C 3.257812 -2.019531 3.117188 -2.109375 2.921875 -2.203125 C 2.734375 -2.304688 2.476562 -2.429688 2.15625 -2.578125 C 1.6875 -2.765625 1.34375 -2.941406 1.125 -3.109375 C 0.90625 -3.273438 0.742188 -3.46875 0.640625 -3.6875 C 0.546875 -3.90625 0.5 -4.171875 0.5 -4.484375 C 0.5 -5.015625 0.707031 -5.425781 1.125 -5.71875 C 1.539062 -6.019531 2.128906 -6.171875 2.890625 -6.171875 C 3.628906 -6.171875 4.34375 -6.007812 5.03125 -5.6875 L 4.53125 -4.5 C 4.226562 -4.632812 3.941406 -4.742188 3.671875 -4.828125 C 3.410156 -4.910156 3.144531 -4.953125 2.875 -4.953125 C 2.382812 -4.953125 2.140625 -4.816406 2.140625 -4.546875 C 2.140625 -4.398438 2.21875 -4.269531 2.375 -4.15625 C 2.53125 -4.050781 2.875 -3.894531 3.40625 -3.6875 C 3.875 -3.488281 4.21875 -3.304688 4.4375 -3.140625 C 4.664062 -2.972656 4.832031 -2.78125 4.9375 -2.5625 C 5.039062 -2.351562 5.09375 -2.097656 5.09375 -1.796875 Z M 5.09375 -1.796875 "/></g></g></g><g fill="#ffffff" fill-opacity="1"><g transform="translate(57.681754, 84.987727)"><g><path d="M 0.796875 -7.625 C 0.796875 -8.15625 1.097656 -8.421875 1.703125 -8.421875 C 2.296875 -8.421875 2.59375 -8.15625 2.59375 -7.625 C 2.59375 -7.363281 2.515625 -7.160156 2.359375 -7.015625 C 2.210938 -6.878906 1.992188 -6.8125 1.703125 -6.8125 C 1.097656 -6.8125 0.796875 -7.082031 0.796875 -7.625 Z M 2.515625 0 L 0.859375 0 L 0.859375 -6.0625 L 2.515625 -6.0625 Z M 2.515625 0 "/></g></g></g><g fill="#ffffff" fill-opacity="1"><g transform="translate(61.067621, 84.987727)"><g><path d="M 3.421875 -1.203125 C 3.703125 -1.203125 4.046875 -1.265625 4.453125 -1.390625 L 4.453125 -0.171875 C 4.046875 0.015625 3.539062 0.109375 2.9375 0.109375 C 2.28125 0.109375 1.800781 -0.0546875 1.5 -0.390625 C 1.195312 -0.722656 1.046875 -1.222656 1.046875 -1.890625 L 1.046875 -4.8125 L 0.25 -4.8125 L 0.25 -5.515625 L 1.171875 -6.0625 L 1.640625 -7.34375 L 2.703125 -7.34375 L 2.703125 -6.0625 L 4.390625 -6.0625 L 4.390625 -4.8125 L 2.703125 -4.8125 L 2.703125 -1.890625 C 2.703125 -1.660156 2.765625 -1.488281 2.890625 -1.375 C 3.023438 -1.257812 3.203125 -1.203125 3.421875 -1.203125 Z M 3.421875 -1.203125 "/></g></g></g><g fill="#ffffff" fill-opacity="1"><g transform="translate(65.88368, 84.987727)"><g><path d="M 5.15625 0 L 4.9375 -0.78125 L 4.84375 -0.78125 C 4.664062 -0.5 4.414062 -0.28125 4.09375 -0.125 C 3.769531 0.03125 3.398438 0.109375 2.984375 0.109375 C 2.273438 0.109375 1.738281 -0.078125 1.375 -0.453125 C 1.007812 -0.835938 0.828125 -1.390625 0.828125 -2.109375 L 0.828125 -6.0625 L 2.484375 -6.0625 L 2.484375 -2.515625 C 2.484375 -2.078125 2.5625 -1.75 2.71875 -1.53125 C 2.875 -1.3125 3.125 -1.203125 3.46875 -1.203125 C 3.925781 -1.203125 4.253906 -1.359375 4.453125 -1.671875 C 4.660156 -1.984375 4.765625 -2.492188 4.765625 -3.203125 L 4.765625 -6.0625 L 6.421875 -6.0625 L 6.421875 0 Z M 5.15625 0 "/></g></g></g><g fill="#ffffff" fill-opacity="1"><g transform="translate(73.175485, 84.987727)"><g><path d="M 4.71875 0 L 4.390625 -0.828125 L 4.34375 -0.828125 C 4.070312 -0.472656 3.785156 -0.226562 3.484375 -0.09375 C 3.191406 0.0390625 2.8125 0.109375 2.34375 0.109375 C 1.757812 0.109375 1.300781 -0.0546875 0.96875 -0.390625 C 0.632812 -0.722656 0.46875 -1.195312 0.46875 -1.8125 C 0.46875 -2.457031 0.691406 -2.929688 1.140625 -3.234375 C 1.585938 -3.535156 2.265625 -3.703125 3.171875 -3.734375 L 4.21875 -3.765625 L 4.21875 -4.03125 C 4.21875 -4.644531 3.90625 -4.953125 3.28125 -4.953125 C 2.800781 -4.953125 2.234375 -4.804688 1.578125 -4.515625 L 1.03125 -5.640625 C 1.726562 -6.003906 2.5 -6.1875 3.34375 -6.1875 C 4.15625 -6.1875 4.773438 -6.007812 5.203125 -5.65625 C 5.640625 -5.300781 5.859375 -4.757812 5.859375 -4.03125 L 5.859375 0 Z M 4.21875 -2.8125 L 3.59375 -2.78125 C 3.101562 -2.769531 2.738281 -2.679688 2.5 -2.515625 C 2.269531 -2.359375 2.15625 -2.117188 2.15625 -1.796875 C 2.15625 -1.328125 2.425781 -1.09375 2.96875 -1.09375 C 3.34375 -1.09375 3.644531 -1.203125 3.875 -1.421875 C 4.101562 -1.648438 4.21875 -1.945312 4.21875 -2.3125 Z M 4.21875 -2.8125 "/></g></g></g><g fill="#ffffff" fill-opacity="1"><g transform="translate(79.876795, 84.987727)"><g><path d="M 3.421875 -1.203125 C 3.703125 -1.203125 4.046875 -1.265625 4.453125 -1.390625 L 4.453125 -0.171875 C 4.046875 0.015625 3.539062 0.109375 2.9375 0.109375 C 2.28125 0.109375 1.800781 -0.0546875 1.5 -0.390625 C 1.195312 -0.722656 1.046875 -1.222656 1.046875 -1.890625 L 1.046875 -4.8125 L 0.25 -4.8125 L 0.25 -5.515625 L 1.171875 -6.0625 L 1.640625 -7.34375 L 2.703125 -7.34375 L 2.703125 -6.0625 L 4.390625 -6.0625 L 4.390625 -4.8125 L 2.703125 -4.8125 L 2.703125 -1.890625 C 2.703125 -1.660156 2.765625 -1.488281 2.890625 -1.375 C 3.023438 -1.257812 3.203125 -1.203125 3.421875 -1.203125 Z M 3.421875 -1.203125 "/></g></g></g><g fill="#ffffff" fill-opacity="1"><g transform="translate(84.692853, 84.987727)"><g><path d="M 0.796875 -7.625 C 0.796875 -8.15625 1.097656 -8.421875 1.703125 -8.421875 C 2.296875 -8.421875 2.59375 -8.15625 2.59375 -7.625 C 2.59375 -7.363281 2.515625 -7.160156 2.359375 -7.015625 C 2.210938 -6.878906 1.992188 -6.8125 1.703125 -6.8125 C 1.097656 -6.8125 0.796875 -7.082031 0.796875 -7.625 Z M 2.515625 0 L 0.859375 0 L 0.859375 -6.0625 L 2.515625 -6.0625 Z M 2.515625 0 "/></g></g></g><g fill="#ffffff" fill-opacity="1"><g transform="translate(88.078721, 84.987727)"><g><path d="M 2.1875 -3.03125 C 2.1875 -2.4375 2.285156 -1.984375 2.484375 -1.671875 C 2.679688 -1.367188 3 -1.21875 3.4375 -1.21875 C 3.875 -1.21875 4.191406 -1.367188 4.390625 -1.671875 C 4.585938 -1.984375 4.6875 -2.4375 4.6875 -3.03125 C 4.6875 -3.632812 4.585938 -4.085938 4.390625 -4.390625 C 4.191406 -4.691406 3.867188 -4.84375 3.421875 -4.84375 C 2.984375 -4.84375 2.664062 -4.691406 2.46875 -4.390625 C 2.28125 -4.085938 2.1875 -3.632812 2.1875 -3.03125 Z M 6.375 -3.03125 C 6.375 -2.050781 6.113281 -1.28125 5.59375 -0.71875 C 5.070312 -0.164062 4.347656 0.109375 3.421875 0.109375 C 2.835938 0.109375 2.320312 -0.015625 1.875 -0.265625 C 1.4375 -0.523438 1.097656 -0.890625 0.859375 -1.359375 C 0.617188 -1.835938 0.5 -2.394531 0.5 -3.03125 C 0.5 -4.019531 0.753906 -4.789062 1.265625 -5.34375 C 1.785156 -5.894531 2.515625 -6.171875 3.453125 -6.171875 C 4.035156 -6.171875 4.546875 -6.039062 4.984375 -5.78125 C 5.429688 -5.53125 5.773438 -5.171875 6.015625 -4.703125 C 6.253906 -4.234375 6.375 -3.675781 6.375 -3.03125 Z M 6.375 -3.03125 "/></g></g></g><g fill="#ffffff" fill-opacity="1"><g transform="translate(94.94797, 84.987727)"><g><path d="M 6.453125 0 L 4.8125 0 L 4.8125 -3.53125 C 4.8125 -3.96875 4.734375 -4.296875 4.578125 -4.515625 C 4.421875 -4.734375 4.171875 -4.84375 3.828125 -4.84375 C 3.367188 -4.84375 3.035156 -4.6875 2.828125 -4.375 C 2.617188 -4.070312 2.515625 -3.5625 2.515625 -2.84375 L 2.515625 0 L 0.859375 0 L 0.859375 -6.0625 L 2.125 -6.0625 L 2.34375 -5.28125 L 2.4375 -5.28125 C 2.625 -5.570312 2.878906 -5.789062 3.203125 -5.9375 C 3.523438 -6.09375 3.894531 -6.171875 4.3125 -6.171875 C 5.007812 -6.171875 5.539062 -5.976562 5.90625 -5.59375 C 6.269531 -5.21875 6.453125 -4.671875 6.453125 -3.953125 Z M 6.453125 0 "/></g></g></g><g fill="#ffffff" fill-opacity="1"><g transform="translate(102.239775, 84.987727)"><g/></g></g><g fill="#ffffff" fill-opacity="1"><g transform="translate(105.121826, 84.987727)"><g><path d="M 2.78125 0.109375 C 2.070312 0.109375 1.515625 -0.164062 1.109375 -0.71875 C 0.703125 -1.269531 0.5 -2.035156 0.5 -3.015625 C 0.5 -4.003906 0.703125 -4.773438 1.109375 -5.328125 C 1.523438 -5.890625 2.097656 -6.171875 2.828125 -6.171875 C 3.585938 -6.171875 4.171875 -5.875 4.578125 -5.28125 L 4.625 -5.28125 C 4.539062 -5.726562 4.5 -6.128906 4.5 -6.484375 L 4.5 -8.421875 L 6.15625 -8.421875 L 6.15625 0 L 4.890625 0 L 4.578125 -0.78125 L 4.5 -0.78125 C 4.125 -0.1875 3.550781 0.109375 2.78125 0.109375 Z M 3.359375 -1.203125 C 3.785156 -1.203125 4.097656 -1.320312 4.296875 -1.5625 C 4.492188 -1.8125 4.597656 -2.234375 4.609375 -2.828125 L 4.609375 -3 C 4.609375 -3.65625 4.507812 -4.125 4.3125 -4.40625 C 4.113281 -4.6875 3.789062 -4.828125 3.34375 -4.828125 C 2.96875 -4.828125 2.675781 -4.671875 2.46875 -4.359375 C 2.269531 -4.046875 2.171875 -3.59375 2.171875 -3 C 2.171875 -2.40625 2.273438 -1.957031 2.484375 -1.65625 C 2.691406 -1.351562 2.984375 -1.203125 3.359375 -1.203125 Z M 3.359375 -1.203125 "/></g></g></g><g fill="#ffffff" fill-opacity="1"><g transform="translate(112.142762, 84.987727)"><g><path d="M 3.375 -5 C 3.019531 -5 2.742188 -4.882812 2.546875 -4.65625 C 2.347656 -4.4375 2.234375 -4.125 2.203125 -3.71875 L 4.53125 -3.71875 C 4.519531 -4.125 4.410156 -4.4375 4.203125 -4.65625 C 4.003906 -4.882812 3.726562 -5 3.375 -5 Z M 3.609375 0.109375 C 2.628906 0.109375 1.863281 -0.15625 1.3125 -0.6875 C 0.769531 -1.226562 0.5 -1.992188 0.5 -2.984375 C 0.5 -3.992188 0.75 -4.773438 1.25 -5.328125 C 1.757812 -5.890625 2.460938 -6.171875 3.359375 -6.171875 C 4.210938 -6.171875 4.878906 -5.925781 5.359375 -5.4375 C 5.835938 -4.945312 6.078125 -4.273438 6.078125 -3.421875 L 6.078125 -2.609375 L 2.171875 -2.609375 C 2.191406 -2.140625 2.332031 -1.773438 2.59375 -1.515625 C 2.851562 -1.253906 3.21875 -1.125 3.6875 -1.125 C 4.050781 -1.125 4.394531 -1.160156 4.71875 -1.234375 C 5.039062 -1.304688 5.378906 -1.425781 5.734375 -1.59375 L 5.734375 -0.3125 C 5.441406 -0.175781 5.128906 -0.0703125 4.796875 0 C 4.472656 0.0703125 4.078125 0.109375 3.609375 0.109375 Z M 3.609375 0.109375 "/></g></g></g><g fill="#ffffff" fill-opacity="1"><g transform="translate(118.697802, 84.987727)"><g/></g></g><g fill="#ffffff" fill-opacity="1"><g transform="translate(121.579853, 84.987727)"><g><path d="M 6.453125 0 L 4.8125 0 L 4.8125 -3.53125 C 4.8125 -4.40625 4.484375 -4.84375 3.828125 -4.84375 C 3.367188 -4.84375 3.035156 -4.6875 2.828125 -4.375 C 2.617188 -4.0625 2.515625 -3.550781 2.515625 -2.84375 L 2.515625 0 L 0.859375 0 L 0.859375 -8.421875 L 2.515625 -8.421875 L 2.515625 -6.71875 C 2.515625 -6.582031 2.503906 -6.265625 2.484375 -5.765625 L 2.4375 -5.28125 L 2.53125 -5.28125 C 2.894531 -5.875 3.476562 -6.171875 4.28125 -6.171875 C 5 -6.171875 5.539062 -5.976562 5.90625 -5.59375 C 6.269531 -5.207031 6.453125 -4.660156 6.453125 -3.953125 Z M 6.453125 0 "/></g></g></g><g fill="#ffffff" fill-opacity="1"><g transform="translate(128.871658, 84.987727)"><g><path d="M 4.71875 0 L 4.390625 -0.828125 L 4.34375 -0.828125 C 4.070312 -0.472656 3.785156 -0.226562 3.484375 -0.09375 C 3.191406 0.0390625 2.8125 0.109375 2.34375 0.109375 C 1.757812 0.109375 1.300781 -0.0546875 0.96875 -0.390625 C 0.632812 -0.722656 0.46875 -1.195312 0.46875 -1.8125 C 0.46875 -2.457031 0.691406 -2.929688 1.140625 -3.234375 C 1.585938 -3.535156 2.265625 -3.703125 3.171875 -3.734375 L 4.21875 -3.765625 L 4.21875 -4.03125 C 4.21875 -4.644531 3.90625 -4.953125 3.28125 -4.953125 C 2.800781 -4.953125 2.234375 -4.804688 1.578125 -4.515625 L 1.03125 -5.640625 C 1.726562 -6.003906 2.5 -6.1875 3.34375 -6.1875 C 4.15625 -6.1875 4.773438 -6.007812 5.203125 -5.65625 C 5.640625 -5.300781 5.859375 -4.757812 5.859375 -4.03125 L 5.859375 0 Z M 4.21875 -2.8125 L 3.59375 -2.78125 C 3.101562 -2.769531 2.738281 -2.679688 2.5 -2.515625 C 2.269531 -2.359375 2.15625 -2.117188 2.15625 -1.796875 C 2.15625 -1.328125 2.425781 -1.09375 2.96875 -1.09375 C 3.34375 -1.09375 3.644531 -1.203125 3.875 -1.421875 C 4.101562 -1.648438 4.21875 -1.945312 4.21875 -2.3125 Z M 4.21875 -2.8125 "/></g></g></g><g fill="#ffffff" fill-opacity="1"><g transform="translate(135.572968, 84.987727)"><g><path d="M 6.453125 0 L 4.8125 0 L 4.8125 -3.53125 C 4.8125 -3.96875 4.734375 -4.296875 4.578125 -4.515625 C 4.421875 -4.734375 4.171875 -4.84375 3.828125 -4.84375 C 3.367188 -4.84375 3.035156 -4.6875 2.828125 -4.375 C 2.617188 -4.070312 2.515625 -3.5625 2.515625 -2.84375 L 2.515625 0 L 0.859375 0 L 0.859375 -6.0625 L 2.125 -6.0625 L 2.34375 -5.28125 L 2.4375 -5.28125 C 2.625 -5.570312 2.878906 -5.789062 3.203125 -5.9375 C 3.523438 -6.09375 3.894531 -6.171875 4.3125 -6.171875 C 5.007812 -6.171875 5.539062 -5.976562 5.90625 -5.59375 C 6.269531 -5.21875 6.453125 -4.671875 6.453125 -3.953125 Z M 6.453125 0 "/></g></g></g><g fill="#ffffff" fill-opacity="1"><g transform="translate(142.864773, 84.987727)"><g><path d="M 2.78125 0.109375 C 2.070312 0.109375 1.515625 -0.164062 1.109375 -0.71875 C 0.703125 -1.269531 0.5 -2.035156 0.5 -3.015625 C 0.5 -4.003906 0.703125 -4.773438 1.109375 -5.328125 C 1.523438 -5.890625 2.097656 -6.171875 2.828125 -6.171875 C 3.585938 -6.171875 4.171875 -5.875 4.578125 -5.28125 L 4.625 -5.28125 C 4.539062 -5.726562 4.5 -6.128906 4.5 -6.484375 L 4.5 -8.421875 L 6.15625 -8.421875 L 6.15625 0 L 4.890625 0 L 4.578125 -0.78125 L 4.5 -0.78125 C 4.125 -0.1875 3.550781 0.109375 2.78125 0.109375 Z M 3.359375 -1.203125 C 3.785156 -1.203125 4.097656 -1.320312 4.296875 -1.5625 C 4.492188 -1.8125 4.597656 -2.234375 4.609375 -2.828125 L 4.609375 -3 C 4.609375 -3.65625 4.507812 -4.125 4.3125 -4.40625 C 4.113281 -4.6875 3.789062 -4.828125 3.34375 -4.828125 C 2.96875 -4.828125 2.675781 -4.671875 2.46875 -4.359375 C 2.269531 -4.046875 2.171875 -3.59375 2.171875 -3 C 2.171875 -2.40625 2.273438 -1.957031 2.484375 -1.65625 C 2.691406 -1.351562 2.984375 -1.203125 3.359375 -1.203125 Z M 3.359375 -1.203125 "/></g></g></g><g fill="#ffffff" fill-opacity="1"><g transform="translate(149.885709, 84.987727)"><g><path d="M 0.796875 -7.625 C 0.796875 -8.15625 1.097656 -8.421875 1.703125 -8.421875 C 2.296875 -8.421875 2.59375 -8.15625 2.59375 -7.625 C 2.59375 -7.363281 2.515625 -7.160156 2.359375 -7.015625 C 2.210938 -6.878906 1.992188 -6.8125 1.703125 -6.8125 C 1.097656 -6.8125 0.796875 -7.082031 0.796875 -7.625 Z M 2.515625 0 L 0.859375 0 L 0.859375 -6.0625 L 2.515625 -6.0625 Z M 2.515625 0 "/></g></g></g><g fill="#ffffff" fill-opacity="1"><g transform="translate(153.271577, 84.987727)"><g><path d="M 3.328125 0.109375 C 1.441406 0.109375 0.5 -0.925781 0.5 -3 C 0.5 -4.03125 0.753906 -4.816406 1.265625 -5.359375 C 1.773438 -5.898438 2.507812 -6.171875 3.46875 -6.171875 C 4.164062 -6.171875 4.796875 -6.035156 5.359375 -5.765625 L 4.875 -4.484375 C 4.613281 -4.585938 4.367188 -4.671875 4.140625 -4.734375 C 3.921875 -4.804688 3.695312 -4.84375 3.46875 -4.84375 C 2.613281 -4.84375 2.1875 -4.226562 2.1875 -3 C 2.1875 -1.820312 2.613281 -1.234375 3.46875 -1.234375 C 3.789062 -1.234375 4.085938 -1.273438 4.359375 -1.359375 C 4.628906 -1.441406 4.898438 -1.570312 5.171875 -1.75 L 5.171875 -0.34375 C 4.898438 -0.175781 4.628906 -0.0625 4.359375 0 C 4.085938 0.0703125 3.742188 0.109375 3.328125 0.109375 Z M 3.328125 0.109375 "/></g></g></g><g fill="#ffffff" fill-opacity="1"><g transform="translate(158.976087, 84.987727)"><g><path d="M 4.71875 0 L 4.390625 -0.828125 L 4.34375 -0.828125 C 4.070312 -0.472656 3.785156 -0.226562 3.484375 -0.09375 C 3.191406 0.0390625 2.8125 0.109375 2.34375 0.109375 C 1.757812 0.109375 1.300781 -0.0546875 0.96875 -0.390625 C 0.632812 -0.722656 0.46875 -1.195312 0.46875 -1.8125 C 0.46875 -2.457031 0.691406 -2.929688 1.140625 -3.234375 C 1.585938 -3.535156 2.265625 -3.703125 3.171875 -3.734375 L 4.21875 -3.765625 L 4.21875 -4.03125 C 4.21875 -4.644531 3.90625 -4.953125 3.28125 -4.953125 C 2.800781 -4.953125 2.234375 -4.804688 1.578125 -4.515625 L 1.03125 -5.640625 C 1.726562 -6.003906 2.5 -6.1875 3.34375 -6.1875 C 4.15625 -6.1875 4.773438 -6.007812 5.203125 -5.65625 C 5.640625 -5.300781 5.859375 -4.757812 5.859375 -4.03125 L 5.859375 0 Z M 4.21875 -2.8125 L 3.59375 -2.78125 C 3.101562 -2.769531 2.738281 -2.679688 2.5 -2.515625 C 2.269531 -2.359375 2.15625 -2.117188 2.15625 -1.796875 C 2.15625 -1.328125 2.425781 -1.09375 2.96875 -1.09375 C 3.34375 -1.09375 3.644531 -1.203125 3.875 -1.421875 C 4.101562 -1.648438 4.21875 -1.945312 4.21875 -2.3125 Z M 4.21875 -2.8125 "/></g></g></g><g fill="#ffffff" fill-opacity="1"><g transform="translate(165.677397, 84.987727)"><g><path d="M 4.1875 0.109375 C 3.476562 0.109375 2.921875 -0.148438 2.515625 -0.671875 L 2.4375 -0.671875 C 2.488281 -0.160156 2.515625 0.132812 2.515625 0.21875 L 2.515625 2.671875 L 0.859375 2.671875 L 0.859375 -6.0625 L 2.203125 -6.0625 L 2.4375 -5.265625 L 2.515625 -5.265625 C 2.898438 -5.867188 3.472656 -6.171875 4.234375 -6.171875 C 4.953125 -6.171875 5.507812 -5.894531 5.90625 -5.34375 C 6.3125 -4.789062 6.515625 -4.019531 6.515625 -3.03125 C 6.515625 -2.382812 6.421875 -1.820312 6.234375 -1.34375 C 6.046875 -0.875 5.773438 -0.515625 5.421875 -0.265625 C 5.078125 -0.015625 4.664062 0.109375 4.1875 0.109375 Z M 3.703125 -4.84375 C 3.296875 -4.84375 3 -4.71875 2.8125 -4.46875 C 2.625 -4.21875 2.523438 -3.804688 2.515625 -3.234375 L 2.515625 -3.046875 C 2.515625 -2.398438 2.609375 -1.9375 2.796875 -1.65625 C 2.992188 -1.375 3.304688 -1.234375 3.734375 -1.234375 C 4.472656 -1.234375 4.84375 -1.84375 4.84375 -3.0625 C 4.84375 -3.65625 4.75 -4.097656 4.5625 -4.390625 C 4.382812 -4.691406 4.097656 -4.84375 3.703125 -4.84375 Z M 3.703125 -4.84375 "/></g></g></g></svg>