<svg xmlns="http://www.w3.org/2000/svg" xmlns:xlink="http://www.w3.org/1999/xlink" width="300" zoomAndPan="magnify" viewBox="0 0 224.87999 119.999999" height="160" preserveAspectRatio="xMidYMid meet" version="1.0"><defs><g/><clipPath id="0601c58fbe"><path d="M 0 0.03125 L 224.761719 0.03125 L 224.761719 119.96875 L 0 119.96875 Z M 0 0.03125 " clip-rule="nonzero"/></clipPath><clipPath id="86a5296315"><path d="M 0 0.03125 L 224.761719 0.03125 L 224.761719 119.96875 L 0 119.96875 Z M 0 0.03125 " clip-rule="nonzero"/></clipPath><clipPath id="28f346d6c1"><path d="M 5.996094 0.03125 L 218.882812 0.03125 C 222.195312 0.03125 224.878906 2.71875 224.878906 6.027344 L 224.878906 114.992188 C 224.878906 118.304688 222.195312 120.988281 218.882812 120.988281 L 5.996094 120.988281 C 2.683594 120.988281 0 118.304688 0 114.992188 L 0 6.027344 C 0 2.71875 2.683594 0.03125 5.996094 0.03125 " clip-rule="nonzero"/></clipPath></defs><g clip-path="url(#0601c58fbe)"><path fill="#ffffff" d="M 0 0.03125 L 224.878906 0.03125 L 224.878906 127.464844 L 0 127.464844 Z M 0 0.03125 " fill-opacity="1" fill-rule="nonzero"/><path fill="#ffffff" d="M 0 0.03125 L 224.878906 0.03125 L 224.878906 119.96875 L 0 119.96875 Z M 0 0.03125 " fill-opacity="1" fill-rule="nonzero"/><path fill="#ffffff" d="M 0 0.03125 L 224.878906 0.03125 L 224.878906 119.96875 L 0 119.96875 Z M 0 0.03125 " fill-opacity="1" fill-rule="nonzero"/></g><g clip-path="url(#86a5296315)"><g clip-path="url(#28f346d6c1)"><path fill="#8a2d88" d="M 0 0.03125 L 224.878906 0.03125 L 224.878906 120.988281 L 0 120.988281 Z M 0 0.03125 " fill-opacity="1" fill-rule="nonzero"/></g></g><g fill="#ffffff" fill-opacity="1"><g transform="translate(40.879998, 49.255507)"><g><path d="M 19.53125 -10.421875 C 19.53125 -7.054688 18.570312 -4.476562 16.65625 -2.6875 C 14.738281 -0.894531 11.972656 0 8.359375 0 L 2.578125 0 L 2.578125 -20.453125 L 8.984375 -20.453125 C 12.328125 -20.453125 14.921875 -19.566406 16.765625 -17.796875 C 18.609375 -16.035156 19.53125 -13.578125 19.53125 -10.421875 Z M 15.03125 -10.3125 C 15.03125 -14.695312 13.09375 -16.890625 9.21875 -16.890625 L 6.90625 -16.890625 L 6.90625 -3.578125 L 8.765625 -3.578125 C 12.941406 -3.578125 15.03125 -5.820312 15.03125 -10.3125 Z M 15.03125 -10.3125 "/></g></g></g><g fill="#ffffff" fill-opacity="1"><g transform="translate(62.068464, 49.255507)"><g><path d="M 2.0625 -19.671875 C 2.0625 -21.066406 2.832031 -21.765625 4.375 -21.765625 C 5.925781 -21.765625 6.703125 -21.066406 6.703125 -19.671875 C 6.703125 -19.015625 6.503906 -18.5 6.109375 -18.125 C 5.722656 -17.757812 5.144531 -17.578125 4.375 -17.578125 C 2.832031 -17.578125 2.0625 -18.273438 2.0625 -19.671875 Z M 6.5 0 L 2.234375 0 L 2.234375 -15.640625 L 6.5 -15.640625 Z M 6.5 0 "/></g></g></g><g fill="#ffffff" fill-opacity="1"><g transform="translate(70.803814, 49.255507)"><g><path d="M 10.96875 -15.921875 C 11.539062 -15.921875 12.019531 -15.878906 12.40625 -15.796875 L 12.078125 -11.796875 C 11.734375 -11.890625 11.316406 -11.9375 10.828125 -11.9375 C 9.460938 -11.9375 8.398438 -11.585938 7.640625 -10.890625 C 6.878906 -10.191406 6.5 -9.210938 6.5 -7.953125 L 6.5 0 L 2.234375 0 L 2.234375 -15.640625 L 5.46875 -15.640625 L 6.09375 -13 L 6.3125 -13 C 6.789062 -13.882812 7.441406 -14.59375 8.265625 -15.125 C 9.097656 -15.65625 10 -15.921875 10.96875 -15.921875 Z M 10.96875 -15.921875 "/></g></g></g><g fill="#ffffff" fill-opacity="1"><g transform="translate(83.802015, 49.255507)"><g><path d="M 8.71875 -12.890625 C 7.8125 -12.890625 7.097656 -12.601562 6.578125 -12.03125 C 6.066406 -11.457031 5.773438 -10.644531 5.703125 -9.59375 L 11.6875 -9.59375 C 11.664062 -10.644531 11.390625 -11.457031 10.859375 -12.03125 C 10.328125 -12.601562 9.613281 -12.890625 8.71875 -12.890625 Z M 9.3125 0.28125 C 6.789062 0.28125 4.820312 -0.410156 3.40625 -1.796875 C 1.988281 -3.191406 1.28125 -5.160156 1.28125 -7.703125 C 1.28125 -10.328125 1.9375 -12.351562 3.25 -13.78125 C 4.5625 -15.207031 6.375 -15.921875 8.6875 -15.921875 C 10.894531 -15.921875 12.613281 -15.289062 13.84375 -14.03125 C 15.070312 -12.78125 15.6875 -11.046875 15.6875 -8.828125 L 15.6875 -6.75 L 5.609375 -6.75 C 5.648438 -5.539062 6.003906 -4.59375 6.671875 -3.90625 C 7.347656 -3.226562 8.296875 -2.890625 9.515625 -2.890625 C 10.453125 -2.890625 11.335938 -2.988281 12.171875 -3.1875 C 13.015625 -3.382812 13.894531 -3.695312 14.8125 -4.125 L 14.8125 -0.828125 C 14.0625 -0.453125 13.257812 -0.175781 12.40625 0 C 11.5625 0.1875 10.53125 0.28125 9.3125 0.28125 Z M 9.3125 0.28125 "/></g></g></g><g fill="#ffffff" fill-opacity="1"><g transform="translate(100.713654, 49.255507)"><g><path d="M 8.59375 0.28125 C 3.71875 0.28125 1.28125 -2.390625 1.28125 -7.734375 C 1.28125 -10.390625 1.941406 -12.414062 3.265625 -13.8125 C 4.597656 -15.21875 6.5 -15.921875 8.96875 -15.921875 C 10.769531 -15.921875 12.390625 -15.566406 13.828125 -14.859375 L 12.578125 -11.5625 C 11.898438 -11.832031 11.269531 -12.050781 10.6875 -12.21875 C 10.113281 -12.394531 9.539062 -12.484375 8.96875 -12.484375 C 6.75 -12.484375 5.640625 -10.910156 5.640625 -7.765625 C 5.640625 -4.703125 6.75 -3.171875 8.96875 -3.171875 C 9.78125 -3.171875 10.535156 -3.28125 11.234375 -3.5 C 11.941406 -3.71875 12.644531 -4.0625 13.34375 -4.53125 L 13.34375 -0.875 C 12.65625 -0.4375 11.957031 -0.132812 11.25 0.03125 C 10.539062 0.195312 9.65625 0.28125 8.59375 0.28125 Z M 8.59375 0.28125 "/></g></g></g><g fill="#ffffff" fill-opacity="1"><g transform="translate(115.430972, 49.255507)"><g><path d="M 8.828125 -3.125 C 9.566406 -3.125 10.460938 -3.285156 11.515625 -3.609375 L 11.515625 -0.4375 C 10.453125 0.0390625 9.144531 0.28125 7.59375 0.28125 C 5.882812 0.28125 4.640625 -0.148438 3.859375 -1.015625 C 3.085938 -1.878906 2.703125 -3.171875 2.703125 -4.890625 L 2.703125 -12.4375 L 0.65625 -12.4375 L 0.65625 -14.234375 L 3 -15.65625 L 4.234375 -18.96875 L 6.96875 -18.96875 L 6.96875 -15.640625 L 11.34375 -15.640625 L 11.34375 -12.4375 L 6.96875 -12.4375 L 6.96875 -4.890625 C 6.96875 -4.285156 7.132812 -3.835938 7.46875 -3.546875 C 7.8125 -3.265625 8.265625 -3.125 8.828125 -3.125 Z M 8.828125 -3.125 "/></g></g></g><g fill="#ffffff" fill-opacity="1"><g transform="translate(127.856134, 49.255507)"><g><path d="M 2.0625 -19.671875 C 2.0625 -21.066406 2.832031 -21.765625 4.375 -21.765625 C 5.925781 -21.765625 6.703125 -21.066406 6.703125 -19.671875 C 6.703125 -19.015625 6.503906 -18.5 6.109375 -18.125 C 5.722656 -17.757812 5.144531 -17.578125 4.375 -17.578125 C 2.832031 -17.578125 2.0625 -18.273438 2.0625 -19.671875 Z M 6.5 0 L 2.234375 0 L 2.234375 -15.640625 L 6.5 -15.640625 Z M 6.5 0 "/></g></g></g><g fill="#ffffff" fill-opacity="1"><g transform="translate(136.591485, 49.255507)"><g><path d="M 5.953125 0 L 0 -15.640625 L 4.46875 -15.640625 L 7.484375 -6.734375 C 7.816406 -5.597656 8.023438 -4.53125 8.109375 -3.53125 L 8.1875 -3.53125 C 8.238281 -4.414062 8.453125 -5.484375 8.828125 -6.734375 L 11.828125 -15.640625 L 16.296875 -15.640625 L 10.328125 0 Z M 5.953125 0 "/></g></g></g><g fill="#ffffff" fill-opacity="1"><g transform="translate(152.874177, 49.255507)"><g><path d="M 8.71875 -12.890625 C 7.8125 -12.890625 7.097656 -12.601562 6.578125 -12.03125 C 6.066406 -11.457031 5.773438 -10.644531 5.703125 -9.59375 L 11.6875 -9.59375 C 11.664062 -10.644531 11.390625 -11.457031 10.859375 -12.03125 C 10.328125 -12.601562 9.613281 -12.890625 8.71875 -12.890625 Z M 9.3125 0.28125 C 6.789062 0.28125 4.820312 -0.410156 3.40625 -1.796875 C 1.988281 -3.191406 1.28125 -5.160156 1.28125 -7.703125 C 1.28125 -10.328125 1.9375 -12.351562 3.25 -13.78125 C 4.5625 -15.207031 6.375 -15.921875 8.6875 -15.921875 C 10.894531 -15.921875 12.613281 -15.289062 13.84375 -14.03125 C 15.070312 -12.78125 15.6875 -11.046875 15.6875 -8.828125 L 15.6875 -6.75 L 5.609375 -6.75 C 5.648438 -5.539062 6.003906 -4.59375 6.671875 -3.90625 C 7.347656 -3.226562 8.296875 -2.890625 9.515625 -2.890625 C 10.453125 -2.890625 11.335938 -2.988281 12.171875 -3.1875 C 13.015625 -3.382812 13.894531 -3.695312 14.8125 -4.125 L 14.8125 -0.828125 C 14.0625 -0.453125 13.257812 -0.175781 12.40625 0 C 11.5625 0.1875 10.53125 0.28125 9.3125 0.28125 Z M 9.3125 0.28125 "/></g></g></g><g fill="#ffffff" fill-opacity="1"><g transform="translate(169.785816, 49.255507)"><g><path d="M 13.140625 -4.640625 C 13.140625 -3.035156 12.582031 -1.8125 11.46875 -0.96875 C 10.351562 -0.132812 8.6875 0.28125 6.46875 0.28125 C 5.332031 0.28125 4.363281 0.203125 3.5625 0.046875 C 2.757812 -0.109375 2.007812 -0.332031 1.3125 -0.625 L 1.3125 -4.15625 C 2.101562 -3.78125 2.992188 -3.46875 3.984375 -3.21875 C 4.984375 -2.96875 5.859375 -2.84375 6.609375 -2.84375 C 8.160156 -2.84375 8.9375 -3.289062 8.9375 -4.1875 C 8.9375 -4.519531 8.832031 -4.789062 8.625 -5 C 8.425781 -5.207031 8.070312 -5.441406 7.5625 -5.703125 C 7.0625 -5.972656 6.390625 -6.285156 5.546875 -6.640625 C 4.347656 -7.140625 3.46875 -7.601562 2.90625 -8.03125 C 2.34375 -8.46875 1.929688 -8.960938 1.671875 -9.515625 C 1.410156 -10.066406 1.28125 -10.75 1.28125 -11.5625 C 1.28125 -12.957031 1.816406 -14.03125 2.890625 -14.78125 C 3.972656 -15.539062 5.503906 -15.921875 7.484375 -15.921875 C 9.367188 -15.921875 11.203125 -15.515625 12.984375 -14.703125 L 11.6875 -11.625 C 10.90625 -11.957031 10.171875 -12.226562 9.484375 -12.4375 C 8.804688 -12.65625 8.113281 -12.765625 7.40625 -12.765625 C 6.15625 -12.765625 5.53125 -12.425781 5.53125 -11.75 C 5.53125 -11.363281 5.726562 -11.03125 6.125 -10.75 C 6.53125 -10.46875 7.421875 -10.054688 8.796875 -9.515625 C 10.015625 -9.015625 10.90625 -8.550781 11.46875 -8.125 C 12.039062 -7.695312 12.460938 -7.203125 12.734375 -6.640625 C 13.003906 -6.078125 13.140625 -5.410156 13.140625 -4.640625 Z M 13.140625 -4.640625 "/></g></g></g><g fill="#ffffff" fill-opacity="1"><g transform="translate(35.297899, 86.861226)"><g/></g></g><g fill="#ffffff" fill-opacity="1"><g transform="translate(42.726707, 86.861226)"><g><path d="M 12.171875 0 L 11.34375 -2.125 L 11.234375 -2.125 C 10.515625 -1.21875 9.773438 -0.585938 9.015625 -0.234375 C 8.253906 0.109375 7.265625 0.28125 6.046875 0.28125 C 4.546875 0.28125 3.363281 -0.144531 2.5 -1 C 1.632812 -1.863281 1.203125 -3.085938 1.203125 -4.671875 C 1.203125 -6.328125 1.78125 -7.550781 2.9375 -8.34375 C 4.101562 -9.132812 5.851562 -9.570312 8.1875 -9.65625 L 10.90625 -9.734375 L 10.90625 -10.421875 C 10.90625 -12.003906 10.09375 -12.796875 8.46875 -12.796875 C 7.21875 -12.796875 5.75 -12.414062 4.0625 -11.65625 L 2.65625 -14.546875 C 4.457031 -15.484375 6.453125 -15.953125 8.640625 -15.953125 C 10.742188 -15.953125 12.351562 -15.492188 13.46875 -14.578125 C 14.582031 -13.671875 15.140625 -12.285156 15.140625 -10.421875 L 15.140625 0 Z M 10.90625 -7.25 L 9.265625 -7.1875 C 8.015625 -7.144531 7.085938 -6.921875 6.484375 -6.515625 C 5.878906 -6.109375 5.578125 -5.484375 5.578125 -4.640625 C 5.578125 -3.441406 6.269531 -2.84375 7.65625 -2.84375 C 8.632812 -2.84375 9.421875 -3.125 10.015625 -3.6875 C 10.609375 -4.257812 10.90625 -5.015625 10.90625 -5.953125 Z M 10.90625 -7.25 "/></g></g></g><g fill="#ffffff" fill-opacity="1"><g transform="translate(60.015713, 86.861226)"><g><path d="M 16.671875 0 L 12.40625 0 L 12.40625 -9.125 C 12.40625 -10.257812 12.203125 -11.109375 11.796875 -11.671875 C 11.398438 -12.234375 10.765625 -12.515625 9.890625 -12.515625 C 8.691406 -12.515625 7.828125 -12.113281 7.296875 -11.3125 C 6.765625 -10.519531 6.5 -9.203125 6.5 -7.359375 L 6.5 0 L 2.234375 0 L 2.234375 -15.640625 L 5.5 -15.640625 L 6.0625 -13.640625 L 6.3125 -13.640625 C 6.78125 -14.390625 7.429688 -14.957031 8.265625 -15.34375 C 9.109375 -15.726562 10.0625 -15.921875 11.125 -15.921875 C 12.9375 -15.921875 14.3125 -15.429688 15.25 -14.453125 C 16.195312 -13.472656 16.671875 -12.050781 16.671875 -10.1875 Z M 16.671875 0 "/></g></g></g><g fill="#ffffff" fill-opacity="1"><g transform="translate(78.828163, 86.861226)"><g><path d="M 8.828125 -3.125 C 9.566406 -3.125 10.460938 -3.285156 11.515625 -3.609375 L 11.515625 -0.4375 C 10.453125 0.0390625 9.144531 0.28125 7.59375 0.28125 C 5.882812 0.28125 4.640625 -0.148438 3.859375 -1.015625 C 3.085938 -1.878906 2.703125 -3.171875 2.703125 -4.890625 L 2.703125 -12.4375 L 0.65625 -12.4375 L 0.65625 -14.234375 L 3 -15.65625 L 4.234375 -18.96875 L 6.96875 -18.96875 L 6.96875 -15.640625 L 11.34375 -15.640625 L 11.34375 -12.4375 L 6.96875 -12.4375 L 6.96875 -4.890625 C 6.96875 -4.285156 7.132812 -3.835938 7.46875 -3.546875 C 7.8125 -3.265625 8.265625 -3.125 8.828125 -3.125 Z M 8.828125 -3.125 "/></g></g></g><g fill="#ffffff" fill-opacity="1"><g transform="translate(91.253325, 86.861226)"><g><path d="M 2.0625 -19.671875 C 2.0625 -21.066406 2.832031 -21.765625 4.375 -21.765625 C 5.925781 -21.765625 6.703125 -21.066406 6.703125 -19.671875 C 6.703125 -19.015625 6.503906 -18.5 6.109375 -18.125 C 5.722656 -17.757812 5.144531 -17.578125 4.375 -17.578125 C 2.832031 -17.578125 2.0625 -18.273438 2.0625 -19.671875 Z M 6.5 0 L 2.234375 0 L 2.234375 -15.640625 L 6.5 -15.640625 Z M 6.5 0 "/></g></g></g><g fill="#ffffff" fill-opacity="1"><g transform="translate(99.988676, 86.861226)"><g><path d="M 8.59375 0.28125 C 3.71875 0.28125 1.28125 -2.390625 1.28125 -7.734375 C 1.28125 -10.390625 1.941406 -12.414062 3.265625 -13.8125 C 4.597656 -15.21875 6.5 -15.921875 8.96875 -15.921875 C 10.769531 -15.921875 12.390625 -15.566406 13.828125 -14.859375 L 12.578125 -11.5625 C 11.898438 -11.832031 11.269531 -12.050781 10.6875 -12.21875 C 10.113281 -12.394531 9.539062 -12.484375 8.96875 -12.484375 C 6.75 -12.484375 5.640625 -10.910156 5.640625 -7.765625 C 5.640625 -4.703125 6.75 -3.171875 8.96875 -3.171875 C 9.78125 -3.171875 10.535156 -3.28125 11.234375 -3.5 C 11.941406 -3.71875 12.644531 -4.0625 13.34375 -4.53125 L 13.34375 -0.875 C 12.65625 -0.4375 11.957031 -0.132812 11.25 0.03125 C 10.539062 0.195312 9.65625 0.28125 8.59375 0.28125 Z M 8.59375 0.28125 "/></g></g></g><g fill="#ffffff" fill-opacity="1"><g transform="translate(114.705994, 86.861226)"><g><path d="M 2.0625 -19.671875 C 2.0625 -21.066406 2.832031 -21.765625 4.375 -21.765625 C 5.925781 -21.765625 6.703125 -21.066406 6.703125 -19.671875 C 6.703125 -19.015625 6.503906 -18.5 6.109375 -18.125 C 5.722656 -17.757812 5.144531 -17.578125 4.375 -17.578125 C 2.832031 -17.578125 2.0625 -18.273438 2.0625 -19.671875 Z M 6.5 0 L 2.234375 0 L 2.234375 -15.640625 L 6.5 -15.640625 Z M 6.5 0 "/></g></g></g><g fill="#ffffff" fill-opacity="1"><g transform="translate(123.441344, 86.861226)"><g><path d="M 10.828125 0.28125 C 8.984375 0.28125 7.539062 -0.382812 6.5 -1.71875 L 6.28125 -1.71875 C 6.425781 -0.414062 6.5 0.335938 6.5 0.546875 L 6.5 6.875 L 2.234375 6.875 L 2.234375 -15.640625 L 5.703125 -15.640625 L 6.3125 -13.609375 L 6.5 -13.609375 C 7.5 -15.148438 8.976562 -15.921875 10.9375 -15.921875 C 12.78125 -15.921875 14.222656 -15.207031 15.265625 -13.78125 C 16.316406 -12.363281 16.84375 -10.382812 16.84375 -7.84375 C 16.84375 -6.175781 16.597656 -4.726562 16.109375 -3.5 C 15.617188 -2.269531 14.921875 -1.332031 14.015625 -0.6875 C 13.109375 -0.0390625 12.046875 0.28125 10.828125 0.28125 Z M 9.5625 -12.515625 C 8.507812 -12.515625 7.738281 -12.191406 7.25 -11.546875 C 6.769531 -10.898438 6.519531 -9.828125 6.5 -8.328125 L 6.5 -7.875 C 6.5 -6.195312 6.75 -4.992188 7.25 -4.265625 C 7.75 -3.535156 8.539062 -3.171875 9.625 -3.171875 C 11.53125 -3.171875 12.484375 -4.75 12.484375 -7.90625 C 12.484375 -9.4375 12.25 -10.585938 11.78125 -11.359375 C 11.3125 -12.128906 10.570312 -12.515625 9.5625 -12.515625 Z M 9.5625 -12.515625 "/></g></g></g><g fill="#ffffff" fill-opacity="1"><g transform="translate(141.554967, 86.861226)"><g><path d="M 8.71875 -12.890625 C 7.8125 -12.890625 7.097656 -12.601562 6.578125 -12.03125 C 6.066406 -11.457031 5.773438 -10.644531 5.703125 -9.59375 L 11.6875 -9.59375 C 11.664062 -10.644531 11.390625 -11.457031 10.859375 -12.03125 C 10.328125 -12.601562 9.613281 -12.890625 8.71875 -12.890625 Z M 9.3125 0.28125 C 6.789062 0.28125 4.820312 -0.410156 3.40625 -1.796875 C 1.988281 -3.191406 1.28125 -5.160156 1.28125 -7.703125 C 1.28125 -10.328125 1.9375 -12.351562 3.25 -13.78125 C 4.5625 -15.207031 6.375 -15.921875 8.6875 -15.921875 C 10.894531 -15.921875 12.613281 -15.289062 13.84375 -14.03125 C 15.070312 -12.78125 15.6875 -11.046875 15.6875 -8.828125 L 15.6875 -6.75 L 5.609375 -6.75 C 5.648438 -5.539062 6.003906 -4.59375 6.671875 -3.90625 C 7.347656 -3.226562 8.296875 -2.890625 9.515625 -2.890625 C 10.453125 -2.890625 11.335938 -2.988281 12.171875 -3.1875 C 13.015625 -3.382812 13.894531 -3.695312 14.8125 -4.125 L 14.8125 -0.828125 C 14.0625 -0.453125 13.257812 -0.175781 12.40625 0 C 11.5625 0.1875 10.53125 0.28125 9.3125 0.28125 Z M 6.25 -17.359375 L 6.25 -17.734375 C 7.851562 -19.597656 8.945312 -21 9.53125 -21.9375 L 14.328125 -21.9375 L 14.328125 -21.640625 C 13.835938 -21.160156 13.003906 -20.441406 11.828125 -19.484375 C 10.660156 -18.523438 9.75 -17.816406 9.09375 -17.359375 Z M 6.25 -17.359375 "/></g></g></g><g fill="#ffffff" fill-opacity="1"><g transform="translate(158.466605, 86.861226)"><g><path d="M 8.71875 -12.890625 C 7.8125 -12.890625 7.097656 -12.601562 6.578125 -12.03125 C 6.066406 -11.457031 5.773438 -10.644531 5.703125 -9.59375 L 11.6875 -9.59375 C 11.664062 -10.644531 11.390625 -11.457031 10.859375 -12.03125 C 10.328125 -12.601562 9.613281 -12.890625 8.71875 -12.890625 Z M 9.3125 0.28125 C 6.789062 0.28125 4.820312 -0.410156 3.40625 -1.796875 C 1.988281 -3.191406 1.28125 -5.160156 1.28125 -7.703125 C 1.28125 -10.328125 1.9375 -12.351562 3.25 -13.78125 C 4.5625 -15.207031 6.375 -15.921875 8.6875 -15.921875 C 10.894531 -15.921875 12.613281 -15.289062 13.84375 -14.03125 C 15.070312 -12.78125 15.6875 -11.046875 15.6875 -8.828125 L 15.6875 -6.75 L 5.609375 -6.75 C 5.648438 -5.539062 6.003906 -4.59375 6.671875 -3.90625 C 7.347656 -3.226562 8.296875 -2.890625 9.515625 -2.890625 C 10.453125 -2.890625 11.335938 -2.988281 12.171875 -3.1875 C 13.015625 -3.382812 13.894531 -3.695312 14.8125 -4.125 L 14.8125 -0.828125 C 14.0625 -0.453125 13.257812 -0.175781 12.40625 0 C 11.5625 0.1875 10.53125 0.28125 9.3125 0.28125 Z M 9.3125 0.28125 "/></g></g></g><g fill="#ffffff" fill-opacity="1"><g transform="translate(175.378243, 86.861226)"><g><path d="M 13.140625 -4.640625 C 13.140625 -3.035156 12.582031 -1.8125 11.46875 -0.96875 C 10.351562 -0.132812 8.6875 0.28125 6.46875 0.28125 C 5.332031 0.28125 4.363281 0.203125 3.5625 0.046875 C 2.757812 -0.109375 2.007812 -0.332031 1.3125 -0.625 L 1.3125 -4.15625 C 2.101562 -3.78125 2.992188 -3.46875 3.984375 -3.21875 C 4.984375 -2.96875 5.859375 -2.84375 6.609375 -2.84375 C 8.160156 -2.84375 8.9375 -3.289062 8.9375 -4.1875 C 8.9375 -4.519531 8.832031 -4.789062 8.625 -5 C 8.425781 -5.207031 8.070312 -5.441406 7.5625 -5.703125 C 7.0625 -5.972656 6.390625 -6.285156 5.546875 -6.640625 C 4.347656 -7.140625 3.46875 -7.601562 2.90625 -8.03125 C 2.34375 -8.46875 1.929688 -8.960938 1.671875 -9.515625 C 1.410156 -10.066406 1.28125 -10.75 1.28125 -11.5625 C 1.28125 -12.957031 1.816406 -14.03125 2.890625 -14.78125 C 3.972656 -15.539062 5.503906 -15.921875 7.484375 -15.921875 C 9.367188 -15.921875 11.203125 -15.515625 12.984375 -14.703125 L 11.6875 -11.625 C 10.90625 -11.957031 10.171875 -12.226562 9.484375 -12.4375 C 8.804688 -12.65625 8.113281 -12.765625 7.40625 -12.765625 C 6.15625 -12.765625 5.53125 -12.425781 5.53125 -11.75 C 5.53125 -11.363281 5.726562 -11.03125 6.125 -10.75 C 6.53125 -10.46875 7.421875 -10.054688 8.796875 -9.515625 C 10.015625 -9.015625 10.90625 -8.550781 11.46875 -8.125 C 12.039062 -7.695312 12.460938 -7.203125 12.734375 -6.640625 C 13.003906 -6.078125 13.140625 -5.410156 13.140625 -4.640625 Z M 13.140625 -4.640625 "/></g></g></g></svg>