<svg xmlns="http://www.w3.org/2000/svg" xmlns:xlink="http://www.w3.org/1999/xlink" width="300" zoomAndPan="magnify" viewBox="0 0 224.87999 119.999999" height="160" preserveAspectRatio="xMidYMid meet" version="1.0"><defs><g/><clipPath id="8ede7ca5f5"><path d="M 0 0.03125 L 224.761719 0.03125 L 224.761719 119.96875 L 0 119.96875 Z M 0 0.03125 " clip-rule="nonzero"/></clipPath><clipPath id="d2c237325e"><path d="M 0 0.03125 L 224.761719 0.03125 L 224.761719 119.96875 L 0 119.96875 Z M 0 0.03125 " clip-rule="nonzero"/></clipPath><clipPath id="be381bf784"><path d="M 5.996094 0.03125 L 218.882812 0.03125 C 222.195312 0.03125 224.878906 2.71875 224.878906 6.027344 L 224.878906 114.992188 C 224.878906 118.304688 222.195312 120.988281 218.882812 120.988281 L 5.996094 120.988281 C 2.683594 120.988281 0 118.304688 0 114.992188 L 0 6.027344 C 0 2.71875 2.683594 0.03125 5.996094 0.03125 " clip-rule="nonzero"/></clipPath></defs><g clip-path="url(#8ede7ca5f5)"><path fill="#ffffff" d="M 0 0.03125 L 224.878906 0.03125 L 224.878906 127.464844 L 0 127.464844 Z M 0 0.03125 " fill-opacity="1" fill-rule="nonzero"/><path fill="#ffffff" d="M 0 0.03125 L 224.878906 0.03125 L 224.878906 119.96875 L 0 119.96875 Z M 0 0.03125 " fill-opacity="1" fill-rule="nonzero"/><path fill="#ffffff" d="M 0 0.03125 L 224.878906 0.03125 L 224.878906 119.96875 L 0 119.96875 Z M 0 0.03125 " fill-opacity="1" fill-rule="nonzero"/></g><g clip-path="url(#d2c237325e)"><g clip-path="url(#be381bf784)"><path fill="#4ebcc2" d="M 0 0.03125 L 224.878906 0.03125 L 224.878906 120.988281 L 0 120.988281 Z M 0 0.03125 " fill-opacity="1" fill-rule="nonzero"/></g></g><g fill="#ffffff" fill-opacity="1"><g transform="translate(18.223323, 65.565337)"><g><path d="M 10.421875 0 L 9.390625 -3.359375 L 4.25 -3.359375 L 3.21875 0 L 0 0 L 4.984375 -14.171875 L 8.640625 -14.171875 L 13.640625 0 Z M 8.6875 -5.875 C 7.738281 -8.914062 7.203125 -10.632812 7.078125 -11.03125 C 6.960938 -11.4375 6.878906 -11.753906 6.828125 -11.984375 C 6.617188 -11.160156 6.007812 -9.125 5 -5.875 Z M 8.6875 -5.875 "/></g></g></g><g fill="#ffffff" fill-opacity="1"><g transform="translate(31.862464, 65.565337)"><g><path d="M 5.9375 0.1875 C 2.570312 0.1875 0.890625 -1.65625 0.890625 -5.34375 C 0.890625 -7.175781 1.34375 -8.578125 2.25 -9.546875 C 3.164062 -10.515625 4.476562 -11 6.1875 -11 C 7.4375 -11 8.554688 -10.753906 9.546875 -10.265625 L 8.6875 -7.984375 C 8.21875 -8.171875 7.785156 -8.320312 7.390625 -8.4375 C 6.992188 -8.5625 6.59375 -8.625 6.1875 -8.625 C 4.65625 -8.625 3.890625 -7.535156 3.890625 -5.359375 C 3.890625 -3.242188 4.65625 -2.1875 6.1875 -2.1875 C 6.757812 -2.1875 7.285156 -2.257812 7.765625 -2.40625 C 8.242188 -2.5625 8.726562 -2.800781 9.21875 -3.125 L 9.21875 -0.609375 C 8.738281 -0.304688 8.253906 -0.0976562 7.765625 0.015625 C 7.285156 0.128906 6.675781 0.1875 5.9375 0.1875 Z M 5.9375 0.1875 "/></g></g></g><g fill="#ffffff" fill-opacity="1"><g transform="translate(42.026665, 65.565337)"><g><path d="M 5.9375 0.1875 C 2.570312 0.1875 0.890625 -1.65625 0.890625 -5.34375 C 0.890625 -7.175781 1.34375 -8.578125 2.25 -9.546875 C 3.164062 -10.515625 4.476562 -11 6.1875 -11 C 7.4375 -11 8.554688 -10.753906 9.546875 -10.265625 L 8.6875 -7.984375 C 8.21875 -8.171875 7.785156 -8.320312 7.390625 -8.4375 C 6.992188 -8.5625 6.59375 -8.625 6.1875 -8.625 C 4.65625 -8.625 3.890625 -7.535156 3.890625 -5.359375 C 3.890625 -3.242188 4.65625 -2.1875 6.1875 -2.1875 C 6.757812 -2.1875 7.285156 -2.257812 7.765625 -2.40625 C 8.242188 -2.5625 8.726562 -2.800781 9.21875 -3.125 L 9.21875 -0.609375 C 8.738281 -0.304688 8.253906 -0.0976562 7.765625 0.015625 C 7.285156 0.128906 6.675781 0.1875 5.9375 0.1875 Z M 5.9375 0.1875 "/></g></g></g><g fill="#ffffff" fill-opacity="1"><g transform="translate(52.190866, 65.565337)"><g><path d="M 3.890625 -5.421875 C 3.890625 -4.347656 4.066406 -3.535156 4.421875 -2.984375 C 4.773438 -2.441406 5.347656 -2.171875 6.140625 -2.171875 C 6.921875 -2.171875 7.484375 -2.441406 7.828125 -2.984375 C 8.171875 -3.535156 8.34375 -4.347656 8.34375 -5.421875 C 8.34375 -6.484375 8.164062 -7.28125 7.8125 -7.8125 C 7.46875 -8.351562 6.898438 -8.625 6.109375 -8.625 C 5.328125 -8.625 4.757812 -8.359375 4.40625 -7.828125 C 4.0625 -7.296875 3.890625 -6.492188 3.890625 -5.421875 Z M 11.359375 -5.421875 C 11.359375 -3.660156 10.894531 -2.285156 9.96875 -1.296875 C 9.039062 -0.304688 7.75 0.1875 6.09375 0.1875 C 5.0625 0.1875 4.144531 -0.0351562 3.34375 -0.484375 C 2.550781 -0.941406 1.941406 -1.59375 1.515625 -2.4375 C 1.097656 -3.289062 0.890625 -4.285156 0.890625 -5.421875 C 0.890625 -7.179688 1.347656 -8.550781 2.265625 -9.53125 C 3.191406 -10.507812 4.488281 -11 6.15625 -11 C 7.1875 -11 8.097656 -10.773438 8.890625 -10.328125 C 9.679688 -9.878906 10.289062 -9.234375 10.71875 -8.390625 C 11.144531 -7.546875 11.359375 -6.554688 11.359375 -5.421875 Z M 11.359375 -5.421875 "/></g></g></g><g fill="#ffffff" fill-opacity="1"><g transform="translate(64.430378, 65.565337)"><g><path d="M 11.21875 0 L 8.265625 0 L 8.265625 -6.3125 C 8.265625 -7.082031 8.132812 -7.660156 7.875 -8.046875 C 7.613281 -8.441406 7.203125 -8.640625 6.640625 -8.640625 C 5.890625 -8.640625 5.34375 -8.363281 5 -7.8125 C 4.65625 -7.257812 4.484375 -6.347656 4.484375 -5.078125 L 4.484375 0 L 1.546875 0 L 1.546875 -10.796875 L 3.796875 -10.796875 L 4.1875 -9.421875 L 4.359375 -9.421875 C 4.648438 -9.910156 5.066406 -10.296875 5.609375 -10.578125 C 6.160156 -10.859375 6.789062 -11 7.5 -11 C 9.113281 -11 10.207031 -10.472656 10.78125 -9.421875 L 11.046875 -9.421875 C 11.328125 -9.921875 11.75 -10.304688 12.3125 -10.578125 C 12.882812 -10.859375 13.523438 -11 14.234375 -11 C 15.453125 -11 16.375 -10.6875 17 -10.0625 C 17.632812 -9.4375 17.953125 -8.429688 17.953125 -7.046875 L 17.953125 0 L 14.984375 0 L 14.984375 -6.3125 C 14.984375 -7.082031 14.851562 -7.660156 14.59375 -8.046875 C 14.332031 -8.441406 13.925781 -8.640625 13.375 -8.640625 C 12.644531 -8.640625 12.101562 -8.378906 11.75 -7.859375 C 11.394531 -7.347656 11.21875 -6.535156 11.21875 -5.421875 Z M 11.21875 0 "/></g></g></g><g fill="#ffffff" fill-opacity="1"><g transform="translate(83.841782, 65.565337)"><g><path d="M 7.46875 0.1875 C 6.207031 0.1875 5.210938 -0.269531 4.484375 -1.1875 L 4.34375 -1.1875 C 4.4375 -0.28125 4.484375 0.238281 4.484375 0.375 L 4.484375 4.75 L 1.546875 4.75 L 1.546875 -10.796875 L 3.9375 -10.796875 L 4.359375 -9.390625 L 4.484375 -9.390625 C 5.179688 -10.460938 6.203125 -11 7.546875 -11 C 8.828125 -11 9.828125 -10.503906 10.546875 -9.515625 C 11.265625 -8.535156 11.625 -7.171875 11.625 -5.421875 C 11.625 -4.265625 11.453125 -3.257812 11.109375 -2.40625 C 10.773438 -1.5625 10.296875 -0.914062 9.671875 -0.46875 C 9.046875 -0.03125 8.3125 0.1875 7.46875 0.1875 Z M 6.609375 -8.640625 C 5.878906 -8.640625 5.347656 -8.414062 5.015625 -7.96875 C 4.679688 -7.519531 4.503906 -6.78125 4.484375 -5.75 L 4.484375 -5.4375 C 4.484375 -4.28125 4.65625 -3.445312 5 -2.9375 C 5.351562 -2.4375 5.898438 -2.1875 6.640625 -2.1875 C 7.960938 -2.1875 8.625 -3.273438 8.625 -5.453125 C 8.625 -6.515625 8.460938 -7.3125 8.140625 -7.84375 C 7.816406 -8.375 7.304688 -8.640625 6.609375 -8.640625 Z M 6.609375 -8.640625 "/></g></g></g><g fill="#ffffff" fill-opacity="1"><g transform="translate(96.351567, 65.565337)"><g><path d="M 8.40625 0 L 7.828125 -1.46875 L 7.75 -1.46875 C 7.257812 -0.84375 6.75 -0.410156 6.21875 -0.171875 C 5.695312 0.0664062 5.015625 0.1875 4.171875 0.1875 C 3.140625 0.1875 2.320312 -0.101562 1.71875 -0.6875 C 1.125 -1.28125 0.828125 -2.125 0.828125 -3.21875 C 0.828125 -4.375 1.226562 -5.222656 2.03125 -5.765625 C 2.832031 -6.304688 4.039062 -6.609375 5.65625 -6.671875 L 7.53125 -6.71875 L 7.53125 -7.203125 C 7.53125 -8.296875 6.972656 -8.84375 5.859375 -8.84375 C 4.992188 -8.84375 3.976562 -8.582031 2.8125 -8.0625 L 1.828125 -10.046875 C 3.078125 -10.691406 4.457031 -11.015625 5.96875 -11.015625 C 7.414062 -11.015625 8.523438 -10.695312 9.296875 -10.0625 C 10.066406 -9.4375 10.453125 -8.484375 10.453125 -7.203125 L 10.453125 0 Z M 7.53125 -5 L 6.390625 -4.96875 C 5.535156 -4.9375 4.898438 -4.78125 4.484375 -4.5 C 4.066406 -4.21875 3.859375 -3.785156 3.859375 -3.203125 C 3.859375 -2.367188 4.332031 -1.953125 5.28125 -1.953125 C 5.96875 -1.953125 6.515625 -2.148438 6.921875 -2.546875 C 7.328125 -2.941406 7.53125 -3.460938 7.53125 -4.109375 Z M 7.53125 -5 "/></g></g></g><g fill="#ffffff" fill-opacity="1"><g transform="translate(108.291849, 65.565337)"><g><path d="M 10.9375 -10.796875 L 10.9375 -9.296875 L 9.25 -8.859375 C 9.5625 -8.378906 9.71875 -7.84375 9.71875 -7.25 C 9.71875 -6.082031 9.3125 -5.175781 8.5 -4.53125 C 7.695312 -3.882812 6.578125 -3.5625 5.140625 -3.5625 L 4.609375 -3.59375 L 4.171875 -3.640625 C 3.867188 -3.410156 3.71875 -3.15625 3.71875 -2.875 C 3.71875 -2.445312 4.257812 -2.234375 5.34375 -2.234375 L 7.171875 -2.234375 C 8.359375 -2.234375 9.257812 -1.976562 9.875 -1.46875 C 10.5 -0.957031 10.8125 -0.210938 10.8125 0.765625 C 10.8125 2.035156 10.285156 3.015625 9.234375 3.703125 C 8.179688 4.398438 6.671875 4.75 4.703125 4.75 C 3.191406 4.75 2.039062 4.484375 1.25 3.953125 C 0.457031 3.429688 0.0625 2.703125 0.0625 1.765625 C 0.0625 1.109375 0.265625 0.5625 0.671875 0.125 C 1.078125 -0.3125 1.671875 -0.625 2.453125 -0.8125 C 2.148438 -0.9375 1.882812 -1.144531 1.65625 -1.4375 C 1.4375 -1.738281 1.328125 -2.050781 1.328125 -2.375 C 1.328125 -2.789062 1.441406 -3.132812 1.671875 -3.40625 C 1.910156 -3.675781 2.257812 -3.945312 2.71875 -4.21875 C 2.144531 -4.457031 1.691406 -4.847656 1.359375 -5.390625 C 1.035156 -5.929688 0.875 -6.566406 0.875 -7.296875 C 0.875 -8.472656 1.253906 -9.382812 2.015625 -10.03125 C 2.785156 -10.675781 3.878906 -11 5.296875 -11 C 5.597656 -11 5.957031 -10.972656 6.375 -10.921875 C 6.789062 -10.867188 7.054688 -10.828125 7.171875 -10.796875 Z M 2.609375 1.53125 C 2.609375 1.9375 2.800781 2.253906 3.1875 2.484375 C 3.582031 2.710938 4.128906 2.828125 4.828125 2.828125 C 5.878906 2.828125 6.703125 2.679688 7.296875 2.390625 C 7.898438 2.097656 8.203125 1.703125 8.203125 1.203125 C 8.203125 0.796875 8.023438 0.515625 7.671875 0.359375 C 7.316406 0.210938 6.769531 0.140625 6.03125 0.140625 L 4.515625 0.140625 C 3.972656 0.140625 3.519531 0.265625 3.15625 0.515625 C 2.789062 0.765625 2.609375 1.101562 2.609375 1.53125 Z M 3.6875 -7.265625 C 3.6875 -6.679688 3.816406 -6.21875 4.078125 -5.875 C 4.347656 -5.53125 4.753906 -5.359375 5.296875 -5.359375 C 5.859375 -5.359375 6.265625 -5.53125 6.515625 -5.875 C 6.773438 -6.21875 6.90625 -6.679688 6.90625 -7.265625 C 6.90625 -8.566406 6.367188 -9.21875 5.296875 -9.21875 C 4.222656 -9.21875 3.6875 -8.566406 3.6875 -7.265625 Z M 3.6875 -7.265625 "/></g></g></g><g fill="#ffffff" fill-opacity="1"><g transform="translate(119.459921, 65.565337)"><g><path d="M 11.515625 0 L 8.5625 0 L 8.5625 -6.3125 C 8.5625 -7.082031 8.421875 -7.660156 8.140625 -8.046875 C 7.867188 -8.441406 7.429688 -8.640625 6.828125 -8.640625 C 6.003906 -8.640625 5.40625 -8.363281 5.03125 -7.8125 C 4.664062 -7.269531 4.484375 -6.359375 4.484375 -5.078125 L 4.484375 0 L 1.546875 0 L 1.546875 -10.796875 L 3.796875 -10.796875 L 4.1875 -9.421875 L 4.359375 -9.421875 C 4.679688 -9.941406 5.128906 -10.332031 5.703125 -10.59375 C 6.285156 -10.863281 6.941406 -11 7.671875 -11 C 8.929688 -11 9.882812 -10.660156 10.53125 -9.984375 C 11.1875 -9.304688 11.515625 -8.328125 11.515625 -7.046875 Z M 11.515625 0 "/></g></g></g><g fill="#ffffff" fill-opacity="1"><g transform="translate(132.452338, 65.565337)"><g><path d="M 6.015625 -8.90625 C 5.390625 -8.90625 4.898438 -8.707031 4.546875 -8.3125 C 4.191406 -7.914062 3.988281 -7.351562 3.9375 -6.625 L 8.078125 -6.625 C 8.066406 -7.351562 7.875 -7.914062 7.5 -8.3125 C 7.132812 -8.707031 6.640625 -8.90625 6.015625 -8.90625 Z M 6.4375 0.1875 C 4.695312 0.1875 3.335938 -0.289062 2.359375 -1.25 C 1.378906 -2.207031 0.890625 -3.566406 0.890625 -5.328125 C 0.890625 -7.128906 1.34375 -8.523438 2.25 -9.515625 C 3.15625 -10.503906 4.40625 -11 6 -11 C 7.519531 -11 8.707031 -10.5625 9.5625 -9.6875 C 10.414062 -8.820312 10.84375 -7.625 10.84375 -6.09375 L 10.84375 -4.671875 L 3.875 -4.671875 C 3.90625 -3.828125 4.148438 -3.171875 4.609375 -2.703125 C 5.078125 -2.234375 5.726562 -2 6.5625 -2 C 7.21875 -2 7.832031 -2.066406 8.40625 -2.203125 C 8.988281 -2.335938 9.597656 -2.550781 10.234375 -2.84375 L 10.234375 -0.5625 C 9.710938 -0.3125 9.160156 -0.125 8.578125 0 C 7.992188 0.125 7.28125 0.1875 6.4375 0.1875 Z M 6.4375 0.1875 "/></g></g></g><g fill="#ffffff" fill-opacity="1"><g transform="translate(144.131999, 65.565337)"><g><path d="M 11.21875 0 L 8.265625 0 L 8.265625 -6.3125 C 8.265625 -7.082031 8.132812 -7.660156 7.875 -8.046875 C 7.613281 -8.441406 7.203125 -8.640625 6.640625 -8.640625 C 5.890625 -8.640625 5.34375 -8.363281 5 -7.8125 C 4.65625 -7.257812 4.484375 -6.347656 4.484375 -5.078125 L 4.484375 0 L 1.546875 0 L 1.546875 -10.796875 L 3.796875 -10.796875 L 4.1875 -9.421875 L 4.359375 -9.421875 C 4.648438 -9.910156 5.066406 -10.296875 5.609375 -10.578125 C 6.160156 -10.859375 6.789062 -11 7.5 -11 C 9.113281 -11 10.207031 -10.472656 10.78125 -9.421875 L 11.046875 -9.421875 C 11.328125 -9.921875 11.75 -10.304688 12.3125 -10.578125 C 12.882812 -10.859375 13.523438 -11 14.234375 -11 C 15.453125 -11 16.375 -10.6875 17 -10.0625 C 17.632812 -9.4375 17.953125 -8.429688 17.953125 -7.046875 L 17.953125 0 L 14.984375 0 L 14.984375 -6.3125 C 14.984375 -7.082031 14.851562 -7.660156 14.59375 -8.046875 C 14.332031 -8.441406 13.925781 -8.640625 13.375 -8.640625 C 12.644531 -8.640625 12.101562 -8.378906 11.75 -7.859375 C 11.394531 -7.347656 11.21875 -6.535156 11.21875 -5.421875 Z M 11.21875 0 "/></g></g></g><g fill="#ffffff" fill-opacity="1"><g transform="translate(163.543402, 65.565337)"><g><path d="M 6.015625 -8.90625 C 5.390625 -8.90625 4.898438 -8.707031 4.546875 -8.3125 C 4.191406 -7.914062 3.988281 -7.351562 3.9375 -6.625 L 8.078125 -6.625 C 8.066406 -7.351562 7.875 -7.914062 7.5 -8.3125 C 7.132812 -8.707031 6.640625 -8.90625 6.015625 -8.90625 Z M 6.4375 0.1875 C 4.695312 0.1875 3.335938 -0.289062 2.359375 -1.25 C 1.378906 -2.207031 0.890625 -3.566406 0.890625 -5.328125 C 0.890625 -7.128906 1.34375 -8.523438 2.25 -9.515625 C 3.15625 -10.503906 4.40625 -11 6 -11 C 7.519531 -11 8.707031 -10.5625 9.5625 -9.6875 C 10.414062 -8.820312 10.84375 -7.625 10.84375 -6.09375 L 10.84375 -4.671875 L 3.875 -4.671875 C 3.90625 -3.828125 4.148438 -3.171875 4.609375 -2.703125 C 5.078125 -2.234375 5.726562 -2 6.5625 -2 C 7.21875 -2 7.832031 -2.066406 8.40625 -2.203125 C 8.988281 -2.335938 9.597656 -2.550781 10.234375 -2.84375 L 10.234375 -0.5625 C 9.710938 -0.3125 9.160156 -0.125 8.578125 0 C 7.992188 0.125 7.28125 0.1875 6.4375 0.1875 Z M 6.4375 0.1875 "/></g></g></g><g fill="#ffffff" fill-opacity="1"><g transform="translate(175.223063, 65.565337)"><g><path d="M 11.515625 0 L 8.5625 0 L 8.5625 -6.3125 C 8.5625 -7.082031 8.421875 -7.660156 8.140625 -8.046875 C 7.867188 -8.441406 7.429688 -8.640625 6.828125 -8.640625 C 6.003906 -8.640625 5.40625 -8.363281 5.03125 -7.8125 C 4.664062 -7.269531 4.484375 -6.359375 4.484375 -5.078125 L 4.484375 0 L 1.546875 0 L 1.546875 -10.796875 L 3.796875 -10.796875 L 4.1875 -9.421875 L 4.359375 -9.421875 C 4.679688 -9.941406 5.128906 -10.332031 5.703125 -10.59375 C 6.285156 -10.863281 6.941406 -11 7.671875 -11 C 8.929688 -11 9.882812 -10.660156 10.53125 -9.984375 C 11.1875 -9.304688 11.515625 -8.328125 11.515625 -7.046875 Z M 11.515625 0 "/></g></g></g><g fill="#ffffff" fill-opacity="1"><g transform="translate(188.21548, 65.565337)"><g><path d="M 6.09375 -2.15625 C 6.613281 -2.15625 7.234375 -2.265625 7.953125 -2.484375 L 7.953125 -0.296875 C 7.210938 0.0234375 6.3125 0.1875 5.25 0.1875 C 4.070312 0.1875 3.210938 -0.109375 2.671875 -0.703125 C 2.128906 -1.296875 1.859375 -2.1875 1.859375 -3.375 L 1.859375 -8.59375 L 0.453125 -8.59375 L 0.453125 -9.828125 L 2.078125 -10.8125 L 2.921875 -13.09375 L 4.8125 -13.09375 L 4.8125 -10.796875 L 7.828125 -10.796875 L 7.828125 -8.59375 L 4.8125 -8.59375 L 4.8125 -3.375 C 4.8125 -2.957031 4.925781 -2.648438 5.15625 -2.453125 C 5.394531 -2.253906 5.707031 -2.15625 6.09375 -2.15625 Z M 6.09375 -2.15625 "/></g></g></g><g fill="#ffffff" fill-opacity="1"><g transform="translate(196.796652, 65.565337)"><g><path d="M 9.078125 -3.203125 C 9.078125 -2.097656 8.691406 -1.253906 7.921875 -0.671875 C 7.148438 -0.0976562 6 0.1875 4.46875 0.1875 C 3.6875 0.1875 3.015625 0.132812 2.453125 0.03125 C 1.898438 -0.0703125 1.382812 -0.226562 0.90625 -0.4375 L 0.90625 -2.875 C 1.457031 -2.613281 2.070312 -2.394531 2.75 -2.21875 C 3.4375 -2.039062 4.039062 -1.953125 4.5625 -1.953125 C 5.632812 -1.953125 6.171875 -2.265625 6.171875 -2.890625 C 6.171875 -3.117188 6.097656 -3.304688 5.953125 -3.453125 C 5.816406 -3.597656 5.570312 -3.757812 5.21875 -3.9375 C 4.875 -4.125 4.410156 -4.34375 3.828125 -4.59375 C 3.003906 -4.9375 2.394531 -5.253906 2 -5.546875 C 1.613281 -5.847656 1.332031 -6.1875 1.15625 -6.5625 C 0.976562 -6.945312 0.890625 -7.421875 0.890625 -7.984375 C 0.890625 -8.941406 1.257812 -9.679688 2 -10.203125 C 2.75 -10.734375 3.804688 -11 5.171875 -11 C 6.472656 -11 7.738281 -10.71875 8.96875 -10.15625 L 8.078125 -8.03125 C 7.535156 -8.257812 7.03125 -8.445312 6.5625 -8.59375 C 6.09375 -8.738281 5.613281 -8.8125 5.125 -8.8125 C 4.25 -8.8125 3.8125 -8.578125 3.8125 -8.109375 C 3.8125 -7.847656 3.953125 -7.617188 4.234375 -7.421875 C 4.515625 -7.234375 5.128906 -6.945312 6.078125 -6.5625 C 6.921875 -6.226562 7.535156 -5.910156 7.921875 -5.609375 C 8.316406 -5.316406 8.609375 -4.976562 8.796875 -4.59375 C 8.984375 -4.207031 9.078125 -3.742188 9.078125 -3.203125 Z M 9.078125 -3.203125 "/></g></g></g></svg>