<svg xmlns="http://www.w3.org/2000/svg" xmlns:xlink="http://www.w3.org/1999/xlink" width="300" zoomAndPan="magnify" viewBox="0 0 224.87999 119.999999" height="160" preserveAspectRatio="xMidYMid meet" version="1.0"><defs><g/><clipPath id="c89d0c1934"><path d="M 0 0.03125 L 224.761719 0.03125 L 224.761719 119.96875 L 0 119.96875 Z M 0 0.03125 " clip-rule="nonzero"/></clipPath><clipPath id="749dd69e73"><path d="M 0 0.03125 L 224.761719 0.03125 L 224.761719 119.96875 L 0 119.96875 Z M 0 0.03125 " clip-rule="nonzero"/></clipPath><clipPath id="13b37b6b8a"><path d="M 5.996094 -0.480469 L 218.882812 -0.480469 C 222.195312 -0.480469 224.878906 2.207031 224.878906 5.519531 L 224.878906 114.480469 C 224.878906 117.792969 222.195312 120.480469 218.882812 120.480469 L 5.996094 120.480469 C 2.683594 120.480469 0 117.792969 0 114.480469 L 0 5.519531 C 0 2.207031 2.683594 -0.480469 5.996094 -0.480469 " clip-rule="nonzero"/></clipPath></defs><g clip-path="url(#c89d0c1934)"><path fill="#ffffff" d="M 0 0.03125 L 224.878906 0.03125 L 224.878906 127.464844 L 0 127.464844 Z M 0 0.03125 " fill-opacity="1" fill-rule="nonzero"/><path fill="#ffffff" d="M 0 0.03125 L 224.878906 0.03125 L 224.878906 119.96875 L 0 119.96875 Z M 0 0.03125 " fill-opacity="1" fill-rule="nonzero"/><path fill="#ffffff" d="M 0 0.03125 L 224.878906 0.03125 L 224.878906 119.96875 L 0 119.96875 Z M 0 0.03125 " fill-opacity="1" fill-rule="nonzero"/></g><g clip-path="url(#749dd69e73)"><g clip-path="url(#13b37b6b8a)"><path fill="#233f93" d="M 0 -0.480469 L 224.878906 -0.480469 L 224.878906 120.480469 L 0 120.480469 Z M 0 -0.480469 " fill-opacity="1" fill-rule="nonzero"/></g></g><g fill="#ffffff" fill-opacity="1"><g transform="translate(64.698384, 44.2584)"><g><path d="M 5.921875 -8.484375 C 5.234375 -8.484375 4.695312 -8.203125 4.3125 -7.640625 C 3.925781 -7.078125 3.734375 -6.296875 3.734375 -5.296875 C 3.734375 -3.242188 4.515625 -2.21875 6.078125 -2.21875 C 6.554688 -2.21875 7.015625 -2.28125 7.453125 -2.40625 C 7.898438 -2.539062 8.347656 -2.703125 8.796875 -2.890625 L 8.796875 -0.453125 C 7.898438 -0.0546875 6.890625 0.140625 5.765625 0.140625 C 4.148438 0.140625 2.910156 -0.320312 2.046875 -1.25 C 1.191406 -2.1875 0.765625 -3.539062 0.765625 -5.3125 C 0.765625 -6.425781 0.972656 -7.398438 1.390625 -8.234375 C 1.804688 -9.078125 2.40625 -9.722656 3.1875 -10.171875 C 3.96875 -10.617188 4.890625 -10.84375 5.953125 -10.84375 C 7.109375 -10.84375 8.210938 -10.59375 9.265625 -10.09375 L 8.375 -7.828125 C 7.976562 -8.003906 7.582031 -8.15625 7.1875 -8.28125 C 6.789062 -8.414062 6.367188 -8.484375 5.921875 -8.484375 Z M 5.921875 -8.484375 "/></g></g><g transform="translate(74.427078, 44.2584)"><g><path d="M 8.90625 -4.15625 C 8.90625 -2.800781 8.539062 -1.742188 7.8125 -0.984375 C 7.082031 -0.234375 6.0625 0.140625 4.75 0.140625 C 3.488281 0.140625 2.484375 -0.242188 1.734375 -1.015625 C 0.992188 -1.796875 0.625 -2.84375 0.625 -4.15625 C 0.625 -5.507812 0.988281 -6.5625 1.71875 -7.3125 C 2.445312 -8.0625 3.472656 -8.4375 4.796875 -8.4375 C 5.609375 -8.4375 6.328125 -8.257812 6.953125 -7.90625 C 7.578125 -7.5625 8.054688 -7.066406 8.390625 -6.421875 C 8.734375 -5.773438 8.90625 -5.019531 8.90625 -4.15625 Z M 3.53125 -4.15625 C 3.53125 -3.445312 3.625 -2.90625 3.8125 -2.53125 C 4.007812 -2.15625 4.332031 -1.96875 4.78125 -1.96875 C 5.21875 -1.96875 5.53125 -2.15625 5.71875 -2.53125 C 5.90625 -2.90625 6 -3.445312 6 -4.15625 C 6 -4.863281 5.90625 -5.398438 5.71875 -5.765625 C 5.53125 -6.128906 5.210938 -6.3125 4.765625 -6.3125 C 4.328125 -6.3125 4.007812 -6.128906 3.8125 -5.765625 C 3.625 -5.410156 3.53125 -4.875 3.53125 -4.15625 Z M 3.53125 -4.15625 "/></g></g><g transform="translate(83.980085, 44.2584)"><g><path d="M 8.90625 -4.15625 C 8.90625 -2.800781 8.539062 -1.742188 7.8125 -0.984375 C 7.082031 -0.234375 6.0625 0.140625 4.75 0.140625 C 3.488281 0.140625 2.484375 -0.242188 1.734375 -1.015625 C 0.992188 -1.796875 0.625 -2.84375 0.625 -4.15625 C 0.625 -5.507812 0.988281 -6.5625 1.71875 -7.3125 C 2.445312 -8.0625 3.472656 -8.4375 4.796875 -8.4375 C 5.609375 -8.4375 6.328125 -8.257812 6.953125 -7.90625 C 7.578125 -7.5625 8.054688 -7.066406 8.390625 -6.421875 C 8.734375 -5.773438 8.90625 -5.019531 8.90625 -4.15625 Z M 3.53125 -4.15625 C 3.53125 -3.445312 3.625 -2.90625 3.8125 -2.53125 C 4.007812 -2.15625 4.332031 -1.96875 4.78125 -1.96875 C 5.21875 -1.96875 5.53125 -2.15625 5.71875 -2.53125 C 5.90625 -2.90625 6 -3.445312 6 -4.15625 C 6 -4.863281 5.90625 -5.398438 5.71875 -5.765625 C 5.53125 -6.128906 5.210938 -6.3125 4.765625 -6.3125 C 4.328125 -6.3125 4.007812 -6.128906 3.8125 -5.765625 C 3.625 -5.410156 3.53125 -4.875 3.53125 -4.15625 Z M 3.53125 -4.15625 "/></g></g><g transform="translate(93.533092, 44.2584)"><g><path d="M 5.96875 0.140625 C 5.539062 0.140625 5.160156 0.0703125 4.828125 -0.0625 C 4.503906 -0.195312 4.175781 -0.445312 3.84375 -0.8125 L 3.71875 -0.8125 C 3.800781 -0.226562 3.84375 0.128906 3.84375 0.265625 L 3.84375 3.59375 L 0.984375 3.59375 L 0.984375 -8.296875 L 3.3125 -8.296875 L 3.71875 -7.234375 L 3.84375 -7.234375 C 4.375 -8.035156 5.109375 -8.4375 6.046875 -8.4375 C 6.960938 -8.4375 7.679688 -8.054688 8.203125 -7.296875 C 8.722656 -6.535156 8.984375 -5.488281 8.984375 -4.15625 C 8.984375 -2.820312 8.710938 -1.769531 8.171875 -1 C 7.628906 -0.238281 6.894531 0.140625 5.96875 0.140625 Z M 5 -6.1875 C 4.582031 -6.1875 4.289062 -6.035156 4.125 -5.734375 C 3.957031 -5.441406 3.863281 -5 3.84375 -4.40625 L 3.84375 -4.171875 C 3.84375 -3.460938 3.9375 -2.945312 4.125 -2.625 C 4.320312 -2.3125 4.625 -2.15625 5.03125 -2.15625 C 5.394531 -2.15625 5.660156 -2.3125 5.828125 -2.625 C 5.992188 -2.945312 6.078125 -3.46875 6.078125 -4.1875 C 6.078125 -4.90625 5.992188 -5.414062 5.828125 -5.71875 C 5.660156 -6.03125 5.382812 -6.1875 5 -6.1875 Z M 5 -6.1875 "/></g></g><g transform="translate(103.173943, 44.2584)"><g><path d="M 4.984375 0.140625 C 3.609375 0.140625 2.535156 -0.222656 1.765625 -0.953125 C 1.003906 -1.691406 0.625 -2.738281 0.625 -4.09375 C 0.625 -5.488281 0.976562 -6.5625 1.6875 -7.3125 C 2.394531 -8.0625 3.40625 -8.4375 4.71875 -8.4375 C 5.96875 -8.4375 6.929688 -8.109375 7.609375 -7.453125 C 8.296875 -6.804688 8.640625 -5.867188 8.640625 -4.640625 L 8.640625 -3.375 L 3.515625 -3.375 C 3.535156 -2.90625 3.703125 -2.539062 4.015625 -2.28125 C 4.335938 -2.019531 4.773438 -1.890625 5.328125 -1.890625 C 5.835938 -1.890625 6.300781 -1.9375 6.71875 -2.03125 C 7.144531 -2.125 7.601562 -2.285156 8.09375 -2.515625 L 8.09375 -0.46875 C 7.644531 -0.226562 7.179688 -0.0664062 6.703125 0.015625 C 6.222656 0.0976562 5.648438 0.140625 4.984375 0.140625 Z M 4.828125 -6.484375 C 4.484375 -6.484375 4.195312 -6.378906 3.96875 -6.171875 C 3.75 -5.960938 3.617188 -5.628906 3.578125 -5.171875 L 6.03125 -5.171875 C 6.019531 -5.566406 5.90625 -5.882812 5.6875 -6.125 C 5.476562 -6.363281 5.191406 -6.484375 4.828125 -6.484375 Z M 3.453125 -9.078125 L 3.453125 -9.296875 C 4.203125 -10.097656 4.675781 -10.613281 4.875 -10.84375 C 5.082031 -11.082031 5.25 -11.296875 5.375 -11.484375 L 8.515625 -11.484375 L 8.515625 -11.328125 C 8.117188 -11.015625 7.578125 -10.613281 6.890625 -10.125 C 6.210938 -9.644531 5.695312 -9.296875 5.34375 -9.078125 Z M 3.453125 -9.078125 "/></g></g><g transform="translate(112.441458, 44.2584)"><g><path d="M 6 -8.4375 C 6.238281 -8.4375 6.472656 -8.414062 6.703125 -8.375 L 6.859375 -8.34375 L 6.609375 -5.640625 C 6.367188 -5.703125 6.046875 -5.734375 5.640625 -5.734375 C 5.015625 -5.734375 4.554688 -5.585938 4.265625 -5.296875 C 3.984375 -5.015625 3.84375 -4.609375 3.84375 -4.078125 L 3.84375 0 L 0.984375 0 L 0.984375 -8.296875 L 3.109375 -8.296875 L 3.5625 -6.96875 L 3.703125 -6.96875 C 3.941406 -7.40625 4.273438 -7.757812 4.703125 -8.03125 C 5.128906 -8.300781 5.5625 -8.4375 6 -8.4375 Z M 6 -8.4375 "/></g></g><g transform="translate(119.476278, 44.2584)"><g><path d="M 6.390625 0 L 5.84375 -1.09375 L 5.78125 -1.09375 C 5.394531 -0.613281 5.003906 -0.285156 4.609375 -0.109375 C 4.210938 0.0546875 3.695312 0.140625 3.0625 0.140625 C 2.28125 0.140625 1.664062 -0.09375 1.21875 -0.5625 C 0.769531 -1.03125 0.546875 -1.6875 0.546875 -2.53125 C 0.546875 -3.414062 0.851562 -4.070312 1.46875 -4.5 C 2.082031 -4.9375 2.972656 -5.179688 4.140625 -5.234375 L 5.515625 -5.28125 L 5.515625 -5.390625 C 5.515625 -6.078125 5.175781 -6.421875 4.5 -6.421875 C 3.894531 -6.421875 3.128906 -6.210938 2.203125 -5.796875 L 1.375 -7.6875 C 2.34375 -8.1875 3.5625 -8.4375 5.03125 -8.4375 C 6.09375 -8.4375 6.914062 -8.171875 7.5 -7.640625 C 8.082031 -7.117188 8.375 -6.382812 8.375 -5.4375 L 8.375 0 Z M 4.265625 -1.875 C 4.617188 -1.875 4.914062 -1.984375 5.15625 -2.203125 C 5.40625 -2.421875 5.53125 -2.707031 5.53125 -3.0625 L 5.53125 -3.703125 L 4.875 -3.671875 C 3.925781 -3.640625 3.453125 -3.296875 3.453125 -2.640625 C 3.453125 -2.128906 3.722656 -1.875 4.265625 -1.875 Z M 4.265625 -1.875 "/></g></g><g transform="translate(128.816996, 44.2584)"><g><path d="M 5.046875 -2.109375 C 5.429688 -2.109375 5.894531 -2.207031 6.4375 -2.40625 L 6.4375 -0.3125 C 6.050781 -0.144531 5.679688 -0.03125 5.328125 0.03125 C 4.984375 0.101562 4.578125 0.140625 4.109375 0.140625 C 3.140625 0.140625 2.441406 -0.09375 2.015625 -0.5625 C 1.597656 -1.03125 1.390625 -1.753906 1.390625 -2.734375 L 1.390625 -6.140625 L 0.390625 -6.140625 L 0.390625 -7.3125 L 1.65625 -8.203125 L 2.40625 -9.953125 L 4.265625 -9.953125 L 4.265625 -8.296875 L 6.3125 -8.296875 L 6.3125 -6.140625 L 4.265625 -6.140625 L 4.265625 -2.921875 C 4.265625 -2.378906 4.523438 -2.109375 5.046875 -2.109375 Z M 5.046875 -2.109375 "/></g></g><g transform="translate(135.71273, 44.2584)"><g><path d="M 3.859375 0 L 1 0 L 1 -8.296875 L 3.859375 -8.296875 Z M 0.921875 -10.359375 C 0.921875 -10.785156 1.039062 -11.101562 1.28125 -11.3125 C 1.519531 -11.519531 1.90625 -11.625 2.4375 -11.625 C 2.96875 -11.625 3.351562 -11.515625 3.59375 -11.296875 C 3.84375 -11.085938 3.96875 -10.773438 3.96875 -10.359375 C 3.96875 -9.515625 3.457031 -9.09375 2.4375 -9.09375 C 1.425781 -9.09375 0.921875 -9.515625 0.921875 -10.359375 Z M 0.921875 -10.359375 "/></g></g><g transform="translate(140.588057, 44.2584)"><g><path d="M 8.90625 -4.15625 C 8.90625 -2.800781 8.539062 -1.742188 7.8125 -0.984375 C 7.082031 -0.234375 6.0625 0.140625 4.75 0.140625 C 3.488281 0.140625 2.484375 -0.242188 1.734375 -1.015625 C 0.992188 -1.796875 0.625 -2.84375 0.625 -4.15625 C 0.625 -5.507812 0.988281 -6.5625 1.71875 -7.3125 C 2.445312 -8.0625 3.472656 -8.4375 4.796875 -8.4375 C 5.609375 -8.4375 6.328125 -8.257812 6.953125 -7.90625 C 7.578125 -7.5625 8.054688 -7.066406 8.390625 -6.421875 C 8.734375 -5.773438 8.90625 -5.019531 8.90625 -4.15625 Z M 3.53125 -4.15625 C 3.53125 -3.445312 3.625 -2.90625 3.8125 -2.53125 C 4.007812 -2.15625 4.332031 -1.96875 4.78125 -1.96875 C 5.21875 -1.96875 5.53125 -2.15625 5.71875 -2.53125 C 5.90625 -2.90625 6 -3.445312 6 -4.15625 C 6 -4.863281 5.90625 -5.398438 5.71875 -5.765625 C 5.53125 -6.128906 5.210938 -6.3125 4.765625 -6.3125 C 4.328125 -6.3125 4.007812 -6.128906 3.8125 -5.765625 C 3.625 -5.410156 3.53125 -4.875 3.53125 -4.15625 Z M 3.53125 -4.15625 "/></g></g><g transform="translate(150.141064, 44.2584)"><g><path d="M 6.21875 0 L 6.21875 -4.515625 C 6.21875 -5.066406 6.140625 -5.484375 5.984375 -5.765625 C 5.828125 -6.046875 5.570312 -6.1875 5.21875 -6.1875 C 4.738281 -6.1875 4.390625 -5.992188 4.171875 -5.609375 C 3.953125 -5.222656 3.84375 -4.5625 3.84375 -3.625 L 3.84375 0 L 0.984375 0 L 0.984375 -8.296875 L 3.140625 -8.296875 L 3.5 -7.265625 L 3.671875 -7.265625 C 3.910156 -7.648438 4.242188 -7.941406 4.671875 -8.140625 C 5.109375 -8.335938 5.609375 -8.4375 6.171875 -8.4375 C 7.085938 -8.4375 7.800781 -8.171875 8.3125 -7.640625 C 8.820312 -7.109375 9.078125 -6.359375 9.078125 -5.390625 L 9.078125 0 Z M 6.21875 0 "/></g></g></g><g fill="#ffffff" fill-opacity="1"><g transform="translate(51.287573, 65.247198)"><g><path d="M 4.765625 0.140625 C 3.410156 0.140625 2.378906 -0.222656 1.671875 -0.953125 C 0.972656 -1.679688 0.625 -2.734375 0.625 -4.109375 C 0.625 -5.484375 1 -6.546875 1.75 -7.296875 C 2.507812 -8.054688 3.585938 -8.4375 4.984375 -8.4375 C 5.953125 -8.4375 6.859375 -8.226562 7.703125 -7.8125 L 6.859375 -5.6875 C 6.515625 -5.84375 6.195312 -5.960938 5.90625 -6.046875 C 5.613281 -6.140625 5.304688 -6.1875 4.984375 -6.1875 C 4.523438 -6.1875 4.164062 -6.003906 3.90625 -5.640625 C 3.65625 -5.285156 3.53125 -4.78125 3.53125 -4.125 C 3.53125 -2.789062 4.019531 -2.125 5 -2.125 C 5.84375 -2.125 6.648438 -2.367188 7.421875 -2.859375 L 7.421875 -0.578125 C 6.679688 -0.0976562 5.796875 0.140625 4.765625 0.140625 Z M 4.765625 0.140625 "/></g></g><g transform="translate(59.369197, 65.247198)"><g><path d="M 8.90625 -4.15625 C 8.90625 -2.800781 8.539062 -1.742188 7.8125 -0.984375 C 7.082031 -0.234375 6.0625 0.140625 4.75 0.140625 C 3.488281 0.140625 2.484375 -0.242188 1.734375 -1.015625 C 0.992188 -1.796875 0.625 -2.84375 0.625 -4.15625 C 0.625 -5.507812 0.988281 -6.5625 1.71875 -7.3125 C 2.445312 -8.0625 3.472656 -8.4375 4.796875 -8.4375 C 5.609375 -8.4375 6.328125 -8.257812 6.953125 -7.90625 C 7.578125 -7.5625 8.054688 -7.066406 8.390625 -6.421875 C 8.734375 -5.773438 8.90625 -5.019531 8.90625 -4.15625 Z M 3.53125 -4.15625 C 3.53125 -3.445312 3.625 -2.90625 3.8125 -2.53125 C 4.007812 -2.15625 4.332031 -1.96875 4.78125 -1.96875 C 5.21875 -1.96875 5.53125 -2.15625 5.71875 -2.53125 C 5.90625 -2.90625 6 -3.445312 6 -4.15625 C 6 -4.863281 5.90625 -5.398438 5.71875 -5.765625 C 5.53125 -6.128906 5.210938 -6.3125 4.765625 -6.3125 C 4.328125 -6.3125 4.007812 -6.128906 3.8125 -5.765625 C 3.625 -5.410156 3.53125 -4.875 3.53125 -4.15625 Z M 3.53125 -4.15625 "/></g></g><g transform="translate(68.922204, 65.247198)"><g><path d="M 8.90625 -4.15625 C 8.90625 -2.800781 8.539062 -1.742188 7.8125 -0.984375 C 7.082031 -0.234375 6.0625 0.140625 4.75 0.140625 C 3.488281 0.140625 2.484375 -0.242188 1.734375 -1.015625 C 0.992188 -1.796875 0.625 -2.84375 0.625 -4.15625 C 0.625 -5.507812 0.988281 -6.5625 1.71875 -7.3125 C 2.445312 -8.0625 3.472656 -8.4375 4.796875 -8.4375 C 5.609375 -8.4375 6.328125 -8.257812 6.953125 -7.90625 C 7.578125 -7.5625 8.054688 -7.066406 8.390625 -6.421875 C 8.734375 -5.773438 8.90625 -5.019531 8.90625 -4.15625 Z M 3.53125 -4.15625 C 3.53125 -3.445312 3.625 -2.90625 3.8125 -2.53125 C 4.007812 -2.15625 4.332031 -1.96875 4.78125 -1.96875 C 5.21875 -1.96875 5.53125 -2.15625 5.71875 -2.53125 C 5.90625 -2.90625 6 -3.445312 6 -4.15625 C 6 -4.863281 5.90625 -5.398438 5.71875 -5.765625 C 5.53125 -6.128906 5.210938 -6.3125 4.765625 -6.3125 C 4.328125 -6.3125 4.007812 -6.128906 3.8125 -5.765625 C 3.625 -5.410156 3.53125 -4.875 3.53125 -4.15625 Z M 3.53125 -4.15625 "/></g></g><g transform="translate(78.475211, 65.247198)"><g><path d="M 6 -8.4375 C 6.238281 -8.4375 6.472656 -8.414062 6.703125 -8.375 L 6.859375 -8.34375 L 6.609375 -5.640625 C 6.367188 -5.703125 6.046875 -5.734375 5.640625 -5.734375 C 5.015625 -5.734375 4.554688 -5.585938 4.265625 -5.296875 C 3.984375 -5.015625 3.84375 -4.609375 3.84375 -4.078125 L 3.84375 0 L 0.984375 0 L 0.984375 -8.296875 L 3.109375 -8.296875 L 3.5625 -6.96875 L 3.703125 -6.96875 C 3.941406 -7.40625 4.273438 -7.757812 4.703125 -8.03125 C 5.128906 -8.300781 5.5625 -8.4375 6 -8.4375 Z M 6 -8.4375 "/></g></g><g transform="translate(85.510031, 65.247198)"><g><path d="M 3.5625 0.140625 C 2.96875 0.140625 2.453125 -0.0234375 2.015625 -0.359375 C 1.578125 -0.691406 1.234375 -1.1875 0.984375 -1.84375 C 0.742188 -2.5 0.625 -3.265625 0.625 -4.140625 C 0.625 -5.484375 0.894531 -6.535156 1.4375 -7.296875 C 1.976562 -8.054688 2.722656 -8.4375 3.671875 -8.4375 C 4.140625 -8.4375 4.546875 -8.34375 4.890625 -8.15625 C 5.242188 -7.96875 5.5625 -7.65625 5.84375 -7.21875 L 5.90625 -7.21875 C 5.8125 -7.863281 5.765625 -8.515625 5.765625 -9.171875 L 5.765625 -11.390625 L 8.640625 -11.390625 L 8.640625 0 L 6.484375 0 L 5.875 -1.046875 L 5.765625 -1.046875 C 5.273438 -0.253906 4.539062 0.140625 3.5625 0.140625 Z M 4.734375 -2.109375 C 5.191406 -2.109375 5.515625 -2.253906 5.703125 -2.546875 C 5.890625 -2.835938 5.988281 -3.28125 6 -3.875 L 6 -4.109375 C 6 -4.835938 5.894531 -5.351562 5.6875 -5.65625 C 5.476562 -5.96875 5.148438 -6.125 4.703125 -6.125 C 4.328125 -6.125 4.035156 -5.945312 3.828125 -5.59375 C 3.617188 -5.25 3.515625 -4.75 3.515625 -4.09375 C 3.515625 -3.445312 3.617188 -2.953125 3.828125 -2.609375 C 4.046875 -2.273438 4.347656 -2.109375 4.734375 -2.109375 Z M 4.734375 -2.109375 "/></g></g><g transform="translate(95.150881, 65.247198)"><g><path d="M 3.859375 0 L 1 0 L 1 -8.296875 L 3.859375 -8.296875 Z M 0.921875 -10.359375 C 0.921875 -10.785156 1.039062 -11.101562 1.28125 -11.3125 C 1.519531 -11.519531 1.90625 -11.625 2.4375 -11.625 C 2.96875 -11.625 3.351562 -11.515625 3.59375 -11.296875 C 3.84375 -11.085938 3.96875 -10.773438 3.96875 -10.359375 C 3.96875 -9.515625 3.457031 -9.09375 2.4375 -9.09375 C 1.425781 -9.09375 0.921875 -9.515625 0.921875 -10.359375 Z M 0.921875 -10.359375 "/></g></g><g transform="translate(100.026209, 65.247198)"><g><path d="M 6.21875 0 L 6.21875 -4.515625 C 6.21875 -5.066406 6.140625 -5.484375 5.984375 -5.765625 C 5.828125 -6.046875 5.570312 -6.1875 5.21875 -6.1875 C 4.738281 -6.1875 4.390625 -5.992188 4.171875 -5.609375 C 3.953125 -5.222656 3.84375 -4.5625 3.84375 -3.625 L 3.84375 0 L 0.984375 0 L 0.984375 -8.296875 L 3.140625 -8.296875 L 3.5 -7.265625 L 3.671875 -7.265625 C 3.910156 -7.648438 4.242188 -7.941406 4.671875 -8.140625 C 5.109375 -8.335938 5.609375 -8.4375 6.171875 -8.4375 C 7.085938 -8.4375 7.800781 -8.171875 8.3125 -7.640625 C 8.820312 -7.109375 9.078125 -6.359375 9.078125 -5.390625 L 9.078125 0 Z M 6.21875 0 "/></g></g><g transform="translate(110.069677, 65.247198)"><g><path d="M 6.390625 0 L 5.84375 -1.09375 L 5.78125 -1.09375 C 5.394531 -0.613281 5.003906 -0.285156 4.609375 -0.109375 C 4.210938 0.0546875 3.695312 0.140625 3.0625 0.140625 C 2.28125 0.140625 1.664062 -0.09375 1.21875 -0.5625 C 0.769531 -1.03125 0.546875 -1.6875 0.546875 -2.53125 C 0.546875 -3.414062 0.851562 -4.070312 1.46875 -4.5 C 2.082031 -4.9375 2.972656 -5.179688 4.140625 -5.234375 L 5.515625 -5.28125 L 5.515625 -5.390625 C 5.515625 -6.078125 5.175781 -6.421875 4.5 -6.421875 C 3.894531 -6.421875 3.128906 -6.210938 2.203125 -5.796875 L 1.375 -7.6875 C 2.34375 -8.1875 3.5625 -8.4375 5.03125 -8.4375 C 6.09375 -8.4375 6.914062 -8.171875 7.5 -7.640625 C 8.082031 -7.117188 8.375 -6.382812 8.375 -5.4375 L 8.375 0 Z M 4.265625 -1.875 C 4.617188 -1.875 4.914062 -1.984375 5.15625 -2.203125 C 5.40625 -2.421875 5.53125 -2.707031 5.53125 -3.0625 L 5.53125 -3.703125 L 4.875 -3.671875 C 3.925781 -3.640625 3.453125 -3.296875 3.453125 -2.640625 C 3.453125 -2.128906 3.722656 -1.875 4.265625 -1.875 Z M 4.265625 -1.875 "/></g></g><g transform="translate(119.410395, 65.247198)"><g><path d="M 5.046875 -2.109375 C 5.429688 -2.109375 5.894531 -2.207031 6.4375 -2.40625 L 6.4375 -0.3125 C 6.050781 -0.144531 5.679688 -0.03125 5.328125 0.03125 C 4.984375 0.101562 4.578125 0.140625 4.109375 0.140625 C 3.140625 0.140625 2.441406 -0.09375 2.015625 -0.5625 C 1.597656 -1.03125 1.390625 -1.753906 1.390625 -2.734375 L 1.390625 -6.140625 L 0.390625 -6.140625 L 0.390625 -7.3125 L 1.65625 -8.203125 L 2.40625 -9.953125 L 4.265625 -9.953125 L 4.265625 -8.296875 L 6.3125 -8.296875 L 6.3125 -6.140625 L 4.265625 -6.140625 L 4.265625 -2.921875 C 4.265625 -2.378906 4.523438 -2.109375 5.046875 -2.109375 Z M 5.046875 -2.109375 "/></g></g><g transform="translate(126.306129, 65.247198)"><g><path d="M 3.859375 0 L 1 0 L 1 -8.296875 L 3.859375 -8.296875 Z M 0.921875 -10.359375 C 0.921875 -10.785156 1.039062 -11.101562 1.28125 -11.3125 C 1.519531 -11.519531 1.90625 -11.625 2.4375 -11.625 C 2.96875 -11.625 3.351562 -11.515625 3.59375 -11.296875 C 3.84375 -11.085938 3.96875 -10.773438 3.96875 -10.359375 C 3.96875 -9.515625 3.457031 -9.09375 2.4375 -9.09375 C 1.425781 -9.09375 0.921875 -9.515625 0.921875 -10.359375 Z M 0.921875 -10.359375 "/></g></g><g transform="translate(131.181457, 65.247198)"><g><path d="M 8.90625 -4.15625 C 8.90625 -2.800781 8.539062 -1.742188 7.8125 -0.984375 C 7.082031 -0.234375 6.0625 0.140625 4.75 0.140625 C 3.488281 0.140625 2.484375 -0.242188 1.734375 -1.015625 C 0.992188 -1.796875 0.625 -2.84375 0.625 -4.15625 C 0.625 -5.507812 0.988281 -6.5625 1.71875 -7.3125 C 2.445312 -8.0625 3.472656 -8.4375 4.796875 -8.4375 C 5.609375 -8.4375 6.328125 -8.257812 6.953125 -7.90625 C 7.578125 -7.5625 8.054688 -7.066406 8.390625 -6.421875 C 8.734375 -5.773438 8.90625 -5.019531 8.90625 -4.15625 Z M 3.53125 -4.15625 C 3.53125 -3.445312 3.625 -2.90625 3.8125 -2.53125 C 4.007812 -2.15625 4.332031 -1.96875 4.78125 -1.96875 C 5.21875 -1.96875 5.53125 -2.15625 5.71875 -2.53125 C 5.90625 -2.90625 6 -3.445312 6 -4.15625 C 6 -4.863281 5.90625 -5.398438 5.71875 -5.765625 C 5.53125 -6.128906 5.210938 -6.3125 4.765625 -6.3125 C 4.328125 -6.3125 4.007812 -6.128906 3.8125 -5.765625 C 3.625 -5.410156 3.53125 -4.875 3.53125 -4.15625 Z M 3.53125 -4.15625 "/></g></g><g transform="translate(140.734464, 65.247198)"><g><path d="M 6.21875 0 L 6.21875 -4.515625 C 6.21875 -5.066406 6.140625 -5.484375 5.984375 -5.765625 C 5.828125 -6.046875 5.570312 -6.1875 5.21875 -6.1875 C 4.738281 -6.1875 4.390625 -5.992188 4.171875 -5.609375 C 3.953125 -5.222656 3.84375 -4.5625 3.84375 -3.625 L 3.84375 0 L 0.984375 0 L 0.984375 -8.296875 L 3.140625 -8.296875 L 3.5 -7.265625 L 3.671875 -7.265625 C 3.910156 -7.648438 4.242188 -7.941406 4.671875 -8.140625 C 5.109375 -8.335938 5.609375 -8.4375 6.171875 -8.4375 C 7.085938 -8.4375 7.800781 -8.171875 8.3125 -7.640625 C 8.820312 -7.109375 9.078125 -6.359375 9.078125 -5.390625 L 9.078125 0 Z M 6.21875 0 "/></g></g><g transform="translate(150.777931, 65.247198)"><g/></g><g transform="translate(154.672337, 65.247198)"><g><path d="M 3.5625 0.140625 C 2.96875 0.140625 2.453125 -0.0234375 2.015625 -0.359375 C 1.578125 -0.691406 1.234375 -1.1875 0.984375 -1.84375 C 0.742188 -2.5 0.625 -3.265625 0.625 -4.140625 C 0.625 -5.484375 0.894531 -6.535156 1.4375 -7.296875 C 1.976562 -8.054688 2.722656 -8.4375 3.671875 -8.4375 C 4.140625 -8.4375 4.546875 -8.34375 4.890625 -8.15625 C 5.242188 -7.96875 5.5625 -7.65625 5.84375 -7.21875 L 5.90625 -7.21875 C 5.8125 -7.863281 5.765625 -8.515625 5.765625 -9.171875 L 5.765625 -11.390625 L 8.640625 -11.390625 L 8.640625 0 L 6.484375 0 L 5.875 -1.046875 L 5.765625 -1.046875 C 5.273438 -0.253906 4.539062 0.140625 3.5625 0.140625 Z M 4.734375 -2.109375 C 5.191406 -2.109375 5.515625 -2.253906 5.703125 -2.546875 C 5.890625 -2.835938 5.988281 -3.28125 6 -3.875 L 6 -4.109375 C 6 -4.835938 5.894531 -5.351562 5.6875 -5.65625 C 5.476562 -5.96875 5.148438 -6.125 4.703125 -6.125 C 4.328125 -6.125 4.035156 -5.945312 3.828125 -5.59375 C 3.617188 -5.25 3.515625 -4.75 3.515625 -4.09375 C 3.515625 -3.445312 3.617188 -2.953125 3.828125 -2.609375 C 4.046875 -2.273438 4.347656 -2.109375 4.734375 -2.109375 Z M 4.734375 -2.109375 "/></g></g><g transform="translate(164.313188, 65.247198)"><g><path d="M 4.984375 0.140625 C 3.609375 0.140625 2.535156 -0.222656 1.765625 -0.953125 C 1.003906 -1.691406 0.625 -2.738281 0.625 -4.09375 C 0.625 -5.488281 0.976562 -6.5625 1.6875 -7.3125 C 2.394531 -8.0625 3.40625 -8.4375 4.71875 -8.4375 C 5.96875 -8.4375 6.929688 -8.109375 7.609375 -7.453125 C 8.296875 -6.804688 8.640625 -5.867188 8.640625 -4.640625 L 8.640625 -3.375 L 3.515625 -3.375 C 3.535156 -2.90625 3.703125 -2.539062 4.015625 -2.28125 C 4.335938 -2.019531 4.773438 -1.890625 5.328125 -1.890625 C 5.835938 -1.890625 6.300781 -1.9375 6.71875 -2.03125 C 7.144531 -2.125 7.601562 -2.285156 8.09375 -2.515625 L 8.09375 -0.46875 C 7.644531 -0.226562 7.179688 -0.0664062 6.703125 0.015625 C 6.222656 0.0976562 5.648438 0.140625 4.984375 0.140625 Z M 4.828125 -6.484375 C 4.484375 -6.484375 4.195312 -6.378906 3.96875 -6.171875 C 3.75 -5.960938 3.617188 -5.628906 3.578125 -5.171875 L 6.03125 -5.171875 C 6.019531 -5.566406 5.90625 -5.882812 5.6875 -6.125 C 5.476562 -6.363281 5.191406 -6.484375 4.828125 -6.484375 Z M 4.828125 -6.484375 "/></g></g></g><g fill="#ffffff" fill-opacity="1"><g transform="translate(78.074058, 86.235996)"><g><path d="M 5.96875 0.140625 C 5.539062 0.140625 5.160156 0.0703125 4.828125 -0.0625 C 4.503906 -0.195312 4.175781 -0.445312 3.84375 -0.8125 L 3.71875 -0.8125 C 3.800781 -0.226562 3.84375 0.128906 3.84375 0.265625 L 3.84375 3.59375 L 0.984375 3.59375 L 0.984375 -8.296875 L 3.3125 -8.296875 L 3.71875 -7.234375 L 3.84375 -7.234375 C 4.375 -8.035156 5.109375 -8.4375 6.046875 -8.4375 C 6.960938 -8.4375 7.679688 -8.054688 8.203125 -7.296875 C 8.722656 -6.535156 8.984375 -5.488281 8.984375 -4.15625 C 8.984375 -2.820312 8.710938 -1.769531 8.171875 -1 C 7.628906 -0.238281 6.894531 0.140625 5.96875 0.140625 Z M 5 -6.1875 C 4.582031 -6.1875 4.289062 -6.035156 4.125 -5.734375 C 3.957031 -5.441406 3.863281 -5 3.84375 -4.40625 L 3.84375 -4.171875 C 3.84375 -3.460938 3.9375 -2.945312 4.125 -2.625 C 4.320312 -2.3125 4.625 -2.15625 5.03125 -2.15625 C 5.394531 -2.15625 5.660156 -2.3125 5.828125 -2.625 C 5.992188 -2.945312 6.078125 -3.46875 6.078125 -4.1875 C 6.078125 -4.90625 5.992188 -5.414062 5.828125 -5.71875 C 5.660156 -6.03125 5.382812 -6.1875 5 -6.1875 Z M 5 -6.1875 "/></g></g><g transform="translate(87.714909, 86.235996)"><g><path d="M 6.390625 0 L 5.84375 -1.09375 L 5.78125 -1.09375 C 5.394531 -0.613281 5.003906 -0.285156 4.609375 -0.109375 C 4.210938 0.0546875 3.695312 0.140625 3.0625 0.140625 C 2.28125 0.140625 1.664062 -0.09375 1.21875 -0.5625 C 0.769531 -1.03125 0.546875 -1.6875 0.546875 -2.53125 C 0.546875 -3.414062 0.851562 -4.070312 1.46875 -4.5 C 2.082031 -4.9375 2.972656 -5.179688 4.140625 -5.234375 L 5.515625 -5.28125 L 5.515625 -5.390625 C 5.515625 -6.078125 5.175781 -6.421875 4.5 -6.421875 C 3.894531 -6.421875 3.128906 -6.210938 2.203125 -5.796875 L 1.375 -7.6875 C 2.34375 -8.1875 3.5625 -8.4375 5.03125 -8.4375 C 6.09375 -8.4375 6.914062 -8.171875 7.5 -7.640625 C 8.082031 -7.117188 8.375 -6.382812 8.375 -5.4375 L 8.375 0 Z M 4.265625 -1.875 C 4.617188 -1.875 4.914062 -1.984375 5.15625 -2.203125 C 5.40625 -2.421875 5.53125 -2.707031 5.53125 -3.0625 L 5.53125 -3.703125 L 4.875 -3.671875 C 3.925781 -3.640625 3.453125 -3.296875 3.453125 -2.640625 C 3.453125 -2.128906 3.722656 -1.875 4.265625 -1.875 Z M 4.265625 -1.875 "/></g></g><g transform="translate(97.055627, 86.235996)"><g><path d="M 6 -8.4375 C 6.238281 -8.4375 6.472656 -8.414062 6.703125 -8.375 L 6.859375 -8.34375 L 6.609375 -5.640625 C 6.367188 -5.703125 6.046875 -5.734375 5.640625 -5.734375 C 5.015625 -5.734375 4.554688 -5.585938 4.265625 -5.296875 C 3.984375 -5.015625 3.84375 -4.609375 3.84375 -4.078125 L 3.84375 0 L 0.984375 0 L 0.984375 -8.296875 L 3.109375 -8.296875 L 3.5625 -6.96875 L 3.703125 -6.96875 C 3.941406 -7.40625 4.273438 -7.757812 4.703125 -8.03125 C 5.128906 -8.300781 5.5625 -8.4375 6 -8.4375 Z M 6 -8.4375 "/></g></g><g transform="translate(104.090446, 86.235996)"><g><path d="M 4.765625 0.140625 C 3.410156 0.140625 2.378906 -0.222656 1.671875 -0.953125 C 0.972656 -1.679688 0.625 -2.734375 0.625 -4.109375 C 0.625 -5.484375 1 -6.546875 1.75 -7.296875 C 2.507812 -8.054688 3.585938 -8.4375 4.984375 -8.4375 C 5.953125 -8.4375 6.859375 -8.226562 7.703125 -7.8125 L 6.859375 -5.6875 C 6.515625 -5.84375 6.195312 -5.960938 5.90625 -6.046875 C 5.613281 -6.140625 5.304688 -6.1875 4.984375 -6.1875 C 4.523438 -6.1875 4.164062 -6.003906 3.90625 -5.640625 C 3.65625 -5.285156 3.53125 -4.78125 3.53125 -4.125 C 3.53125 -2.789062 4.019531 -2.125 5 -2.125 C 5.84375 -2.125 6.648438 -2.367188 7.421875 -2.859375 L 7.421875 -0.578125 C 6.679688 -0.0976562 5.796875 0.140625 4.765625 0.140625 Z M 4.765625 0.140625 "/></g></g><g transform="translate(112.172071, 86.235996)"><g><path d="M 8.90625 -4.15625 C 8.90625 -2.800781 8.539062 -1.742188 7.8125 -0.984375 C 7.082031 -0.234375 6.0625 0.140625 4.75 0.140625 C 3.488281 0.140625 2.484375 -0.242188 1.734375 -1.015625 C 0.992188 -1.796875 0.625 -2.84375 0.625 -4.15625 C 0.625 -5.507812 0.988281 -6.5625 1.71875 -7.3125 C 2.445312 -8.0625 3.472656 -8.4375 4.796875 -8.4375 C 5.609375 -8.4375 6.328125 -8.257812 6.953125 -7.90625 C 7.578125 -7.5625 8.054688 -7.066406 8.390625 -6.421875 C 8.734375 -5.773438 8.90625 -5.019531 8.90625 -4.15625 Z M 3.53125 -4.15625 C 3.53125 -3.445312 3.625 -2.90625 3.8125 -2.53125 C 4.007812 -2.15625 4.332031 -1.96875 4.78125 -1.96875 C 5.21875 -1.96875 5.53125 -2.15625 5.71875 -2.53125 C 5.90625 -2.90625 6 -3.445312 6 -4.15625 C 6 -4.863281 5.90625 -5.398438 5.71875 -5.765625 C 5.53125 -6.128906 5.210938 -6.3125 4.765625 -6.3125 C 4.328125 -6.3125 4.007812 -6.128906 3.8125 -5.765625 C 3.625 -5.410156 3.53125 -4.875 3.53125 -4.15625 Z M 3.53125 -4.15625 "/></g></g><g transform="translate(121.725078, 86.235996)"><g><path d="M 6.890625 0 L 6.53125 -1.03125 L 6.359375 -1.03125 C 6.117188 -0.65625 5.785156 -0.363281 5.359375 -0.15625 C 4.929688 0.0390625 4.429688 0.140625 3.859375 0.140625 C 2.953125 0.140625 2.242188 -0.117188 1.734375 -0.640625 C 1.222656 -1.171875 0.96875 -1.921875 0.96875 -2.890625 L 0.96875 -8.296875 L 3.828125 -8.296875 L 3.828125 -3.765625 C 3.828125 -3.222656 3.90625 -2.8125 4.0625 -2.53125 C 4.21875 -2.25 4.472656 -2.109375 4.828125 -2.109375 C 5.316406 -2.109375 5.664062 -2.300781 5.875 -2.6875 C 6.082031 -3.082031 6.1875 -3.738281 6.1875 -4.65625 L 6.1875 -8.296875 L 9.046875 -8.296875 L 9.046875 0 Z M 6.890625 0 "/></g></g><g transform="translate(131.768546, 86.235996)"><g><path d="M 6 -8.4375 C 6.238281 -8.4375 6.472656 -8.414062 6.703125 -8.375 L 6.859375 -8.34375 L 6.609375 -5.640625 C 6.367188 -5.703125 6.046875 -5.734375 5.640625 -5.734375 C 5.015625 -5.734375 4.554688 -5.585938 4.265625 -5.296875 C 3.984375 -5.015625 3.84375 -4.609375 3.84375 -4.078125 L 3.84375 0 L 0.984375 0 L 0.984375 -8.296875 L 3.109375 -8.296875 L 3.5625 -6.96875 L 3.703125 -6.96875 C 3.941406 -7.40625 4.273438 -7.757812 4.703125 -8.03125 C 5.128906 -8.300781 5.5625 -8.4375 6 -8.4375 Z M 6 -8.4375 "/></g></g><g transform="translate(138.803365, 86.235996)"><g><path d="M 7.390625 -2.546875 C 7.390625 -1.660156 7.085938 -0.988281 6.484375 -0.53125 C 5.878906 -0.0820312 5.007812 0.140625 3.875 0.140625 C 3.257812 0.140625 2.722656 0.109375 2.265625 0.046875 C 1.816406 -0.015625 1.359375 -0.132812 0.890625 -0.3125 L 0.890625 -2.609375 C 1.328125 -2.410156 1.8125 -2.25 2.34375 -2.125 C 2.875 -2 3.347656 -1.9375 3.765625 -1.9375 C 4.378906 -1.9375 4.6875 -2.078125 4.6875 -2.359375 C 4.6875 -2.503906 4.597656 -2.632812 4.421875 -2.75 C 4.253906 -2.863281 3.753906 -3.085938 2.921875 -3.421875 C 2.160156 -3.734375 1.628906 -4.085938 1.328125 -4.484375 C 1.023438 -4.878906 0.875 -5.382812 0.875 -6 C 0.875 -6.757812 1.171875 -7.351562 1.765625 -7.78125 C 2.359375 -8.21875 3.195312 -8.4375 4.28125 -8.4375 C 4.832031 -8.4375 5.347656 -8.375 5.828125 -8.25 C 6.304688 -8.132812 6.804688 -7.960938 7.328125 -7.734375 L 6.546875 -5.890625 C 6.171875 -6.054688 5.769531 -6.195312 5.34375 -6.3125 C 4.914062 -6.4375 4.566406 -6.5 4.296875 -6.5 C 3.828125 -6.5 3.59375 -6.382812 3.59375 -6.15625 C 3.59375 -6.019531 3.675781 -5.898438 3.84375 -5.796875 C 4.007812 -5.691406 4.484375 -5.488281 5.265625 -5.1875 C 5.835938 -4.945312 6.265625 -4.710938 6.546875 -4.484375 C 6.835938 -4.253906 7.050781 -3.984375 7.1875 -3.671875 C 7.320312 -3.367188 7.390625 -2.992188 7.390625 -2.546875 Z M 7.390625 -2.546875 "/></g></g></g></svg>