<svg xmlns="http://www.w3.org/2000/svg" xmlns:xlink="http://www.w3.org/1999/xlink" width="300" zoomAndPan="magnify" viewBox="0 0 224.87999 119.999999" height="160" preserveAspectRatio="xMidYMid meet" version="1.0"><defs><g/><clipPath id="28b9d07553"><path d="M 0 0.03125 L 224.761719 0.03125 L 224.761719 119.96875 L 0 119.96875 Z M 0 0.03125 " clip-rule="nonzero"/></clipPath><clipPath id="ef6c788788"><path d="M 0 0.03125 L 224.761719 0.03125 L 224.761719 119.96875 L 0 119.96875 Z M 0 0.03125 " clip-rule="nonzero"/></clipPath><clipPath id="46172a5fe8"><path d="M 5.996094 -0.480469 L 218.882812 -0.480469 C 222.195312 -0.480469 224.878906 2.207031 224.878906 5.519531 L 224.878906 114.480469 C 224.878906 117.792969 222.195312 120.480469 218.882812 120.480469 L 5.996094 120.480469 C 2.683594 120.480469 0 117.792969 0 114.480469 L 0 5.519531 C 0 2.207031 2.683594 -0.480469 5.996094 -0.480469 " clip-rule="nonzero"/></clipPath></defs><g clip-path="url(#28b9d07553)"><path fill="#ffffff" d="M 0 0.03125 L 224.878906 0.03125 L 224.878906 127.464844 L 0 127.464844 Z M 0 0.03125 " fill-opacity="1" fill-rule="nonzero"/><path fill="#ffffff" d="M 0 0.03125 L 224.878906 0.03125 L 224.878906 119.96875 L 0 119.96875 Z M 0 0.03125 " fill-opacity="1" fill-rule="nonzero"/><path fill="#ffffff" d="M 0 0.03125 L 224.878906 0.03125 L 224.878906 119.96875 L 0 119.96875 Z M 0 0.03125 " fill-opacity="1" fill-rule="nonzero"/></g><g clip-path="url(#ef6c788788)"><g clip-path="url(#46172a5fe8)"><path fill="#fecb37" d="M 0 -0.480469 L 224.878906 -0.480469 L 224.878906 120.480469 L 0 120.480469 Z M 0 -0.480469 " fill-opacity="1" fill-rule="nonzero"/></g></g><g fill="#ffffff" fill-opacity="1"><g transform="translate(24.082907, 35.263202)"><g><path d="M 11.46875 -17.125 L 16.640625 -17.125 L 11.03125 0 L 5.59375 0 L 0 -17.125 L 5.203125 -17.125 L 7.53125 -8.4375 C 8.007812 -6.507812 8.273438 -5.171875 8.328125 -4.421875 C 8.378906 -4.960938 8.488281 -5.640625 8.65625 -6.453125 C 8.820312 -7.273438 8.96875 -7.921875 9.09375 -8.390625 Z M 11.46875 -17.125 "/></g></g><g transform="translate(40.726369, 35.263202)"><g><path d="M 6.1875 0 L 1.609375 0 L 1.609375 -13.265625 L 6.1875 -13.265625 Z M 1.484375 -16.578125 C 1.484375 -17.265625 1.675781 -17.773438 2.0625 -18.109375 C 2.445312 -18.441406 3.0625 -18.609375 3.90625 -18.609375 C 4.757812 -18.609375 5.378906 -18.4375 5.765625 -18.09375 C 6.160156 -17.75 6.359375 -17.242188 6.359375 -16.578125 C 6.359375 -15.234375 5.539062 -14.5625 3.90625 -14.5625 C 2.289062 -14.5625 1.484375 -15.234375 1.484375 -16.578125 Z M 1.484375 -16.578125 "/></g></g><g transform="translate(48.526893, 35.263202)"><g><path d="M 7.984375 0.234375 C 5.773438 0.234375 4.054688 -0.351562 2.828125 -1.53125 C 1.609375 -2.707031 1 -4.378906 1 -6.546875 C 1 -8.785156 1.566406 -10.503906 2.703125 -11.703125 C 3.835938 -12.898438 5.453125 -13.5 7.546875 -13.5 C 9.546875 -13.5 11.085938 -12.976562 12.171875 -11.9375 C 13.265625 -10.894531 13.8125 -9.394531 13.8125 -7.4375 L 13.8125 -5.40625 L 5.640625 -5.40625 C 5.671875 -4.65625 5.941406 -4.066406 6.453125 -3.640625 C 6.960938 -3.222656 7.65625 -3.015625 8.53125 -3.015625 C 9.34375 -3.015625 10.082031 -3.09375 10.75 -3.25 C 11.425781 -3.40625 12.160156 -3.664062 12.953125 -4.03125 L 12.953125 -0.734375 C 12.234375 -0.367188 11.488281 -0.117188 10.71875 0.015625 C 9.957031 0.160156 9.046875 0.234375 7.984375 0.234375 Z M 7.71875 -10.390625 C 7.175781 -10.390625 6.722656 -10.21875 6.359375 -9.875 C 6.003906 -9.539062 5.796875 -9.007812 5.734375 -8.28125 L 9.65625 -8.28125 C 9.644531 -8.914062 9.460938 -9.425781 9.109375 -9.8125 C 8.765625 -10.195312 8.300781 -10.390625 7.71875 -10.390625 Z M 7.71875 -10.390625 "/></g></g><g transform="translate(63.354916, 35.263202)"><g><path d="M 6.1875 0 L 1.609375 0 L 1.609375 -13.265625 L 6.1875 -13.265625 Z M 1.484375 -16.578125 C 1.484375 -17.265625 1.675781 -17.773438 2.0625 -18.109375 C 2.445312 -18.441406 3.0625 -18.609375 3.90625 -18.609375 C 4.757812 -18.609375 5.378906 -18.4375 5.765625 -18.09375 C 6.160156 -17.75 6.359375 -17.242188 6.359375 -16.578125 C 6.359375 -15.234375 5.539062 -14.5625 3.90625 -14.5625 C 2.289062 -14.5625 1.484375 -15.234375 1.484375 -16.578125 Z M 1.484375 -16.578125 "/></g></g><g transform="translate(71.155441, 35.263202)"><g><path d="M 6.15625 0 L 1.578125 0 L 1.578125 -18.21875 L 6.15625 -18.21875 Z M 6.15625 0 "/></g></g><g transform="translate(78.909115, 35.263202)"><g><path d="M 6.15625 0 L 1.578125 0 L 1.578125 -18.21875 L 6.15625 -18.21875 Z M 6.15625 0 "/></g></g><g transform="translate(86.66279, 35.263202)"><g><path d="M 6.1875 0 L 1.609375 0 L 1.609375 -13.265625 L 6.1875 -13.265625 Z M 1.484375 -16.578125 C 1.484375 -17.265625 1.675781 -17.773438 2.0625 -18.109375 C 2.445312 -18.441406 3.0625 -18.609375 3.90625 -18.609375 C 4.757812 -18.609375 5.378906 -18.4375 5.765625 -18.09375 C 6.160156 -17.75 6.359375 -17.242188 6.359375 -16.578125 C 6.359375 -15.234375 5.539062 -14.5625 3.90625 -14.5625 C 2.289062 -14.5625 1.484375 -15.234375 1.484375 -16.578125 Z M 1.484375 -16.578125 "/></g></g><g transform="translate(94.463314, 35.263202)"><g><path d="M 11.828125 -4.078125 C 11.828125 -2.648438 11.34375 -1.570312 10.375 -0.84375 C 9.40625 -0.125 8.015625 0.234375 6.203125 0.234375 C 5.222656 0.234375 4.367188 0.179688 3.640625 0.078125 C 2.910156 -0.0234375 2.171875 -0.21875 1.421875 -0.5 L 1.421875 -4.171875 C 2.128906 -3.859375 2.90625 -3.597656 3.75 -3.390625 C 4.601562 -3.191406 5.359375 -3.09375 6.015625 -3.09375 C 7.003906 -3.09375 7.5 -3.316406 7.5 -3.765625 C 7.5 -4.003906 7.359375 -4.210938 7.078125 -4.390625 C 6.804688 -4.578125 6.003906 -4.9375 4.671875 -5.46875 C 3.453125 -5.96875 2.597656 -6.535156 2.109375 -7.171875 C 1.628906 -7.804688 1.390625 -8.613281 1.390625 -9.59375 C 1.390625 -10.820312 1.863281 -11.78125 2.8125 -12.46875 C 3.769531 -13.15625 5.117188 -13.5 6.859375 -13.5 C 7.734375 -13.5 8.554688 -13.398438 9.328125 -13.203125 C 10.097656 -13.015625 10.894531 -12.738281 11.71875 -12.375 L 10.484375 -9.421875 C 9.867188 -9.703125 9.222656 -9.9375 8.546875 -10.125 C 7.867188 -10.3125 7.316406 -10.40625 6.890625 -10.40625 C 6.140625 -10.40625 5.765625 -10.222656 5.765625 -9.859375 C 5.765625 -9.628906 5.894531 -9.4375 6.15625 -9.28125 C 6.414062 -9.125 7.171875 -8.796875 8.421875 -8.296875 C 9.347656 -7.921875 10.039062 -7.546875 10.5 -7.171875 C 10.957031 -6.804688 11.289062 -6.375 11.5 -5.875 C 11.71875 -5.382812 11.828125 -4.785156 11.828125 -4.078125 Z M 11.828125 -4.078125 "/></g></g><g transform="translate(107.253363, 35.263202)"><g><path d="M 11.828125 -4.078125 C 11.828125 -2.648438 11.34375 -1.570312 10.375 -0.84375 C 9.40625 -0.125 8.015625 0.234375 6.203125 0.234375 C 5.222656 0.234375 4.367188 0.179688 3.640625 0.078125 C 2.910156 -0.0234375 2.171875 -0.21875 1.421875 -0.5 L 1.421875 -4.171875 C 2.128906 -3.859375 2.90625 -3.597656 3.75 -3.390625 C 4.601562 -3.191406 5.359375 -3.09375 6.015625 -3.09375 C 7.003906 -3.09375 7.5 -3.316406 7.5 -3.765625 C 7.5 -4.003906 7.359375 -4.210938 7.078125 -4.390625 C 6.804688 -4.578125 6.003906 -4.9375 4.671875 -5.46875 C 3.453125 -5.96875 2.597656 -6.535156 2.109375 -7.171875 C 1.628906 -7.804688 1.390625 -8.613281 1.390625 -9.59375 C 1.390625 -10.820312 1.863281 -11.78125 2.8125 -12.46875 C 3.769531 -13.15625 5.117188 -13.5 6.859375 -13.5 C 7.734375 -13.5 8.554688 -13.398438 9.328125 -13.203125 C 10.097656 -13.015625 10.894531 -12.738281 11.71875 -12.375 L 10.484375 -9.421875 C 9.867188 -9.703125 9.222656 -9.9375 8.546875 -10.125 C 7.867188 -10.3125 7.316406 -10.40625 6.890625 -10.40625 C 6.140625 -10.40625 5.765625 -10.222656 5.765625 -9.859375 C 5.765625 -9.628906 5.894531 -9.4375 6.15625 -9.28125 C 6.414062 -9.125 7.171875 -8.796875 8.421875 -8.296875 C 9.347656 -7.921875 10.039062 -7.546875 10.5 -7.171875 C 10.957031 -6.804688 11.289062 -6.375 11.5 -5.875 C 11.71875 -5.382812 11.828125 -4.785156 11.828125 -4.078125 Z M 11.828125 -4.078125 "/></g></g><g transform="translate(120.043412, 35.263202)"><g><path d="M 7.984375 0.234375 C 5.773438 0.234375 4.054688 -0.351562 2.828125 -1.53125 C 1.609375 -2.707031 1 -4.378906 1 -6.546875 C 1 -8.785156 1.566406 -10.503906 2.703125 -11.703125 C 3.835938 -12.898438 5.453125 -13.5 7.546875 -13.5 C 9.546875 -13.5 11.085938 -12.976562 12.171875 -11.9375 C 13.265625 -10.894531 13.8125 -9.394531 13.8125 -7.4375 L 13.8125 -5.40625 L 5.640625 -5.40625 C 5.671875 -4.65625 5.941406 -4.066406 6.453125 -3.640625 C 6.960938 -3.222656 7.65625 -3.015625 8.53125 -3.015625 C 9.34375 -3.015625 10.082031 -3.09375 10.75 -3.25 C 11.425781 -3.40625 12.160156 -3.664062 12.953125 -4.03125 L 12.953125 -0.734375 C 12.234375 -0.367188 11.488281 -0.117188 10.71875 0.015625 C 9.957031 0.160156 9.046875 0.234375 7.984375 0.234375 Z M 7.71875 -10.390625 C 7.175781 -10.390625 6.722656 -10.21875 6.359375 -9.875 C 6.003906 -9.539062 5.796875 -9.007812 5.734375 -8.28125 L 9.65625 -8.28125 C 9.644531 -8.914062 9.460938 -9.425781 9.109375 -9.8125 C 8.765625 -10.195312 8.300781 -10.390625 7.71875 -10.390625 Z M 7.71875 -10.390625 "/></g></g><g transform="translate(134.871436, 35.263202)"><g><path d="M 17.875 0 L 17.875 -7.21875 C 17.875 -8.113281 17.75 -8.785156 17.5 -9.234375 C 17.257812 -9.679688 16.875 -9.90625 16.34375 -9.90625 C 15.632812 -9.90625 15.113281 -9.601562 14.78125 -9 C 14.457031 -8.40625 14.296875 -7.46875 14.296875 -6.1875 L 14.296875 0 L 9.703125 0 L 9.703125 -7.21875 C 9.703125 -8.113281 9.582031 -8.785156 9.34375 -9.234375 C 9.113281 -9.679688 8.738281 -9.90625 8.21875 -9.90625 C 7.5 -9.90625 6.972656 -9.582031 6.640625 -8.9375 C 6.316406 -8.300781 6.15625 -7.257812 6.15625 -5.8125 L 6.15625 0 L 1.578125 0 L 1.578125 -13.265625 L 5.03125 -13.265625 L 5.609375 -11.625 L 5.875 -11.625 C 6.226562 -12.238281 6.738281 -12.703125 7.40625 -13.015625 C 8.070312 -13.335938 8.832031 -13.5 9.6875 -13.5 C 11.59375 -13.5 12.9375 -12.921875 13.71875 -11.765625 L 14.078125 -11.765625 C 14.453125 -12.304688 14.972656 -12.726562 15.640625 -13.03125 C 16.304688 -13.34375 17.039062 -13.5 17.84375 -13.5 C 19.414062 -13.5 20.578125 -13.097656 21.328125 -12.296875 C 22.078125 -11.492188 22.453125 -10.269531 22.453125 -8.625 L 22.453125 0 Z M 17.875 0 "/></g></g><g transform="translate(158.858633, 35.263202)"><g><path d="M 7.984375 0.234375 C 5.773438 0.234375 4.054688 -0.351562 2.828125 -1.53125 C 1.609375 -2.707031 1 -4.378906 1 -6.546875 C 1 -8.785156 1.566406 -10.503906 2.703125 -11.703125 C 3.835938 -12.898438 5.453125 -13.5 7.546875 -13.5 C 9.546875 -13.5 11.085938 -12.976562 12.171875 -11.9375 C 13.265625 -10.894531 13.8125 -9.394531 13.8125 -7.4375 L 13.8125 -5.40625 L 5.640625 -5.40625 C 5.671875 -4.65625 5.941406 -4.066406 6.453125 -3.640625 C 6.960938 -3.222656 7.65625 -3.015625 8.53125 -3.015625 C 9.34375 -3.015625 10.082031 -3.09375 10.75 -3.25 C 11.425781 -3.40625 12.160156 -3.664062 12.953125 -4.03125 L 12.953125 -0.734375 C 12.234375 -0.367188 11.488281 -0.117188 10.71875 0.015625 C 9.957031 0.160156 9.046875 0.234375 7.984375 0.234375 Z M 7.71875 -10.390625 C 7.175781 -10.390625 6.722656 -10.21875 6.359375 -9.875 C 6.003906 -9.539062 5.796875 -9.007812 5.734375 -8.28125 L 9.65625 -8.28125 C 9.644531 -8.914062 9.460938 -9.425781 9.109375 -9.8125 C 8.765625 -10.195312 8.300781 -10.390625 7.71875 -10.390625 Z M 7.71875 -10.390625 "/></g></g><g transform="translate(173.686657, 35.263202)"><g><path d="M 9.953125 0 L 9.953125 -7.234375 C 9.953125 -8.117188 9.820312 -8.785156 9.5625 -9.234375 C 9.3125 -9.679688 8.90625 -9.90625 8.34375 -9.90625 C 7.570312 -9.90625 7.015625 -9.597656 6.671875 -8.984375 C 6.328125 -8.367188 6.15625 -7.3125 6.15625 -5.8125 L 6.15625 0 L 1.578125 0 L 1.578125 -13.265625 L 5.03125 -13.265625 L 5.609375 -11.625 L 5.875 -11.625 C 6.269531 -12.25 6.8125 -12.71875 7.5 -13.03125 C 8.1875 -13.34375 8.984375 -13.5 9.890625 -13.5 C 11.347656 -13.5 12.484375 -13.070312 13.296875 -12.21875 C 14.117188 -11.375 14.53125 -10.175781 14.53125 -8.625 L 14.53125 0 Z M 9.953125 0 "/></g></g><g transform="translate(189.756206, 35.263202)"><g><path d="M 8.078125 -3.390625 C 8.691406 -3.390625 9.429688 -3.539062 10.296875 -3.84375 L 10.296875 -0.5 C 9.679688 -0.238281 9.09375 -0.0507812 8.53125 0.0625 C 7.96875 0.175781 7.3125 0.234375 6.5625 0.234375 C 5.03125 0.234375 3.921875 -0.140625 3.234375 -0.890625 C 2.554688 -1.648438 2.21875 -2.8125 2.21875 -4.375 L 2.21875 -9.84375 L 0.625 -9.84375 L 0.625 -11.703125 L 2.65625 -13.140625 L 3.84375 -15.921875 L 6.84375 -15.921875 L 6.84375 -13.265625 L 10.09375 -13.265625 L 10.09375 -9.84375 L 6.84375 -9.84375 L 6.84375 -4.671875 C 6.84375 -3.816406 7.253906 -3.390625 8.078125 -3.390625 Z M 8.078125 -3.390625 "/></g></g></g><g fill="#ffffff" fill-opacity="1"><g transform="translate(99.733938, 68.245599)"><g/></g></g><g fill="#ffffff" fill-opacity="1"><g transform="translate(105.964988, 68.245599)"><g><path d="M 13.359375 0 L 12.203125 -1.1875 C 11.503906 -0.75 10.925781 -0.441406 10.46875 -0.265625 C 10.019531 -0.0976562 9.515625 0.0234375 8.953125 0.109375 C 8.398438 0.191406 7.765625 0.234375 7.046875 0.234375 C 5.816406 0.234375 4.726562 0.0234375 3.78125 -0.390625 C 2.832031 -0.816406 2.101562 -1.40625 1.59375 -2.15625 C 1.09375 -2.914062 0.84375 -3.78125 0.84375 -4.75 C 0.84375 -6.800781 1.90625 -8.367188 4.03125 -9.453125 C 3.539062 -9.992188 3.160156 -10.570312 2.890625 -11.1875 C 2.628906 -11.800781 2.5 -12.492188 2.5 -13.265625 C 2.5 -14.515625 2.976562 -15.503906 3.9375 -16.234375 C 4.90625 -16.972656 6.234375 -17.34375 7.921875 -17.34375 C 9.566406 -17.34375 10.847656 -16.976562 11.765625 -16.25 C 12.679688 -15.519531 13.140625 -14.523438 13.140625 -13.265625 C 13.140625 -12.398438 12.890625 -11.597656 12.390625 -10.859375 C 11.898438 -10.117188 11.117188 -9.425781 10.046875 -8.78125 L 12.375 -6.5625 C 12.957031 -7.46875 13.363281 -8.484375 13.59375 -9.609375 L 18.34375 -9.609375 C 18.113281 -8.535156 17.742188 -7.457031 17.234375 -6.375 C 16.734375 -5.289062 16.171875 -4.363281 15.546875 -3.59375 L 19.28125 0 Z M 5.5625 -5.078125 C 5.5625 -4.585938 5.734375 -4.1875 6.078125 -3.875 C 6.429688 -3.5625 6.898438 -3.40625 7.484375 -3.40625 C 7.929688 -3.40625 8.320312 -3.460938 8.65625 -3.578125 C 8.988281 -3.703125 9.242188 -3.835938 9.421875 -3.984375 L 6.515625 -6.9375 C 5.878906 -6.457031 5.5625 -5.835938 5.5625 -5.078125 Z M 9.015625 -13.265625 C 9.015625 -13.648438 8.898438 -13.925781 8.671875 -14.09375 C 8.453125 -14.257812 8.175781 -14.34375 7.84375 -14.34375 C 7.519531 -14.34375 7.234375 -14.242188 6.984375 -14.046875 C 6.734375 -13.859375 6.609375 -13.546875 6.609375 -13.109375 C 6.609375 -12.523438 6.953125 -11.921875 7.640625 -11.296875 C 8.085938 -11.546875 8.425781 -11.84375 8.65625 -12.1875 C 8.894531 -12.539062 9.015625 -12.898438 9.015625 -13.265625 Z M 9.015625 -13.265625 "/></g></g></g><g fill="#ffffff" fill-opacity="1"><g transform="translate(52.509142, 101.227996)"><g/></g></g><g fill="#ffffff" fill-opacity="1"><g transform="translate(58.740192, 101.227996)"><g><path d="M 9.9375 0 L 9.9375 -7.234375 C 9.9375 -9.015625 9.40625 -9.90625 8.34375 -9.90625 C 7.59375 -9.90625 7.039062 -9.585938 6.6875 -8.953125 C 6.332031 -8.328125 6.15625 -7.285156 6.15625 -5.828125 L 6.15625 0 L 1.578125 0 L 1.578125 -18.21875 L 6.15625 -18.21875 L 6.15625 -15.640625 C 6.15625 -14.460938 6.09375 -13.125 5.96875 -11.625 L 6.1875 -11.625 C 6.625 -12.3125 7.140625 -12.796875 7.734375 -13.078125 C 8.335938 -13.359375 9.039062 -13.5 9.84375 -13.5 C 11.320312 -13.5 12.472656 -13.070312 13.296875 -12.21875 C 14.117188 -11.363281 14.53125 -10.164062 14.53125 -8.625 L 14.53125 0 Z M 9.9375 0 "/></g></g><g transform="translate(74.809741, 101.227996)"><g><path d="M 10.234375 0 L 9.359375 -1.75 L 9.265625 -1.75 C 8.648438 -0.988281 8.019531 -0.46875 7.375 -0.1875 C 6.738281 0.09375 5.910156 0.234375 4.890625 0.234375 C 3.640625 0.234375 2.65625 -0.140625 1.9375 -0.890625 C 1.21875 -1.640625 0.859375 -2.691406 0.859375 -4.046875 C 0.859375 -5.460938 1.347656 -6.515625 2.328125 -7.203125 C 3.316406 -7.898438 4.742188 -8.289062 6.609375 -8.375 L 8.828125 -8.4375 L 8.828125 -8.625 C 8.828125 -9.71875 8.289062 -10.265625 7.21875 -10.265625 C 6.25 -10.265625 5.019531 -9.9375 3.53125 -9.28125 L 2.203125 -12.3125 C 3.742188 -13.101562 5.695312 -13.5 8.0625 -13.5 C 9.757812 -13.5 11.070312 -13.078125 12 -12.234375 C 12.9375 -11.390625 13.40625 -10.210938 13.40625 -8.703125 L 13.40625 0 Z M 6.84375 -3 C 7.394531 -3 7.867188 -3.171875 8.265625 -3.515625 C 8.660156 -3.867188 8.859375 -4.328125 8.859375 -4.890625 L 8.859375 -5.921875 L 7.796875 -5.875 C 6.296875 -5.820312 5.546875 -5.269531 5.546875 -4.21875 C 5.546875 -3.40625 5.976562 -3 6.84375 -3 Z M 6.84375 -3 "/></g></g><g transform="translate(89.754889, 101.227996)"><g><path d="M 9.953125 0 L 9.953125 -7.234375 C 9.953125 -8.117188 9.820312 -8.785156 9.5625 -9.234375 C 9.3125 -9.679688 8.90625 -9.90625 8.34375 -9.90625 C 7.570312 -9.90625 7.015625 -9.597656 6.671875 -8.984375 C 6.328125 -8.367188 6.15625 -7.3125 6.15625 -5.8125 L 6.15625 0 L 1.578125 0 L 1.578125 -13.265625 L 5.03125 -13.265625 L 5.609375 -11.625 L 5.875 -11.625 C 6.269531 -12.25 6.8125 -12.71875 7.5 -13.03125 C 8.1875 -13.34375 8.984375 -13.5 9.890625 -13.5 C 11.347656 -13.5 12.484375 -13.070312 13.296875 -12.21875 C 14.117188 -11.375 14.53125 -10.175781 14.53125 -8.625 L 14.53125 0 Z M 9.953125 0 "/></g></g><g transform="translate(105.824438, 101.227996)"><g><path d="M 5.703125 0.234375 C 4.753906 0.234375 3.925781 -0.03125 3.21875 -0.5625 C 2.519531 -1.101562 1.972656 -1.894531 1.578125 -2.9375 C 1.191406 -3.988281 1 -5.210938 1 -6.609375 C 1 -8.765625 1.429688 -10.453125 2.296875 -11.671875 C 3.171875 -12.890625 4.363281 -13.5 5.875 -13.5 C 6.613281 -13.5 7.265625 -13.347656 7.828125 -13.046875 C 8.390625 -12.753906 8.898438 -12.257812 9.359375 -11.5625 L 9.453125 -11.5625 C 9.304688 -12.59375 9.234375 -13.628906 9.234375 -14.671875 L 9.234375 -18.21875 L 13.84375 -18.21875 L 13.84375 0 L 10.390625 0 L 9.40625 -1.671875 L 9.234375 -1.671875 C 8.441406 -0.398438 7.265625 0.234375 5.703125 0.234375 Z M 7.578125 -3.390625 C 8.304688 -3.390625 8.820312 -3.617188 9.125 -4.078125 C 9.425781 -4.535156 9.585938 -5.242188 9.609375 -6.203125 L 9.609375 -6.5625 C 9.609375 -7.738281 9.441406 -8.570312 9.109375 -9.0625 C 8.773438 -9.5625 8.25 -9.8125 7.53125 -9.8125 C 6.925781 -9.8125 6.457031 -9.523438 6.125 -8.953125 C 5.800781 -8.390625 5.640625 -7.585938 5.640625 -6.546875 C 5.640625 -5.515625 5.804688 -4.726562 6.140625 -4.1875 C 6.472656 -3.65625 6.953125 -3.390625 7.578125 -3.390625 Z M 7.578125 -3.390625 "/></g></g><g transform="translate(121.249799, 101.227996)"><g><path d="M 6.1875 0 L 1.609375 0 L 1.609375 -13.265625 L 6.1875 -13.265625 Z M 1.484375 -16.578125 C 1.484375 -17.265625 1.675781 -17.773438 2.0625 -18.109375 C 2.445312 -18.441406 3.0625 -18.609375 3.90625 -18.609375 C 4.757812 -18.609375 5.378906 -18.4375 5.765625 -18.09375 C 6.160156 -17.75 6.359375 -17.242188 6.359375 -16.578125 C 6.359375 -15.234375 5.539062 -14.5625 3.90625 -14.5625 C 2.289062 -14.5625 1.484375 -15.234375 1.484375 -16.578125 Z M 1.484375 -16.578125 "/></g></g><g transform="translate(129.050324, 101.227996)"><g><path d="M 7.625 0.234375 C 5.457031 0.234375 3.8125 -0.347656 2.6875 -1.515625 C 1.5625 -2.691406 1 -4.375 1 -6.5625 C 1 -8.769531 1.601562 -10.476562 2.8125 -11.6875 C 4.03125 -12.894531 5.753906 -13.5 7.984375 -13.5 C 9.523438 -13.5 10.972656 -13.164062 12.328125 -12.5 L 10.984375 -9.109375 C 10.429688 -9.347656 9.921875 -9.539062 9.453125 -9.6875 C 8.984375 -9.832031 8.492188 -9.90625 7.984375 -9.90625 C 7.242188 -9.90625 6.671875 -9.613281 6.265625 -9.03125 C 5.859375 -8.457031 5.65625 -7.644531 5.65625 -6.59375 C 5.65625 -4.46875 6.441406 -3.40625 8.015625 -3.40625 C 9.359375 -3.40625 10.644531 -3.796875 11.875 -4.578125 L 11.875 -0.9375 C 10.695312 -0.15625 9.28125 0.234375 7.625 0.234375 Z M 7.625 0.234375 "/></g></g><g transform="translate(141.980923, 101.227996)"><g><path d="M 10.234375 0 L 9.359375 -1.75 L 9.265625 -1.75 C 8.648438 -0.988281 8.019531 -0.46875 7.375 -0.1875 C 6.738281 0.09375 5.910156 0.234375 4.890625 0.234375 C 3.640625 0.234375 2.65625 -0.140625 1.9375 -0.890625 C 1.21875 -1.640625 0.859375 -2.691406 0.859375 -4.046875 C 0.859375 -5.460938 1.347656 -6.515625 2.328125 -7.203125 C 3.316406 -7.898438 4.742188 -8.289062 6.609375 -8.375 L 8.828125 -8.4375 L 8.828125 -8.625 C 8.828125 -9.71875 8.289062 -10.265625 7.21875 -10.265625 C 6.25 -10.265625 5.019531 -9.9375 3.53125 -9.28125 L 2.203125 -12.3125 C 3.742188 -13.101562 5.695312 -13.5 8.0625 -13.5 C 9.757812 -13.5 11.070312 -13.078125 12 -12.234375 C 12.9375 -11.390625 13.40625 -10.210938 13.40625 -8.703125 L 13.40625 0 Z M 6.84375 -3 C 7.394531 -3 7.867188 -3.171875 8.265625 -3.515625 C 8.660156 -3.867188 8.859375 -4.328125 8.859375 -4.890625 L 8.859375 -5.921875 L 7.796875 -5.875 C 6.296875 -5.820312 5.546875 -5.269531 5.546875 -4.21875 C 5.546875 -3.40625 5.976562 -3 6.84375 -3 Z M 6.84375 -3 "/></g></g><g transform="translate(156.926071, 101.227996)"><g><path d="M 9.546875 0.234375 C 8.867188 0.234375 8.265625 0.125 7.734375 -0.09375 C 7.203125 -0.320312 6.675781 -0.722656 6.15625 -1.296875 L 5.953125 -1.296875 C 6.085938 -0.367188 6.15625 0.207031 6.15625 0.4375 L 6.15625 5.765625 L 1.578125 5.765625 L 1.578125 -13.265625 L 5.3125 -13.265625 L 5.953125 -11.578125 L 6.15625 -11.578125 C 7.007812 -12.859375 8.1875 -13.5 9.6875 -13.5 C 11.15625 -13.5 12.304688 -12.890625 13.140625 -11.671875 C 13.972656 -10.453125 14.390625 -8.78125 14.390625 -6.65625 C 14.390625 -4.519531 13.953125 -2.835938 13.078125 -1.609375 C 12.210938 -0.378906 11.035156 0.234375 9.546875 0.234375 Z M 8.015625 -9.90625 C 7.335938 -9.90625 6.863281 -9.664062 6.59375 -9.1875 C 6.320312 -8.707031 6.175781 -7.992188 6.15625 -7.046875 L 6.15625 -6.6875 C 6.15625 -5.550781 6.304688 -4.726562 6.609375 -4.21875 C 6.921875 -3.707031 7.40625 -3.453125 8.0625 -3.453125 C 8.644531 -3.453125 9.066406 -3.703125 9.328125 -4.203125 C 9.597656 -4.710938 9.734375 -5.546875 9.734375 -6.703125 C 9.734375 -7.847656 9.597656 -8.664062 9.328125 -9.15625 C 9.066406 -9.65625 8.628906 -9.90625 8.015625 -9.90625 Z M 8.015625 -9.90625 "/></g></g></g></svg>