<svg xmlns="http://www.w3.org/2000/svg" xmlns:xlink="http://www.w3.org/1999/xlink" width="300" zoomAndPan="magnify" viewBox="0 0 224.87999 119.999999" height="160" preserveAspectRatio="xMidYMid meet" version="1.0"><defs><g/><clipPath id="19035878ed"><path d="M 0 0.03125 L 224.761719 0.03125 L 224.761719 119.96875 L 0 119.96875 Z M 0 0.03125 " clip-rule="nonzero"/></clipPath><clipPath id="1f203b736f"><path d="M 0 0.03125 L 224.761719 0.03125 L 224.761719 119.96875 L 0 119.96875 Z M 0 0.03125 " clip-rule="nonzero"/></clipPath><clipPath id="e1fe99a453"><path d="M 5.996094 0.03125 L 218.882812 0.03125 C 222.195312 0.03125 224.878906 2.71875 224.878906 6.027344 L 224.878906 114.992188 C 224.878906 118.304688 222.195312 120.988281 218.882812 120.988281 L 5.996094 120.988281 C 2.683594 120.988281 0 118.304688 0 114.992188 L 0 6.027344 C 0 2.71875 2.683594 0.03125 5.996094 0.03125 " clip-rule="nonzero"/></clipPath></defs><g clip-path="url(#19035878ed)"><path fill="#ffffff" d="M 0 0.03125 L 224.878906 0.03125 L 224.878906 127.464844 L 0 127.464844 Z M 0 0.03125 " fill-opacity="1" fill-rule="nonzero"/><path fill="#ffffff" d="M 0 0.03125 L 224.878906 0.03125 L 224.878906 119.96875 L 0 119.96875 Z M 0 0.03125 " fill-opacity="1" fill-rule="nonzero"/><path fill="#ffffff" d="M 0 0.03125 L 224.878906 0.03125 L 224.878906 119.96875 L 0 119.96875 Z M 0 0.03125 " fill-opacity="1" fill-rule="nonzero"/></g><g clip-path="url(#1f203b736f)"><g clip-path="url(#e1fe99a453)"><path fill="#8a2d88" d="M 0 0.03125 L 224.878906 0.03125 L 224.878906 120.988281 L 0 120.988281 Z M 0 0.03125 " fill-opacity="1" fill-rule="nonzero"/></g></g><g fill="#ffffff" fill-opacity="1"><g transform="translate(26.557265, 65.635372)"><g><path d="M 1.796875 0 L 1.796875 -14.296875 L 4.828125 -14.296875 L 4.828125 -2.5 L 10.625 -2.5 L 10.625 0 Z M 1.796875 0 "/></g></g></g><g fill="#ffffff" fill-opacity="1"><g transform="translate(37.865877, 65.635372)"><g><path d="M 10.03125 0 L 1.796875 0 L 1.796875 -14.296875 L 10.03125 -14.296875 L 10.03125 -11.8125 L 4.828125 -11.8125 L 4.828125 -8.671875 L 9.671875 -8.671875 L 9.671875 -6.1875 L 4.828125 -6.1875 L 4.828125 -2.5 L 10.03125 -2.5 Z M 10.03125 0 "/></g></g></g><g fill="#ffffff" fill-opacity="1"><g transform="translate(49.076749, 65.635372)"><g/></g></g><g fill="#ffffff" fill-opacity="1"><g transform="translate(54.276561, 65.635372)"><g><path d="M 7.859375 0 L 4.40625 -11.21875 L 4.328125 -11.21875 C 4.453125 -8.9375 4.515625 -7.414062 4.515625 -6.65625 L 4.515625 0 L 1.796875 0 L 1.796875 -14.296875 L 5.921875 -14.296875 L 9.3125 -3.359375 L 9.375 -3.359375 L 12.953125 -14.296875 L 17.09375 -14.296875 L 17.09375 0 L 14.265625 0 L 14.265625 -6.765625 C 14.265625 -7.085938 14.269531 -7.457031 14.28125 -7.875 C 14.289062 -8.289062 14.332031 -9.398438 14.40625 -11.203125 L 14.3125 -11.203125 L 10.625 0 Z M 7.859375 0 "/></g></g></g><g fill="#ffffff" fill-opacity="1"><g transform="translate(73.150313, 65.635372)"><g><path d="M 1.796875 0 L 1.796875 -14.296875 L 4.828125 -14.296875 L 4.828125 0 Z M 1.796875 0 "/></g></g></g><g fill="#ffffff" fill-opacity="1"><g transform="translate(79.77714, 65.635372)"><g><path d="M 7.875 -11.984375 C 6.726562 -11.984375 5.84375 -11.550781 5.21875 -10.6875 C 4.59375 -9.832031 4.28125 -8.640625 4.28125 -7.109375 C 4.28125 -3.921875 5.476562 -2.328125 7.875 -2.328125 C 8.875 -2.328125 10.085938 -2.578125 11.515625 -3.078125 L 11.515625 -0.53125 C 10.347656 -0.0390625 9.039062 0.203125 7.59375 0.203125 C 5.507812 0.203125 3.914062 -0.425781 2.8125 -1.6875 C 1.707031 -2.957031 1.15625 -4.769531 1.15625 -7.125 C 1.15625 -8.613281 1.425781 -9.914062 1.96875 -11.03125 C 2.507812 -12.15625 3.285156 -13.015625 4.296875 -13.609375 C 5.316406 -14.203125 6.507812 -14.5 7.875 -14.5 C 9.257812 -14.5 10.65625 -14.164062 12.0625 -13.5 L 11.078125 -11.03125 C 10.546875 -11.289062 10.007812 -11.515625 9.46875 -11.703125 C 8.925781 -11.890625 8.394531 -11.984375 7.875 -11.984375 Z M 7.875 -11.984375 "/></g></g></g><g fill="#ffffff" fill-opacity="1"><g transform="translate(92.532317, 65.635372)"><g><path d="M 4.828125 -7.953125 L 5.8125 -7.953125 C 6.769531 -7.953125 7.472656 -8.109375 7.921875 -8.421875 C 8.378906 -8.742188 8.609375 -9.25 8.609375 -9.9375 C 8.609375 -10.613281 8.375 -11.09375 7.90625 -11.375 C 7.445312 -11.664062 6.726562 -11.8125 5.75 -11.8125 L 4.828125 -11.8125 Z M 4.828125 -5.484375 L 4.828125 0 L 1.796875 0 L 1.796875 -14.296875 L 5.96875 -14.296875 C 7.90625 -14.296875 9.335938 -13.941406 10.265625 -13.234375 C 11.203125 -12.523438 11.671875 -11.453125 11.671875 -10.015625 C 11.671875 -9.171875 11.441406 -8.421875 10.984375 -7.765625 C 10.523438 -7.109375 9.867188 -6.597656 9.015625 -6.234375 C 11.171875 -3.015625 12.570312 -0.9375 13.21875 0 L 9.859375 0 L 6.453125 -5.484375 Z M 4.828125 -5.484375 "/></g></g></g><g fill="#ffffff" fill-opacity="1"><g transform="translate(105.746876, 65.635372)"><g><path d="M 14.78125 -7.171875 C 14.78125 -4.804688 14.191406 -2.984375 13.015625 -1.703125 C 11.835938 -0.429688 10.15625 0.203125 7.96875 0.203125 C 5.78125 0.203125 4.097656 -0.429688 2.921875 -1.703125 C 1.742188 -2.984375 1.15625 -4.8125 1.15625 -7.1875 C 1.15625 -9.570312 1.742188 -11.390625 2.921875 -12.640625 C 4.097656 -13.898438 5.785156 -14.53125 7.984375 -14.53125 C 10.179688 -14.53125 11.863281 -13.894531 13.03125 -12.625 C 14.195312 -11.363281 14.78125 -9.546875 14.78125 -7.171875 Z M 4.34375 -7.171875 C 4.34375 -5.566406 4.644531 -4.359375 5.25 -3.546875 C 5.851562 -2.742188 6.757812 -2.34375 7.96875 -2.34375 C 10.382812 -2.34375 11.59375 -3.953125 11.59375 -7.171875 C 11.59375 -10.390625 10.390625 -12 7.984375 -12 C 6.785156 -12 5.878906 -11.59375 5.265625 -10.78125 C 4.648438 -9.96875 4.34375 -8.765625 4.34375 -7.171875 Z M 4.34375 -7.171875 "/></g></g></g><g fill="#ffffff" fill-opacity="1"><g transform="translate(121.678629, 65.635372)"><g><path d="M 10.234375 -3.96875 C 10.234375 -2.675781 9.769531 -1.65625 8.84375 -0.90625 C 7.914062 -0.164062 6.625 0.203125 4.96875 0.203125 C 3.445312 0.203125 2.097656 -0.0859375 0.921875 -0.671875 L 0.921875 -3.484375 C 1.878906 -3.054688 2.691406 -2.753906 3.359375 -2.578125 C 4.035156 -2.398438 4.648438 -2.3125 5.203125 -2.3125 C 5.867188 -2.3125 6.378906 -2.4375 6.734375 -2.6875 C 7.085938 -2.945312 7.265625 -3.328125 7.265625 -3.828125 C 7.265625 -4.109375 7.1875 -4.359375 7.03125 -4.578125 C 6.875 -4.796875 6.644531 -5.003906 6.34375 -5.203125 C 6.039062 -5.398438 5.421875 -5.722656 4.484375 -6.171875 C 3.609375 -6.578125 2.953125 -6.96875 2.515625 -7.34375 C 2.085938 -7.726562 1.738281 -8.171875 1.46875 -8.671875 C 1.207031 -9.171875 1.078125 -9.757812 1.078125 -10.4375 C 1.078125 -11.695312 1.503906 -12.6875 2.359375 -13.40625 C 3.222656 -14.132812 4.410156 -14.5 5.921875 -14.5 C 6.671875 -14.5 7.378906 -14.410156 8.046875 -14.234375 C 8.722656 -14.066406 9.429688 -13.820312 10.171875 -13.5 L 9.1875 -11.140625 C 8.425781 -11.453125 7.796875 -11.671875 7.296875 -11.796875 C 6.796875 -11.921875 6.304688 -11.984375 5.828125 -11.984375 C 5.253906 -11.984375 4.8125 -11.847656 4.5 -11.578125 C 4.195312 -11.304688 4.046875 -10.957031 4.046875 -10.53125 C 4.046875 -10.269531 4.109375 -10.035156 4.234375 -9.828125 C 4.359375 -9.628906 4.554688 -9.4375 4.828125 -9.25 C 5.097656 -9.070312 5.738281 -8.738281 6.75 -8.25 C 8.082031 -7.613281 8.992188 -6.972656 9.484375 -6.328125 C 9.984375 -5.691406 10.234375 -4.90625 10.234375 -3.96875 Z M 10.234375 -3.96875 "/></g></g></g><g fill="#ffffff" fill-opacity="1"><g transform="translate(132.703793, 65.635372)"><g><path d="M 15.734375 0 L 12.28125 0 L 10.34375 -7.515625 C 10.269531 -7.773438 10.144531 -8.320312 9.96875 -9.15625 C 9.800781 -10 9.703125 -10.566406 9.671875 -10.859375 C 9.628906 -10.503906 9.53125 -9.9375 9.375 -9.15625 C 9.21875 -8.375 9.097656 -7.816406 9.015625 -7.484375 L 7.09375 0 L 3.640625 0 L 0 -14.296875 L 2.984375 -14.296875 L 4.8125 -6.5 C 5.132812 -5.050781 5.363281 -3.800781 5.5 -2.75 C 5.539062 -3.125 5.628906 -3.695312 5.765625 -4.46875 C 5.910156 -5.25 6.046875 -5.859375 6.171875 -6.296875 L 8.25 -14.296875 L 11.125 -14.296875 L 13.203125 -6.296875 C 13.296875 -5.929688 13.410156 -5.378906 13.546875 -4.640625 C 13.679688 -3.910156 13.785156 -3.28125 13.859375 -2.75 C 13.921875 -3.257812 14.023438 -3.894531 14.171875 -4.65625 C 14.316406 -5.414062 14.445312 -6.03125 14.5625 -6.5 L 16.390625 -14.296875 L 19.359375 -14.296875 Z M 15.734375 0 "/></g></g></g><g fill="#ffffff" fill-opacity="1"><g transform="translate(152.056475, 65.635372)"><g><path d="M 1.796875 0 L 1.796875 -14.296875 L 4.828125 -14.296875 L 4.828125 0 Z M 1.796875 0 "/></g></g></g><g fill="#ffffff" fill-opacity="1"><g transform="translate(158.683303, 65.635372)"><g><path d="M 7.3125 0 L 4.28125 0 L 4.28125 -11.78125 L 0.40625 -11.78125 L 0.40625 -14.296875 L 11.203125 -14.296875 L 11.203125 -11.78125 L 7.3125 -11.78125 Z M 7.3125 0 "/></g></g></g><g fill="#ffffff" fill-opacity="1"><g transform="translate(170.275364, 65.635372)"><g><path d="M 7.875 -11.984375 C 6.726562 -11.984375 5.84375 -11.550781 5.21875 -10.6875 C 4.59375 -9.832031 4.28125 -8.640625 4.28125 -7.109375 C 4.28125 -3.921875 5.476562 -2.328125 7.875 -2.328125 C 8.875 -2.328125 10.085938 -2.578125 11.515625 -3.078125 L 11.515625 -0.53125 C 10.347656 -0.0390625 9.039062 0.203125 7.59375 0.203125 C 5.507812 0.203125 3.914062 -0.425781 2.8125 -1.6875 C 1.707031 -2.957031 1.15625 -4.769531 1.15625 -7.125 C 1.15625 -8.613281 1.425781 -9.914062 1.96875 -11.03125 C 2.507812 -12.15625 3.285156 -13.015625 4.296875 -13.609375 C 5.316406 -14.203125 6.507812 -14.5 7.875 -14.5 C 9.257812 -14.5 10.65625 -14.164062 12.0625 -13.5 L 11.078125 -11.03125 C 10.546875 -11.289062 10.007812 -11.515625 9.46875 -11.703125 C 8.925781 -11.890625 8.394531 -11.984375 7.875 -11.984375 Z M 7.875 -11.984375 "/></g></g></g><g fill="#ffffff" fill-opacity="1"><g transform="translate(183.030541, 65.635372)"><g><path d="M 13.515625 0 L 10.5 0 L 10.5 -6.171875 L 4.828125 -6.171875 L 4.828125 0 L 1.796875 0 L 1.796875 -14.296875 L 4.828125 -14.296875 L 4.828125 -8.6875 L 10.5 -8.6875 L 10.5 -14.296875 L 13.515625 -14.296875 Z M 13.515625 0 "/></g></g></g></svg>