<svg xmlns="http://www.w3.org/2000/svg" xmlns:xlink="http://www.w3.org/1999/xlink" width="300" zoomAndPan="magnify" viewBox="0 0 224.87999 119.999999" height="160" preserveAspectRatio="xMidYMid meet" version="1.0"><defs><g/><clipPath id="b60bab2d02"><path d="M 0 0.03125 L 224.761719 0.03125 L 224.761719 119.96875 L 0 119.96875 Z M 0 0.03125 " clip-rule="nonzero"/></clipPath><clipPath id="32e5867a0b"><path d="M 0 0.03125 L 224.761719 0.03125 L 224.761719 119.96875 L 0 119.96875 Z M 0 0.03125 " clip-rule="nonzero"/></clipPath><clipPath id="808e106ee2"><path d="M 5.996094 0.03125 L 218.882812 0.03125 C 222.195312 0.03125 224.878906 2.71875 224.878906 6.027344 L 224.878906 114.992188 C 224.878906 118.304688 222.195312 120.988281 218.882812 120.988281 L 5.996094 120.988281 C 2.683594 120.988281 0 118.304688 0 114.992188 L 0 6.027344 C 0 2.71875 2.683594 0.03125 5.996094 0.03125 " clip-rule="nonzero"/></clipPath></defs><g clip-path="url(#b60bab2d02)"><path fill="#ffffff" d="M 0 0.03125 L 224.878906 0.03125 L 224.878906 127.464844 L 0 127.464844 Z M 0 0.03125 " fill-opacity="1" fill-rule="nonzero"/><path fill="#ffffff" d="M 0 0.03125 L 224.878906 0.03125 L 224.878906 119.96875 L 0 119.96875 Z M 0 0.03125 " fill-opacity="1" fill-rule="nonzero"/><path fill="#ffffff" d="M 0 0.03125 L 224.878906 0.03125 L 224.878906 119.96875 L 0 119.96875 Z M 0 0.03125 " fill-opacity="1" fill-rule="nonzero"/></g><g clip-path="url(#32e5867a0b)"><g clip-path="url(#808e106ee2)"><path fill="#233f93" d="M 0 0.03125 L 224.878906 0.03125 L 224.878906 120.988281 L 0 120.988281 Z M 0 0.03125 " fill-opacity="1" fill-rule="nonzero"/></g></g><g fill="#ffffff" fill-opacity="1"><g transform="translate(40.38685, 52.486166)"><g><path d="M 10.234375 -3.96875 C 10.234375 -2.675781 9.769531 -1.65625 8.84375 -0.90625 C 7.914062 -0.164062 6.625 0.203125 4.96875 0.203125 C 3.445312 0.203125 2.097656 -0.0859375 0.921875 -0.671875 L 0.921875 -3.484375 C 1.878906 -3.054688 2.691406 -2.753906 3.359375 -2.578125 C 4.035156 -2.398438 4.648438 -2.3125 5.203125 -2.3125 C 5.867188 -2.3125 6.378906 -2.4375 6.734375 -2.6875 C 7.085938 -2.945312 7.265625 -3.328125 7.265625 -3.828125 C 7.265625 -4.109375 7.1875 -4.359375 7.03125 -4.578125 C 6.875 -4.796875 6.644531 -5.003906 6.34375 -5.203125 C 6.039062 -5.398438 5.421875 -5.722656 4.484375 -6.171875 C 3.609375 -6.578125 2.953125 -6.96875 2.515625 -7.34375 C 2.085938 -7.726562 1.738281 -8.171875 1.46875 -8.671875 C 1.207031 -9.171875 1.078125 -9.757812 1.078125 -10.4375 C 1.078125 -11.695312 1.503906 -12.6875 2.359375 -13.40625 C 3.222656 -14.132812 4.410156 -14.5 5.921875 -14.5 C 6.671875 -14.5 7.378906 -14.410156 8.046875 -14.234375 C 8.722656 -14.066406 9.429688 -13.820312 10.171875 -13.5 L 9.1875 -11.140625 C 8.425781 -11.453125 7.796875 -11.671875 7.296875 -11.796875 C 6.796875 -11.921875 6.304688 -11.984375 5.828125 -11.984375 C 5.253906 -11.984375 4.8125 -11.847656 4.5 -11.578125 C 4.195312 -11.304688 4.046875 -10.957031 4.046875 -10.53125 C 4.046875 -10.269531 4.109375 -10.035156 4.234375 -9.828125 C 4.359375 -9.628906 4.554688 -9.4375 4.828125 -9.25 C 5.097656 -9.070312 5.738281 -8.738281 6.75 -8.25 C 8.082031 -7.613281 8.992188 -6.972656 9.484375 -6.328125 C 9.984375 -5.691406 10.234375 -4.90625 10.234375 -3.96875 Z M 10.234375 -3.96875 "/></g></g></g><g fill="#ffffff" fill-opacity="1"><g transform="translate(51.412015, 52.486166)"><g><path d="M 6.09375 -9.015625 C 5.457031 -9.015625 4.957031 -8.8125 4.59375 -8.40625 C 4.238281 -8.007812 4.035156 -7.441406 3.984375 -6.703125 L 8.171875 -6.703125 C 8.160156 -7.441406 7.96875 -8.007812 7.59375 -8.40625 C 7.226562 -8.8125 6.726562 -9.015625 6.09375 -9.015625 Z M 6.515625 0.203125 C 4.753906 0.203125 3.378906 -0.28125 2.390625 -1.25 C 1.398438 -2.226562 0.90625 -3.609375 0.90625 -5.390625 C 0.90625 -7.222656 1.359375 -8.640625 2.265625 -9.640625 C 3.179688 -10.640625 4.453125 -11.140625 6.078125 -11.140625 C 7.617188 -11.140625 8.816406 -10.695312 9.671875 -9.8125 C 10.535156 -8.9375 10.96875 -7.722656 10.96875 -6.171875 L 10.96875 -4.71875 L 3.921875 -4.71875 C 3.953125 -3.875 4.203125 -3.210938 4.671875 -2.734375 C 5.140625 -2.265625 5.800781 -2.03125 6.65625 -2.03125 C 7.3125 -2.03125 7.929688 -2.097656 8.515625 -2.234375 C 9.109375 -2.367188 9.722656 -2.585938 10.359375 -2.890625 L 10.359375 -0.578125 C 9.835938 -0.316406 9.28125 -0.125 8.6875 0 C 8.09375 0.132812 7.367188 0.203125 6.515625 0.203125 Z M 6.515625 0.203125 "/></g></g></g><g fill="#ffffff" fill-opacity="1"><g transform="translate(63.238654, 52.486166)"><g><path d="M 11.65625 0 L 8.671875 0 L 8.671875 -6.390625 C 8.671875 -7.179688 8.53125 -7.769531 8.25 -8.15625 C 7.96875 -8.550781 7.523438 -8.75 6.921875 -8.75 C 6.078125 -8.75 5.46875 -8.46875 5.09375 -7.90625 C 4.726562 -7.351562 4.546875 -6.429688 4.546875 -5.140625 L 4.546875 0 L 1.5625 0 L 1.5625 -10.9375 L 3.84375 -10.9375 L 4.25 -9.53125 L 4.40625 -9.53125 C 4.738281 -10.0625 5.195312 -10.460938 5.78125 -10.734375 C 6.363281 -11.003906 7.03125 -11.140625 7.78125 -11.140625 C 9.050781 -11.140625 10.015625 -10.796875 10.671875 -10.109375 C 11.328125 -9.421875 11.65625 -8.425781 11.65625 -7.125 Z M 11.65625 0 "/></g></g></g><g fill="#ffffff" fill-opacity="1"><g transform="translate(76.394568, 52.486166)"><g><path d="M 9.1875 -3.25 C 9.1875 -2.125 8.796875 -1.265625 8.015625 -0.671875 C 7.242188 -0.0859375 6.082031 0.203125 4.53125 0.203125 C 3.726562 0.203125 3.046875 0.144531 2.484375 0.03125 C 1.929688 -0.0703125 1.410156 -0.226562 0.921875 -0.4375 L 0.921875 -2.90625 C 1.472656 -2.644531 2.09375 -2.425781 2.78125 -2.25 C 3.476562 -2.070312 4.09375 -1.984375 4.625 -1.984375 C 5.707031 -1.984375 6.25 -2.296875 6.25 -2.921875 C 6.25 -3.160156 6.175781 -3.351562 6.03125 -3.5 C 5.882812 -3.644531 5.632812 -3.8125 5.28125 -4 C 4.9375 -4.1875 4.472656 -4.398438 3.890625 -4.640625 C 3.046875 -4.992188 2.425781 -5.320312 2.03125 -5.625 C 1.632812 -5.925781 1.347656 -6.269531 1.171875 -6.65625 C 0.992188 -7.039062 0.90625 -7.519531 0.90625 -8.09375 C 0.90625 -9.0625 1.28125 -9.8125 2.03125 -10.34375 C 2.78125 -10.875 3.847656 -11.140625 5.234375 -11.140625 C 6.546875 -11.140625 7.828125 -10.851562 9.078125 -10.28125 L 8.171875 -8.125 C 7.628906 -8.363281 7.117188 -8.554688 6.640625 -8.703125 C 6.160156 -8.859375 5.675781 -8.9375 5.1875 -8.9375 C 4.300781 -8.9375 3.859375 -8.695312 3.859375 -8.21875 C 3.859375 -7.945312 4 -7.710938 4.28125 -7.515625 C 4.570312 -7.328125 5.195312 -7.039062 6.15625 -6.65625 C 7.007812 -6.300781 7.632812 -5.972656 8.03125 -5.671875 C 8.425781 -5.378906 8.71875 -5.035156 8.90625 -4.640625 C 9.09375 -4.253906 9.1875 -3.789062 9.1875 -3.25 Z M 9.1875 -3.25 "/></g></g></g><g fill="#ffffff" fill-opacity="1"><g transform="translate(86.344583, 52.486166)"><g><path d="M 3.9375 -5.484375 C 3.9375 -4.398438 4.113281 -3.582031 4.46875 -3.03125 C 4.832031 -2.476562 5.410156 -2.203125 6.203125 -2.203125 C 7.003906 -2.203125 7.578125 -2.476562 7.921875 -3.03125 C 8.273438 -3.582031 8.453125 -4.398438 8.453125 -5.484375 C 8.453125 -6.566406 8.273438 -7.378906 7.921875 -7.921875 C 7.566406 -8.460938 6.988281 -8.734375 6.1875 -8.734375 C 5.394531 -8.734375 4.820312 -8.460938 4.46875 -7.921875 C 4.113281 -7.390625 3.9375 -6.578125 3.9375 -5.484375 Z M 11.5 -5.484375 C 11.5 -3.703125 11.03125 -2.304688 10.09375 -1.296875 C 9.15625 -0.296875 7.847656 0.203125 6.171875 0.203125 C 5.117188 0.203125 4.191406 -0.0234375 3.390625 -0.484375 C 2.585938 -0.953125 1.972656 -1.613281 1.546875 -2.46875 C 1.117188 -3.332031 0.90625 -4.335938 0.90625 -5.484375 C 0.90625 -7.273438 1.367188 -8.664062 2.296875 -9.65625 C 3.234375 -10.644531 4.546875 -11.140625 6.234375 -11.140625 C 7.285156 -11.140625 8.210938 -10.910156 9.015625 -10.453125 C 9.816406 -9.992188 10.429688 -9.335938 10.859375 -8.484375 C 11.285156 -7.628906 11.5 -6.628906 11.5 -5.484375 Z M 11.5 -5.484375 "/></g></g></g><g fill="#ffffff" fill-opacity="1"><g transform="translate(98.738119, 52.486166)"><g><path d="M 7.671875 -11.140625 C 8.078125 -11.140625 8.410156 -11.109375 8.671875 -11.046875 L 8.453125 -8.25 C 8.210938 -8.320312 7.921875 -8.359375 7.578125 -8.359375 C 6.617188 -8.359375 5.875 -8.113281 5.34375 -7.625 C 4.8125 -7.132812 4.546875 -6.445312 4.546875 -5.5625 L 4.546875 0 L 1.5625 0 L 1.5625 -10.9375 L 3.828125 -10.9375 L 4.265625 -9.09375 L 4.40625 -9.09375 C 4.75 -9.707031 5.207031 -10.203125 5.78125 -10.578125 C 6.363281 -10.953125 6.992188 -11.140625 7.671875 -11.140625 Z M 7.671875 -11.140625 "/></g></g></g><g fill="#ffffff" fill-opacity="1"><g transform="translate(107.828015, 52.486166)"><g><path d="M 1.4375 -13.765625 C 1.4375 -14.734375 1.976562 -15.21875 3.0625 -15.21875 C 4.144531 -15.21875 4.6875 -14.734375 4.6875 -13.765625 C 4.6875 -13.296875 4.550781 -12.929688 4.28125 -12.671875 C 4.007812 -12.421875 3.601562 -12.296875 3.0625 -12.296875 C 1.976562 -12.296875 1.4375 -12.785156 1.4375 -13.765625 Z M 4.546875 0 L 1.5625 0 L 1.5625 -10.9375 L 4.546875 -10.9375 Z M 4.546875 0 "/></g></g></g><g fill="#ffffff" fill-opacity="1"><g transform="translate(113.936816, 52.486166)"><g><path d="M 8.515625 0 L 7.9375 -1.484375 L 7.859375 -1.484375 C 7.347656 -0.847656 6.828125 -0.40625 6.296875 -0.15625 C 5.765625 0.0820312 5.070312 0.203125 4.21875 0.203125 C 3.175781 0.203125 2.351562 -0.0976562 1.75 -0.703125 C 1.144531 -1.304688 0.84375 -2.160156 0.84375 -3.265625 C 0.84375 -4.429688 1.25 -5.285156 2.0625 -5.828125 C 2.875 -6.378906 4.097656 -6.6875 5.734375 -6.75 L 7.625 -6.8125 L 7.625 -7.28125 C 7.625 -8.394531 7.054688 -8.953125 5.921875 -8.953125 C 5.046875 -8.953125 4.019531 -8.6875 2.84375 -8.15625 L 1.859375 -10.171875 C 3.117188 -10.828125 4.515625 -11.15625 6.046875 -11.15625 C 7.515625 -11.15625 8.640625 -10.835938 9.421875 -10.203125 C 10.203125 -9.566406 10.59375 -8.59375 10.59375 -7.28125 L 10.59375 0 Z M 7.625 -5.0625 L 6.46875 -5.03125 C 5.601562 -5 4.957031 -4.835938 4.53125 -4.546875 C 4.113281 -4.265625 3.90625 -3.832031 3.90625 -3.25 C 3.90625 -2.40625 4.382812 -1.984375 5.34375 -1.984375 C 6.039062 -1.984375 6.59375 -2.179688 7 -2.578125 C 7.414062 -2.972656 7.625 -3.503906 7.625 -4.171875 Z M 7.625 -5.0625 "/></g></g></g><g fill="#ffffff" fill-opacity="1"><g transform="translate(126.027355, 52.486166)"><g><path d="M 4.546875 0 L 1.5625 0 L 1.5625 -15.21875 L 4.546875 -15.21875 Z M 4.546875 0 "/></g></g></g><g fill="#ffffff" fill-opacity="1"><g transform="translate(132.136157, 52.486166)"><g><path d="M 1.4375 -13.765625 C 1.4375 -14.734375 1.976562 -15.21875 3.0625 -15.21875 C 4.144531 -15.21875 4.6875 -14.734375 4.6875 -13.765625 C 4.6875 -13.296875 4.550781 -12.929688 4.28125 -12.671875 C 4.007812 -12.421875 3.601562 -12.296875 3.0625 -12.296875 C 1.976562 -12.296875 1.4375 -12.785156 1.4375 -13.765625 Z M 4.546875 0 L 1.5625 0 L 1.5625 -10.9375 L 4.546875 -10.9375 Z M 4.546875 0 "/></g></g></g><g fill="#ffffff" fill-opacity="1"><g transform="translate(138.244958, 52.486166)"><g><path d="M 6.171875 -2.1875 C 6.691406 -2.1875 7.316406 -2.300781 8.046875 -2.53125 L 8.046875 -0.296875 C 7.304688 0.0351562 6.394531 0.203125 5.3125 0.203125 C 4.113281 0.203125 3.242188 -0.0976562 2.703125 -0.703125 C 2.160156 -1.304688 1.890625 -2.210938 1.890625 -3.421875 L 1.890625 -8.6875 L 0.453125 -8.6875 L 0.453125 -9.953125 L 2.109375 -10.953125 L 2.96875 -13.265625 L 4.875 -13.265625 L 4.875 -10.9375 L 7.9375 -10.9375 L 7.9375 -8.6875 L 4.875 -8.6875 L 4.875 -3.421875 C 4.875 -2.992188 4.988281 -2.679688 5.21875 -2.484375 C 5.457031 -2.285156 5.773438 -2.1875 6.171875 -2.1875 Z M 6.171875 -2.1875 "/></g></g></g><g fill="#ffffff" fill-opacity="1"><g transform="translate(146.934116, 52.486166)"><g><path d="M 6.09375 -9.015625 C 5.457031 -9.015625 4.957031 -8.8125 4.59375 -8.40625 C 4.238281 -8.007812 4.035156 -7.441406 3.984375 -6.703125 L 8.171875 -6.703125 C 8.160156 -7.441406 7.96875 -8.007812 7.59375 -8.40625 C 7.226562 -8.8125 6.726562 -9.015625 6.09375 -9.015625 Z M 6.515625 0.203125 C 4.753906 0.203125 3.378906 -0.28125 2.390625 -1.25 C 1.398438 -2.226562 0.90625 -3.609375 0.90625 -5.390625 C 0.90625 -7.222656 1.359375 -8.640625 2.265625 -9.640625 C 3.179688 -10.640625 4.453125 -11.140625 6.078125 -11.140625 C 7.617188 -11.140625 8.816406 -10.695312 9.671875 -9.8125 C 10.535156 -8.9375 10.96875 -7.722656 10.96875 -6.171875 L 10.96875 -4.71875 L 3.921875 -4.71875 C 3.953125 -3.875 4.203125 -3.210938 4.671875 -2.734375 C 5.140625 -2.265625 5.800781 -2.03125 6.65625 -2.03125 C 7.3125 -2.03125 7.929688 -2.097656 8.515625 -2.234375 C 9.109375 -2.367188 9.722656 -2.585938 10.359375 -2.890625 L 10.359375 -0.578125 C 9.835938 -0.316406 9.28125 -0.125 8.6875 0 C 8.09375 0.132812 7.367188 0.203125 6.515625 0.203125 Z M 4.375 -12.140625 L 4.375 -12.40625 C 5.488281 -13.707031 6.253906 -14.6875 6.671875 -15.34375 L 10.015625 -15.34375 L 10.015625 -15.140625 C 9.671875 -14.796875 9.085938 -14.289062 8.265625 -13.625 C 7.453125 -12.957031 6.816406 -12.460938 6.359375 -12.140625 Z M 4.375 -12.140625 "/></g></g></g><g fill="#ffffff" fill-opacity="1"><g transform="translate(158.760756, 52.486166)"><g/></g></g><g fill="#ffffff" fill-opacity="1"><g transform="translate(163.960567, 52.486166)"><g><path d="M 6.09375 -9.015625 C 5.457031 -9.015625 4.957031 -8.8125 4.59375 -8.40625 C 4.238281 -8.007812 4.035156 -7.441406 3.984375 -6.703125 L 8.171875 -6.703125 C 8.160156 -7.441406 7.96875 -8.007812 7.59375 -8.40625 C 7.226562 -8.8125 6.726562 -9.015625 6.09375 -9.015625 Z M 6.515625 0.203125 C 4.753906 0.203125 3.378906 -0.28125 2.390625 -1.25 C 1.398438 -2.226562 0.90625 -3.609375 0.90625 -5.390625 C 0.90625 -7.222656 1.359375 -8.640625 2.265625 -9.640625 C 3.179688 -10.640625 4.453125 -11.140625 6.078125 -11.140625 C 7.617188 -11.140625 8.816406 -10.695312 9.671875 -9.8125 C 10.535156 -8.9375 10.96875 -7.722656 10.96875 -6.171875 L 10.96875 -4.71875 L 3.921875 -4.71875 C 3.953125 -3.875 4.203125 -3.210938 4.671875 -2.734375 C 5.140625 -2.265625 5.800781 -2.03125 6.65625 -2.03125 C 7.3125 -2.03125 7.929688 -2.097656 8.515625 -2.234375 C 9.109375 -2.367188 9.722656 -2.585938 10.359375 -2.890625 L 10.359375 -0.578125 C 9.835938 -0.316406 9.28125 -0.125 8.6875 0 C 8.09375 0.132812 7.367188 0.203125 6.515625 0.203125 Z M 6.515625 0.203125 "/></g></g></g><g fill="#ffffff" fill-opacity="1"><g transform="translate(175.787206, 52.486166)"><g><path d="M 6.171875 -2.1875 C 6.691406 -2.1875 7.316406 -2.300781 8.046875 -2.53125 L 8.046875 -0.296875 C 7.304688 0.0351562 6.394531 0.203125 5.3125 0.203125 C 4.113281 0.203125 3.242188 -0.0976562 2.703125 -0.703125 C 2.160156 -1.304688 1.890625 -2.210938 1.890625 -3.421875 L 1.890625 -8.6875 L 0.453125 -8.6875 L 0.453125 -9.953125 L 2.109375 -10.953125 L 2.96875 -13.265625 L 4.875 -13.265625 L 4.875 -10.9375 L 7.9375 -10.9375 L 7.9375 -8.6875 L 4.875 -8.6875 L 4.875 -3.421875 C 4.875 -2.992188 4.988281 -2.679688 5.21875 -2.484375 C 5.457031 -2.285156 5.773438 -2.1875 6.171875 -2.1875 Z M 6.171875 -2.1875 "/></g></g></g><g fill="#ffffff" fill-opacity="1"><g transform="translate(66.010193, 78.78458)"><g><path d="M 11.359375 0 L 8.375 0 L 8.375 -6.390625 C 8.375 -7.179688 8.238281 -7.769531 7.96875 -8.15625 C 7.707031 -8.550781 7.296875 -8.75 6.734375 -8.75 C 5.960938 -8.75 5.40625 -8.46875 5.0625 -7.90625 C 4.71875 -7.351562 4.546875 -6.429688 4.546875 -5.140625 L 4.546875 0 L 1.5625 0 L 1.5625 -10.9375 L 3.84375 -10.9375 L 4.25 -9.53125 L 4.40625 -9.53125 C 4.695312 -10.039062 5.117188 -10.4375 5.671875 -10.71875 C 6.234375 -11 6.875 -11.140625 7.59375 -11.140625 C 9.226562 -11.140625 10.335938 -10.601562 10.921875 -9.53125 L 11.171875 -9.53125 C 11.472656 -10.039062 11.90625 -10.4375 12.46875 -10.71875 C 13.039062 -11 13.6875 -11.140625 14.40625 -11.140625 C 15.644531 -11.140625 16.582031 -10.820312 17.21875 -10.1875 C 17.851562 -9.550781 18.171875 -8.53125 18.171875 -7.125 L 18.171875 0 L 15.1875 0 L 15.1875 -6.390625 C 15.1875 -7.179688 15.050781 -7.769531 14.78125 -8.15625 C 14.519531 -8.550781 14.101562 -8.75 13.53125 -8.75 C 12.800781 -8.75 12.253906 -8.488281 11.890625 -7.96875 C 11.535156 -7.445312 11.359375 -6.617188 11.359375 -5.484375 Z M 11.359375 0 "/></g></g></g><g fill="#ffffff" fill-opacity="1"><g transform="translate(85.665872, 78.78458)"><g><path d="M 3.9375 -5.484375 C 3.9375 -4.398438 4.113281 -3.582031 4.46875 -3.03125 C 4.832031 -2.476562 5.410156 -2.203125 6.203125 -2.203125 C 7.003906 -2.203125 7.578125 -2.476562 7.921875 -3.03125 C 8.273438 -3.582031 8.453125 -4.398438 8.453125 -5.484375 C 8.453125 -6.566406 8.273438 -7.378906 7.921875 -7.921875 C 7.566406 -8.460938 6.988281 -8.734375 6.1875 -8.734375 C 5.394531 -8.734375 4.820312 -8.460938 4.46875 -7.921875 C 4.113281 -7.390625 3.9375 -6.578125 3.9375 -5.484375 Z M 11.5 -5.484375 C 11.5 -3.703125 11.03125 -2.304688 10.09375 -1.296875 C 9.15625 -0.296875 7.847656 0.203125 6.171875 0.203125 C 5.117188 0.203125 4.191406 -0.0234375 3.390625 -0.484375 C 2.585938 -0.953125 1.972656 -1.613281 1.546875 -2.46875 C 1.117188 -3.332031 0.90625 -4.335938 0.90625 -5.484375 C 0.90625 -7.273438 1.367188 -8.664062 2.296875 -9.65625 C 3.234375 -10.644531 4.546875 -11.140625 6.234375 -11.140625 C 7.285156 -11.140625 8.210938 -10.910156 9.015625 -10.453125 C 9.816406 -9.992188 10.429688 -9.335938 10.859375 -8.484375 C 11.285156 -7.628906 11.5 -6.628906 11.5 -5.484375 Z M 11.5 -5.484375 "/></g></g></g><g fill="#ffffff" fill-opacity="1"><g transform="translate(98.059408, 78.78458)"><g><path d="M 6.171875 -2.1875 C 6.691406 -2.1875 7.316406 -2.300781 8.046875 -2.53125 L 8.046875 -0.296875 C 7.304688 0.0351562 6.394531 0.203125 5.3125 0.203125 C 4.113281 0.203125 3.242188 -0.0976562 2.703125 -0.703125 C 2.160156 -1.304688 1.890625 -2.210938 1.890625 -3.421875 L 1.890625 -8.6875 L 0.453125 -8.6875 L 0.453125 -9.953125 L 2.109375 -10.953125 L 2.96875 -13.265625 L 4.875 -13.265625 L 4.875 -10.9375 L 7.9375 -10.9375 L 7.9375 -8.6875 L 4.875 -8.6875 L 4.875 -3.421875 C 4.875 -2.992188 4.988281 -2.679688 5.21875 -2.484375 C 5.457031 -2.285156 5.773438 -2.1875 6.171875 -2.1875 Z M 6.171875 -2.1875 "/></g></g></g><g fill="#ffffff" fill-opacity="1"><g transform="translate(106.748567, 78.78458)"><g><path d="M 7.671875 -11.140625 C 8.078125 -11.140625 8.410156 -11.109375 8.671875 -11.046875 L 8.453125 -8.25 C 8.210938 -8.320312 7.921875 -8.359375 7.578125 -8.359375 C 6.617188 -8.359375 5.875 -8.113281 5.34375 -7.625 C 4.8125 -7.132812 4.546875 -6.445312 4.546875 -5.5625 L 4.546875 0 L 1.5625 0 L 1.5625 -10.9375 L 3.828125 -10.9375 L 4.265625 -9.09375 L 4.40625 -9.09375 C 4.75 -9.707031 5.207031 -10.203125 5.78125 -10.578125 C 6.363281 -10.953125 6.992188 -11.140625 7.671875 -11.140625 Z M 7.671875 -11.140625 "/></g></g></g><g fill="#ffffff" fill-opacity="1"><g transform="translate(115.838463, 78.78458)"><g><path d="M 1.4375 -13.765625 C 1.4375 -14.734375 1.976562 -15.21875 3.0625 -15.21875 C 4.144531 -15.21875 4.6875 -14.734375 4.6875 -13.765625 C 4.6875 -13.296875 4.550781 -12.929688 4.28125 -12.671875 C 4.007812 -12.421875 3.601562 -12.296875 3.0625 -12.296875 C 1.976562 -12.296875 1.4375 -12.785156 1.4375 -13.765625 Z M 4.546875 0 L 1.5625 0 L 1.5625 -10.9375 L 4.546875 -10.9375 Z M 4.546875 0 "/></g></g></g><g fill="#ffffff" fill-opacity="1"><g transform="translate(121.947264, 78.78458)"><g><path d="M 6 0.203125 C 2.601562 0.203125 0.90625 -1.664062 0.90625 -5.40625 C 0.90625 -7.269531 1.363281 -8.691406 2.28125 -9.671875 C 3.207031 -10.648438 4.535156 -11.140625 6.265625 -11.140625 C 7.535156 -11.140625 8.671875 -10.890625 9.671875 -10.390625 L 8.796875 -8.09375 C 8.328125 -8.28125 7.890625 -8.429688 7.484375 -8.546875 C 7.078125 -8.671875 6.671875 -8.734375 6.265625 -8.734375 C 4.710938 -8.734375 3.9375 -7.628906 3.9375 -5.421875 C 3.9375 -3.285156 4.710938 -2.21875 6.265625 -2.21875 C 6.835938 -2.21875 7.367188 -2.296875 7.859375 -2.453125 C 8.347656 -2.609375 8.835938 -2.847656 9.328125 -3.171875 L 9.328125 -0.609375 C 8.847656 -0.304688 8.359375 -0.0976562 7.859375 0.015625 C 7.367188 0.140625 6.75 0.203125 6 0.203125 Z M 6 0.203125 "/></g></g></g><g fill="#ffffff" fill-opacity="1"><g transform="translate(132.239372, 78.78458)"><g><path d="M 1.4375 -13.765625 C 1.4375 -14.734375 1.976562 -15.21875 3.0625 -15.21875 C 4.144531 -15.21875 4.6875 -14.734375 4.6875 -13.765625 C 4.6875 -13.296875 4.550781 -12.929688 4.28125 -12.671875 C 4.007812 -12.421875 3.601562 -12.296875 3.0625 -12.296875 C 1.976562 -12.296875 1.4375 -12.785156 1.4375 -13.765625 Z M 4.546875 0 L 1.5625 0 L 1.5625 -10.9375 L 4.546875 -10.9375 Z M 4.546875 0 "/></g></g></g><g fill="#ffffff" fill-opacity="1"><g transform="translate(138.348173, 78.78458)"><g><path d="M 6.171875 -2.1875 C 6.691406 -2.1875 7.316406 -2.300781 8.046875 -2.53125 L 8.046875 -0.296875 C 7.304688 0.0351562 6.394531 0.203125 5.3125 0.203125 C 4.113281 0.203125 3.242188 -0.0976562 2.703125 -0.703125 C 2.160156 -1.304688 1.890625 -2.210938 1.890625 -3.421875 L 1.890625 -8.6875 L 0.453125 -8.6875 L 0.453125 -9.953125 L 2.109375 -10.953125 L 2.96875 -13.265625 L 4.875 -13.265625 L 4.875 -10.9375 L 7.9375 -10.9375 L 7.9375 -8.6875 L 4.875 -8.6875 L 4.875 -3.421875 C 4.875 -2.992188 4.988281 -2.679688 5.21875 -2.484375 C 5.457031 -2.285156 5.773438 -2.1875 6.171875 -2.1875 Z M 6.171875 -2.1875 "/></g></g></g><g fill="#ffffff" fill-opacity="1"><g transform="translate(147.037332, 78.78458)"><g><path d="M 6.09375 -9.015625 C 5.457031 -9.015625 4.957031 -8.8125 4.59375 -8.40625 C 4.238281 -8.007812 4.035156 -7.441406 3.984375 -6.703125 L 8.171875 -6.703125 C 8.160156 -7.441406 7.96875 -8.007812 7.59375 -8.40625 C 7.226562 -8.8125 6.726562 -9.015625 6.09375 -9.015625 Z M 6.515625 0.203125 C 4.753906 0.203125 3.378906 -0.28125 2.390625 -1.25 C 1.398438 -2.226562 0.90625 -3.609375 0.90625 -5.390625 C 0.90625 -7.222656 1.359375 -8.640625 2.265625 -9.640625 C 3.179688 -10.640625 4.453125 -11.140625 6.078125 -11.140625 C 7.617188 -11.140625 8.816406 -10.695312 9.671875 -9.8125 C 10.535156 -8.9375 10.96875 -7.722656 10.96875 -6.171875 L 10.96875 -4.71875 L 3.921875 -4.71875 C 3.953125 -3.875 4.203125 -3.210938 4.671875 -2.734375 C 5.140625 -2.265625 5.800781 -2.03125 6.65625 -2.03125 C 7.3125 -2.03125 7.929688 -2.097656 8.515625 -2.234375 C 9.109375 -2.367188 9.722656 -2.585938 10.359375 -2.890625 L 10.359375 -0.578125 C 9.835938 -0.316406 9.28125 -0.125 8.6875 0 C 8.09375 0.132812 7.367188 0.203125 6.515625 0.203125 Z M 4.375 -12.140625 L 4.375 -12.40625 C 5.488281 -13.707031 6.253906 -14.6875 6.671875 -15.34375 L 10.015625 -15.34375 L 10.015625 -15.140625 C 9.671875 -14.796875 9.085938 -14.289062 8.265625 -13.625 C 7.453125 -12.957031 6.816406 -12.460938 6.359375 -12.140625 Z M 4.375 -12.140625 "/></g></g></g></svg>