<svg xmlns="http://www.w3.org/2000/svg" xmlns:xlink="http://www.w3.org/1999/xlink" width="150" zoomAndPan="magnify" viewBox="0 0 112.5 112.499997" height="150" preserveAspectRatio="xMidYMid meet" version="1.0"><defs><g/><clipPath id="8ff9c074fb"><path d="M 0 0 L 112.003906 0 L 112.003906 112.003906 L 0 112.003906 Z M 0 0 " clip-rule="nonzero"/></clipPath></defs><g clip-path="url(#8ff9c074fb)"><path fill="#ffffff" d="M 0 0 L 112.5 0 L 112.5 120 L 0 120 Z M 0 0 " fill-opacity="1" fill-rule="nonzero"/><path fill="#ffffff" d="M 0 0 L 112.5 0 L 112.5 112.5 L 0 112.5 Z M 0 0 " fill-opacity="1" fill-rule="nonzero"/><path fill="#00bf63" d="M 0 0 L 112.5 0 L 112.5 112.5 L 0 112.5 Z M 0 0 " fill-opacity="1" fill-rule="nonzero"/></g><g fill="#ffffff" fill-opacity="1"><g transform="translate(18.598567, 67.01182)"><g><path d="M 10.359375 -11.5 L 18.484375 -11.5 L 18.484375 -0.890625 C 17.171875 -0.453125 15.929688 -0.148438 14.765625 0.015625 C 13.597656 0.191406 12.410156 0.28125 11.203125 0.28125 C 8.109375 0.28125 5.742188 -0.625 4.109375 -2.4375 C 2.484375 -4.257812 1.671875 -6.867188 1.671875 -10.265625 C 1.671875 -13.578125 2.613281 -16.15625 4.5 -18 C 6.394531 -19.851562 9.019531 -20.78125 12.375 -20.78125 C 14.476562 -20.78125 16.503906 -20.359375 18.453125 -19.515625 L 17.015625 -16.046875 C 15.515625 -16.796875 13.957031 -17.171875 12.34375 -17.171875 C 10.46875 -17.171875 8.960938 -16.539062 7.828125 -15.28125 C 6.703125 -14.019531 6.140625 -12.320312 6.140625 -10.1875 C 6.140625 -7.96875 6.59375 -6.269531 7.5 -5.09375 C 8.414062 -3.914062 9.742188 -3.328125 11.484375 -3.328125 C 12.390625 -3.328125 13.304688 -3.421875 14.234375 -3.609375 L 14.234375 -7.890625 L 10.359375 -7.890625 Z M 10.359375 -11.5 "/></g></g><g transform="translate(39.379532, 67.01182)"><g><path d="M 14.375 0 L 2.578125 0 L 2.578125 -20.484375 L 14.375 -20.484375 L 14.375 -16.9375 L 6.921875 -16.9375 L 6.921875 -12.4375 L 13.859375 -12.4375 L 13.859375 -8.875 L 6.921875 -8.875 L 6.921875 -3.59375 L 14.375 -3.59375 Z M 14.375 0 "/></g></g><g transform="translate(55.452199, 67.01182)"><g><path d="M 14.265625 -20.484375 L 18.65625 -20.484375 L 11.6875 0 L 6.953125 0 L 0 -20.484375 L 4.390625 -20.484375 L 8.234375 -8.296875 C 8.453125 -7.578125 8.675781 -6.738281 8.90625 -5.78125 C 9.132812 -4.820312 9.273438 -4.15625 9.328125 -3.78125 C 9.429688 -4.644531 9.785156 -6.148438 10.390625 -8.296875 Z M 14.265625 -20.484375 "/></g></g><g transform="translate(74.10322, 67.01182)"><g><path d="M 15.125 0 L 13.640625 -4.875 L 6.171875 -4.875 L 4.6875 0 L 0 0 L 7.234375 -20.578125 L 12.546875 -20.578125 L 19.796875 0 Z M 12.59375 -8.515625 C 11.226562 -12.941406 10.457031 -15.441406 10.28125 -16.015625 C 10.101562 -16.597656 9.976562 -17.054688 9.90625 -17.390625 C 9.601562 -16.191406 8.722656 -13.234375 7.265625 -8.515625 Z M 12.59375 -8.515625 "/></g></g></g></svg>