<svg xmlns="http://www.w3.org/2000/svg" xmlns:xlink="http://www.w3.org/1999/xlink" width="250" zoomAndPan="magnify" viewBox="0 0 187.5 187.499992" height="250" preserveAspectRatio="xMidYMid meet" version="1.0"><defs><filter x="0%" y="0%" width="100%" height="100%" id="69018cebe4"><feColorMatrix values="0 0 0 0 1 0 0 0 0 1 0 0 0 0 1 0 0 0 1 0" color-interpolation-filters="sRGB"/></filter><clipPath id="e378da1971"><path d="M 0 0 L 187 0 L 187 187 L 0 187 Z M 0 0 " clip-rule="nonzero"/></clipPath><clipPath id="e4d37a8f92"><path d="M 84 22 L 186.019531 22 L 186.019531 112 L 84 112 Z M 84 22 " clip-rule="nonzero"/></clipPath><mask id="5dcefd7815"><g filter="url(#69018cebe4)"><rect x="-18.75" width="225" fill="#000000" y="-18.749999" height="224.99999" fill-opacity="0.298"/></g></mask><clipPath id="3c1a8ab9ab"><path d="M 1 0.421875 L 7.25 0.421875 L 7.25 18 L 1 18 Z M 1 0.421875 " clip-rule="nonzero"/></clipPath><clipPath id="f9f890884e"><rect x="0" width="8" y="0" height="19"/></clipPath><mask id="e0fde2a465"><g filter="url(#69018cebe4)"><rect x="-18.75" width="225" fill="#000000" y="-18.749999" height="224.99999" fill-opacity="0.298"/></g></mask><clipPath id="26a9174bec"><path d="M 0.796875 1 L 13.722656 1 L 13.722656 9.78125 L 0.796875 9.78125 Z M 0.796875 1 " clip-rule="nonzero"/></clipPath><clipPath id="03ecac8089"><rect x="0" width="14" y="0" height="10"/></clipPath><mask id="e5549cc146"><g filter="url(#69018cebe4)"><rect x="-18.75" width="225" fill="#000000" y="-18.749999" height="224.99999" fill-opacity="0.498"/></g></mask><clipPath id="aff2602ba5"><path d="M 0.148438 0.277344 L 11 0.277344 L 11 12.484375 L 0.148438 12.484375 Z M 0.148438 0.277344 " clip-rule="nonzero"/></clipPath><clipPath id="3dbf376f02"><rect x="0" width="12" y="0" height="13"/></clipPath><mask id="174e2a0d91"><g filter="url(#69018cebe4)"><rect x="-18.75" width="225" fill="#000000" y="-18.749999" height="224.99999" fill-opacity="0.298"/></g></mask><clipPath id="efdc631df3"><path d="M 0.347656 0.351562 L 34 0.351562 L 34 22 L 0.347656 22 Z M 0.347656 0.351562 " clip-rule="nonzero"/></clipPath><clipPath id="7b9092297f"><rect x="0" width="35" y="0" height="23"/></clipPath><mask id="9a51f11fff"><g filter="url(#69018cebe4)"><rect x="-18.75" width="225" fill="#000000" y="-18.749999" height="224.99999" fill-opacity="0.298"/></g></mask><clipPath id="b525e3fe2b"><path d="M 0.574219 0.761719 L 62.808594 0.761719 L 62.808594 23 L 0.574219 23 Z M 0.574219 0.761719 " clip-rule="nonzero"/></clipPath><clipPath id="128f8a7126"><rect x="0" width="63" y="0" height="24"/></clipPath><mask id="71e1656555"><g filter="url(#69018cebe4)"><rect x="-18.75" width="225" fill="#000000" y="-18.749999" height="224.99999" fill-opacity="0.2"/></g></mask><clipPath id="93931b5167"><path d="M 0.574219 0.308594 L 62.808594 0.308594 L 62.808594 18 L 0.574219 18 Z M 0.574219 0.308594 " clip-rule="nonzero"/></clipPath><clipPath id="868bcb1798"><rect x="0" width="63" y="0" height="19"/></clipPath><clipPath id="90bf1ca74e"><path d="M 1.519531 76 L 101 76 L 101 167 L 1.519531 167 Z M 1.519531 76 " clip-rule="nonzero"/></clipPath><mask id="59240130ae"><g filter="url(#69018cebe4)"><rect x="-18.75" width="225" fill="#000000" y="-18.749999" height="224.99999" fill-opacity="0.498"/></g></mask><clipPath id="bb53c15290"><path d="M 0.78125 0.824219 L 10 0.824219 L 10 11.355469 L 0.78125 11.355469 Z M 0.78125 0.824219 " clip-rule="nonzero"/></clipPath><clipPath id="a05c6b5321"><rect x="0" width="11" y="0" height="12"/></clipPath><mask id="267231e52a"><g filter="url(#69018cebe4)"><rect x="-18.75" width="225" fill="#000000" y="-18.749999" height="224.99999" fill-opacity="0.298"/></g></mask><clipPath id="16f2a5a995"><path d="M 0.21875 1 L 36 1 L 36 20.835938 L 0.21875 20.835938 Z M 0.21875 1 " clip-rule="nonzero"/></clipPath><clipPath id="9bb0f0cd99"><rect x="0" width="37" y="0" height="21"/></clipPath><mask id="ab89f2f173"><g filter="url(#69018cebe4)"><rect x="-18.75" width="225" fill="#000000" y="-18.749999" height="224.99999" fill-opacity="0.2"/></g></mask><clipPath id="00f86dee9b"><path d="M 0.453125 1 L 19.839844 1 L 19.839844 16.996094 L 0.453125 16.996094 Z M 0.453125 1 " clip-rule="nonzero"/></clipPath><clipPath id="1362125e38"><rect x="0" width="20" y="0" height="17"/></clipPath><mask id="f083635312"><g filter="url(#69018cebe4)"><rect x="-18.75" width="225" fill="#000000" y="-18.749999" height="224.99999" fill-opacity="0.298"/></g></mask><clipPath id="1fbb4ff504"><path d="M 0.664062 1 L 38.484375 1 L 38.484375 21.585938 L 0.664062 21.585938 Z M 0.664062 1 " clip-rule="nonzero"/></clipPath><clipPath id="21f08fa0c4"><rect x="0" width="39" y="0" height="22"/></clipPath><mask id="d4255ef98d"><g filter="url(#69018cebe4)"><rect x="-18.75" width="225" fill="#000000" y="-18.749999" height="224.99999" fill-opacity="0.298"/></g></mask><clipPath id="097477dd5d"><path d="M 0.347656 0.339844 L 11.835938 0.339844 L 11.835938 8.71875 L 0.347656 8.71875 Z M 0.347656 0.339844 " clip-rule="nonzero"/></clipPath><clipPath id="ef52f55a5e"><rect x="0" width="12" y="0" height="9"/></clipPath><mask id="2233e5172b"><g filter="url(#69018cebe4)"><rect x="-18.75" width="225" fill="#000000" y="-18.749999" height="224.99999" fill-opacity="0.298"/></g></mask><clipPath id="47ead19040"><path d="M 0.445312 1 L 7.867188 1 L 7.867188 11.621094 L 0.445312 11.621094 Z M 0.445312 1 " clip-rule="nonzero"/></clipPath><clipPath id="b7d8fdabf5"><rect x="0" width="8" y="0" height="12"/></clipPath></defs><g clip-path="url(#e378da1971)"><path fill="#ffffff" d="M 0 0 L 187.5 0 L 187.5 195 L 0 195 Z M 0 0 " fill-opacity="1" fill-rule="nonzero"/><path fill="#ffffff" d="M 0 0 L 187.5 0 L 187.5 187.5 L 0 187.5 Z M 0 0 " fill-opacity="1" fill-rule="nonzero"/><path fill="#ffffff" d="M 0 0 L 187.5 0 L 187.5 187.5 L 0 187.5 Z M 0 0 " fill-opacity="1" fill-rule="nonzero"/></g><path fill="#8a2d88" d="M 93.804688 155.71875 L 93.769531 155.71875 C 92.546875 155.71875 91.308594 155.679688 90.09375 155.609375 C 89.992188 155.601562 89.914062 155.515625 89.921875 155.414062 C 89.925781 155.3125 90.027344 155.238281 90.117188 155.242188 C 91.324219 155.3125 92.554688 155.347656 93.769531 155.347656 C 93.871094 155.347656 93.972656 155.429688 93.972656 155.53125 C 93.972656 155.632812 93.90625 155.71875 93.804688 155.71875 Z M 97.503906 155.605469 C 97.40625 155.605469 97.324219 155.53125 97.320312 155.433594 C 97.3125 155.332031 97.390625 155.242188 97.492188 155.238281 C 98.71875 155.164062 99.953125 155.050781 101.167969 154.90625 C 101.261719 154.890625 101.359375 154.964844 101.371094 155.066406 C 101.382812 155.167969 101.3125 155.257812 101.210938 155.269531 C 99.992188 155.417969 98.746094 155.53125 97.515625 155.605469 C 97.511719 155.605469 97.507812 155.605469 97.503906 155.605469 Z M 86.417969 155.28125 C 86.410156 155.28125 86.402344 155.28125 86.394531 155.28125 C 85.171875 155.132812 83.9375 154.949219 82.726562 154.726562 C 82.625 154.710938 82.558594 154.613281 82.578125 154.511719 C 82.59375 154.414062 82.695312 154.347656 82.792969 154.363281 C 83.996094 154.582031 85.222656 154.769531 86.441406 154.914062 C 86.542969 154.925781 86.613281 155.015625 86.601562 155.117188 C 86.589844 155.210938 86.511719 155.28125 86.417969 155.28125 Z M 104.847656 154.71875 C 104.761719 154.71875 104.683594 154.65625 104.667969 154.566406 C 104.648438 154.46875 104.714844 154.371094 104.816406 154.351562 C 106.019531 154.132812 107.230469 153.875 108.421875 153.582031 C 108.523438 153.554688 108.621094 153.617188 108.644531 153.714844 C 108.671875 153.8125 108.609375 153.914062 108.511719 153.9375 C 107.3125 154.234375 106.089844 154.496094 104.882812 154.714844 C 104.871094 154.71875 104.859375 154.71875 104.847656 154.71875 Z M 79.140625 153.960938 C 79.125 153.960938 79.109375 153.957031 79.09375 153.953125 C 77.898438 153.660156 76.695312 153.328125 75.519531 152.960938 C 75.421875 152.933594 75.367188 152.828125 75.398438 152.730469 C 75.425781 152.632812 75.527344 152.578125 75.628906 152.609375 C 76.796875 152.972656 77.996094 153.304688 79.183594 153.597656 C 79.28125 153.621094 79.34375 153.71875 79.320312 153.820312 C 79.296875 153.902344 79.222656 153.960938 79.140625 153.960938 Z M 112.03125 152.949219 C 111.953125 152.949219 111.878906 152.898438 111.855469 152.820312 C 111.824219 152.722656 111.878906 152.621094 111.976562 152.589844 C 113.144531 152.226562 114.316406 151.820312 115.464844 151.386719 C 115.558594 151.347656 115.664062 151.398438 115.703125 151.492188 C 115.738281 151.585938 115.691406 151.695312 115.59375 151.730469 C 114.441406 152.167969 113.261719 152.574219 112.085938 152.941406 C 112.066406 152.949219 112.050781 152.949219 112.03125 152.949219 Z M 72.066406 151.761719 C 72.046875 151.761719 72.023438 151.761719 72.003906 151.75 C 70.847656 151.316406 69.691406 150.835938 68.566406 150.328125 C 68.472656 150.289062 68.433594 150.179688 68.472656 150.085938 C 68.515625 149.992188 68.628906 149.953125 68.71875 149.992188 C 69.835938 150.496094 70.984375 150.972656 72.132812 151.40625 C 72.226562 151.441406 72.277344 151.550781 72.242188 151.644531 C 72.210938 151.71875 72.140625 151.761719 72.066406 151.761719 Z M 118.941406 150.328125 C 118.871094 150.328125 118.804688 150.285156 118.773438 150.21875 C 118.730469 150.125 118.773438 150.015625 118.867188 149.972656 C 119.980469 149.46875 121.097656 148.925781 122.179688 148.359375 C 122.265625 148.308594 122.378906 148.34375 122.425781 148.433594 C 122.472656 148.523438 122.441406 148.636719 122.347656 148.683594 C 121.261719 149.257812 120.140625 149.804688 119.019531 150.308594 C 118.992188 150.320312 118.96875 150.328125 118.941406 150.328125 Z M 65.3125 148.722656 C 65.28125 148.722656 65.253906 148.714844 65.226562 148.703125 C 64.136719 148.128906 63.046875 147.515625 61.988281 146.875 C 61.902344 146.824219 61.875 146.710938 61.925781 146.621094 C 61.980469 146.535156 62.09375 146.507812 62.179688 146.558594 C 63.230469 147.195312 64.3125 147.804688 65.398438 148.375 C 65.488281 148.421875 65.523438 148.535156 65.472656 148.625 C 65.441406 148.6875 65.378906 148.722656 65.3125 148.722656 Z M 125.484375 146.886719 C 125.417969 146.886719 125.359375 146.855469 125.324219 146.796875 C 125.273438 146.710938 125.300781 146.597656 125.386719 146.542969 C 126.429688 145.910156 127.472656 145.238281 128.480469 144.539062 C 128.566406 144.480469 128.679688 144.5 128.738281 144.585938 C 128.796875 144.667969 128.773438 144.785156 128.691406 144.84375 C 127.675781 145.542969 126.628906 146.222656 125.578125 146.859375 C 125.546875 146.878906 125.515625 146.886719 125.484375 146.886719 Z M 58.976562 144.890625 C 58.9375 144.890625 58.902344 144.878906 58.871094 144.855469 C 57.855469 144.15625 56.851562 143.414062 55.878906 142.65625 C 55.800781 142.59375 55.785156 142.476562 55.847656 142.394531 C 55.910156 142.316406 56.027344 142.300781 56.105469 142.363281 C 57.070312 143.121094 58.070312 143.855469 59.082031 144.554688 C 59.164062 144.609375 59.183594 144.726562 59.128906 144.808594 C 59.089844 144.863281 59.035156 144.890625 58.976562 144.890625 Z M 131.5625 142.679688 C 131.511719 142.679688 131.457031 142.65625 131.417969 142.609375 C 131.355469 142.53125 131.371094 142.414062 131.449219 142.351562 C 132.414062 141.59375 133.367188 140.800781 134.28125 139.988281 C 134.359375 139.921875 134.476562 139.925781 134.542969 140.003906 C 134.613281 140.082031 134.605469 140.195312 134.527344 140.265625 C 133.609375 141.078125 132.648438 141.878906 131.679688 142.640625 C 131.644531 142.667969 131.605469 142.679688 131.5625 142.679688 Z M 53.148438 140.324219 C 53.105469 140.324219 53.0625 140.308594 53.027344 140.277344 C 52.105469 139.460938 51.195312 138.605469 50.324219 137.734375 C 50.25 137.660156 50.25 137.542969 50.324219 137.472656 C 50.394531 137.398438 50.511719 137.398438 50.585938 137.472656 C 51.449219 138.335938 52.355469 139.1875 53.273438 140 C 53.347656 140.070312 53.355469 140.183594 53.289062 140.261719 C 53.25 140.300781 53.199219 140.324219 53.148438 140.324219 Z M 137.101562 137.773438 C 137.054688 137.773438 137.007812 137.757812 136.96875 137.71875 C 136.898438 137.648438 136.898438 137.53125 136.96875 137.460938 C 137.835938 136.59375 138.6875 135.6875 139.5 134.773438 C 139.566406 134.695312 139.683594 134.691406 139.761719 134.757812 C 139.835938 134.824219 139.84375 134.941406 139.777344 135.019531 C 138.960938 135.9375 138.101562 136.847656 137.230469 137.71875 C 137.195312 137.757812 137.148438 137.773438 137.101562 137.773438 Z M 47.914062 135.09375 C 47.863281 135.09375 47.8125 135.074219 47.777344 135.03125 C 46.960938 134.109375 46.160156 133.152344 45.398438 132.183594 C 45.335938 132.105469 45.347656 131.988281 45.429688 131.925781 C 45.507812 131.863281 45.625 131.875 45.6875 131.957031 C 46.445312 132.917969 47.238281 133.871094 48.054688 134.785156 C 48.121094 134.863281 48.113281 134.980469 48.039062 135.046875 C 48.003906 135.078125 47.957031 135.09375 47.914062 135.09375 Z M 142.011719 132.238281 C 141.972656 132.238281 141.929688 132.226562 141.898438 132.199219 C 141.816406 132.136719 141.804688 132.019531 141.867188 131.9375 C 142.625 130.972656 143.359375 129.972656 144.054688 128.96875 C 144.113281 128.882812 144.230469 128.863281 144.3125 128.921875 C 144.398438 128.980469 144.417969 129.09375 144.359375 129.175781 C 143.660156 130.1875 142.917969 131.195312 142.15625 132.167969 C 142.121094 132.214844 142.066406 132.238281 142.011719 132.238281 Z M 43.347656 129.277344 C 43.289062 129.277344 43.230469 129.25 43.195312 129.199219 C 42.496094 128.1875 41.816406 127.140625 41.175781 126.085938 C 41.125 126 41.152344 125.886719 41.238281 125.832031 C 41.324219 125.78125 41.4375 125.808594 41.492188 125.894531 C 42.128906 126.941406 42.804688 127.984375 43.5 128.988281 C 43.558594 129.070312 43.535156 129.1875 43.453125 129.246094 C 43.421875 129.265625 43.382812 129.277344 43.347656 129.277344 Z M 146.222656 126.148438 C 146.1875 126.148438 146.15625 126.140625 146.125 126.121094 C 146.039062 126.070312 146.011719 125.957031 146.0625 125.867188 C 146.699219 124.820312 147.3125 123.738281 147.882812 122.652344 C 147.929688 122.5625 148.042969 122.53125 148.132812 122.578125 C 148.222656 122.625 148.257812 122.734375 148.207031 122.824219 C 147.636719 123.914062 147.019531 125.003906 146.378906 126.058594 C 146.34375 126.117188 146.285156 126.148438 146.222656 126.148438 Z M 39.511719 122.957031 C 39.445312 122.957031 39.382812 122.921875 39.351562 122.859375 C 38.777344 121.773438 38.230469 120.652344 37.722656 119.527344 C 37.679688 119.4375 37.722656 119.328125 37.8125 119.285156 C 37.90625 119.242188 38.015625 119.285156 38.058594 119.375 C 38.5625 120.492188 39.105469 121.605469 39.675781 122.6875 C 39.722656 122.777344 39.6875 122.890625 39.597656 122.9375 C 39.570312 122.949219 39.542969 122.957031 39.511719 122.957031 Z M 149.671875 119.59375 C 149.644531 119.59375 149.617188 119.589844 149.59375 119.578125 C 149.5 119.535156 149.460938 119.425781 149.5 119.332031 C 150.003906 118.21875 150.480469 117.070312 150.917969 115.921875 C 150.953125 115.824219 151.058594 115.777344 151.15625 115.8125 C 151.25 115.847656 151.296875 115.957031 151.261719 116.050781 C 150.824219 117.207031 150.34375 118.363281 149.839844 119.484375 C 149.808594 119.554688 149.742188 119.59375 149.671875 119.59375 Z M 36.472656 116.226562 C 36.398438 116.226562 36.328125 116.179688 36.300781 116.105469 C 35.859375 114.953125 35.453125 113.773438 35.085938 112.597656 C 35.054688 112.503906 35.109375 112.398438 35.207031 112.367188 C 35.304688 112.335938 35.40625 112.390625 35.4375 112.488281 C 35.804688 113.65625 36.207031 114.832031 36.644531 115.976562 C 36.679688 116.070312 36.632812 116.175781 36.539062 116.214844 C 36.515625 116.222656 36.496094 116.226562 36.472656 116.226562 Z M 152.296875 112.664062 C 152.28125 112.664062 152.261719 112.664062 152.242188 112.65625 C 152.144531 112.625 152.09375 112.523438 152.121094 112.425781 C 152.484375 111.257812 152.816406 110.0625 153.109375 108.871094 C 153.136719 108.773438 153.234375 108.710938 153.335938 108.738281 C 153.433594 108.761719 153.492188 108.859375 153.46875 108.960938 C 153.175781 110.160156 152.839844 111.363281 152.476562 112.535156 C 152.449219 112.613281 152.378906 112.664062 152.296875 112.664062 Z M 34.265625 109.164062 C 34.183594 109.164062 34.109375 109.109375 34.085938 109.023438 C 33.792969 107.824219 33.53125 106.605469 33.308594 105.394531 C 33.289062 105.296875 33.355469 105.199219 33.457031 105.179688 C 33.554688 105.164062 33.652344 105.230469 33.671875 105.328125 C 33.890625 106.53125 34.152344 107.746094 34.445312 108.9375 C 34.46875 109.035156 34.410156 109.136719 34.3125 109.160156 C 34.296875 109.164062 34.28125 109.164062 34.265625 109.164062 Z M 154.0625 105.480469 C 154.050781 105.480469 154.039062 105.480469 154.03125 105.476562 C 153.929688 105.460938 153.863281 105.363281 153.882812 105.265625 C 154.101562 104.058594 154.285156 102.832031 154.433594 101.617188 C 154.445312 101.515625 154.535156 101.445312 154.636719 101.453125 C 154.738281 101.464844 154.808594 101.558594 154.796875 101.660156 C 154.652344 102.882812 154.464844 104.117188 154.246094 105.328125 C 154.226562 105.417969 154.148438 105.480469 154.0625 105.480469 Z M 32.933594 101.886719 C 32.839844 101.886719 32.761719 101.820312 32.75 101.726562 C 32.601562 100.507812 32.488281 99.265625 32.414062 98.03125 C 32.410156 97.929688 32.484375 97.839844 32.589844 97.835938 C 32.691406 97.828125 32.777344 97.90625 32.78125 98.007812 C 32.859375 99.234375 32.96875 100.472656 33.117188 101.683594 C 33.128906 101.78125 33.058594 101.875 32.957031 101.886719 C 32.949219 101.886719 32.941406 101.886719 32.933594 101.886719 Z M 154.945312 98.136719 C 154.941406 98.136719 154.9375 98.136719 154.933594 98.136719 C 154.832031 98.128906 154.753906 98.042969 154.761719 97.941406 C 154.835938 96.71875 154.871094 95.480469 154.871094 94.253906 L 154.871094 94.125 C 154.871094 94.023438 154.953125 93.9375 155.054688 93.9375 C 155.15625 93.9375 155.238281 94.023438 155.238281 94.125 L 155.238281 94.253906 C 155.238281 95.484375 155.203125 96.734375 155.128906 97.964844 C 155.125 98.0625 155.042969 98.136719 154.945312 98.136719 Z M 32.484375 94.503906 C 32.382812 94.503906 32.300781 94.421875 32.300781 94.320312 L 32.300781 94.253906 C 32.300781 93.042969 32.335938 91.816406 32.40625 90.609375 C 32.414062 90.507812 32.503906 90.429688 32.601562 90.4375 C 32.703125 90.441406 32.78125 90.53125 32.777344 90.632812 C 32.707031 91.832031 32.671875 93.050781 32.671875 94.253906 L 32.671875 94.320312 C 32.671875 94.421875 32.585938 94.503906 32.484375 94.503906 Z M 154.9375 90.609375 C 154.839844 90.609375 154.761719 90.535156 154.753906 90.4375 C 154.679688 89.210938 154.5625 87.972656 154.417969 86.761719 C 154.402344 86.660156 154.476562 86.570312 154.578125 86.554688 C 154.675781 86.542969 154.769531 86.617188 154.78125 86.71875 C 154.929688 87.9375 155.046875 89.179688 155.121094 90.414062 C 155.128906 90.515625 155.050781 90.601562 154.949219 90.609375 C 154.945312 90.609375 154.941406 90.609375 154.9375 90.609375 Z M 32.917969 87.121094 C 32.910156 87.121094 32.902344 87.121094 32.894531 87.117188 C 32.796875 87.105469 32.722656 87.015625 32.734375 86.914062 C 32.878906 85.6875 33.066406 84.453125 33.285156 83.242188 C 33.304688 83.140625 33.398438 83.074219 33.5 83.09375 C 33.597656 83.113281 33.664062 83.207031 33.648438 83.308594 C 33.429688 84.511719 33.246094 85.738281 33.101562 86.957031 C 33.089844 87.050781 33.011719 87.121094 32.917969 87.121094 Z M 154.039062 83.265625 C 153.953125 83.265625 153.875 83.203125 153.859375 83.117188 C 153.636719 81.910156 153.375 80.695312 153.078125 79.507812 C 153.054688 79.410156 153.117188 79.308594 153.214844 79.285156 C 153.3125 79.261719 153.414062 79.320312 153.4375 79.421875 C 153.734375 80.613281 153.996094 81.835938 154.222656 83.046875 C 154.238281 83.148438 154.171875 83.246094 154.074219 83.261719 C 154.0625 83.265625 154.050781 83.265625 154.039062 83.265625 Z M 34.234375 79.839844 C 34.21875 79.839844 34.207031 79.839844 34.191406 79.835938 C 34.09375 79.8125 34.03125 79.710938 34.054688 79.613281 C 34.347656 78.417969 34.679688 77.210938 35.046875 76.035156 C 35.078125 75.9375 35.179688 75.882812 35.277344 75.914062 C 35.375 75.945312 35.429688 76.046875 35.398438 76.144531 C 35.035156 77.316406 34.703125 78.511719 34.414062 79.699219 C 34.394531 79.785156 34.316406 79.839844 34.234375 79.839844 Z M 152.257812 76.085938 C 152.179688 76.085938 152.109375 76.035156 152.082031 75.957031 C 151.71875 74.789062 151.308594 73.617188 150.875 72.472656 C 150.835938 72.375 150.882812 72.269531 150.980469 72.234375 C 151.074219 72.195312 151.179688 72.246094 151.21875 72.339844 C 151.65625 73.492188 152.066406 74.671875 152.4375 75.847656 C 152.464844 75.945312 152.410156 76.046875 152.316406 76.078125 C 152.296875 76.082031 152.277344 76.085938 152.257812 76.085938 Z M 36.429688 72.769531 C 36.40625 72.769531 36.382812 72.765625 36.363281 72.757812 C 36.265625 72.71875 36.21875 72.613281 36.253906 72.519531 C 36.691406 71.363281 37.167969 70.207031 37.675781 69.082031 C 37.71875 68.988281 37.828125 68.949219 37.917969 68.988281 C 38.011719 69.03125 38.054688 69.140625 38.011719 69.234375 C 37.507812 70.351562 37.035156 71.5 36.601562 72.648438 C 36.574219 72.722656 36.503906 72.769531 36.429688 72.769531 Z M 149.625 69.179688 C 149.554688 69.179688 149.488281 69.140625 149.457031 69.070312 C 148.953125 67.957031 148.40625 66.847656 147.835938 65.761719 C 147.785156 65.671875 147.820312 65.5625 147.910156 65.515625 C 148 65.46875 148.113281 65.5 148.160156 65.589844 C 148.734375 66.679688 149.285156 67.800781 149.792969 68.917969 C 149.835938 69.011719 149.792969 69.121094 149.699219 69.164062 C 149.675781 69.175781 149.648438 69.179688 149.625 69.179688 Z M 39.464844 66.011719 C 39.4375 66.011719 39.40625 66.003906 39.378906 65.988281 C 39.289062 65.941406 39.253906 65.832031 39.300781 65.742188 C 39.875 64.644531 40.488281 63.558594 41.128906 62.503906 C 41.179688 62.417969 41.292969 62.390625 41.378906 62.441406 C 41.46875 62.496094 41.496094 62.609375 41.441406 62.695312 C 40.808594 63.742188 40.199219 64.824219 39.628906 65.910156 C 39.59375 65.976562 39.53125 66.011719 39.464844 66.011719 Z M 146.171875 62.644531 C 146.109375 62.644531 146.050781 62.613281 146.015625 62.558594 C 145.378906 61.511719 144.703125 60.472656 144.003906 59.464844 C 143.945312 59.382812 143.96875 59.269531 144.050781 59.210938 C 144.132812 59.152344 144.25 59.171875 144.308594 59.257812 C 145.007812 60.265625 145.691406 61.3125 146.332031 62.367188 C 146.382812 62.453125 146.355469 62.566406 146.269531 62.621094 C 146.238281 62.636719 146.207031 62.644531 146.171875 62.644531 Z M 43.296875 59.671875 C 43.257812 59.671875 43.222656 59.664062 43.191406 59.640625 C 43.105469 59.582031 43.085938 59.46875 43.144531 59.382812 C 43.84375 58.371094 44.582031 57.367188 45.34375 56.394531 C 45.40625 56.3125 45.523438 56.296875 45.601562 56.363281 C 45.683594 56.425781 45.699219 56.539062 45.636719 56.621094 C 44.878906 57.585938 44.140625 58.585938 43.449219 59.59375 C 43.410156 59.644531 43.355469 59.671875 43.296875 59.671875 Z M 141.957031 56.570312 C 141.902344 56.570312 141.847656 56.546875 141.8125 56.5 C 141.058594 55.542969 140.261719 54.589844 139.445312 53.671875 C 139.378906 53.597656 139.382812 53.480469 139.460938 53.414062 C 139.535156 53.34375 139.652344 53.351562 139.722656 53.425781 C 140.539062 54.351562 141.34375 55.308594 142.101562 56.273438 C 142.164062 56.351562 142.152344 56.46875 142.070312 56.53125 C 142.039062 56.558594 141.996094 56.570312 141.957031 56.570312 Z M 47.859375 53.847656 C 47.816406 53.847656 47.773438 53.832031 47.738281 53.800781 C 47.660156 53.730469 47.652344 53.617188 47.722656 53.539062 C 48.535156 52.617188 49.390625 51.707031 50.265625 50.835938 C 50.335938 50.761719 50.453125 50.761719 50.523438 50.832031 C 50.597656 50.90625 50.597656 51.023438 50.523438 51.09375 C 49.660156 51.960938 48.808594 52.867188 47.996094 53.785156 C 47.960938 53.824219 47.910156 53.847656 47.859375 53.847656 Z M 137.042969 51.042969 C 136.996094 51.042969 136.945312 51.027344 136.910156 50.988281 C 136.042969 50.125 135.136719 49.273438 134.222656 48.464844 C 134.144531 48.398438 134.136719 48.28125 134.203125 48.203125 C 134.273438 48.128906 134.390625 48.121094 134.464844 48.1875 C 135.386719 49.003906 136.296875 49.855469 137.171875 50.730469 C 137.242188 50.800781 137.242188 50.917969 137.171875 50.988281 C 137.136719 51.027344 137.089844 51.042969 137.042969 51.042969 Z M 53.085938 48.609375 C 53.035156 48.609375 52.984375 48.589844 52.949219 48.546875 C 52.878906 48.472656 52.886719 48.355469 52.964844 48.289062 C 53.886719 47.46875 54.84375 46.667969 55.8125 45.90625 C 55.890625 45.84375 56.007812 45.859375 56.070312 45.9375 C 56.132812 46.019531 56.121094 46.132812 56.039062 46.195312 C 55.078125 46.953125 54.125 47.75 53.210938 48.5625 C 53.175781 48.59375 53.128906 48.609375 53.085938 48.609375 Z M 131.496094 46.144531 C 131.457031 46.144531 131.417969 46.128906 131.382812 46.105469 C 130.417969 45.351562 129.417969 44.613281 128.40625 43.917969 C 128.324219 43.859375 128.300781 43.746094 128.359375 43.660156 C 128.417969 43.578125 128.535156 43.558594 128.617188 43.613281 C 129.632812 44.316406 130.640625 45.054688 131.609375 45.8125 C 131.691406 45.875 131.703125 45.992188 131.640625 46.074219 C 131.605469 46.117188 131.550781 46.144531 131.496094 46.144531 Z M 58.902344 44.039062 C 58.84375 44.039062 58.785156 44.011719 58.75 43.960938 C 58.691406 43.875 58.710938 43.761719 58.796875 43.703125 C 59.808594 43 60.855469 42.320312 61.90625 41.683594 C 61.992188 41.628906 62.109375 41.65625 62.160156 41.746094 C 62.214844 41.832031 62.1875 41.945312 62.097656 42 C 61.054688 42.632812 60.015625 43.308594 59.007812 44.007812 C 58.972656 44.027344 58.9375 44.039062 58.902344 44.039062 Z M 125.402344 41.941406 C 125.367188 41.941406 125.335938 41.933594 125.304688 41.914062 C 124.253906 41.28125 123.171875 40.671875 122.085938 40.101562 C 121.996094 40.054688 121.960938 39.945312 122.007812 39.855469 C 122.054688 39.761719 122.167969 39.730469 122.257812 39.777344 C 123.347656 40.347656 124.4375 40.960938 125.496094 41.597656 C 125.582031 41.652344 125.609375 41.765625 125.558594 41.851562 C 125.523438 41.910156 125.460938 41.941406 125.402344 41.941406 Z M 65.21875 40.203125 C 65.152344 40.203125 65.089844 40.167969 65.054688 40.105469 C 65.007812 40.015625 65.042969 39.902344 65.132812 39.855469 C 66.222656 39.28125 67.34375 38.730469 68.464844 38.226562 C 68.554688 38.183594 68.664062 38.222656 68.707031 38.316406 C 68.75 38.410156 68.707031 38.519531 68.617188 38.5625 C 67.5 39.066406 66.386719 39.609375 65.304688 40.179688 C 65.277344 40.195312 65.25 40.203125 65.21875 40.203125 Z M 118.839844 38.503906 C 118.8125 38.503906 118.789062 38.5 118.765625 38.488281 C 117.644531 37.984375 116.496094 37.511719 115.347656 37.078125 C 115.253906 37.042969 115.203125 36.9375 115.242188 36.839844 C 115.277344 36.746094 115.382812 36.695312 115.476562 36.734375 C 116.632812 37.167969 117.789062 37.644531 118.914062 38.152344 C 119.007812 38.195312 119.050781 38.300781 119.007812 38.394531 C 118.976562 38.464844 118.910156 38.503906 118.839844 38.503906 Z M 71.949219 37.15625 C 71.875 37.15625 71.804688 37.113281 71.777344 37.039062 C 71.742188 36.945312 71.789062 36.835938 71.886719 36.800781 C 73.035156 36.363281 74.214844 35.953125 75.390625 35.585938 C 75.492188 35.554688 75.59375 35.609375 75.625 35.707031 C 75.652344 35.804688 75.601562 35.90625 75.503906 35.9375 C 74.332031 36.304688 73.160156 36.710938 72.015625 37.144531 C 71.996094 37.152344 71.972656 37.15625 71.949219 37.15625 Z M 111.90625 35.886719 C 111.886719 35.886719 111.871094 35.882812 111.851562 35.878906 C 110.679688 35.515625 109.484375 35.1875 108.292969 34.898438 C 108.195312 34.871094 108.136719 34.773438 108.160156 34.671875 C 108.183594 34.574219 108.285156 34.511719 108.382812 34.539062 C 109.578125 34.828125 110.78125 35.164062 111.960938 35.527344 C 112.058594 35.554688 112.113281 35.660156 112.082031 35.757812 C 112.058594 35.835938 111.984375 35.886719 111.90625 35.886719 Z M 79.011719 34.949219 C 78.929688 34.949219 78.851562 34.890625 78.832031 34.808594 C 78.808594 34.710938 78.867188 34.609375 78.96875 34.585938 C 80.160156 34.289062 81.382812 34.027344 82.597656 33.804688 C 82.695312 33.785156 82.792969 33.851562 82.8125 33.953125 C 82.828125 34.050781 82.761719 34.148438 82.664062 34.167969 C 81.457031 34.386719 80.242188 34.648438 79.054688 34.941406 C 79.042969 34.945312 79.027344 34.949219 79.011719 34.949219 Z M 104.71875 34.136719 C 104.707031 34.136719 104.695312 34.132812 104.683594 34.132812 C 103.480469 33.914062 102.253906 33.730469 101.035156 33.585938 C 100.933594 33.574219 100.863281 33.484375 100.875 33.382812 C 100.886719 33.28125 100.976562 33.210938 101.078125 33.222656 C 102.304688 33.367188 103.539062 33.550781 104.75 33.769531 C 104.851562 33.785156 104.917969 33.882812 104.898438 33.984375 C 104.882812 34.074219 104.804688 34.136719 104.71875 34.136719 Z M 86.289062 33.613281 C 86.195312 33.613281 86.117188 33.542969 86.105469 33.449219 C 86.09375 33.347656 86.164062 33.257812 86.265625 33.246094 C 87.488281 33.09375 88.730469 32.980469 89.960938 32.90625 C 90.058594 32.902344 90.152344 32.976562 90.15625 33.078125 C 90.164062 33.179688 90.085938 33.269531 89.984375 33.273438 C 88.761719 33.351562 87.527344 33.460938 86.308594 33.609375 C 86.300781 33.613281 86.292969 33.613281 86.289062 33.613281 Z M 97.371094 33.265625 C 97.367188 33.265625 97.363281 33.265625 97.359375 33.265625 C 96.175781 33.195312 94.964844 33.160156 93.769531 33.160156 L 93.671875 33.160156 C 93.570312 33.160156 93.488281 33.078125 93.488281 32.976562 C 93.488281 32.875 93.570312 32.792969 93.671875 32.792969 L 93.769531 32.789062 C 94.972656 32.789062 96.1875 32.824219 97.382812 32.894531 C 97.484375 32.902344 97.5625 32.988281 97.554688 33.089844 C 97.550781 33.1875 97.46875 33.265625 97.371094 33.265625 Z M 97.371094 33.265625 " fill-opacity="1" fill-rule="nonzero"/><g clip-path="url(#e4d37a8f92)"><path fill="#8a2d88" d="M 171.46875 82.707031 C 174.933594 73.507812 175.417969 63.109375 172.140625 53.03125 C 164.476562 29.457031 139.152344 16.558594 115.574219 24.222656 C 91.996094 31.886719 79.097656 57.210938 86.761719 80.785156 C 94.425781 104.359375 119.753906 117.257812 143.332031 109.59375 C 153.410156 106.320312 161.535156 99.8125 166.9375 91.597656 L 186.019531 95.71875 Z M 171.46875 82.707031 " fill-opacity="1" fill-rule="nonzero"/></g><path fill="#ffcfb9" d="M 174.324219 65.308594 C 172.328125 65.824219 170.351562 66.453125 168.433594 67.234375 C 161.5 70.058594 156.296875 74.648438 153.785156 80.15625 C 151.84375 84.40625 151.523438 89.199219 151.453125 92.429688 C 151.414062 94.300781 151.433594 96.460938 152.1875 98.425781 C 152.789062 99.988281 153.847656 101.378906 154.792969 102.554688 C 155.03125 102.851562 155.277344 103.148438 155.53125 103.449219 C 155.457031 103.503906 155.382812 103.558594 155.308594 103.613281 C 155.054688 103.316406 154.8125 103.019531 154.578125 102.730469 C 153.621094 101.535156 152.546875 100.125 151.929688 98.527344 C 151.15625 96.511719 151.136719 94.320312 151.179688 92.425781 C 151.25 89.167969 151.570312 84.339844 153.53125 80.042969 C 156.074219 74.472656 161.332031 69.832031 168.328125 66.976562 C 170.28125 66.183594 172.289062 65.546875 174.308594 65.027344 C 174.3125 65.121094 174.320312 65.214844 174.324219 65.308594 Z M 100.777344 50.742188 C 102.234375 49.199219 103.605469 47.65625 104.34375 45.734375 C 105.496094 42.726562 104.839844 39.308594 104.042969 36.363281 C 103.515625 34.40625 102.878906 32.710938 102.140625 31.277344 C 102.066406 31.335938 101.992188 31.390625 101.917969 31.449219 C 102.636719 32.855469 103.257812 34.515625 103.777344 36.433594 C 104.5625 39.335938 105.210938 42.703125 104.082031 45.636719 C 103.363281 47.507812 102.011719 49.027344 100.574219 50.550781 C 95.65625 55.753906 90.308594 60.546875 84.601562 64.867188 C 84.59375 64.988281 84.585938 65.105469 84.582031 65.226562 C 90.371094 60.859375 95.792969 56.011719 100.777344 50.742188 Z M 106.820312 87.988281 C 104.238281 88.082031 101.511719 88.886719 98.714844 90.378906 C 96.875 91.359375 95.160156 92.550781 93.59375 93.925781 C 93.648438 94 93.703125 94.074219 93.761719 94.144531 C 95.316406 92.78125 97.019531 91.597656 98.847656 90.621094 C 101.605469 89.148438 104.289062 88.355469 106.832031 88.265625 C 112.824219 88.046875 119.023438 91.898438 122.628906 98.074219 C 125.125 102.34375 126.269531 107.136719 126.863281 111.730469 C 126.957031 111.734375 127.050781 111.738281 127.144531 111.742188 C 126.546875 107.105469 125.394531 102.261719 122.867188 97.9375 C 119.210938 91.671875 112.910156 87.765625 106.820312 87.988281 Z M 149.105469 37.898438 C 149.714844 37.945312 150.320312 37.964844 150.925781 37.964844 C 154.445312 37.964844 157.898438 37.210938 161.140625 36.367188 C 161.464844 36.285156 161.789062 36.195312 162.113281 36.109375 C 162.042969 36.03125 161.972656 35.953125 161.898438 35.878906 C 161.621094 35.953125 161.347656 36.03125 161.070312 36.101562 C 157.292969 37.082031 153.234375 37.945312 149.128906 37.621094 C 144.730469 37.273438 140.863281 35.464844 138.519531 32.660156 C 136.101562 29.761719 135.449219 25.726562 136.773438 22.621094 C 136.679688 22.605469 136.585938 22.585938 136.492188 22.570312 C 135.164062 25.765625 135.839844 29.882812 138.308594 32.835938 C 140.699219 35.699219 144.632812 37.542969 149.105469 37.898438 Z M 165.023438 47.628906 C 166.800781 47.5625 168.523438 47.695312 170.167969 48.003906 C 170.121094 47.902344 170.074219 47.796875 170.027344 47.695312 C 168.417969 47.40625 166.738281 47.285156 165.011719 47.351562 C 160.742188 47.511719 156.214844 48.734375 151.164062 51.089844 C 150.824219 51.25 150.484375 51.410156 150.144531 51.574219 C 148.71875 52.253906 147.242188 52.960938 145.707031 53.394531 C 143.378906 54.054688 140.964844 54.089844 138.914062 54.039062 C 135.53125 53.953125 133.015625 53.578125 130.761719 52.832031 C 124.613281 50.789062 119.53125 45.148438 117.808594 38.457031 C 116.558594 33.585938 116.976562 28.25 118.910156 23.277344 C 118.800781 23.304688 118.691406 23.335938 118.578125 23.363281 C 116.6875 28.335938 116.292969 33.660156 117.542969 38.523438 C 119.285156 45.304688 124.441406 51.023438 130.675781 53.09375 C 132.957031 53.851562 135.496094 54.226562 138.90625 54.3125 C 140.980469 54.367188 143.421875 54.328125 145.78125 53.660156 C 147.34375 53.21875 148.828125 52.511719 150.261719 51.824219 C 150.601562 51.660156 150.941406 51.5 151.28125 51.339844 C 156.296875 49 160.792969 47.785156 165.023438 47.628906 Z M 137.4375 97.964844 C 137.261719 90.101562 136.398438 82.09375 131.332031 76.808594 C 128.136719 73.476562 123.6875 71.695312 119.410156 70.15625 C 115.785156 68.855469 112.226562 67.714844 108.546875 68.070312 C 105.160156 68.398438 102.078125 70.03125 100.054688 71.230469 C 96.0625 73.601562 90.976562 77.492188 87.628906 83.203125 C 87.671875 83.3125 87.714844 83.421875 87.757812 83.53125 C 91.074219 77.765625 96.1875 73.847656 100.199219 71.46875 C 102.199219 70.285156 105.242188 68.667969 108.574219 68.347656 C 112.199219 67.996094 115.722656 69.125 119.316406 70.414062 C 123.5625 71.941406 127.976562 73.710938 131.132812 77 C 136.132812 82.21875 136.988281 90.164062 137.160156 97.96875 L 137.171875 98.519531 C 137.265625 102.695312 137.359375 106.953125 138.179688 110.9375 C 138.269531 110.921875 138.359375 110.902344 138.449219 110.882812 C 137.636719 106.917969 137.542969 102.675781 137.449219 98.511719 Z M 137.4375 97.964844 " fill-opacity="1" fill-rule="nonzero"/><path fill="#233f93" d="M 141.875 82.460938 C 145.855469 82.382812 152.867188 81.121094 154.425781 72.652344 C 155.742188 65.511719 152.199219 55.613281 145.042969 45.160156 C 142.503906 41.453125 137.136719 33.617188 128.566406 37.976562 C 128.566406 37.976562 116.816406 34.265625 110.1875 46.425781 C 108.15625 50.148438 108.425781 49.828125 106.324219 62.945312 C 105.652344 67.140625 104.8125 75.1875 108.058594 78.957031 C 110.324219 81.585938 114.53125 83.75 121.203125 83.40625 C 126.644531 83.125 136.425781 82.574219 141.875 82.460938 Z M 141.875 82.460938 " fill-opacity="1" fill-rule="nonzero"/><g mask="url(#5dcefd7815)"><g transform="matrix(1, 0, 0, 1, 139, 52)"><g clip-path="url(#f9f890884e)"><g clip-path="url(#3c1a8ab9ab)"><path fill="#8a2d88" d="M 5.921875 15.007812 C 7.621094 11.15625 7.34375 7.074219 5.683594 3.351562 C 3.816406 -0.847656 2.058594 0.375 1.183594 4.683594 C 0.554688 7.789062 1.921875 24.066406 5.921875 15.007812 Z M 5.921875 15.007812 " fill-opacity="1" fill-rule="nonzero"/></g></g></g></g><g mask="url(#e0fde2a465)"><g transform="matrix(1, 0, 0, 1, 105, 57)"><g clip-path="url(#03ecac8089)"><g clip-path="url(#26a9174bec)"><path fill="#8a2d88" d="M 3.972656 9.5625 C 6.417969 9.820312 9.003906 9.15625 10.835938 7.519531 C 11.914062 6.558594 12.695312 5.316406 13.457031 4.089844 C 11.558594 3.652344 9.683594 3.34375 7.8125 2.785156 C 5.910156 2.21875 4.015625 1.589844 2.097656 1.066406 C 1.878906 2.449219 1.628906 4.054688 1.324219 5.945312 C 1.210938 6.640625 1.097656 7.449219 0.996094 8.324219 C 1.050781 8.378906 1.101562 8.4375 1.160156 8.488281 C 1.914062 9.179688 2.957031 9.457031 3.972656 9.5625 Z M 3.972656 9.5625 " fill-opacity="1" fill-rule="nonzero"/></g></g></g></g><path fill="#ffcfb9" d="M 137.476562 69.621094 L 140.40625 92.261719 L 118.375 92.761719 L 120.820312 72.527344 Z M 137.476562 69.621094 " fill-opacity="1" fill-rule="nonzero"/><path fill="#ffcfb9" d="M 119.742188 65.097656 C 119.742188 65.097656 117.960938 60.914062 112.769531 61.589844 C 109.054688 62.074219 106.574219 69.519531 116.097656 73.191406 Z M 119.742188 65.097656 " fill-opacity="1" fill-rule="nonzero"/><g mask="url(#e5549cc146)"><g transform="matrix(1, 0, 0, 1, 109, 61)"><g clip-path="url(#3dbf376f02)"><g clip-path="url(#aff2602ba5)"><path fill="#fecb37" d="M 10.742188 4.097656 C 10.742188 4.097656 8.960938 -0.0859375 3.769531 0.589844 C 0.0546875 1.074219 -2.425781 8.519531 7.097656 12.191406 Z M 10.742188 4.097656 " fill-opacity="1" fill-rule="nonzero"/></g></g></g></g><path fill="#8a2d88" d="M 111.914062 74.226562 C 111.898438 74.226562 111.886719 74.226562 111.871094 74.21875 C 111.246094 74.015625 110.792969 73.398438 110.660156 72.5625 C 110.488281 71.503906 110.855469 70.039062 112.058594 69.164062 C 112.121094 69.121094 112.207031 69.132812 112.25 69.195312 C 112.296875 69.257812 112.28125 69.34375 112.222656 69.386719 C 111.113281 70.195312 110.777344 71.542969 110.933594 72.519531 C 111.046875 73.25 111.433594 73.785156 111.957031 73.957031 C 112.027344 73.980469 112.070312 74.058594 112.046875 74.132812 C 112.027344 74.191406 111.972656 74.226562 111.914062 74.226562 Z M 111.914062 74.226562 " fill-opacity="1" fill-rule="nonzero"/><path fill="#233f93" d="M 132.523438 76.25 C 133.355469 74.265625 120.820312 72.527344 120.820312 72.527344 L 118.910156 83 L 119.503906 83.433594 L 119.179688 86.125 C 124.90625 86.140625 129.886719 82.535156 132.523438 76.25 Z M 132.523438 76.25 " fill-opacity="1" fill-rule="nonzero"/><path fill="#8a2d88" d="M 140.582031 77.1875 C 140.460938 77.1875 140.339844 77.167969 140.214844 77.121094 C 140.140625 77.097656 140.105469 77.019531 140.128906 76.945312 C 140.15625 76.875 140.234375 76.835938 140.304688 76.863281 C 140.726562 77.007812 141.003906 76.804688 141.164062 76.609375 C 141.714844 75.929688 141.742188 74.269531 140.695312 72.535156 C 140.65625 72.46875 140.675781 72.382812 140.742188 72.34375 C 140.808594 72.304688 140.894531 72.324219 140.933594 72.390625 C 142.054688 74.253906 142.007812 76.011719 141.378906 76.785156 C 141.164062 77.050781 140.882812 77.1875 140.582031 77.1875 Z M 140.582031 77.1875 " fill-opacity="1" fill-rule="nonzero"/><path fill="#ffcfb9" d="M 113.699219 48.839844 C 113.699219 48.839844 111.976562 64.40625 111.519531 69.960938 C 111.0625 75.527344 113.230469 82.332031 121.636719 82.519531 C 128.019531 82.660156 134.664062 77.765625 139.945312 70.894531 L 142.453125 50.777344 Z M 113.699219 48.839844 " fill-opacity="1" fill-rule="nonzero"/><path fill="#ffcfb9" d="M 134.453125 66.339844 C 134.453125 66.339844 136.234375 62.152344 141.425781 62.832031 C 145.136719 63.316406 147.621094 70.761719 138.097656 74.433594 Z M 134.453125 66.339844 " fill-opacity="1" fill-rule="nonzero"/><g mask="url(#174e2a0d91)"><g transform="matrix(1, 0, 0, 1, 110, 48)"><g clip-path="url(#7b9092297f)"><g clip-path="url(#efdc631df3)"><path fill="#fecb37" d="M 33.949219 14.21875 L 32.453125 2.777344 L 3.699219 0.839844 C 3.699219 0.839844 -2.378906 17.964844 1.984375 17 C 4.332031 16.480469 9.269531 8.433594 10.117188 6.1875 C 11.132812 9.511719 13.601562 15.433594 16.332031 17.585938 C 18.292969 19.132812 20.382812 20.621094 22.789062 21.28125 C 25.675781 22.074219 29.171875 22.179688 31.53125 20.339844 C 33.367188 18.910156 34.101562 14.230469 33.949219 14.21875 Z M 33.949219 14.21875 " fill-opacity="1" fill-rule="nonzero"/></g></g></g></g><path fill="#233f93" d="M 141.046875 68.890625 L 138.339844 68.890625 C 138.292969 68.890625 138.246094 68.863281 138.222656 68.820312 C 138.195312 68.777344 138.195312 68.726562 138.21875 68.683594 L 140.335938 64.992188 C 140.375 64.925781 140.457031 64.902344 140.523438 64.941406 C 140.589844 64.980469 140.613281 65.0625 140.574219 65.128906 L 138.578125 68.613281 L 141.046875 68.613281 C 141.121094 68.613281 141.183594 68.675781 141.183594 68.75 C 141.183594 68.828125 141.121094 68.890625 141.046875 68.890625 Z M 141.046875 68.890625 " fill-opacity="1" fill-rule="nonzero"/><path fill="#ffcfb9" d="M 115.234375 92.238281 C 108.316406 95.902344 103.445312 98.566406 99.941406 100.738281 C 111.445312 110.753906 127.769531 114.652344 143.332031 109.59375 C 150.472656 107.273438 156.625 103.328125 161.53125 98.304688 C 155 94.359375 148.144531 92.183594 142.839844 90.449219 C 131.824219 86.84375 125.855469 86.613281 115.234375 92.238281 Z M 115.234375 92.238281 " fill-opacity="1" fill-rule="nonzero"/><g mask="url(#9a51f11fff)"><g transform="matrix(1, 0, 0, 1, 99, 89)"><g clip-path="url(#128f8a7126)"><g clip-path="url(#b525e3fe2b)"><path fill="#fecb37" d="M 42.132812 0.90625 C 38.503906 5.796875 34.78125 10.625 30.554688 15.003906 C 29.964844 15.617188 29.226562 16.269531 28.382812 16.152344 C 27.785156 16.070312 27.3125 15.613281 26.894531 15.175781 C 23.222656 11.363281 19.835938 7.273438 16.753906 2.96875 C 16.582031 3.058594 16.410156 3.144531 16.234375 3.238281 C 9.316406 6.902344 4.445312 9.566406 0.941406 11.738281 C 12.445312 21.753906 28.769531 25.652344 44.332031 20.59375 C 51.472656 18.273438 57.625 14.328125 62.53125 9.304688 C 56 5.359375 49.144531 3.183594 43.839844 1.449219 C 43.257812 1.257812 42.6875 1.078125 42.132812 0.90625 Z M 42.132812 0.90625 " fill-opacity="1" fill-rule="nonzero"/></g></g></g></g><path fill="#233f93" d="M 123.710938 75.398438 C 123.003906 75.398438 122.484375 75.246094 122.445312 75.234375 C 122.371094 75.210938 122.332031 75.132812 122.351562 75.0625 C 122.375 74.988281 122.453125 74.945312 122.527344 74.96875 C 122.539062 74.972656 124.136719 75.441406 125.507812 74.695312 C 126.339844 74.242188 126.925781 73.4375 127.253906 72.300781 C 127.277344 72.230469 127.355469 72.1875 127.425781 72.207031 C 127.5 72.230469 127.542969 72.304688 127.519531 72.378906 C 127.171875 73.589844 126.539062 74.453125 125.636719 74.941406 C 124.976562 75.296875 124.285156 75.398438 123.710938 75.398438 Z M 123.710938 75.398438 " fill-opacity="1" fill-rule="nonzero"/><path fill="#233f93" d="M 119.871094 72.789062 C 119.839844 72.789062 119.808594 72.777344 119.785156 72.757812 L 117.9375 71.246094 C 117.878906 71.195312 117.871094 71.113281 117.914062 71.050781 C 120.042969 68.34375 120.222656 63.980469 120.222656 63.933594 C 120.226562 63.859375 120.289062 63.800781 120.363281 63.800781 C 120.363281 63.800781 120.363281 63.800781 120.367188 63.800781 C 120.441406 63.804688 120.503906 63.867188 120.5 63.945312 C 120.5 63.988281 120.320312 68.328125 118.214844 71.117188 L 119.960938 72.542969 C 120.019531 72.59375 120.027344 72.679688 119.980469 72.738281 C 119.949219 72.773438 119.910156 72.789062 119.871094 72.789062 Z M 119.871094 72.789062 " fill-opacity="1" fill-rule="nonzero"/><path fill="#233f93" d="M 129.398438 64.078125 C 129.363281 64.078125 129.328125 64.0625 129.300781 64.035156 C 127.347656 61.980469 125.636719 63.285156 125.566406 63.339844 C 125.503906 63.386719 125.417969 63.378906 125.371094 63.316406 C 125.324219 63.257812 125.332031 63.171875 125.394531 63.125 C 125.414062 63.109375 127.371094 61.601562 129.5 63.84375 C 129.554688 63.898438 129.550781 63.988281 129.496094 64.039062 C 129.46875 64.066406 129.433594 64.078125 129.398438 64.078125 Z M 129.398438 64.078125 " fill-opacity="1" fill-rule="nonzero"/><path fill="#233f93" d="M 113.828125 63.480469 C 113.785156 63.480469 113.742188 63.460938 113.714844 63.425781 C 113.671875 63.363281 113.683594 63.277344 113.746094 63.234375 C 115.566406 61.871094 116.910156 63.234375 116.921875 63.246094 C 116.976562 63.300781 116.972656 63.390625 116.917969 63.441406 C 116.863281 63.496094 116.773438 63.492188 116.722656 63.4375 C 116.675781 63.390625 115.53125 62.242188 113.910156 63.453125 C 113.886719 63.472656 113.855469 63.480469 113.828125 63.480469 Z M 113.828125 63.480469 " fill-opacity="1" fill-rule="nonzero"/><path fill="#233f93" d="M 134.453125 66.339844 C 126.148438 65.382812 123.070312 58.164062 120.171875 52.8125 C 120.171875 52.8125 112.300781 67.96875 107.019531 60.871094 C 104.542969 57.542969 108.480469 47.808594 111.304688 44.585938 C 118.785156 36.054688 136.667969 41.980469 142.539062 47.167969 C 143.9375 48.40625 145.558594 51.972656 146.03125 53.78125 C 147.109375 57.910156 146.386719 67.714844 134.453125 66.339844 Z M 134.453125 66.339844 " fill-opacity="1" fill-rule="nonzero"/><path fill="#fecb37" d="M 142.644531 90.386719 L 127.277344 111.746094 L 115.488281 92.105469 C 115.40625 92.148438 115.320312 92.191406 115.234375 92.238281 C 108.316406 95.902344 103.445312 98.566406 99.941406 100.738281 C 111.445312 110.753906 127.769531 114.652344 143.332031 109.59375 C 150.472656 107.273438 156.625 103.328125 161.53125 98.304688 C 155 94.359375 148.144531 92.183594 142.839844 90.449219 C 142.777344 90.425781 142.710938 90.40625 142.644531 90.386719 Z M 142.644531 90.386719 " fill-opacity="1" fill-rule="nonzero"/><path fill="#233f93" d="M 134.230469 68.144531 C 132.019531 68.144531 129.742188 67.359375 127.640625 65.472656 C 124.804688 62.929688 123.460938 59.632812 122.160156 56.445312 C 121.511719 54.851562 120.839844 53.207031 119.988281 51.667969 C 119.949219 51.601562 119.976562 51.515625 120.042969 51.480469 C 120.109375 51.441406 120.191406 51.46875 120.230469 51.535156 C 121.089844 53.085938 121.761719 54.742188 122.414062 56.339844 C 123.703125 59.5 125.039062 62.765625 127.824219 65.265625 C 132.726562 69.664062 138.617188 67.902344 142.285156 64.207031 C 142.339844 64.152344 142.425781 64.152344 142.480469 64.207031 C 142.535156 64.261719 142.535156 64.347656 142.480469 64.402344 C 140.292969 66.609375 137.324219 68.144531 134.230469 68.144531 Z M 134.230469 68.144531 " fill-opacity="1" fill-rule="nonzero"/><path fill="#233f93" d="M 109.691406 64.558594 C 109.328125 64.558594 108.953125 64.507812 108.574219 64.390625 C 107.320312 64.003906 106.441406 63.230469 105.957031 62.089844 C 104.371094 58.320312 107.515625 51.875 108.164062 50.617188 C 108.195312 50.550781 108.28125 50.523438 108.347656 50.558594 C 108.417969 50.59375 108.441406 50.675781 108.40625 50.746094 C 106.648438 54.15625 105.019531 59.148438 106.214844 61.984375 C 106.660156 63.046875 107.480469 63.765625 108.652344 64.125 C 112.351562 65.257812 115.480469 60.035156 117.554688 56.582031 C 117.957031 55.910156 118.339844 55.273438 118.671875 54.777344 C 118.714844 54.714844 118.800781 54.699219 118.863281 54.742188 C 118.925781 54.785156 118.941406 54.871094 118.898438 54.933594 C 118.574219 55.421875 118.210938 56.027344 117.792969 56.722656 C 115.878906 59.90625 113.085938 64.558594 109.691406 64.558594 Z M 109.691406 64.558594 " fill-opacity="1" fill-rule="nonzero"/><path fill="#233f93" d="M 152.132812 76.390625 C 152.097656 76.390625 152.066406 76.378906 152.039062 76.351562 C 151.984375 76.300781 151.980469 76.210938 152.03125 76.15625 C 153.621094 74.453125 154.425781 71.851562 154.425781 68.425781 C 154.421875 62.988281 152.746094 57.070312 149.308594 50.324219 C 147.519531 46.8125 144.960938 42.429688 140.992188 39.664062 C 137.617188 37.3125 132.351562 36.011719 128.199219 38.410156 C 128.132812 38.449219 128.050781 38.425781 128.011719 38.359375 C 127.972656 38.292969 127.996094 38.210938 128.0625 38.171875 C 132.320312 35.710938 137.703125 37.035156 141.148438 39.4375 C 145.167969 42.238281 147.753906 46.660156 149.554688 50.195312 C 153.015625 56.984375 154.699219 62.945312 154.703125 68.421875 C 154.703125 71.925781 153.875 74.589844 152.234375 76.34375 C 152.207031 76.375 152.167969 76.390625 152.132812 76.390625 Z M 152.132812 76.390625 " fill-opacity="1" fill-rule="nonzero"/><path fill="#8a2d88" d="M 121.660156 50.152344 C 121.644531 50.152344 121.628906 50.152344 121.617188 50.144531 C 121.542969 50.121094 121.503906 50.042969 121.527344 49.96875 C 122.171875 48.078125 122.953125 46.210938 123.851562 44.421875 C 124.753906 42.628906 125.921875 40.605469 127.742188 39.199219 C 127.800781 39.152344 127.886719 39.164062 127.933594 39.226562 C 127.980469 39.285156 127.972656 39.371094 127.910156 39.417969 C 126.132812 40.789062 124.988281 42.78125 124.097656 44.546875 C 123.207031 46.324219 122.429688 48.179688 121.792969 50.058594 C 121.769531 50.117188 121.71875 50.152344 121.660156 50.152344 Z M 121.660156 50.152344 " fill-opacity="1" fill-rule="nonzero"/><path fill="#8a2d88" d="M 140.261719 77.128906 C 140.242188 77.128906 140.226562 77.128906 140.207031 77.121094 C 139.792969 76.949219 139.441406 76.5625 139.222656 76.03125 C 138.957031 75.398438 138.660156 73.996094 139.613281 71.742188 C 139.644531 71.671875 139.726562 71.636719 139.796875 71.667969 C 139.867188 71.699219 139.898438 71.777344 139.871094 71.847656 C 138.953125 74.011719 139.230469 75.332031 139.476562 75.925781 C 139.667969 76.390625 139.964844 76.722656 140.3125 76.863281 C 140.382812 76.894531 140.417969 76.972656 140.386719 77.042969 C 140.367188 77.097656 140.316406 77.128906 140.261719 77.128906 Z M 140.261719 77.128906 " fill-opacity="1" fill-rule="nonzero"/><path fill="#ffcfb9" d="M 116.390625 109.828125 C 116.394531 109.835938 116.394531 109.847656 116.398438 109.855469 C 116.285156 109.820312 116.167969 109.789062 116.054688 109.753906 C 115.96875 109.589844 115.851562 109.4375 115.738281 109.292969 C 115.300781 108.734375 114.859375 108.21875 114.265625 108.074219 C 113.757812 107.949219 113.15625 108.128906 112.667969 108.535156 C 112.574219 108.496094 112.476562 108.457031 112.382812 108.417969 C 112.386719 108.414062 112.390625 108.40625 112.398438 108.402344 C 112.960938 107.878906 113.703125 107.652344 114.328125 107.804688 C 115.066406 107.984375 115.582031 108.644531 115.957031 109.121094 C 116.113281 109.324219 116.296875 109.554688 116.390625 109.828125 Z M 158.683594 96.699219 C 157.605469 97.132812 156.578125 97.738281 155.566406 98.335938 L 155.328125 98.476562 C 153.523438 99.539062 151.410156 100.652344 149.246094 100.363281 C 148.542969 100.269531 148.011719 100.03125 147.675781 99.65625 C 147.28125 99.21875 147.117188 98.523438 147.234375 97.800781 C 147.414062 96.707031 148.179688 95.640625 149.332031 94.878906 C 150.15625 94.335938 151.085938 93.976562 152.023438 93.664062 C 151.886719 93.613281 151.757812 93.558594 151.625 93.507812 C 150.777344 93.804688 149.9375 94.148438 149.179688 94.648438 C 147.960938 95.453125 147.15625 96.585938 146.960938 97.757812 C 146.828125 98.574219 147.011719 99.335938 147.46875 99.84375 C 147.855469 100.269531 148.441406 100.535156 149.210938 100.636719 C 149.460938 100.671875 149.710938 100.6875 149.957031 100.6875 C 151.9375 100.6875 153.828125 99.683594 155.46875 98.714844 L 155.707031 98.574219 C 156.777344 97.941406 157.867188 97.300781 159.007812 96.871094 C 158.898438 96.816406 158.789062 96.757812 158.683594 96.699219 Z M 123.644531 106.113281 C 121.683594 105.816406 120.082031 104.640625 119.566406 103.121094 C 119.207031 102.074219 119.335938 100.824219 119.917969 99.699219 C 119.9375 99.660156 119.960938 99.625 119.980469 99.585938 L 119.816406 99.316406 C 119.765625 99.398438 119.714844 99.484375 119.671875 99.570312 C 119.058594 100.765625 118.921875 102.089844 119.304688 103.210938 C 119.851562 104.824219 121.539062 106.074219 123.601562 106.386719 C 123.765625 106.410156 123.925781 106.425781 124.089844 106.441406 L 123.910156 106.140625 C 123.820312 106.132812 123.730469 106.125 123.644531 106.113281 Z M 147.738281 106.421875 C 146.238281 106.382812 144.691406 106.34375 143.191406 106.601562 C 142.839844 106.664062 142.46875 106.746094 142.152344 106.9375 C 141.796875 107.148438 141.503906 107.492188 141.226562 108.019531 C 140.835938 108.753906 140.617188 109.570312 140.554688 110.398438 C 140.648438 110.375 140.742188 110.351562 140.835938 110.324219 C 140.902344 109.566406 141.113281 108.824219 141.46875 108.148438 C 141.722656 107.667969 141.984375 107.359375 142.292969 107.171875 C 142.574219 107.003906 142.910156 106.929688 143.238281 106.875 C 144.710938 106.621094 146.246094 106.660156 147.730469 106.699219 C 148.542969 106.71875 149.375 106.738281 150.203125 106.710938 C 150.394531 106.609375 150.589844 106.507812 150.78125 106.40625 C 149.765625 106.472656 148.738281 106.445312 147.738281 106.421875 Z M 108.671875 95.753906 C 108.589844 95.796875 108.507812 95.839844 108.429688 95.882812 C 108.65625 96.40625 108.800781 96.988281 108.824219 97.597656 C 108.839844 97.984375 108.796875 98.6875 108.328125 98.988281 C 108.0625 99.164062 107.710938 99.175781 107.398438 99.1875 C 105.902344 99.242188 104.277344 99.296875 102.6875 99.09375 C 102.558594 99.171875 102.429688 99.246094 102.304688 99.320312 C 103.273438 99.46875 104.257812 99.515625 105.222656 99.515625 C 105.96875 99.515625 106.703125 99.488281 107.410156 99.464844 C 107.738281 99.453125 108.148438 99.4375 108.480469 99.222656 C 109.03125 98.863281 109.121094 98.132812 109.101562 97.585938 C 109.074219 96.933594 108.921875 96.3125 108.671875 95.753906 Z M 108.671875 95.753906 " fill-opacity="1" fill-rule="nonzero"/><g mask="url(#71e1656555)"><g transform="matrix(1, 0, 0, 1, 99, 94)"><g clip-path="url(#868bcb1798)"><g clip-path="url(#93931b5167)"><path fill="#233f93" d="M 48.417969 8.96875 C 42.417969 15.015625 33.578125 18.109375 25.121094 17.132812 C 20.421875 16.59375 15.824219 14.820312 12.195312 11.792969 C 9.589844 9.613281 7.515625 6.769531 6.3125 3.601562 C 4.226562 4.765625 2.457031 5.796875 0.941406 6.738281 C 12.445312 16.753906 28.769531 20.652344 44.332031 15.59375 C 51.46875 13.273438 57.621094 9.328125 62.527344 4.304688 C 59.9375 2.742188 57.296875 1.453125 54.722656 0.363281 C 52.929688 3.46875 50.933594 6.433594 48.417969 8.96875 Z M 48.417969 8.96875 " fill-opacity="1" fill-rule="nonzero"/></g></g></g></g><path fill="#233f93" d="M 146.5625 91.71875 L 132.367188 111.707031 C 132.246094 111.714844 132.128906 111.722656 132.011719 111.730469 L 146.335938 91.558594 C 146.378906 91.496094 146.464844 91.480469 146.527344 91.527344 C 146.589844 91.570312 146.605469 91.65625 146.5625 91.71875 Z M 112.390625 93.59375 C 112.324219 93.628906 112.296875 93.714844 112.335938 93.78125 L 121.78125 111.140625 C 121.898438 111.160156 122.011719 111.179688 122.128906 111.199219 L 112.578125 93.648438 C 112.542969 93.582031 112.457031 93.558594 112.390625 93.59375 Z M 112.390625 93.59375 " fill-opacity="1" fill-rule="nonzero"/><g clip-path="url(#90bf1ca74e)"><path fill="#4ebcc2" d="M 20.199219 149.28125 C 26.257812 157.023438 34.890625 162.839844 45.203125 165.28125 C 69.332031 170.984375 93.515625 156.050781 99.21875 131.929688 C 104.921875 107.804688 89.988281 83.625 65.863281 77.921875 C 41.738281 72.214844 17.554688 87.148438 11.851562 111.273438 C 9.410156 121.585938 10.746094 131.90625 14.957031 140.792969 L 1.519531 154.953125 Z M 20.199219 149.28125 " fill-opacity="1" fill-rule="nonzero"/></g><path fill="#233f93" d="M 42.117188 122.925781 C 42.113281 122.925781 42.113281 122.925781 42.109375 122.925781 C 39.617188 122.726562 37.292969 121.214844 36.191406 119.082031 C 35.050781 116.867188 35.300781 114.003906 36.800781 112.121094 C 36.925781 111.964844 37.066406 111.804688 37.257812 111.707031 C 37.324219 111.671875 37.410156 111.699219 37.445312 111.765625 C 37.480469 111.835938 37.453125 111.917969 37.382812 111.953125 C 37.25 112.023438 37.140625 112.140625 37.015625 112.292969 C 35.582031 114.09375 35.34375 116.832031 36.4375 118.953125 C 37.496094 121.007812 39.730469 122.457031 42.128906 122.652344 C 42.207031 122.65625 42.261719 122.722656 42.257812 122.800781 C 42.25 122.871094 42.191406 122.925781 42.117188 122.925781 Z M 42.117188 122.925781 " fill-opacity="1" fill-rule="nonzero"/><path fill="#8a2d88" d="M 9.402344 146.644531 C 9.703125 148.488281 10.246094 150.332031 10.992188 152.078125 L 10.726562 152.15625 C 10.003906 150.464844 9.476562 148.679688 9.167969 146.894531 Z M 36.792969 141.859375 C 35.320312 140.808594 33.992188 140.8125 32.589844 140.816406 C 31.714844 140.820312 30.808594 140.820312 29.847656 140.546875 C 27.761719 139.957031 27.503906 138.203125 27.207031 136.167969 C 26.949219 134.386719 26.679688 132.546875 25.117188 131.292969 C 22.902344 129.511719 19.542969 129.121094 15.898438 130.222656 C 14.429688 130.667969 13.070312 131.3125 11.882812 132.09375 C 11.90625 132.1875 11.929688 132.28125 11.953125 132.375 C 13.136719 131.585938 14.5 130.933594 15.976562 130.488281 C 19.480469 129.429688 22.832031 129.8125 24.945312 131.507812 C 26.421875 132.691406 26.683594 134.480469 26.933594 136.210938 C 27.234375 138.25 27.515625 140.175781 29.769531 140.816406 C 30.769531 141.097656 31.691406 141.097656 32.589844 141.09375 C 33.957031 141.09375 35.234375 141.085938 36.632812 142.082031 C 38.261719 143.242188 39.40625 145.167969 39.773438 147.363281 C 40.304688 150.527344 39.207031 153.824219 36.683594 156.644531 C 35.476562 157.996094 34.015625 159.160156 32.429688 160.089844 C 32.519531 160.144531 32.609375 160.203125 32.699219 160.253906 C 34.257812 159.324219 35.695312 158.167969 36.890625 156.832031 C 39.46875 153.945312 40.589844 150.566406 40.046875 147.316406 C 39.667969 145.050781 38.480469 143.058594 36.792969 141.859375 Z M 71.445312 86.207031 C 71.21875 86.589844 70.839844 86.902344 70.28125 87.160156 C 69.605469 87.476562 68.855469 87.632812 68.109375 87.632812 C 67.429688 87.632812 66.753906 87.503906 66.132812 87.246094 C 65.375 86.929688 64.707031 86.441406 64.058594 85.964844 C 63.347656 85.445312 62.609375 84.902344 61.777344 84.621094 C 60.546875 84.199219 59.230469 84.425781 57.957031 84.640625 C 56.65625 84.863281 55.308594 85.09375 54.046875 84.636719 C 53.089844 84.292969 52.484375 83.679688 52.332031 82.917969 C 52.167969 82.078125 52.5625 81.160156 53.414062 80.390625 C 56.234375 77.855469 60.34375 79.496094 63.96875 80.945312 C 65.203125 81.4375 66.371094 81.902344 67.371094 82.148438 C 67.558594 82.195312 67.75 82.238281 67.9375 82.28125 C 68.816406 82.480469 69.726562 82.6875 70.484375 83.210938 C 71.421875 83.851562 72.054688 85.183594 71.445312 86.207031 Z M 70.328125 83.4375 C 69.613281 82.945312 68.730469 82.746094 67.875 82.550781 C 67.683594 82.507812 67.492188 82.464844 67.304688 82.417969 C 66.285156 82.164062 65.109375 81.695312 63.867188 81.199219 C 60.316406 79.78125 56.292969 78.175781 53.601562 80.597656 C 52.824219 81.296875 52.460938 82.125 52.605469 82.863281 C 52.734375 83.527344 53.28125 84.066406 54.140625 84.375 C 55.335938 84.804688 56.585938 84.59375 57.910156 84.367188 C 58.675781 84.238281 59.453125 84.105469 60.226562 84.105469 C 60.777344 84.105469 61.328125 84.175781 61.867188 84.359375 C 62.742188 84.65625 63.496094 85.207031 64.222656 85.742188 C 64.859375 86.207031 65.511719 86.6875 66.238281 86.988281 C 67.480469 87.507812 68.949219 87.476562 70.167969 86.910156 C 70.671875 86.675781 71.011719 86.398438 71.207031 86.066406 C 71.71875 85.207031 71.164062 84.011719 70.328125 83.4375 Z M 87.890625 136.910156 C 87.761719 136.042969 87.984375 135.253906 88.199219 134.492188 C 88.386719 133.824219 88.582031 133.136719 88.535156 132.410156 C 88.464844 131.25 87.4375 130.554688 86.445312 129.878906 C 85.59375 129.304688 84.789062 128.757812 84.726562 127.996094 C 84.671875 127.390625 85.082031 126.671875 85.980469 125.804688 C 86.597656 125.203125 87.398438 124.855469 88.171875 124.519531 C 89.703125 123.851562 91.152344 123.21875 90.109375 120.734375 C 89.453125 119.171875 88.148438 118.398438 86.886719 117.644531 C 85.441406 116.785156 84.074219 115.96875 83.558594 114.054688 C 82.6875 110.835938 83.9375 106.390625 86.339844 104.152344 C 89.308594 101.390625 93.261719 102.121094 96.59375 103.460938 C 96.539062 103.339844 96.484375 103.21875 96.429688 103.097656 C 93.078125 101.792969 89.148438 101.160156 86.152344 103.953125 C 83.679688 106.253906 82.398438 110.816406 83.289062 114.128906 C 83.835938 116.148438 85.316406 117.03125 86.746094 117.882812 C 88.027344 118.644531 89.234375 119.363281 89.851562 120.839844 C 90.789062 123.074219 89.644531 123.574219 88.058594 124.265625 C 87.300781 124.59375 86.441406 124.96875 85.785156 125.605469 C 84.824219 126.535156 84.386719 127.324219 84.449219 128.019531 C 84.527344 128.914062 85.382812 129.496094 86.289062 130.109375 C 87.226562 130.746094 88.195312 131.402344 88.261719 132.429688 C 88.304688 133.109375 88.125 133.742188 87.933594 134.414062 C 87.710938 135.207031 87.480469 136.023438 87.617188 136.949219 C 87.898438 138.867188 88.949219 140.578125 90.65625 141.898438 C 91.820312 142.796875 93.175781 143.386719 94.632812 143.667969 C 94.679688 143.585938 94.730469 143.5 94.777344 143.417969 C 93.324219 143.152344 91.976562 142.570312 90.824219 141.679688 C 89.175781 140.40625 88.160156 138.757812 87.890625 136.910156 Z M 16.5 111.871094 C 20.757812 111.148438 23.457031 108.425781 23.542969 104.761719 C 23.566406 103.78125 23.496094 102.84375 23.425781 101.933594 C 23.210938 99.113281 23.023438 96.675781 25.859375 94.511719 C 26.730469 93.847656 27.832031 93.367188 28.898438 92.902344 C 30.894531 92.035156 32.957031 91.136719 33.820312 88.980469 C 34.65625 86.894531 33.726562 84.789062 32.378906 83.78125 C 32.210938 83.660156 32.042969 83.550781 31.867188 83.460938 C 31.773438 83.519531 31.683594 83.578125 31.59375 83.636719 C 31.804688 83.734375 32.011719 83.855469 32.210938 84.003906 C 33.445312 84.921875 34.339844 86.941406 33.5625 88.875 C 32.742188 90.925781 30.730469 91.804688 28.789062 92.652344 C 27.707031 93.121094 26.585938 93.609375 25.691406 94.292969 C 22.734375 96.546875 22.925781 99.054688 23.148438 101.957031 C 23.21875 102.855469 23.289062 103.789062 23.265625 104.757812 C 23.164062 108.964844 19.679688 111.050781 16.453125 111.601562 C 14.765625 111.886719 13.195312 111.617188 11.957031 110.835938 C 11.9375 110.929688 11.910156 111.023438 11.890625 111.117188 C 12.832031 111.6875 13.949219 111.988281 15.160156 111.988281 C 15.597656 111.988281 16.042969 111.949219 16.5 111.871094 Z M 16.5 111.871094 " fill-opacity="1" fill-rule="nonzero"/><path fill="#233f93" d="M 44.730469 136.621094 C 45.746094 132.605469 63.523438 132.101562 68.648438 137.636719 C 72.878906 142.203125 60.84375 142.933594 57.820312 143.03125 C 54.175781 143.148438 43.078125 143.183594 44.730469 136.621094 Z M 44.730469 136.621094 " fill-opacity="1" fill-rule="nonzero"/><path fill="#fecb37" d="M 46.894531 141.210938 C 40.285156 143.375 31.039062 146.285156 23.515625 153.050781 C 29.246094 158.898438 36.644531 163.257812 45.203125 165.28125 C 61.472656 169.125 77.769531 163.589844 88.40625 152.175781 C 85.15625 149.925781 80.132812 147.132812 72.027344 142.839844 C 62.359375 137.71875 56.921875 137.929688 46.894531 141.210938 Z M 46.894531 141.210938 " fill-opacity="1" fill-rule="nonzero"/><path fill="#fecb37" d="M 48.785156 116.292969 L 46.761719 142.953125 L 68.351562 143.445312 L 66.292969 119.304688 Z M 48.785156 116.292969 " fill-opacity="1" fill-rule="nonzero"/><path fill="#233f93" d="M 55.28125 134.453125 C 55.28125 134.453125 58.636719 140.257812 68.121094 140.402344 L 67.761719 136.492188 C 67.761719 136.492188 61.035156 136.5625 55.28125 134.453125 Z M 55.28125 134.453125 " fill-opacity="1" fill-rule="nonzero"/><path fill="#fecb37" d="M 66.910156 112.3125 C 66.910156 112.3125 70.667969 109.121094 74.558594 112.464844 C 75.816406 113.542969 76.703125 116.53125 74.890625 119.089844 C 73.855469 120.550781 70.855469 121.636719 67.394531 120.964844 Z M 66.910156 112.3125 " fill-opacity="1" fill-rule="nonzero"/><g mask="url(#59240130ae)"><g transform="matrix(1, 0, 0, 1, 66, 110)"><g clip-path="url(#a05c6b5321)"><g clip-path="url(#bb53c15290)"><path fill="#233f93" d="M 0.910156 2.3125 C 0.910156 2.3125 4.667969 -0.878906 8.558594 2.464844 C 9.816406 3.542969 10.703125 6.53125 8.890625 9.089844 C 7.855469 10.550781 4.855469 11.636719 1.394531 10.964844 Z M 0.910156 2.3125 " fill-opacity="1" fill-rule="nonzero"/></g></g></g></g><path fill="#fecb37" d="M 66.964844 102.289062 C 66.964844 102.289062 73.042969 116.386719 75.0625 121.460938 C 77.085938 126.550781 77.003906 133.546875 69.175781 136.128906 C 63.234375 138.089844 54.625 135.101562 47.703125 130.171875 L 38.769531 108.320312 Z M 66.964844 102.289062 " fill-opacity="1" fill-rule="nonzero"/><path fill="#233f93" d="M 40.949219 122.742188 C 38.582031 122.179688 34.183594 117.5 37.019531 112.984375 C 37.019531 112.984375 34.203125 107.792969 37.585938 103.753906 C 38.410156 102.773438 40.152344 101.792969 42.292969 101.742188 C 42.292969 101.742188 41.253906 95.351562 48.546875 94.941406 C 48.546875 94.941406 53.964844 88.464844 60.847656 90.394531 C 60.847656 90.394531 65.429688 91.859375 65.082031 96.292969 C 65.082031 96.292969 69.394531 96.28125 72.226562 100.5625 C 72.226562 100.5625 74.574219 104.34375 72.335938 107.988281 C 72.335938 107.988281 73.9375 112.609375 73.082031 116.664062 C 73.082031 116.664062 70.667969 110.941406 69.632812 108.511719 C 68.941406 106.882812 67.566406 104.785156 63.5625 103.855469 C 63.5625 103.855469 67.921875 109.449219 54.464844 108.160156 C 54.464844 108.160156 55.035156 113.402344 48.753906 112.496094 C 48.753906 112.496094 50.816406 115.074219 51.585938 116.515625 C 52.441406 118.117188 54.121094 123.621094 54.121094 123.621094 L 51.515625 125.179688 L 50.519531 121.976562 C 50.519531 121.976562 44.574219 123.601562 40.949219 122.742188 Z M 40.949219 122.742188 " fill-opacity="1" fill-rule="nonzero"/><path fill="#fecb37" d="M 50.519531 121.976562 C 50.519531 121.976562 47.773438 117.886719 43.117188 120.042969 C 41.613281 120.742188 39.949219 123.375 40.996094 126.332031 C 41.597656 128.019531 44.1875 129.878906 47.703125 130.171875 Z M 50.519531 121.976562 " fill-opacity="1" fill-rule="nonzero"/><path fill="#233f93" d="M 44.695312 125.777344 C 44.628906 125.777344 44.574219 125.730469 44.558594 125.667969 C 44.542969 125.59375 44.589844 125.519531 44.667969 125.503906 L 47.027344 125 L 44.402344 122.074219 C 44.351562 122.015625 44.355469 121.929688 44.410156 121.878906 C 44.46875 121.828125 44.554688 121.832031 44.605469 121.890625 L 47.390625 124.992188 C 47.425781 125.027344 47.433594 125.078125 47.417969 125.125 C 47.40625 125.171875 47.363281 125.207031 47.316406 125.21875 L 44.722656 125.773438 C 44.714844 125.777344 44.703125 125.777344 44.695312 125.777344 Z M 44.695312 125.777344 " fill-opacity="1" fill-rule="nonzero"/><path fill="#233f93" d="M 61.101562 117.257812 C 61.1875 117.5625 61.195312 117.847656 61.117188 118.105469 C 61.042969 118.359375 60.90625 118.519531 60.710938 118.574219 C 60.515625 118.628906 60.316406 118.570312 60.113281 118.390625 C 59.914062 118.214844 59.769531 117.96875 59.679688 117.664062 C 59.59375 117.355469 59.585938 117.070312 59.664062 116.8125 C 59.738281 116.558594 59.875 116.402344 60.070312 116.34375 C 60.269531 116.289062 60.464844 116.347656 60.667969 116.527344 C 60.867188 116.707031 61.011719 116.949219 61.101562 117.257812 Z M 61.101562 117.257812 " fill-opacity="1" fill-rule="nonzero"/><path fill="#233f93" d="M 69.039062 114.25 C 69.128906 114.558594 69.132812 114.839844 69.058594 115.097656 C 68.980469 115.355469 68.84375 115.511719 68.648438 115.566406 C 68.453125 115.625 68.253906 115.5625 68.054688 115.382812 C 67.851562 115.207031 67.707031 114.964844 67.621094 114.65625 C 67.53125 114.347656 67.527344 114.066406 67.601562 113.808594 C 67.679688 113.550781 67.8125 113.394531 68.011719 113.335938 C 68.207031 113.28125 68.40625 113.34375 68.605469 113.519531 C 68.804688 113.699219 68.949219 113.941406 69.039062 114.25 Z M 69.039062 114.25 " fill-opacity="1" fill-rule="nonzero"/><path fill="#233f93" d="M 64.058594 125.871094 C 62.90625 125.871094 61.558594 125.472656 60.363281 124.078125 C 60.316406 124.019531 60.320312 123.929688 60.378906 123.882812 C 60.4375 123.832031 60.527344 123.839844 60.574219 123.898438 C 63.210938 126.980469 66.640625 124.929688 66.675781 124.910156 C 66.742188 124.867188 66.828125 124.890625 66.867188 124.953125 C 66.90625 125.019531 66.886719 125.105469 66.820312 125.144531 C 66.800781 125.15625 65.601562 125.871094 64.058594 125.871094 Z M 64.058594 125.871094 " fill-opacity="1" fill-rule="nonzero"/><path fill="#233f93" d="M 68.390625 120.359375 C 68.351562 120.359375 68.316406 120.347656 68.289062 120.316406 C 68.234375 120.261719 68.238281 120.171875 68.296875 120.121094 L 69.5 119.011719 C 65.546875 117.039062 65.722656 113.003906 65.722656 112.964844 C 65.726562 112.886719 65.789062 112.832031 65.867188 112.832031 C 65.945312 112.835938 66.003906 112.902344 66 112.980469 C 65.996094 113.019531 65.832031 116.992188 69.804688 118.851562 C 69.84375 118.871094 69.875 118.910156 69.882812 118.953125 C 69.886719 119 69.871094 119.046875 69.835938 119.078125 L 68.484375 120.324219 C 68.457031 120.347656 68.421875 120.359375 68.390625 120.359375 Z M 68.390625 120.359375 " fill-opacity="1" fill-rule="nonzero"/><path fill="#233f93" d="M 56.652344 114.792969 C 56.628906 114.792969 56.609375 114.785156 56.589844 114.777344 C 56.519531 114.742188 56.492188 114.65625 56.53125 114.589844 C 57.917969 111.929688 60.140625 112.8125 60.164062 112.824219 C 60.234375 112.851562 60.269531 112.933594 60.238281 113.003906 C 60.210938 113.074219 60.132812 113.109375 60.058594 113.078125 C 59.976562 113.046875 58.042969 112.289062 56.773438 114.71875 C 56.75 114.765625 56.703125 114.792969 56.652344 114.792969 Z M 56.652344 114.792969 " fill-opacity="1" fill-rule="nonzero"/><path fill="#233f93" d="M 66.117188 111.734375 C 66.101562 111.734375 66.089844 111.730469 66.074219 111.726562 C 66.003906 111.707031 65.960938 111.628906 65.984375 111.554688 C 65.992188 111.527344 66.1875 110.890625 66.828125 110.574219 C 67.3125 110.332031 67.914062 110.34375 68.609375 110.609375 C 68.679688 110.636719 68.71875 110.71875 68.691406 110.789062 C 68.664062 110.863281 68.582031 110.898438 68.511719 110.871094 C 67.890625 110.632812 67.367188 110.617188 66.953125 110.820312 C 66.421875 111.082031 66.25 111.628906 66.246094 111.636719 C 66.230469 111.695312 66.175781 111.734375 66.117188 111.734375 Z M 66.117188 111.734375 " fill-opacity="1" fill-rule="nonzero"/><path fill="#233f93" d="M 68.875 139.421875 C 67.585938 142.21875 65.789062 146.867188 65.789062 146.867188 L 46.894531 141.210938 C 40.285156 143.375 31.039062 146.285156 23.515625 153.050781 C 29.246094 158.898438 36.644531 163.257812 45.203125 165.28125 C 63.742188 169.664062 82.3125 161.863281 92.507812 147.070312 C 88.535156 142.378906 81.945312 139.125 68.875 139.421875 Z M 68.875 139.421875 " fill-opacity="1" fill-rule="nonzero"/><g mask="url(#267231e52a)"><g transform="matrix(1, 0, 0, 1, 23, 146)"><g clip-path="url(#9bb0f0cd99)"><g clip-path="url(#16f2a5a995)"><path fill="#8a2d88" d="M 17.210938 14.382812 C 15.457031 12.96875 13.988281 11.222656 12.664062 9.398438 C 10.894531 6.957031 9.328125 4.25 8.664062 1.335938 C 5.863281 2.871094 3.089844 4.738281 0.515625 7.050781 C 6.25 12.898438 13.644531 17.257812 22.203125 19.28125 C 26.769531 20.359375 31.332031 20.699219 35.773438 20.378906 C 31.566406 20.253906 27.378906 19.425781 23.460938 17.878906 C 21.230469 16.996094 19.074219 15.890625 17.210938 14.382812 Z M 17.210938 14.382812 " fill-opacity="1" fill-rule="nonzero"/></g></g></g></g><path fill="#8a2d88" d="M 41.320312 164.175781 C 59.828125 162.730469 75.390625 158.730469 88.542969 152.027344 C 88.722656 151.832031 88.902344 151.636719 89.078125 151.4375 C 75.675781 158.40625 59.734375 162.523438 40.675781 163.945312 C 40.890625 164.023438 41.101562 164.101562 41.320312 164.175781 Z M 41.320312 164.175781 " fill-opacity="1" fill-rule="nonzero"/><path fill="#ffcfb9" d="M 65.789062 146.867188 L 67.761719 136.492188 L 72.257812 138.03125 L 74.285156 144.042969 L 68.71875 142.867188 Z M 65.789062 146.867188 " fill-opacity="1" fill-rule="nonzero"/><path fill="#8a2d88" d="M 66.484375 149.503906 C 64.199219 149.503906 58.9375 148.460938 58.242188 148.320312 C 58.167969 148.304688 58.121094 148.230469 58.132812 148.15625 C 58.148438 148.082031 58.222656 148.03125 58.296875 148.046875 C 60.523438 148.496094 66.476562 149.566406 67.285156 149.132812 C 68.699219 148.371094 71.179688 143.40625 71.207031 143.355469 C 71.238281 143.289062 71.324219 143.261719 71.390625 143.292969 C 71.460938 143.328125 71.488281 143.410156 71.453125 143.480469 C 71.351562 143.6875 68.90625 148.574219 67.417969 149.375 C 67.25 149.464844 66.921875 149.503906 66.484375 149.503906 Z M 66.484375 149.503906 " fill-opacity="1" fill-rule="nonzero"/><path fill="#233f93" d="M 65.789062 147.003906 C 65.761719 147.003906 65.734375 146.996094 65.707031 146.980469 C 65.648438 146.933594 65.632812 146.847656 65.679688 146.785156 L 72.148438 137.949219 C 72.191406 137.886719 72.277344 137.875 72.339844 137.917969 C 72.402344 137.964844 72.414062 138.050781 72.371094 138.113281 L 65.902344 146.949219 C 65.875 146.984375 65.832031 147.003906 65.789062 147.003906 Z M 65.789062 147.003906 " fill-opacity="1" fill-rule="nonzero"/><path fill="#ffcfb9" d="M 45 135.921875 C 45 135.921875 43.90625 141.152344 61.277344 141.980469 L 65.789062 146.867188 L 60.179688 145.847656 L 58.570312 151.605469 C 58.570312 151.605469 39.945312 149.128906 40.972656 143.257812 C 41.332031 141.195312 43.304688 138.144531 45 135.921875 Z M 45 135.921875 " fill-opacity="1" fill-rule="nonzero"/><g mask="url(#ab89f2f173)"><g transform="matrix(1, 0, 0, 1, 40, 135)"><g clip-path="url(#1362125e38)"><g clip-path="url(#00f86dee9b)"><path fill="#fecb37" d="M 9.5 10.75 C 7.355469 9.714844 5.46875 7.976562 4.671875 5.734375 C 4.171875 4.332031 4.171875 2.726562 4.683594 1.339844 C 3.066406 3.515625 1.308594 6.324219 0.972656 8.257812 C -0.0546875 14.128906 18.570312 16.605469 18.570312 16.605469 L 19.695312 12.570312 C 18.597656 12.550781 17.5 12.496094 16.40625 12.398438 C 14.035156 12.1875 11.644531 11.785156 9.5 10.75 Z M 9.5 10.75 " fill-opacity="1" fill-rule="nonzero"/></g></g></g></g><path fill="#233f93" d="M 58.570312 151.742188 C 58.558594 151.742188 58.546875 151.742188 58.53125 151.738281 C 58.460938 151.71875 58.417969 151.640625 58.4375 151.566406 L 61.144531 141.941406 C 61.164062 141.867188 61.242188 141.824219 61.316406 141.84375 C 61.390625 141.867188 61.433594 141.941406 61.410156 142.015625 L 58.703125 151.640625 C 58.6875 151.703125 58.632812 151.742188 58.570312 151.742188 Z M 58.570312 151.742188 " fill-opacity="1" fill-rule="nonzero"/><path fill="#8a2d88" d="M 61.070312 102.027344 C 61.050781 102.027344 61.03125 102.027344 61.011719 102.027344 C 60.933594 102.023438 60.875 101.960938 60.875 101.886719 C 60.878906 101.808594 60.949219 101.757812 61.015625 101.75 C 61.671875 101.761719 62.304688 101.5 62.722656 101.300781 C 63.023438 101.160156 63.402344 100.960938 63.714844 100.671875 C 64.117188 100.300781 64.425781 99.761719 64.601562 99.109375 C 64.769531 98.492188 64.808594 97.832031 64.832031 97.265625 C 64.835938 97.1875 64.902344 97.121094 64.976562 97.132812 C 65.054688 97.132812 65.113281 97.199219 65.109375 97.277344 C 65.085938 97.859375 65.042969 98.535156 64.867188 99.183594 C 64.679688 99.882812 64.34375 100.46875 63.902344 100.875 C 63.5625 101.191406 63.160156 101.402344 62.84375 101.550781 C 62.410156 101.757812 61.761719 102.027344 61.070312 102.027344 Z M 61.070312 102.027344 " fill-opacity="1" fill-rule="nonzero"/><path fill="#8a2d88" d="M 45.398438 112.886719 C 44.722656 112.886719 44.050781 112.6875 43.496094 112.289062 C 43.433594 112.246094 43.421875 112.160156 43.464844 112.097656 C 43.511719 112.035156 43.597656 112.019531 43.660156 112.066406 C 44.554688 112.710938 45.816406 112.792969 46.789062 112.273438 C 47.765625 111.75 48.394531 110.65625 48.355469 109.554688 C 48.351562 109.476562 48.410156 109.414062 48.488281 109.410156 C 48.570312 109.410156 48.628906 109.46875 48.632812 109.542969 C 48.671875 110.75 47.984375 111.945312 46.917969 112.515625 C 46.453125 112.765625 45.925781 112.886719 45.398438 112.886719 Z M 45.398438 112.886719 " fill-opacity="1" fill-rule="nonzero"/><path fill="#8a2d88" d="M 45.214844 103.945312 C 45.09375 103.945312 44.976562 103.941406 44.855469 103.929688 C 43.785156 103.816406 42.855469 103.164062 42.488281 102.269531 C 42.457031 102.199219 42.492188 102.121094 42.5625 102.089844 C 42.632812 102.0625 42.714844 102.09375 42.742188 102.164062 C 43.074219 102.964844 43.914062 103.550781 44.886719 103.652344 C 45.730469 103.742188 46.664062 103.484375 47.527344 102.925781 C 47.589844 102.882812 47.675781 102.902344 47.71875 102.964844 C 47.757812 103.03125 47.742188 103.117188 47.675781 103.15625 C 46.882812 103.671875 46.019531 103.945312 45.214844 103.945312 Z M 45.214844 103.945312 " fill-opacity="1" fill-rule="nonzero"/><g mask="url(#f083635312)"><g transform="matrix(1, 0, 0, 1, 35, 89)"><g clip-path="url(#21f08fa0c4)"><g clip-path="url(#1fbb4ff504)"><path fill="#8a2d88" d="M 25.847656 1.394531 C 25.847656 1.394531 25.9375 1.421875 26.085938 1.480469 C 25.800781 1.691406 25.5 1.882812 25.1875 2.050781 C 24 2.6875 22.664062 3.015625 21.324219 3.183594 C 20.15625 3.328125 18.910156 3.34375 17.878906 2.773438 C 17.796875 2.730469 17.71875 2.683594 17.640625 2.632812 C 19.804688 1.40625 22.671875 0.503906 25.847656 1.394531 Z M 2.46875 14.90625 C 0.710938 17.117188 0.75 19.644531 1.144531 21.472656 C 1.507812 21.085938 1.867188 20.699219 2.230469 20.316406 C 2.570312 19.949219 2.921875 19.574219 3.113281 19.113281 C 3.296875 18.675781 3.324219 18.1875 3.296875 17.710938 C 3.238281 16.730469 2.949219 15.765625 2.46875 14.90625 Z M 37.226562 11.5625 C 36.90625 11.078125 36.566406 10.652344 36.214844 10.269531 C 35.808594 11.375 35.804688 12.632812 36.320312 13.691406 C 36.722656 14.519531 37.453125 15.183594 38.300781 15.53125 C 38.296875 13.289062 37.226562 11.5625 37.226562 11.5625 Z M 37.226562 11.5625 " fill-opacity="1" fill-rule="nonzero"/></g></g></g></g><path fill="#233f93" d="M 72.226562 109.78125 C 72.199219 109.78125 72.171875 109.773438 72.148438 109.757812 C 72.085938 109.714844 72.066406 109.628906 72.109375 109.566406 C 73.121094 108.03125 74.113281 106.378906 74.207031 104.535156 C 74.277344 103.128906 73.800781 101.671875 72.863281 100.425781 C 72.042969 99.332031 70.847656 98.386719 69.414062 97.695312 C 68.273438 97.148438 67.058594 96.785156 65.804688 96.617188 C 65.730469 96.605469 65.675781 96.535156 65.6875 96.460938 C 65.695312 96.386719 65.765625 96.332031 65.84375 96.34375 C 67.125 96.515625 68.367188 96.886719 69.53125 97.449219 C 71.007812 98.15625 72.238281 99.128906 73.085938 100.257812 C 74.0625 101.554688 74.558594 103.078125 74.484375 104.550781 C 74.386719 106.460938 73.371094 108.152344 72.339844 109.71875 C 72.3125 109.757812 72.269531 109.78125 72.226562 109.78125 Z M 72.226562 109.78125 " fill-opacity="1" fill-rule="nonzero"/><path fill="#233f93" d="M 43.113281 98.03125 C 43.105469 98.03125 43.097656 98.03125 43.085938 98.027344 C 43.011719 98.015625 42.960938 97.941406 42.976562 97.867188 C 43.269531 96.238281 44.710938 95.191406 45.957031 94.75 C 47.375 94.253906 48.949219 94.273438 50.335938 94.296875 C 50.410156 94.296875 50.472656 94.359375 50.472656 94.433594 C 50.46875 94.511719 50.410156 94.570312 50.332031 94.570312 C 48.898438 94.550781 47.421875 94.53125 46.050781 95.011719 C 44.875 95.425781 43.519531 96.40625 43.25 97.917969 C 43.234375 97.984375 43.179688 98.03125 43.113281 98.03125 Z M 43.113281 98.03125 " fill-opacity="1" fill-rule="nonzero"/><g mask="url(#d4255ef98d)"><g transform="matrix(1, 0, 0, 1, 110, 37)"><g clip-path="url(#ef52f55a5e)"><g clip-path="url(#097477dd5d)"><path fill="#8a2d88" d="M 10.835938 1.695312 C 11.09375 1.378906 11.332031 1.042969 11.558594 0.703125 C 8.273438 1.285156 4.414062 3.046875 1.332031 7.558594 C 1.324219 7.570312 1.316406 7.578125 1.304688 7.585938 C 1.09375 7.832031 0.871094 8.117188 0.644531 8.429688 C 2.363281 8.046875 4.027344 7.144531 5.523438 6.179688 C 7.480469 4.921875 9.371094 3.5 10.835938 1.695312 Z M 10.835938 1.695312 " fill-opacity="1" fill-rule="nonzero"/></g></g></g></g><g mask="url(#2233e5172b)"><g transform="matrix(1, 0, 0, 1, 147, 70)"><g clip-path="url(#b7d8fdabf5)"><g clip-path="url(#47ead19040)"><path fill="#8a2d88" d="M 1.933594 6.023438 C 1.246094 7.269531 0.800781 8.683594 0.878906 10.105469 C 0.902344 10.480469 0.957031 10.847656 1.042969 11.210938 C 3.890625 9.949219 6.539062 7.46875 7.425781 2.652344 C 7.519531 2.148438 7.585938 1.628906 7.632812 1.097656 C 5.234375 2.007812 3.171875 3.777344 1.933594 6.023438 Z M 1.933594 6.023438 " fill-opacity="1" fill-rule="nonzero"/></g></g></g></g><path fill="#233f93" d="M 128.554688 69.074219 C 128.527344 69.074219 128.5 69.066406 128.472656 69.046875 C 126.628906 67.675781 125.644531 68.632812 125.601562 68.671875 C 125.550781 68.726562 125.460938 68.726562 125.40625 68.675781 C 125.355469 68.621094 125.351562 68.535156 125.40625 68.480469 C 125.417969 68.46875 126.589844 67.304688 128.640625 68.824219 C 128.699219 68.871094 128.714844 68.957031 128.667969 69.019531 C 128.640625 69.054688 128.597656 69.074219 128.554688 69.074219 Z M 128.554688 69.074219 " fill-opacity="1" fill-rule="nonzero"/><path fill="#233f93" d="M 115.003906 68.503906 C 114.976562 68.503906 114.945312 68.496094 114.921875 68.480469 C 114.859375 68.433594 114.847656 68.347656 114.890625 68.285156 C 114.910156 68.261719 115.339844 67.683594 116.054688 67.621094 C 116.554688 67.574219 117.058594 67.792969 117.550781 68.265625 C 117.609375 68.320312 117.609375 68.40625 117.554688 68.460938 C 117.503906 68.515625 117.417969 68.519531 117.359375 68.46875 C 116.925781 68.050781 116.496094 67.859375 116.078125 67.894531 C 115.488281 67.949219 115.117188 68.445312 115.113281 68.449219 C 115.085938 68.484375 115.046875 68.503906 115.003906 68.503906 Z M 115.003906 68.503906 " fill-opacity="1" fill-rule="nonzero"/></svg>