<svg xmlns="http://www.w3.org/2000/svg" xmlns:xlink="http://www.w3.org/1999/xlink" width="150" zoomAndPan="magnify" viewBox="0 0 112.5 112.499997" height="150" preserveAspectRatio="xMidYMid meet" version="1.0"><defs><g/><clipPath id="774107c50c"><path d="M 0 0 L 112.003906 0 L 112.003906 112.003906 L 0 112.003906 Z M 0 0 " clip-rule="nonzero"/></clipPath></defs><g clip-path="url(#774107c50c)"><path fill="#ffffff" d="M 0 0 L 112.5 0 L 112.5 120 L 0 120 Z M 0 0 " fill-opacity="1" fill-rule="nonzero"/><path fill="#ffffff" d="M 0 0 L 112.5 0 L 112.5 112.5 L 0 112.5 Z M 0 0 " fill-opacity="1" fill-rule="nonzero"/><path fill="#fecb37" d="M 0 0 L 112.5 0 L 112.5 112.5 L 0 112.5 Z M 0 0 " fill-opacity="1" fill-rule="nonzero"/></g><g fill="#ffffff" fill-opacity="1"><g transform="translate(13.526275, 62.443084)"><g><path d="M 6.46875 0 L 3.640625 -9.25 L 3.5625 -9.25 C 3.664062 -7.363281 3.71875 -6.109375 3.71875 -5.484375 L 3.71875 0 L 1.484375 0 L 1.484375 -11.796875 L 4.890625 -11.796875 L 7.671875 -2.78125 L 7.71875 -2.78125 L 10.6875 -11.796875 L 14.09375 -11.796875 L 14.09375 0 L 11.75 0 L 11.75 -5.578125 C 11.75 -5.835938 11.753906 -6.140625 11.765625 -6.484375 C 11.773438 -6.835938 11.8125 -7.753906 11.875 -9.234375 L 11.8125 -9.234375 L 8.765625 0 Z M 6.46875 0 "/></g></g><g transform="translate(29.097702, 62.443084)"><g><path d="M 8.703125 0 L 7.84375 -2.8125 L 3.546875 -2.8125 L 2.6875 0 L 0 0 L 4.15625 -11.84375 L 7.21875 -11.84375 L 11.390625 0 Z M 7.25 -4.90625 C 6.457031 -7.445312 6.007812 -8.882812 5.90625 -9.21875 C 5.8125 -9.550781 5.742188 -9.8125 5.703125 -10 C 5.523438 -9.3125 5.015625 -7.613281 4.171875 -4.90625 Z M 7.25 -4.90625 "/></g></g><g transform="translate(40.492019, 62.443084)"><g><path d="M 10.96875 0 L 8.125 0 L 5.046875 -4.96875 L 3.984375 -4.203125 L 3.984375 0 L 1.484375 0 L 1.484375 -11.796875 L 3.984375 -11.796875 L 3.984375 -6.390625 L 4.96875 -7.78125 L 8.15625 -11.796875 L 10.9375 -11.796875 L 6.828125 -6.578125 Z M 10.96875 0 "/></g></g><g transform="translate(51.458948, 62.443084)"><g><path d="M 8.703125 0 L 7.84375 -2.8125 L 3.546875 -2.8125 L 2.6875 0 L 0 0 L 4.15625 -11.84375 L 7.21875 -11.84375 L 11.390625 0 Z M 7.25 -4.90625 C 6.457031 -7.445312 6.007812 -8.882812 5.90625 -9.21875 C 5.8125 -9.550781 5.742188 -9.8125 5.703125 -10 C 5.523438 -9.3125 5.015625 -7.613281 4.171875 -4.90625 Z M 7.25 -4.90625 "/></g></g><g transform="translate(62.853265, 62.443084)"><g><path d="M 6.03125 0 L 3.53125 0 L 3.53125 -9.703125 L 0.328125 -9.703125 L 0.328125 -11.796875 L 9.234375 -11.796875 L 9.234375 -9.703125 L 6.03125 -9.703125 Z M 6.03125 0 "/></g></g><g transform="translate(72.417073, 62.443084)"><g><path d="M 12.1875 -5.90625 C 12.1875 -3.957031 11.703125 -2.457031 10.734375 -1.40625 C 9.765625 -0.363281 8.378906 0.15625 6.578125 0.15625 C 4.765625 0.15625 3.375 -0.363281 2.40625 -1.40625 C 1.4375 -2.457031 0.953125 -3.960938 0.953125 -5.921875 C 0.953125 -7.890625 1.4375 -9.390625 2.40625 -10.421875 C 3.382812 -11.453125 4.78125 -11.96875 6.59375 -11.96875 C 8.40625 -11.96875 9.789062 -11.445312 10.75 -10.40625 C 11.707031 -9.363281 12.1875 -7.863281 12.1875 -5.90625 Z M 3.578125 -5.90625 C 3.578125 -4.59375 3.828125 -3.601562 4.328125 -2.9375 C 4.828125 -2.269531 5.578125 -1.9375 6.578125 -1.9375 C 8.566406 -1.9375 9.5625 -3.257812 9.5625 -5.90625 C 9.5625 -8.5625 8.570312 -9.890625 6.59375 -9.890625 C 5.59375 -9.890625 4.835938 -9.554688 4.328125 -8.890625 C 3.828125 -8.222656 3.578125 -7.226562 3.578125 -5.90625 Z M 3.578125 -5.90625 "/></g></g><g transform="translate(85.56126, 62.443084)"><g><path d="M 11.9375 0 L 8.765625 0 L 3.640625 -8.921875 L 3.5625 -8.921875 C 3.664062 -7.347656 3.71875 -6.222656 3.71875 -5.546875 L 3.71875 0 L 1.484375 0 L 1.484375 -11.796875 L 4.640625 -11.796875 L 9.75 -2.953125 L 9.8125 -2.953125 C 9.726562 -4.492188 9.6875 -5.578125 9.6875 -6.203125 L 9.6875 -11.796875 L 11.9375 -11.796875 Z M 11.9375 0 "/></g></g></g></svg>