<svg xmlns="http://www.w3.org/2000/svg" xmlns:xlink="http://www.w3.org/1999/xlink" width="1800" zoomAndPan="magnify" viewBox="0 0 1350 599.999999" height="800" preserveAspectRatio="xMidYMid meet" version="1.0"><defs><clipPath id="001d287d7b"><path d="M 0 127.054688 L 659.179688 127.054688 L 659.179688 600 L 0 600 Z M 0 127.054688 " clip-rule="nonzero"/></clipPath><clipPath id="2749022b3d"><path d="M 95.089844 127.054688 L 659.179688 1114.214844 L -469 1114.214844 L 95.089844 127.054688 " clip-rule="nonzero"/></clipPath><clipPath id="2e7d9d8fe9"><path d="M 994.121094 0 L 1350 0 L 1350 309.921875 L 994.121094 309.921875 Z M 994.121094 0 " clip-rule="nonzero"/></clipPath><clipPath id="4aa7d8d3ce"><path d="M 1244.039062 -189.921875 C 1106.011719 -189.921875 994.121094 -78.027344 994.121094 60 C 994.121094 198.027344 1106.011719 309.921875 1244.039062 309.921875 C 1382.066406 309.921875 1493.960938 198.027344 1493.960938 60 C 1493.960938 -78.027344 1382.066406 -189.921875 1244.039062 -189.921875 " clip-rule="nonzero"/></clipPath></defs><rect x="-135" width="1620" fill="#ffffff" y="-60" height="719.999999" fill-opacity="1"/><rect x="-135" width="1620" fill="#ffffff" y="-60" height="719.999999" fill-opacity="1"/><rect x="-135" width="1620" fill="#ffffff" y="-60" height="719.999999" fill-opacity="1"/><g clip-path="url(#001d287d7b)"><g clip-path="url(#2749022b3d)"><path fill="#8a2d88" d="M -469 127.054688 L 659.179688 127.054688 L 659.179688 1114.214844 L -469 1114.214844 Z M -469 127.054688 " fill-opacity="1" fill-rule="nonzero"/></g></g><g clip-path="url(#2e7d9d8fe9)"><g clip-path="url(#4aa7d8d3ce)"><path fill="#4ebcc2" d="M 994.121094 -189.921875 L 1493.960938 -189.921875 L 1493.960938 309.921875 L 994.121094 309.921875 Z M 994.121094 -189.921875 " fill-opacity="1" fill-rule="nonzero"/></g></g></svg>