<svg xmlns="http://www.w3.org/2000/svg" xmlns:xlink="http://www.w3.org/1999/xlink" width="1800" zoomAndPan="magnify" viewBox="0 0 1350 599.999999" height="800" preserveAspectRatio="xMidYMid meet" version="1.0"><defs><clipPath id="988972c9bf"><path d="M 994.121094 0 L 1350 0 L 1350 309.921875 L 994.121094 309.921875 Z M 994.121094 0 " clip-rule="nonzero"/></clipPath><clipPath id="dd18407a3e"><path d="M 1244.039062 -189.921875 C 1106.011719 -189.921875 994.121094 -78.027344 994.121094 60 C 994.121094 198.027344 1106.011719 309.921875 1244.039062 309.921875 C 1382.066406 309.921875 1493.960938 198.027344 1493.960938 60 C 1493.960938 -78.027344 1382.066406 -189.921875 1244.039062 -189.921875 " clip-rule="nonzero"/></clipPath><clipPath id="f13e9afff1"><path d="M 0 432.425781 L 299.796875 432.425781 L 299.796875 600 L 0 600 Z M 0 432.425781 " clip-rule="nonzero"/></clipPath><clipPath id="7b0e0dd251"><path d="M 122.738281 432.425781 C 24.953125 432.425781 -54.320312 511.695312 -54.320312 609.480469 C -54.320312 707.269531 24.953125 786.539062 122.738281 786.539062 C 220.523438 786.539062 299.796875 707.269531 299.796875 609.480469 C 299.796875 511.695312 220.523438 432.425781 122.738281 432.425781 " clip-rule="nonzero"/></clipPath></defs><rect x="-135" width="1620" fill="#ffffff" y="-60" height="719.999999" fill-opacity="1"/><rect x="-135" width="1620" fill="#ffffff" y="-60" height="719.999999" fill-opacity="1"/><rect x="-135" width="1620" fill="#ffffff" y="-60" height="719.999999" fill-opacity="1"/><g clip-path="url(#988972c9bf)"><g clip-path="url(#dd18407a3e)"><path fill="#4ebcc2" d="M 994.121094 -189.921875 L 1493.960938 -189.921875 L 1493.960938 309.921875 L 994.121094 309.921875 Z M 994.121094 -189.921875 " fill-opacity="1" fill-rule="nonzero"/></g></g><g clip-path="url(#f13e9afff1)"><g clip-path="url(#7b0e0dd251)"><path fill="#8a2d88" d="M -54.320312 432.425781 L 299.796875 432.425781 L 299.796875 786.539062 L -54.320312 786.539062 Z M -54.320312 432.425781 " fill-opacity="1" fill-rule="nonzero"/></g></g></svg>