<svg xmlns="http://www.w3.org/2000/svg" xmlns:xlink="http://www.w3.org/1999/xlink" width="150" zoomAndPan="magnify" viewBox="0 0 112.5 112.499997" height="150" preserveAspectRatio="xMidYMid meet" version="1.0"><defs><g/><clipPath id="0cb39de67c"><path d="M 0 0 L 112.003906 0 L 112.003906 112.003906 L 0 112.003906 Z M 0 0 " clip-rule="nonzero"/></clipPath></defs><g clip-path="url(#0cb39de67c)"><path fill="#ffffff" d="M 0 0 L 112.5 0 L 112.5 120 L 0 120 Z M 0 0 " fill-opacity="1" fill-rule="nonzero"/><path fill="#ffffff" d="M 0 0 L 112.5 0 L 112.5 112.5 L 0 112.5 Z M 0 0 " fill-opacity="1" fill-rule="nonzero"/><path fill="#4ebcc2" d="M 0 0 L 112.5 0 L 112.5 112.5 L 0 112.5 Z M 0 0 " fill-opacity="1" fill-rule="nonzero"/></g><g fill="#ffffff" fill-opacity="1"><g transform="translate(31.49158, 64.061589)"><g><path d="M 5.03125 -7.875 L 6.0625 -7.875 C 7.03125 -7.875 7.753906 -8.0625 8.234375 -8.4375 C 8.710938 -8.820312 8.953125 -9.382812 8.953125 -10.125 C 8.953125 -10.863281 8.75 -11.40625 8.34375 -11.75 C 7.945312 -12.101562 7.316406 -12.28125 6.453125 -12.28125 L 5.03125 -12.28125 Z M 12.140625 -10.234375 C 12.140625 -8.628906 11.640625 -7.398438 10.640625 -6.546875 C 9.640625 -5.703125 8.21875 -5.28125 6.375 -5.28125 L 5.03125 -5.28125 L 5.03125 0 L 1.875 0 L 1.875 -14.875 L 6.625 -14.875 C 8.425781 -14.875 9.796875 -14.484375 10.734375 -13.703125 C 11.671875 -12.929688 12.140625 -11.773438 12.140625 -10.234375 Z M 12.140625 -10.234375 "/></g></g><g transform="translate(44.571931, 64.061589)"><g><path d="M 10.4375 0 L 1.875 0 L 1.875 -14.875 L 10.4375 -14.875 L 10.4375 -12.28125 L 5.03125 -12.28125 L 5.03125 -9.015625 L 10.0625 -9.015625 L 10.0625 -6.4375 L 5.03125 -6.4375 L 5.03125 -2.609375 L 10.4375 -2.609375 Z M 10.4375 0 "/></g></g><g transform="translate(56.238465, 64.061589)"><g><path d="M 8.1875 -12.453125 C 7 -12.453125 6.078125 -12.003906 5.421875 -11.109375 C 4.773438 -10.222656 4.453125 -8.984375 4.453125 -7.390625 C 4.453125 -4.078125 5.695312 -2.421875 8.1875 -2.421875 C 9.226562 -2.421875 10.492188 -2.679688 11.984375 -3.203125 L 11.984375 -0.5625 C 10.765625 -0.0507812 9.398438 0.203125 7.890625 0.203125 C 5.722656 0.203125 4.066406 -0.453125 2.921875 -1.765625 C 1.773438 -3.078125 1.203125 -4.957031 1.203125 -7.40625 C 1.203125 -8.957031 1.484375 -10.3125 2.046875 -11.46875 C 2.617188 -12.632812 3.429688 -13.523438 4.484375 -14.140625 C 5.535156 -14.765625 6.769531 -15.078125 8.1875 -15.078125 C 9.632812 -15.078125 11.085938 -14.726562 12.546875 -14.03125 L 11.515625 -11.46875 C 10.960938 -11.738281 10.40625 -11.96875 9.84375 -12.15625 C 9.28125 -12.351562 8.726562 -12.453125 8.1875 -12.453125 Z M 8.1875 -12.453125 "/></g></g><g transform="translate(69.512072, 64.061589)"><g><path d="M 10.640625 -4.125 C 10.640625 -2.78125 10.15625 -1.722656 9.1875 -0.953125 C 8.226562 -0.179688 6.890625 0.203125 5.171875 0.203125 C 3.578125 0.203125 2.171875 -0.09375 0.953125 -0.6875 L 0.953125 -3.625 C 1.960938 -3.175781 2.8125 -2.859375 3.5 -2.671875 C 4.195312 -2.492188 4.832031 -2.40625 5.40625 -2.40625 C 6.101562 -2.40625 6.632812 -2.535156 7 -2.796875 C 7.375 -3.054688 7.5625 -3.445312 7.5625 -3.96875 C 7.5625 -4.257812 7.476562 -4.519531 7.3125 -4.75 C 7.144531 -4.976562 6.90625 -5.195312 6.59375 -5.40625 C 6.28125 -5.613281 5.640625 -5.953125 4.671875 -6.421875 C 3.765625 -6.847656 3.082031 -7.253906 2.625 -7.640625 C 2.164062 -8.035156 1.800781 -8.492188 1.53125 -9.015625 C 1.257812 -9.535156 1.125 -10.144531 1.125 -10.84375 C 1.125 -12.164062 1.566406 -13.203125 2.453125 -13.953125 C 3.347656 -14.703125 4.582031 -15.078125 6.15625 -15.078125 C 6.9375 -15.078125 7.675781 -14.984375 8.375 -14.796875 C 9.070312 -14.617188 9.804688 -14.363281 10.578125 -14.03125 L 9.5625 -11.578125 C 8.769531 -11.910156 8.113281 -12.140625 7.59375 -12.265625 C 7.070312 -12.390625 6.5625 -12.453125 6.0625 -12.453125 C 5.46875 -12.453125 5.007812 -12.3125 4.6875 -12.03125 C 4.363281 -11.757812 4.203125 -11.398438 4.203125 -10.953125 C 4.203125 -10.671875 4.265625 -10.425781 4.390625 -10.21875 C 4.523438 -10.019531 4.734375 -9.820312 5.015625 -9.625 C 5.296875 -9.4375 5.960938 -9.085938 7.015625 -8.578125 C 8.410156 -7.921875 9.363281 -7.253906 9.875 -6.578125 C 10.382812 -5.910156 10.640625 -5.09375 10.640625 -4.125 Z M 10.640625 -4.125 "/></g></g></g></svg>