<svg xmlns="http://www.w3.org/2000/svg" xmlns:xlink="http://www.w3.org/1999/xlink" width="150" zoomAndPan="magnify" viewBox="0 0 112.5 112.499997" height="150" preserveAspectRatio="xMidYMid meet" version="1.0"><defs><g/><clipPath id="1cb9aeac79"><path d="M 0 0 L 112.003906 0 L 112.003906 112.003906 L 0 112.003906 Z M 0 0 " clip-rule="nonzero"/></clipPath></defs><g clip-path="url(#1cb9aeac79)"><path fill="#ffffff" d="M 0 0 L 112.5 0 L 112.5 120 L 0 120 Z M 0 0 " fill-opacity="1" fill-rule="nonzero"/><path fill="#ffffff" d="M 0 0 L 112.5 0 L 112.5 112.5 L 0 112.5 Z M 0 0 " fill-opacity="1" fill-rule="nonzero"/><path fill="#ff66c4" d="M 0 0 L 112.5 0 L 112.5 112.5 L 0 112.5 Z M 0 0 " fill-opacity="1" fill-rule="nonzero"/></g><g fill="#ffffff" fill-opacity="1"><g transform="translate(3.080418, 39.735089)"><g><path d="M 3.984375 -6.234375 L 4.8125 -6.234375 C 5.570312 -6.234375 6.144531 -6.382812 6.53125 -6.6875 C 6.914062 -7 7.109375 -7.445312 7.109375 -8.03125 C 7.109375 -8.613281 6.945312 -9.039062 6.625 -9.3125 C 6.300781 -9.59375 5.800781 -9.734375 5.125 -9.734375 L 3.984375 -9.734375 Z M 9.625 -8.109375 C 9.625 -6.835938 9.226562 -5.863281 8.4375 -5.1875 C 7.644531 -4.519531 6.519531 -4.1875 5.0625 -4.1875 L 3.984375 -4.1875 L 3.984375 0 L 1.484375 0 L 1.484375 -11.796875 L 5.25 -11.796875 C 6.675781 -11.796875 7.757812 -11.484375 8.5 -10.859375 C 9.25 -10.242188 9.625 -9.328125 9.625 -8.109375 Z M 9.625 -8.109375 "/></g></g><g transform="translate(13.450618, 39.735089)"><g><path d="M 6.328125 -9.1875 C 6.660156 -9.1875 6.9375 -9.160156 7.15625 -9.109375 L 6.96875 -6.8125 C 6.769531 -6.863281 6.523438 -6.890625 6.234375 -6.890625 C 5.453125 -6.890625 4.84375 -6.6875 4.40625 -6.28125 C 3.96875 -5.875 3.75 -5.3125 3.75 -4.59375 L 3.75 0 L 1.296875 0 L 1.296875 -9.015625 L 3.15625 -9.015625 L 3.515625 -7.5 L 3.640625 -7.5 C 3.921875 -8.007812 4.296875 -8.414062 4.765625 -8.71875 C 5.242188 -9.03125 5.765625 -9.1875 6.328125 -9.1875 Z M 6.328125 -9.1875 "/></g></g><g transform="translate(20.950062, 39.735089)"><g><path d="M 3.25 -4.53125 C 3.25 -3.632812 3.394531 -2.957031 3.6875 -2.5 C 3.976562 -2.039062 4.457031 -1.8125 5.125 -1.8125 C 5.78125 -1.8125 6.25 -2.035156 6.53125 -2.484375 C 6.820312 -2.941406 6.96875 -3.625 6.96875 -4.53125 C 6.96875 -5.414062 6.820312 -6.082031 6.53125 -6.53125 C 6.238281 -6.976562 5.765625 -7.203125 5.109375 -7.203125 C 4.453125 -7.203125 3.976562 -6.976562 3.6875 -6.53125 C 3.394531 -6.09375 3.25 -5.425781 3.25 -4.53125 Z M 9.484375 -4.53125 C 9.484375 -3.0625 9.09375 -1.910156 8.3125 -1.078125 C 7.539062 -0.253906 6.46875 0.15625 5.09375 0.15625 C 4.226562 0.15625 3.460938 -0.03125 2.796875 -0.40625 C 2.140625 -0.78125 1.628906 -1.320312 1.265625 -2.03125 C 0.910156 -2.75 0.734375 -3.582031 0.734375 -4.53125 C 0.734375 -6 1.117188 -7.140625 1.890625 -7.953125 C 2.660156 -8.773438 3.742188 -9.1875 5.140625 -9.1875 C 6.003906 -9.1875 6.765625 -9 7.421875 -8.625 C 8.085938 -8.25 8.597656 -7.707031 8.953125 -7 C 9.304688 -6.289062 9.484375 -5.46875 9.484375 -4.53125 Z M 9.484375 -4.53125 "/></g></g><g transform="translate(31.175111, 39.735089)"><g><path d="M 4.953125 0.15625 C 2.140625 0.15625 0.734375 -1.378906 0.734375 -4.453125 C 0.734375 -5.992188 1.113281 -7.164062 1.875 -7.96875 C 2.644531 -8.78125 3.742188 -9.1875 5.171875 -9.1875 C 6.210938 -9.1875 7.144531 -8.984375 7.96875 -8.578125 L 7.25 -6.671875 C 6.863281 -6.828125 6.503906 -6.953125 6.171875 -7.046875 C 5.835938 -7.148438 5.503906 -7.203125 5.171875 -7.203125 C 3.890625 -7.203125 3.25 -6.289062 3.25 -4.46875 C 3.25 -2.707031 3.890625 -1.828125 5.171875 -1.828125 C 5.640625 -1.828125 6.078125 -1.890625 6.484375 -2.015625 C 6.890625 -2.140625 7.289062 -2.335938 7.6875 -2.609375 L 7.6875 -0.515625 C 7.289062 -0.253906 6.890625 -0.078125 6.484375 0.015625 C 6.078125 0.109375 5.566406 0.15625 4.953125 0.15625 Z M 4.953125 0.15625 "/></g></g><g transform="translate(39.666418, 39.735089)"><g><path d="M 5.03125 -7.4375 C 4.5 -7.4375 4.085938 -7.269531 3.796875 -6.9375 C 3.503906 -6.601562 3.335938 -6.132812 3.296875 -5.53125 L 6.734375 -5.53125 C 6.722656 -6.132812 6.566406 -6.601562 6.265625 -6.9375 C 5.960938 -7.269531 5.550781 -7.4375 5.03125 -7.4375 Z M 5.375 0.15625 C 3.914062 0.15625 2.773438 -0.238281 1.953125 -1.03125 C 1.140625 -1.832031 0.734375 -2.96875 0.734375 -4.4375 C 0.734375 -5.945312 1.113281 -7.113281 1.875 -7.9375 C 2.632812 -8.769531 3.679688 -9.1875 5.015625 -9.1875 C 6.285156 -9.1875 7.273438 -8.820312 7.984375 -8.09375 C 8.691406 -7.375 9.046875 -6.375 9.046875 -5.09375 L 9.046875 -3.890625 L 3.234375 -3.890625 C 3.265625 -3.191406 3.472656 -2.644531 3.859375 -2.25 C 4.242188 -1.863281 4.785156 -1.671875 5.484375 -1.671875 C 6.023438 -1.671875 6.535156 -1.726562 7.015625 -1.84375 C 7.503906 -1.957031 8.015625 -2.132812 8.546875 -2.375 L 8.546875 -0.46875 C 8.109375 -0.257812 7.644531 -0.101562 7.15625 0 C 6.664062 0.101562 6.070312 0.15625 5.375 0.15625 Z M 5.375 0.15625 "/></g></g><g transform="translate(49.423759, 39.735089)"><g><path d="M 7.578125 -2.671875 C 7.578125 -1.753906 7.253906 -1.050781 6.609375 -0.5625 C 5.972656 -0.0820312 5.015625 0.15625 3.734375 0.15625 C 3.078125 0.15625 2.515625 0.109375 2.046875 0.015625 C 1.585938 -0.0664062 1.160156 -0.191406 0.765625 -0.359375 L 0.765625 -2.390625 C 1.210938 -2.179688 1.722656 -2.003906 2.296875 -1.859375 C 2.867188 -1.710938 3.375 -1.640625 3.8125 -1.640625 C 4.707031 -1.640625 5.15625 -1.894531 5.15625 -2.40625 C 5.15625 -2.601562 5.09375 -2.757812 4.96875 -2.875 C 4.851562 -3 4.648438 -3.140625 4.359375 -3.296875 C 4.066406 -3.453125 3.679688 -3.628906 3.203125 -3.828125 C 2.503906 -4.117188 1.992188 -4.390625 1.671875 -4.640625 C 1.347656 -4.890625 1.109375 -5.171875 0.953125 -5.484375 C 0.804688 -5.804688 0.734375 -6.203125 0.734375 -6.671875 C 0.734375 -7.472656 1.046875 -8.09375 1.671875 -8.53125 C 2.296875 -8.96875 3.175781 -9.1875 4.3125 -9.1875 C 5.394531 -9.1875 6.453125 -8.945312 7.484375 -8.46875 L 6.734375 -6.703125 C 6.285156 -6.890625 5.863281 -7.046875 5.46875 -7.171875 C 5.082031 -7.296875 4.6875 -7.359375 4.28125 -7.359375 C 3.550781 -7.359375 3.1875 -7.164062 3.1875 -6.78125 C 3.1875 -6.550781 3.300781 -6.351562 3.53125 -6.1875 C 3.769531 -6.03125 4.285156 -5.796875 5.078125 -5.484375 C 5.773438 -5.203125 6.285156 -4.9375 6.609375 -4.6875 C 6.941406 -4.4375 7.1875 -4.148438 7.34375 -3.828125 C 7.5 -3.503906 7.578125 -3.117188 7.578125 -2.671875 Z M 7.578125 -2.671875 "/></g></g><g transform="translate(57.632828, 39.735089)"><g><path d="M 7.578125 -2.671875 C 7.578125 -1.753906 7.253906 -1.050781 6.609375 -0.5625 C 5.972656 -0.0820312 5.015625 0.15625 3.734375 0.15625 C 3.078125 0.15625 2.515625 0.109375 2.046875 0.015625 C 1.585938 -0.0664062 1.160156 -0.191406 0.765625 -0.359375 L 0.765625 -2.390625 C 1.210938 -2.179688 1.722656 -2.003906 2.296875 -1.859375 C 2.867188 -1.710938 3.375 -1.640625 3.8125 -1.640625 C 4.707031 -1.640625 5.15625 -1.894531 5.15625 -2.40625 C 5.15625 -2.601562 5.09375 -2.757812 4.96875 -2.875 C 4.851562 -3 4.648438 -3.140625 4.359375 -3.296875 C 4.066406 -3.453125 3.679688 -3.628906 3.203125 -3.828125 C 2.503906 -4.117188 1.992188 -4.390625 1.671875 -4.640625 C 1.347656 -4.890625 1.109375 -5.171875 0.953125 -5.484375 C 0.804688 -5.804688 0.734375 -6.203125 0.734375 -6.671875 C 0.734375 -7.472656 1.046875 -8.09375 1.671875 -8.53125 C 2.296875 -8.96875 3.175781 -9.1875 4.3125 -9.1875 C 5.394531 -9.1875 6.453125 -8.945312 7.484375 -8.46875 L 6.734375 -6.703125 C 6.285156 -6.890625 5.863281 -7.046875 5.46875 -7.171875 C 5.082031 -7.296875 4.6875 -7.359375 4.28125 -7.359375 C 3.550781 -7.359375 3.1875 -7.164062 3.1875 -6.78125 C 3.1875 -6.550781 3.300781 -6.351562 3.53125 -6.1875 C 3.769531 -6.03125 4.285156 -5.796875 5.078125 -5.484375 C 5.773438 -5.203125 6.285156 -4.9375 6.609375 -4.6875 C 6.941406 -4.4375 7.1875 -4.148438 7.34375 -3.828125 C 7.5 -3.503906 7.578125 -3.117188 7.578125 -2.671875 Z M 7.578125 -2.671875 "/></g></g><g transform="translate(65.841898, 39.735089)"><g><path d="M 7.671875 0 L 7.34375 -1.15625 L 7.21875 -1.15625 C 6.957031 -0.738281 6.582031 -0.414062 6.09375 -0.1875 C 5.613281 0.0390625 5.0625 0.15625 4.4375 0.15625 C 3.382812 0.15625 2.585938 -0.125 2.046875 -0.6875 C 1.503906 -1.257812 1.234375 -2.078125 1.234375 -3.140625 L 1.234375 -9.015625 L 3.703125 -9.015625 L 3.703125 -3.75 C 3.703125 -3.101562 3.816406 -2.613281 4.046875 -2.28125 C 4.273438 -1.957031 4.644531 -1.796875 5.15625 -1.796875 C 5.84375 -1.796875 6.335938 -2.023438 6.640625 -2.484375 C 6.953125 -2.941406 7.109375 -3.707031 7.109375 -4.78125 L 7.109375 -9.015625 L 9.5625 -9.015625 L 9.5625 0 Z M 7.671875 0 "/></g></g><g transform="translate(76.695932, 39.735089)"><g><path d="M 7.578125 -2.671875 C 7.578125 -1.753906 7.253906 -1.050781 6.609375 -0.5625 C 5.972656 -0.0820312 5.015625 0.15625 3.734375 0.15625 C 3.078125 0.15625 2.515625 0.109375 2.046875 0.015625 C 1.585938 -0.0664062 1.160156 -0.191406 0.765625 -0.359375 L 0.765625 -2.390625 C 1.210938 -2.179688 1.722656 -2.003906 2.296875 -1.859375 C 2.867188 -1.710938 3.375 -1.640625 3.8125 -1.640625 C 4.707031 -1.640625 5.15625 -1.894531 5.15625 -2.40625 C 5.15625 -2.601562 5.09375 -2.757812 4.96875 -2.875 C 4.851562 -3 4.648438 -3.140625 4.359375 -3.296875 C 4.066406 -3.453125 3.679688 -3.628906 3.203125 -3.828125 C 2.503906 -4.117188 1.992188 -4.390625 1.671875 -4.640625 C 1.347656 -4.890625 1.109375 -5.171875 0.953125 -5.484375 C 0.804688 -5.804688 0.734375 -6.203125 0.734375 -6.671875 C 0.734375 -7.472656 1.046875 -8.09375 1.671875 -8.53125 C 2.296875 -8.96875 3.175781 -9.1875 4.3125 -9.1875 C 5.394531 -9.1875 6.453125 -8.945312 7.484375 -8.46875 L 6.734375 -6.703125 C 6.285156 -6.890625 5.863281 -7.046875 5.46875 -7.171875 C 5.082031 -7.296875 4.6875 -7.359375 4.28125 -7.359375 C 3.550781 -7.359375 3.1875 -7.164062 3.1875 -6.78125 C 3.1875 -6.550781 3.300781 -6.351562 3.53125 -6.1875 C 3.769531 -6.03125 4.285156 -5.796875 5.078125 -5.484375 C 5.773438 -5.203125 6.285156 -4.9375 6.609375 -4.6875 C 6.941406 -4.4375 7.1875 -4.148438 7.34375 -3.828125 C 7.5 -3.503906 7.578125 -3.117188 7.578125 -2.671875 Z M 7.578125 -2.671875 "/></g></g><g transform="translate(84.905001, 39.735089)"><g/></g><g transform="translate(89.195006, 39.735089)"><g><path d="M 4.140625 0.15625 C 3.085938 0.15625 2.253906 -0.253906 1.640625 -1.078125 C 1.035156 -1.898438 0.734375 -3.035156 0.734375 -4.484375 C 0.734375 -5.960938 1.039062 -7.113281 1.65625 -7.9375 C 2.28125 -8.769531 3.128906 -9.1875 4.203125 -9.1875 C 5.335938 -9.1875 6.207031 -8.742188 6.8125 -7.859375 L 6.890625 -7.859375 C 6.765625 -8.535156 6.703125 -9.132812 6.703125 -9.65625 L 6.703125 -12.546875 L 9.171875 -12.546875 L 9.171875 0 L 7.28125 0 L 6.8125 -1.171875 L 6.703125 -1.171875 C 6.140625 -0.285156 5.285156 0.15625 4.140625 0.15625 Z M 5.015625 -1.796875 C 5.640625 -1.796875 6.097656 -1.976562 6.390625 -2.34375 C 6.679688 -2.707031 6.84375 -3.328125 6.875 -4.203125 L 6.875 -4.46875 C 6.875 -5.4375 6.722656 -6.128906 6.421875 -6.546875 C 6.117188 -6.972656 5.632812 -7.1875 4.96875 -7.1875 C 4.414062 -7.1875 3.988281 -6.953125 3.6875 -6.484375 C 3.382812 -6.023438 3.234375 -5.347656 3.234375 -4.453125 C 3.234375 -3.566406 3.382812 -2.898438 3.6875 -2.453125 C 4 -2.015625 4.441406 -1.796875 5.015625 -1.796875 Z M 5.015625 -1.796875 "/></g></g><g transform="translate(99.645845, 39.735089)"><g><path d="M 5.03125 -7.4375 C 4.5 -7.4375 4.085938 -7.269531 3.796875 -6.9375 C 3.503906 -6.601562 3.335938 -6.132812 3.296875 -5.53125 L 6.734375 -5.53125 C 6.722656 -6.132812 6.566406 -6.601562 6.265625 -6.9375 C 5.960938 -7.269531 5.550781 -7.4375 5.03125 -7.4375 Z M 5.375 0.15625 C 3.914062 0.15625 2.773438 -0.238281 1.953125 -1.03125 C 1.140625 -1.832031 0.734375 -2.96875 0.734375 -4.4375 C 0.734375 -5.945312 1.113281 -7.113281 1.875 -7.9375 C 2.632812 -8.769531 3.679688 -9.1875 5.015625 -9.1875 C 6.285156 -9.1875 7.273438 -8.820312 7.984375 -8.09375 C 8.691406 -7.375 9.046875 -6.375 9.046875 -5.09375 L 9.046875 -3.890625 L 3.234375 -3.890625 C 3.265625 -3.191406 3.472656 -2.644531 3.859375 -2.25 C 4.242188 -1.863281 4.785156 -1.671875 5.484375 -1.671875 C 6.023438 -1.671875 6.535156 -1.726562 7.015625 -1.84375 C 7.503906 -1.957031 8.015625 -2.132812 8.546875 -2.375 L 8.546875 -0.46875 C 8.109375 -0.257812 7.644531 -0.101562 7.15625 0 C 6.664062 0.101562 6.070312 0.15625 5.375 0.15625 Z M 5.375 0.15625 "/></g></g></g><g fill="#ffffff" fill-opacity="1"><g transform="translate(10.612118, 62.443084)"><g><path d="M 6.234375 0.15625 C 5.179688 0.15625 4.351562 -0.222656 3.75 -0.984375 L 3.625 -0.984375 C 3.707031 -0.234375 3.75 0.195312 3.75 0.3125 L 3.75 3.96875 L 1.296875 3.96875 L 1.296875 -9.015625 L 3.296875 -9.015625 L 3.640625 -7.84375 L 3.75 -7.84375 C 4.320312 -8.738281 5.175781 -9.1875 6.3125 -9.1875 C 7.375 -9.1875 8.203125 -8.773438 8.796875 -7.953125 C 9.398438 -7.128906 9.703125 -5.988281 9.703125 -4.53125 C 9.703125 -3.5625 9.5625 -2.722656 9.28125 -2.015625 C 9 -1.304688 8.597656 -0.765625 8.078125 -0.390625 C 7.554688 -0.0234375 6.941406 0.15625 6.234375 0.15625 Z M 5.515625 -7.21875 C 4.910156 -7.21875 4.46875 -7.03125 4.1875 -6.65625 C 3.90625 -6.28125 3.757812 -5.664062 3.75 -4.8125 L 3.75 -4.546875 C 3.75 -3.578125 3.890625 -2.878906 4.171875 -2.453125 C 4.460938 -2.035156 4.921875 -1.828125 5.546875 -1.828125 C 6.648438 -1.828125 7.203125 -2.738281 7.203125 -4.5625 C 7.203125 -5.445312 7.066406 -6.109375 6.796875 -6.546875 C 6.523438 -6.992188 6.097656 -7.21875 5.515625 -7.21875 Z M 5.515625 -7.21875 "/></g></g><g transform="translate(21.062957, 62.443084)"><g><path d="M 6.328125 -9.1875 C 6.660156 -9.1875 6.9375 -9.160156 7.15625 -9.109375 L 6.96875 -6.8125 C 6.769531 -6.863281 6.523438 -6.890625 6.234375 -6.890625 C 5.453125 -6.890625 4.84375 -6.6875 4.40625 -6.28125 C 3.96875 -5.875 3.75 -5.3125 3.75 -4.59375 L 3.75 0 L 1.296875 0 L 1.296875 -9.015625 L 3.15625 -9.015625 L 3.515625 -7.5 L 3.640625 -7.5 C 3.921875 -8.007812 4.296875 -8.414062 4.765625 -8.71875 C 5.242188 -9.03125 5.765625 -9.1875 6.328125 -9.1875 Z M 6.328125 -9.1875 "/></g></g><g transform="translate(28.562401, 62.443084)"><g><path d="M 3.25 -4.53125 C 3.25 -3.632812 3.394531 -2.957031 3.6875 -2.5 C 3.976562 -2.039062 4.457031 -1.8125 5.125 -1.8125 C 5.78125 -1.8125 6.25 -2.035156 6.53125 -2.484375 C 6.820312 -2.941406 6.96875 -3.625 6.96875 -4.53125 C 6.96875 -5.414062 6.820312 -6.082031 6.53125 -6.53125 C 6.238281 -6.976562 5.765625 -7.203125 5.109375 -7.203125 C 4.453125 -7.203125 3.976562 -6.976562 3.6875 -6.53125 C 3.394531 -6.09375 3.25 -5.425781 3.25 -4.53125 Z M 9.484375 -4.53125 C 9.484375 -3.0625 9.09375 -1.910156 8.3125 -1.078125 C 7.539062 -0.253906 6.46875 0.15625 5.09375 0.15625 C 4.226562 0.15625 3.460938 -0.03125 2.796875 -0.40625 C 2.140625 -0.78125 1.628906 -1.320312 1.265625 -2.03125 C 0.910156 -2.75 0.734375 -3.582031 0.734375 -4.53125 C 0.734375 -6 1.117188 -7.140625 1.890625 -7.953125 C 2.660156 -8.773438 3.742188 -9.1875 5.140625 -9.1875 C 6.003906 -9.1875 6.765625 -9 7.421875 -8.625 C 8.085938 -8.25 8.597656 -7.707031 8.953125 -7 C 9.304688 -6.289062 9.484375 -5.46875 9.484375 -4.53125 Z M 9.484375 -4.53125 "/></g></g><g transform="translate(38.78745, 62.443084)"><g><path d="M 4.140625 0.15625 C 3.085938 0.15625 2.253906 -0.253906 1.640625 -1.078125 C 1.035156 -1.898438 0.734375 -3.035156 0.734375 -4.484375 C 0.734375 -5.960938 1.039062 -7.113281 1.65625 -7.9375 C 2.28125 -8.769531 3.128906 -9.1875 4.203125 -9.1875 C 5.335938 -9.1875 6.207031 -8.742188 6.8125 -7.859375 L 6.890625 -7.859375 C 6.765625 -8.535156 6.703125 -9.132812 6.703125 -9.65625 L 6.703125 -12.546875 L 9.171875 -12.546875 L 9.171875 0 L 7.28125 0 L 6.8125 -1.171875 L 6.703125 -1.171875 C 6.140625 -0.285156 5.285156 0.15625 4.140625 0.15625 Z M 5.015625 -1.796875 C 5.640625 -1.796875 6.097656 -1.976562 6.390625 -2.34375 C 6.679688 -2.707031 6.84375 -3.328125 6.875 -4.203125 L 6.875 -4.46875 C 6.875 -5.4375 6.722656 -6.128906 6.421875 -6.546875 C 6.117188 -6.972656 5.632812 -7.1875 4.96875 -7.1875 C 4.414062 -7.1875 3.988281 -6.953125 3.6875 -6.484375 C 3.382812 -6.023438 3.234375 -5.347656 3.234375 -4.453125 C 3.234375 -3.566406 3.382812 -2.898438 3.6875 -2.453125 C 4 -2.015625 4.441406 -1.796875 5.015625 -1.796875 Z M 5.015625 -1.796875 "/></g></g><g transform="translate(49.238289, 62.443084)"><g><path d="M 7.671875 0 L 7.34375 -1.15625 L 7.21875 -1.15625 C 6.957031 -0.738281 6.582031 -0.414062 6.09375 -0.1875 C 5.613281 0.0390625 5.0625 0.15625 4.4375 0.15625 C 3.382812 0.15625 2.585938 -0.125 2.046875 -0.6875 C 1.503906 -1.257812 1.234375 -2.078125 1.234375 -3.140625 L 1.234375 -9.015625 L 3.703125 -9.015625 L 3.703125 -3.75 C 3.703125 -3.101562 3.816406 -2.613281 4.046875 -2.28125 C 4.273438 -1.957031 4.644531 -1.796875 5.15625 -1.796875 C 5.84375 -1.796875 6.335938 -2.023438 6.640625 -2.484375 C 6.953125 -2.941406 7.109375 -3.707031 7.109375 -4.78125 L 7.109375 -9.015625 L 9.5625 -9.015625 L 9.5625 0 Z M 7.671875 0 "/></g></g><g transform="translate(60.092324, 62.443084)"><g><path d="M 4.953125 0.15625 C 2.140625 0.15625 0.734375 -1.378906 0.734375 -4.453125 C 0.734375 -5.992188 1.113281 -7.164062 1.875 -7.96875 C 2.644531 -8.78125 3.742188 -9.1875 5.171875 -9.1875 C 6.210938 -9.1875 7.144531 -8.984375 7.96875 -8.578125 L 7.25 -6.671875 C 6.863281 -6.828125 6.503906 -6.953125 6.171875 -7.046875 C 5.835938 -7.148438 5.503906 -7.203125 5.171875 -7.203125 C 3.890625 -7.203125 3.25 -6.289062 3.25 -4.46875 C 3.25 -2.707031 3.890625 -1.828125 5.171875 -1.828125 C 5.640625 -1.828125 6.078125 -1.890625 6.484375 -2.015625 C 6.890625 -2.140625 7.289062 -2.335938 7.6875 -2.609375 L 7.6875 -0.515625 C 7.289062 -0.253906 6.890625 -0.078125 6.484375 0.015625 C 6.078125 0.109375 5.566406 0.15625 4.953125 0.15625 Z M 4.953125 0.15625 "/></g></g><g transform="translate(68.58363, 62.443084)"><g><path d="M 5.09375 -1.796875 C 5.519531 -1.796875 6.035156 -1.890625 6.640625 -2.078125 L 6.640625 -0.25 C 6.023438 0.0195312 5.269531 0.15625 4.375 0.15625 C 3.394531 0.15625 2.679688 -0.0859375 2.234375 -0.578125 C 1.785156 -1.078125 1.5625 -1.828125 1.5625 -2.828125 L 1.5625 -7.171875 L 0.375 -7.171875 L 0.375 -8.203125 L 1.734375 -9.03125 L 2.4375 -10.9375 L 4.015625 -10.9375 L 4.015625 -9.015625 L 6.546875 -9.015625 L 6.546875 -7.171875 L 4.015625 -7.171875 L 4.015625 -2.828125 C 4.015625 -2.472656 4.113281 -2.210938 4.3125 -2.046875 C 4.507812 -1.878906 4.769531 -1.796875 5.09375 -1.796875 Z M 5.09375 -1.796875 "/></g></g><g transform="translate(75.752454, 62.443084)"><g><path d="M 1.1875 -11.34375 C 1.1875 -12.144531 1.632812 -12.546875 2.53125 -12.546875 C 3.414062 -12.546875 3.859375 -12.144531 3.859375 -11.34375 C 3.859375 -10.96875 3.742188 -10.671875 3.515625 -10.453125 C 3.296875 -10.242188 2.96875 -10.140625 2.53125 -10.140625 C 1.632812 -10.140625 1.1875 -10.539062 1.1875 -11.34375 Z M 3.75 0 L 1.296875 0 L 1.296875 -9.015625 L 3.75 -9.015625 Z M 3.75 0 "/></g></g><g transform="translate(80.792403, 62.443084)"><g><path d="M 3.25 -4.53125 C 3.25 -3.632812 3.394531 -2.957031 3.6875 -2.5 C 3.976562 -2.039062 4.457031 -1.8125 5.125 -1.8125 C 5.78125 -1.8125 6.25 -2.035156 6.53125 -2.484375 C 6.820312 -2.941406 6.96875 -3.625 6.96875 -4.53125 C 6.96875 -5.414062 6.820312 -6.082031 6.53125 -6.53125 C 6.238281 -6.976562 5.765625 -7.203125 5.109375 -7.203125 C 4.453125 -7.203125 3.976562 -6.976562 3.6875 -6.53125 C 3.394531 -6.09375 3.25 -5.425781 3.25 -4.53125 Z M 9.484375 -4.53125 C 9.484375 -3.0625 9.09375 -1.910156 8.3125 -1.078125 C 7.539062 -0.253906 6.46875 0.15625 5.09375 0.15625 C 4.226562 0.15625 3.460938 -0.03125 2.796875 -0.40625 C 2.140625 -0.78125 1.628906 -1.320312 1.265625 -2.03125 C 0.910156 -2.75 0.734375 -3.582031 0.734375 -4.53125 C 0.734375 -6 1.117188 -7.140625 1.890625 -7.953125 C 2.660156 -8.773438 3.742188 -9.1875 5.140625 -9.1875 C 6.003906 -9.1875 6.765625 -9 7.421875 -8.625 C 8.085938 -8.25 8.597656 -7.707031 8.953125 -7 C 9.304688 -6.289062 9.484375 -5.46875 9.484375 -4.53125 Z M 9.484375 -4.53125 "/></g></g><g transform="translate(91.017452, 62.443084)"><g><path d="M 9.609375 0 L 7.15625 0 L 7.15625 -5.265625 C 7.15625 -5.910156 7.035156 -6.394531 6.796875 -6.71875 C 6.566406 -7.050781 6.203125 -7.21875 5.703125 -7.21875 C 5.015625 -7.21875 4.515625 -6.988281 4.203125 -6.53125 C 3.898438 -6.070312 3.75 -5.304688 3.75 -4.234375 L 3.75 0 L 1.296875 0 L 1.296875 -9.015625 L 3.171875 -9.015625 L 3.5 -7.859375 L 3.640625 -7.859375 C 3.910156 -8.296875 4.285156 -8.625 4.765625 -8.84375 C 5.242188 -9.070312 5.789062 -9.1875 6.40625 -9.1875 C 7.457031 -9.1875 8.253906 -8.898438 8.796875 -8.328125 C 9.335938 -7.765625 9.609375 -6.945312 9.609375 -5.875 Z M 9.609375 0 "/></g></g></g><g fill="#ffffff" fill-opacity="1"><g transform="translate(5.402827, 85.151079)"><g><path d="M 4.140625 0.15625 C 3.085938 0.15625 2.253906 -0.253906 1.640625 -1.078125 C 1.035156 -1.898438 0.734375 -3.035156 0.734375 -4.484375 C 0.734375 -5.960938 1.039062 -7.113281 1.65625 -7.9375 C 2.28125 -8.769531 3.128906 -9.1875 4.203125 -9.1875 C 5.335938 -9.1875 6.207031 -8.742188 6.8125 -7.859375 L 6.890625 -7.859375 C 6.765625 -8.535156 6.703125 -9.132812 6.703125 -9.65625 L 6.703125 -12.546875 L 9.171875 -12.546875 L 9.171875 0 L 7.28125 0 L 6.8125 -1.171875 L 6.703125 -1.171875 C 6.140625 -0.285156 5.285156 0.15625 4.140625 0.15625 Z M 5.015625 -1.796875 C 5.640625 -1.796875 6.097656 -1.976562 6.390625 -2.34375 C 6.679688 -2.707031 6.84375 -3.328125 6.875 -4.203125 L 6.875 -4.46875 C 6.875 -5.4375 6.722656 -6.128906 6.421875 -6.546875 C 6.117188 -6.972656 5.632812 -7.1875 4.96875 -7.1875 C 4.414062 -7.1875 3.988281 -6.953125 3.6875 -6.484375 C 3.382812 -6.023438 3.234375 -5.347656 3.234375 -4.453125 C 3.234375 -3.566406 3.382812 -2.898438 3.6875 -2.453125 C 4 -2.015625 4.441406 -1.796875 5.015625 -1.796875 Z M 5.015625 -1.796875 "/></g></g><g transform="translate(15.853666, 85.151079)"><g><path d="M 7.671875 0 L 7.34375 -1.15625 L 7.21875 -1.15625 C 6.957031 -0.738281 6.582031 -0.414062 6.09375 -0.1875 C 5.613281 0.0390625 5.0625 0.15625 4.4375 0.15625 C 3.382812 0.15625 2.585938 -0.125 2.046875 -0.6875 C 1.503906 -1.257812 1.234375 -2.078125 1.234375 -3.140625 L 1.234375 -9.015625 L 3.703125 -9.015625 L 3.703125 -3.75 C 3.703125 -3.101562 3.816406 -2.613281 4.046875 -2.28125 C 4.273438 -1.957031 4.644531 -1.796875 5.15625 -1.796875 C 5.84375 -1.796875 6.335938 -2.023438 6.640625 -2.484375 C 6.953125 -2.941406 7.109375 -3.707031 7.109375 -4.78125 L 7.109375 -9.015625 L 9.5625 -9.015625 L 9.5625 0 Z M 7.671875 0 "/></g></g><g transform="translate(26.7077, 85.151079)"><g/></g><g transform="translate(30.997705, 85.151079)"><g><path d="M 9.609375 0 L 7.15625 0 L 7.15625 -5.265625 C 7.15625 -6.566406 6.671875 -7.21875 5.703125 -7.21875 C 5.015625 -7.21875 4.515625 -6.984375 4.203125 -6.515625 C 3.898438 -6.046875 3.75 -5.285156 3.75 -4.234375 L 3.75 0 L 1.296875 0 L 1.296875 -12.546875 L 3.75 -12.546875 L 3.75 -9.984375 C 3.75 -9.785156 3.726562 -9.320312 3.6875 -8.59375 L 3.640625 -7.859375 L 3.765625 -7.859375 C 4.316406 -8.742188 5.1875 -9.1875 6.375 -9.1875 C 7.4375 -9.1875 8.238281 -8.898438 8.78125 -8.328125 C 9.332031 -7.753906 9.609375 -6.9375 9.609375 -5.875 Z M 9.609375 0 "/></g></g><g transform="translate(41.851739, 85.151079)"><g><path d="M 7.015625 0 L 6.546875 -1.21875 L 6.46875 -1.21875 C 6.0625 -0.695312 5.640625 -0.335938 5.203125 -0.140625 C 4.765625 0.0546875 4.191406 0.15625 3.484375 0.15625 C 2.617188 0.15625 1.9375 -0.0859375 1.4375 -0.578125 C 0.9375 -1.078125 0.6875 -1.78125 0.6875 -2.6875 C 0.6875 -3.644531 1.019531 -4.347656 1.6875 -4.796875 C 2.363281 -5.253906 3.375 -5.507812 4.71875 -5.5625 L 6.296875 -5.609375 L 6.296875 -6.015625 C 6.296875 -6.921875 5.828125 -7.375 4.890625 -7.375 C 4.171875 -7.375 3.320312 -7.15625 2.34375 -6.71875 L 1.53125 -8.390625 C 2.570312 -8.929688 3.722656 -9.203125 4.984375 -9.203125 C 6.191406 -9.203125 7.117188 -8.9375 7.765625 -8.40625 C 8.410156 -7.882812 8.734375 -7.085938 8.734375 -6.015625 L 8.734375 0 Z M 6.296875 -4.171875 L 5.34375 -4.140625 C 4.625 -4.117188 4.085938 -3.988281 3.734375 -3.75 C 3.390625 -3.519531 3.21875 -3.160156 3.21875 -2.671875 C 3.21875 -1.984375 3.613281 -1.640625 4.40625 -1.640625 C 4.976562 -1.640625 5.4375 -1.800781 5.78125 -2.125 C 6.125 -2.457031 6.296875 -2.894531 6.296875 -3.4375 Z M 6.296875 -4.171875 "/></g></g><g transform="translate(51.826807, 85.151079)"><g><path d="M 9.609375 0 L 7.15625 0 L 7.15625 -5.265625 C 7.15625 -5.910156 7.035156 -6.394531 6.796875 -6.71875 C 6.566406 -7.050781 6.203125 -7.21875 5.703125 -7.21875 C 5.015625 -7.21875 4.515625 -6.988281 4.203125 -6.53125 C 3.898438 -6.070312 3.75 -5.304688 3.75 -4.234375 L 3.75 0 L 1.296875 0 L 1.296875 -9.015625 L 3.171875 -9.015625 L 3.5 -7.859375 L 3.640625 -7.859375 C 3.910156 -8.296875 4.285156 -8.625 4.765625 -8.84375 C 5.242188 -9.070312 5.789062 -9.1875 6.40625 -9.1875 C 7.457031 -9.1875 8.253906 -8.898438 8.796875 -8.328125 C 9.335938 -7.765625 9.609375 -6.945312 9.609375 -5.875 Z M 9.609375 0 "/></g></g><g transform="translate(62.680841, 85.151079)"><g><path d="M 4.140625 0.15625 C 3.085938 0.15625 2.253906 -0.253906 1.640625 -1.078125 C 1.035156 -1.898438 0.734375 -3.035156 0.734375 -4.484375 C 0.734375 -5.960938 1.039062 -7.113281 1.65625 -7.9375 C 2.28125 -8.769531 3.128906 -9.1875 4.203125 -9.1875 C 5.335938 -9.1875 6.207031 -8.742188 6.8125 -7.859375 L 6.890625 -7.859375 C 6.765625 -8.535156 6.703125 -9.132812 6.703125 -9.65625 L 6.703125 -12.546875 L 9.171875 -12.546875 L 9.171875 0 L 7.28125 0 L 6.8125 -1.171875 L 6.703125 -1.171875 C 6.140625 -0.285156 5.285156 0.15625 4.140625 0.15625 Z M 5.015625 -1.796875 C 5.640625 -1.796875 6.097656 -1.976562 6.390625 -2.34375 C 6.679688 -2.707031 6.84375 -3.328125 6.875 -4.203125 L 6.875 -4.46875 C 6.875 -5.4375 6.722656 -6.128906 6.421875 -6.546875 C 6.117188 -6.972656 5.632812 -7.1875 4.96875 -7.1875 C 4.414062 -7.1875 3.988281 -6.953125 3.6875 -6.484375 C 3.382812 -6.023438 3.234375 -5.347656 3.234375 -4.453125 C 3.234375 -3.566406 3.382812 -2.898438 3.6875 -2.453125 C 4 -2.015625 4.441406 -1.796875 5.015625 -1.796875 Z M 5.015625 -1.796875 "/></g></g><g transform="translate(73.13168, 85.151079)"><g><path d="M 1.1875 -11.34375 C 1.1875 -12.144531 1.632812 -12.546875 2.53125 -12.546875 C 3.414062 -12.546875 3.859375 -12.144531 3.859375 -11.34375 C 3.859375 -10.96875 3.742188 -10.671875 3.515625 -10.453125 C 3.296875 -10.242188 2.96875 -10.140625 2.53125 -10.140625 C 1.632812 -10.140625 1.1875 -10.539062 1.1875 -11.34375 Z M 3.75 0 L 1.296875 0 L 1.296875 -9.015625 L 3.75 -9.015625 Z M 3.75 0 "/></g></g><g transform="translate(78.171629, 85.151079)"><g><path d="M 4.953125 0.15625 C 2.140625 0.15625 0.734375 -1.378906 0.734375 -4.453125 C 0.734375 -5.992188 1.113281 -7.164062 1.875 -7.96875 C 2.644531 -8.78125 3.742188 -9.1875 5.171875 -9.1875 C 6.210938 -9.1875 7.144531 -8.984375 7.96875 -8.578125 L 7.25 -6.671875 C 6.863281 -6.828125 6.503906 -6.953125 6.171875 -7.046875 C 5.835938 -7.148438 5.503906 -7.203125 5.171875 -7.203125 C 3.890625 -7.203125 3.25 -6.289062 3.25 -4.46875 C 3.25 -2.707031 3.890625 -1.828125 5.171875 -1.828125 C 5.640625 -1.828125 6.078125 -1.890625 6.484375 -2.015625 C 6.890625 -2.140625 7.289062 -2.335938 7.6875 -2.609375 L 7.6875 -0.515625 C 7.289062 -0.253906 6.890625 -0.078125 6.484375 0.015625 C 6.078125 0.109375 5.566406 0.15625 4.953125 0.15625 Z M 4.953125 0.15625 "/></g></g><g transform="translate(86.662936, 85.151079)"><g><path d="M 7.015625 0 L 6.546875 -1.21875 L 6.46875 -1.21875 C 6.0625 -0.695312 5.640625 -0.335938 5.203125 -0.140625 C 4.765625 0.0546875 4.191406 0.15625 3.484375 0.15625 C 2.617188 0.15625 1.9375 -0.0859375 1.4375 -0.578125 C 0.9375 -1.078125 0.6875 -1.78125 0.6875 -2.6875 C 0.6875 -3.644531 1.019531 -4.347656 1.6875 -4.796875 C 2.363281 -5.253906 3.375 -5.507812 4.71875 -5.5625 L 6.296875 -5.609375 L 6.296875 -6.015625 C 6.296875 -6.921875 5.828125 -7.375 4.890625 -7.375 C 4.171875 -7.375 3.320312 -7.15625 2.34375 -6.71875 L 1.53125 -8.390625 C 2.570312 -8.929688 3.722656 -9.203125 4.984375 -9.203125 C 6.191406 -9.203125 7.117188 -8.9375 7.765625 -8.40625 C 8.410156 -7.882812 8.734375 -7.085938 8.734375 -6.015625 L 8.734375 0 Z M 6.296875 -4.171875 L 5.34375 -4.140625 C 4.625 -4.117188 4.085938 -3.988281 3.734375 -3.75 C 3.390625 -3.519531 3.21875 -3.160156 3.21875 -2.671875 C 3.21875 -1.984375 3.613281 -1.640625 4.40625 -1.640625 C 4.976562 -1.640625 5.4375 -1.800781 5.78125 -2.125 C 6.125 -2.457031 6.296875 -2.894531 6.296875 -3.4375 Z M 6.296875 -4.171875 "/></g></g><g transform="translate(96.638003, 85.151079)"><g><path d="M 6.234375 0.15625 C 5.179688 0.15625 4.351562 -0.222656 3.75 -0.984375 L 3.625 -0.984375 C 3.707031 -0.234375 3.75 0.195312 3.75 0.3125 L 3.75 3.96875 L 1.296875 3.96875 L 1.296875 -9.015625 L 3.296875 -9.015625 L 3.640625 -7.84375 L 3.75 -7.84375 C 4.320312 -8.738281 5.175781 -9.1875 6.3125 -9.1875 C 7.375 -9.1875 8.203125 -8.773438 8.796875 -7.953125 C 9.398438 -7.128906 9.703125 -5.988281 9.703125 -4.53125 C 9.703125 -3.5625 9.5625 -2.722656 9.28125 -2.015625 C 9 -1.304688 8.597656 -0.765625 8.078125 -0.390625 C 7.554688 -0.0234375 6.941406 0.15625 6.234375 0.15625 Z M 5.515625 -7.21875 C 4.910156 -7.21875 4.46875 -7.03125 4.1875 -6.65625 C 3.90625 -6.28125 3.757812 -5.664062 3.75 -4.8125 L 3.75 -4.546875 C 3.75 -3.578125 3.890625 -2.878906 4.171875 -2.453125 C 4.460938 -2.035156 4.921875 -1.828125 5.546875 -1.828125 C 6.648438 -1.828125 7.203125 -2.738281 7.203125 -4.5625 C 7.203125 -5.445312 7.066406 -6.109375 6.796875 -6.546875 C 6.523438 -6.992188 6.097656 -7.21875 5.515625 -7.21875 Z M 5.515625 -7.21875 "/></g></g></g></svg>