<svg xmlns="http://www.w3.org/2000/svg" xmlns:xlink="http://www.w3.org/1999/xlink" width="650" zoomAndPan="magnify" viewBox="0 0 487.5 187.499995" height="250" preserveAspectRatio="xMidYMid meet" version="1.0"><defs><g/><clipPath id="9b15a7d0df"><path d="M 0.398438 0 L 486.601562 0 L 486.601562 187 L 0.398438 187 Z M 0.398438 0 " clip-rule="nonzero"/></clipPath><clipPath id="dc4ab919c9"><path d="M 0.398438 0 L 263.269531 0 L 263.269531 187 L 0.398438 187 Z M 0.398438 0 " clip-rule="nonzero"/></clipPath><clipPath id="f5c8c8c8bb"><path d="M 75.59375 -113.789062 C -28.058594 -113.789062 -112.085938 -38.359375 -112.085938 54.691406 C -112.085938 147.738281 -28.058594 223.167969 75.59375 223.167969 C 179.246094 223.167969 263.269531 147.738281 263.269531 54.691406 C 263.269531 -38.359375 179.246094 -113.789062 75.59375 -113.789062 " clip-rule="nonzero"/></clipPath><clipPath id="457aefb8f1"><path d="M 235.527344 40.355469 L 486.601562 40.355469 L 486.601562 187 L 235.527344 187 Z M 235.527344 40.355469 " clip-rule="nonzero"/></clipPath><clipPath id="fd218f0cd0"><path d="M 423.207031 40.355469 C 319.554688 40.355469 235.527344 115.789062 235.527344 208.835938 C 235.527344 301.882812 319.554688 377.3125 423.207031 377.3125 C 526.859375 377.3125 610.882812 301.882812 610.882812 208.835938 C 610.882812 115.789062 526.859375 40.355469 423.207031 40.355469 " clip-rule="nonzero"/></clipPath></defs><g clip-path="url(#9b15a7d0df)"><path fill="#ffffff" d="M 0.398438 0 L 487.101562 0 L 487.101562 193.933594 L 0.398438 193.933594 Z M 0.398438 0 " fill-opacity="1" fill-rule="nonzero"/><path fill="#ffffff" d="M 0.398438 0 L 487.101562 0 L 487.101562 187.191406 L 0.398438 187.191406 Z M 0.398438 0 " fill-opacity="1" fill-rule="nonzero"/><path fill="#ffffff" d="M 0.398438 0 L 487.101562 0 L 487.101562 187.191406 L 0.398438 187.191406 Z M 0.398438 0 " fill-opacity="1" fill-rule="nonzero"/></g><g clip-path="url(#dc4ab919c9)"><g clip-path="url(#f5c8c8c8bb)"><path fill="#4ebcc2" d="M -112.085938 -113.789062 L 263.269531 -113.789062 L 263.269531 223.167969 L -112.085938 223.167969 Z M -112.085938 -113.789062 " fill-opacity="1" fill-rule="nonzero"/></g></g><g clip-path="url(#457aefb8f1)"><g clip-path="url(#fd218f0cd0)"><path fill="#fecb37" d="M 235.527344 40.355469 L 610.882812 40.355469 L 610.882812 377.3125 L 235.527344 377.3125 Z M 235.527344 40.355469 " fill-opacity="1" fill-rule="nonzero"/></g></g><g fill="#000000" fill-opacity="1"><g transform="translate(59.702739, 59.728196)"><g><path d="M 2.40625 0 L 2.40625 -27.984375 L 10.09375 -27.984375 L 10.09375 -6.703125 L 22.78125 -6.703125 L 22.78125 0 Z M 2.40625 0 "/></g></g></g><g fill="#000000" fill-opacity="1"><g transform="translate(82.865533, 59.728196)"><g><path d="M 12.09375 0.390625 C 10.28125 0.390625 8.664062 0.109375 7.25 -0.453125 C 5.832031 -1.015625 4.644531 -1.78125 3.6875 -2.75 C 2.726562 -3.726562 2 -4.847656 1.5 -6.109375 C 1 -7.367188 0.75 -8.695312 0.75 -10.09375 C 0.75 -11.582031 0.988281 -13 1.46875 -14.34375 C 1.957031 -15.6875 2.679688 -16.851562 3.640625 -17.84375 C 4.597656 -18.84375 5.78125 -19.640625 7.1875 -20.234375 C 8.59375 -20.828125 10.226562 -21.125 12.09375 -21.125 C 13.9375 -21.125 15.566406 -20.828125 16.984375 -20.234375 C 18.398438 -19.640625 19.585938 -18.847656 20.546875 -17.859375 C 21.503906 -16.878906 22.226562 -15.738281 22.71875 -14.4375 C 23.207031 -13.132812 23.453125 -11.773438 23.453125 -10.359375 C 23.453125 -9.960938 23.429688 -9.5625 23.390625 -9.15625 C 23.347656 -8.75 23.300781 -8.390625 23.25 -8.078125 L 8.703125 -8.078125 C 8.785156 -6.972656 9.191406 -6.175781 9.921875 -5.6875 C 10.660156 -5.207031 11.460938 -4.96875 12.328125 -4.96875 C 13.148438 -4.96875 13.921875 -5.148438 14.640625 -5.515625 C 15.359375 -5.878906 15.835938 -6.390625 16.078125 -7.046875 L 22.421875 -5.234375 C 21.578125 -3.585938 20.28125 -2.238281 18.53125 -1.1875 C 16.789062 -0.132812 14.644531 0.390625 12.09375 0.390625 Z M 15.40625 -12.578125 C 15.269531 -13.566406 14.898438 -14.347656 14.296875 -14.921875 C 13.691406 -15.503906 12.921875 -15.796875 11.984375 -15.796875 C 11.035156 -15.796875 10.257812 -15.503906 9.65625 -14.921875 C 9.050781 -14.347656 8.679688 -13.566406 8.546875 -12.578125 Z M 15.40625 -12.578125 "/></g></g></g><g fill="#000000" fill-opacity="1"><g transform="translate(106.894963, 59.728196)"><g><path d="M 11.109375 0.390625 C 10.242188 0.390625 9.3125 0.320312 8.3125 0.1875 C 7.3125 0.0625 6.332031 -0.101562 5.375 -0.3125 C 4.414062 -0.519531 3.488281 -0.773438 2.59375 -1.078125 C 1.707031 -1.378906 0.9375 -1.71875 0.28125 -2.09375 L 3.15625 -7.171875 C 4.59375 -6.410156 5.96875 -5.832031 7.28125 -5.4375 C 8.601562 -5.039062 9.828125 -4.84375 10.953125 -4.84375 C 12.265625 -4.84375 12.921875 -5.171875 12.921875 -5.828125 C 12.921875 -6.171875 12.65625 -6.472656 12.125 -6.734375 C 11.601562 -6.992188 10.609375 -7.3125 9.140625 -7.6875 C 7.671875 -8.082031 6.4375 -8.472656 5.4375 -8.859375 C 4.4375 -9.253906 3.632812 -9.695312 3.03125 -10.1875 C 2.425781 -10.675781 1.992188 -11.210938 1.734375 -11.796875 C 1.472656 -12.390625 1.34375 -13.082031 1.34375 -13.875 C 1.34375 -14.925781 1.554688 -15.894531 1.984375 -16.78125 C 2.421875 -17.675781 3.03125 -18.453125 3.8125 -19.109375 C 4.601562 -19.765625 5.546875 -20.269531 6.640625 -20.625 C 7.734375 -20.976562 8.921875 -21.15625 10.203125 -21.15625 C 11.597656 -21.15625 13.085938 -20.957031 14.671875 -20.5625 C 16.265625 -20.175781 17.890625 -19.601562 19.546875 -18.84375 L 16.671875 -14.0625 C 15.203125 -14.75 13.976562 -15.242188 13 -15.546875 C 12.03125 -15.847656 11.097656 -16 10.203125 -16 C 9.628906 -16 9.164062 -15.910156 8.8125 -15.734375 C 8.457031 -15.566406 8.28125 -15.300781 8.28125 -14.9375 C 8.28125 -14.726562 8.332031 -14.550781 8.4375 -14.40625 C 8.539062 -14.257812 8.722656 -14.117188 8.984375 -13.984375 C 9.242188 -13.859375 9.601562 -13.722656 10.0625 -13.578125 C 10.53125 -13.429688 11.101562 -13.28125 11.78125 -13.125 C 13.351562 -12.726562 14.675781 -12.3125 15.75 -11.875 C 16.832031 -11.445312 17.695312 -10.972656 18.34375 -10.453125 C 18.988281 -9.941406 19.445312 -9.363281 19.71875 -8.71875 C 20 -8.082031 20.140625 -7.34375 20.140625 -6.5 C 20.140625 -4.375 19.332031 -2.691406 17.71875 -1.453125 C 16.101562 -0.222656 13.898438 0.390625 11.109375 0.390625 Z M 11.109375 0.390625 "/></g></g></g><g fill="#000000" fill-opacity="1"><g transform="translate(127.654809, 59.728196)"><g/></g></g><g fill="#000000" fill-opacity="1"><g transform="translate(136.518124, 59.728196)"><g><path d="M 15.84375 0.390625 C 14.34375 0.390625 13.039062 0.0976562 11.9375 -0.484375 C 10.832031 -1.078125 9.976562 -1.941406 9.375 -3.078125 L 9.375 8.390625 L 1.890625 8.390625 L 1.890625 -20.734375 L 8.390625 -20.734375 L 8.390625 -17.609375 C 9.128906 -18.742188 10.035156 -19.613281 11.109375 -20.21875 C 12.191406 -20.820312 13.519531 -21.125 15.09375 -21.125 C 16.457031 -21.125 17.726562 -20.851562 18.90625 -20.3125 C 20.09375 -19.769531 21.101562 -19.023438 21.9375 -18.078125 C 22.78125 -17.140625 23.445312 -16.015625 23.9375 -14.703125 C 24.425781 -13.390625 24.671875 -11.96875 24.671875 -10.4375 C 24.671875 -8.894531 24.445312 -7.457031 24 -6.125 C 23.550781 -4.800781 22.929688 -3.648438 22.140625 -2.671875 C 21.359375 -1.703125 20.425781 -0.945312 19.34375 -0.40625 C 18.269531 0.125 17.101562 0.390625 15.84375 0.390625 Z M 13.234375 -5.90625 C 13.785156 -5.90625 14.289062 -6.023438 14.75 -6.265625 C 15.21875 -6.503906 15.613281 -6.832031 15.9375 -7.25 C 16.269531 -7.664062 16.535156 -8.148438 16.734375 -8.703125 C 16.929688 -9.253906 17.03125 -9.847656 17.03125 -10.484375 C 17.03125 -11.796875 16.65625 -12.84375 15.90625 -13.625 C 15.15625 -14.414062 14.160156 -14.8125 12.921875 -14.8125 C 11.535156 -14.8125 10.351562 -14.101562 9.375 -12.6875 L 9.375 -9.109375 C 9.75 -8.179688 10.289062 -7.414062 11 -6.8125 C 11.707031 -6.207031 12.453125 -5.90625 13.234375 -5.90625 Z M 13.234375 -5.90625 "/></g></g></g><g fill="#000000" fill-opacity="1"><g transform="translate(161.965682, 59.728196)"><g><path d="M 15.953125 -14.34375 C 14.515625 -14.34375 13.203125 -14.179688 12.015625 -13.859375 C 10.835938 -13.546875 9.957031 -13.023438 9.375 -12.296875 L 9.375 0 L 1.890625 0 L 1.890625 -20.734375 L 8.75 -20.734375 L 8.75 -16.78125 C 9.488281 -18.175781 10.398438 -19.25 11.484375 -20 C 12.578125 -20.75 13.753906 -21.125 15.015625 -21.125 C 15.515625 -21.125 15.828125 -21.109375 15.953125 -21.078125 Z M 15.953125 -14.34375 "/></g></g></g><g fill="#000000" fill-opacity="1"><g transform="translate(178.392358, 59.728196)"><g><path d="M 12.09375 0.390625 C 10.226562 0.390625 8.59375 0.0976562 7.1875 -0.484375 C 5.78125 -1.078125 4.597656 -1.863281 3.640625 -2.84375 C 2.679688 -3.832031 1.957031 -4.976562 1.46875 -6.28125 C 0.988281 -7.582031 0.75 -8.941406 0.75 -10.359375 C 0.75 -11.773438 0.988281 -13.132812 1.46875 -14.4375 C 1.957031 -15.738281 2.679688 -16.878906 3.640625 -17.859375 C 4.597656 -18.847656 5.78125 -19.640625 7.1875 -20.234375 C 8.59375 -20.828125 10.226562 -21.125 12.09375 -21.125 C 13.9375 -21.125 15.566406 -20.828125 16.984375 -20.234375 C 18.398438 -19.640625 19.585938 -18.847656 20.546875 -17.859375 C 21.503906 -16.878906 22.226562 -15.738281 22.71875 -14.4375 C 23.207031 -13.132812 23.453125 -11.773438 23.453125 -10.359375 C 23.453125 -8.941406 23.207031 -7.582031 22.71875 -6.28125 C 22.226562 -4.976562 21.503906 -3.832031 20.546875 -2.84375 C 19.585938 -1.863281 18.398438 -1.078125 16.984375 -0.484375 C 15.566406 0.0976562 13.9375 0.390625 12.09375 0.390625 Z M 8.4375 -10.359375 C 8.4375 -8.972656 8.773438 -7.882812 9.453125 -7.09375 C 10.140625 -6.300781 11.019531 -5.90625 12.09375 -5.90625 C 13.175781 -5.90625 14.054688 -6.300781 14.734375 -7.09375 C 15.421875 -7.882812 15.765625 -8.972656 15.765625 -10.359375 C 15.765625 -11.753906 15.421875 -12.84375 14.734375 -13.625 C 14.054688 -14.414062 13.175781 -14.8125 12.09375 -14.8125 C 11.019531 -14.8125 10.140625 -14.414062 9.453125 -13.625 C 8.773438 -12.84375 8.4375 -11.753906 8.4375 -10.359375 Z M 8.4375 -10.359375 "/></g></g></g><g fill="#000000" fill-opacity="1"><g transform="translate(202.579355, 59.728196)"><g><path d="M 3.46875 0 L 3.46875 -12.6875 L 0.90625 -12.6875 L 0.90625 -18.328125 L 3.46875 -18.328125 L 3.46875 -20.5625 C 3.46875 -21.851562 3.648438 -23.03125 4.015625 -24.09375 C 4.390625 -25.15625 4.90625 -26.0625 5.5625 -26.8125 C 6.21875 -27.5625 7.007812 -28.140625 7.9375 -28.546875 C 8.875 -28.953125 9.921875 -29.15625 11.078125 -29.15625 C 12.804688 -29.15625 14.722656 -28.765625 16.828125 -27.984375 L 15.5625 -22.296875 C 15.113281 -22.460938 14.632812 -22.597656 14.125 -22.703125 C 13.613281 -22.804688 13.160156 -22.859375 12.765625 -22.859375 C 11.554688 -22.859375 10.953125 -22.1875 10.953125 -20.84375 L 10.953125 -18.328125 L 15.484375 -18.328125 L 15.484375 -12.6875 L 10.953125 -12.6875 L 10.953125 0 Z M 3.46875 0 "/></g></g></g><g fill="#000000" fill-opacity="1"><g transform="translate(218.769674, 59.728196)"><g><path d="M 12.09375 0.390625 C 10.28125 0.390625 8.664062 0.109375 7.25 -0.453125 C 5.832031 -1.015625 4.644531 -1.78125 3.6875 -2.75 C 2.726562 -3.726562 2 -4.847656 1.5 -6.109375 C 1 -7.367188 0.75 -8.695312 0.75 -10.09375 C 0.75 -11.582031 0.988281 -13 1.46875 -14.34375 C 1.957031 -15.6875 2.679688 -16.851562 3.640625 -17.84375 C 4.597656 -18.84375 5.78125 -19.640625 7.1875 -20.234375 C 8.59375 -20.828125 10.226562 -21.125 12.09375 -21.125 C 13.9375 -21.125 15.566406 -20.828125 16.984375 -20.234375 C 18.398438 -19.640625 19.585938 -18.847656 20.546875 -17.859375 C 21.503906 -16.878906 22.226562 -15.738281 22.71875 -14.4375 C 23.207031 -13.132812 23.453125 -11.773438 23.453125 -10.359375 C 23.453125 -9.960938 23.429688 -9.5625 23.390625 -9.15625 C 23.347656 -8.75 23.300781 -8.390625 23.25 -8.078125 L 8.703125 -8.078125 C 8.785156 -6.972656 9.191406 -6.175781 9.921875 -5.6875 C 10.660156 -5.207031 11.460938 -4.96875 12.328125 -4.96875 C 13.148438 -4.96875 13.921875 -5.148438 14.640625 -5.515625 C 15.359375 -5.878906 15.835938 -6.390625 16.078125 -7.046875 L 22.421875 -5.234375 C 21.578125 -3.585938 20.28125 -2.238281 18.53125 -1.1875 C 16.789062 -0.132812 14.644531 0.390625 12.09375 0.390625 Z M 15.40625 -12.578125 C 15.269531 -13.566406 14.898438 -14.347656 14.296875 -14.921875 C 13.691406 -15.503906 12.921875 -15.796875 11.984375 -15.796875 C 11.035156 -15.796875 10.257812 -15.503906 9.65625 -14.921875 C 9.050781 -14.347656 8.679688 -13.566406 8.546875 -12.578125 Z M 15.40625 -12.578125 "/></g></g></g><g fill="#000000" fill-opacity="1"><g transform="translate(242.799104, 59.728196)"><g><path d="M 11.109375 0.390625 C 10.242188 0.390625 9.3125 0.320312 8.3125 0.1875 C 7.3125 0.0625 6.332031 -0.101562 5.375 -0.3125 C 4.414062 -0.519531 3.488281 -0.773438 2.59375 -1.078125 C 1.707031 -1.378906 0.9375 -1.71875 0.28125 -2.09375 L 3.15625 -7.171875 C 4.59375 -6.410156 5.96875 -5.832031 7.28125 -5.4375 C 8.601562 -5.039062 9.828125 -4.84375 10.953125 -4.84375 C 12.265625 -4.84375 12.921875 -5.171875 12.921875 -5.828125 C 12.921875 -6.171875 12.65625 -6.472656 12.125 -6.734375 C 11.601562 -6.992188 10.609375 -7.3125 9.140625 -7.6875 C 7.671875 -8.082031 6.4375 -8.472656 5.4375 -8.859375 C 4.4375 -9.253906 3.632812 -9.695312 3.03125 -10.1875 C 2.425781 -10.675781 1.992188 -11.210938 1.734375 -11.796875 C 1.472656 -12.390625 1.34375 -13.082031 1.34375 -13.875 C 1.34375 -14.925781 1.554688 -15.894531 1.984375 -16.78125 C 2.421875 -17.675781 3.03125 -18.453125 3.8125 -19.109375 C 4.601562 -19.765625 5.546875 -20.269531 6.640625 -20.625 C 7.734375 -20.976562 8.921875 -21.15625 10.203125 -21.15625 C 11.597656 -21.15625 13.085938 -20.957031 14.671875 -20.5625 C 16.265625 -20.175781 17.890625 -19.601562 19.546875 -18.84375 L 16.671875 -14.0625 C 15.203125 -14.75 13.976562 -15.242188 13 -15.546875 C 12.03125 -15.847656 11.097656 -16 10.203125 -16 C 9.628906 -16 9.164062 -15.910156 8.8125 -15.734375 C 8.457031 -15.566406 8.28125 -15.300781 8.28125 -14.9375 C 8.28125 -14.726562 8.332031 -14.550781 8.4375 -14.40625 C 8.539062 -14.257812 8.722656 -14.117188 8.984375 -13.984375 C 9.242188 -13.859375 9.601562 -13.722656 10.0625 -13.578125 C 10.53125 -13.429688 11.101562 -13.28125 11.78125 -13.125 C 13.351562 -12.726562 14.675781 -12.3125 15.75 -11.875 C 16.832031 -11.445312 17.695312 -10.972656 18.34375 -10.453125 C 18.988281 -9.941406 19.445312 -9.363281 19.71875 -8.71875 C 20 -8.082031 20.140625 -7.34375 20.140625 -6.5 C 20.140625 -4.375 19.332031 -2.691406 17.71875 -1.453125 C 16.101562 -0.222656 13.898438 0.390625 11.109375 0.390625 Z M 11.109375 0.390625 "/></g></g></g><g fill="#000000" fill-opacity="1"><g transform="translate(263.558962, 59.728196)"><g><path d="M 11.109375 0.390625 C 10.242188 0.390625 9.3125 0.320312 8.3125 0.1875 C 7.3125 0.0625 6.332031 -0.101562 5.375 -0.3125 C 4.414062 -0.519531 3.488281 -0.773438 2.59375 -1.078125 C 1.707031 -1.378906 0.9375 -1.71875 0.28125 -2.09375 L 3.15625 -7.171875 C 4.59375 -6.410156 5.96875 -5.832031 7.28125 -5.4375 C 8.601562 -5.039062 9.828125 -4.84375 10.953125 -4.84375 C 12.265625 -4.84375 12.921875 -5.171875 12.921875 -5.828125 C 12.921875 -6.171875 12.65625 -6.472656 12.125 -6.734375 C 11.601562 -6.992188 10.609375 -7.3125 9.140625 -7.6875 C 7.671875 -8.082031 6.4375 -8.472656 5.4375 -8.859375 C 4.4375 -9.253906 3.632812 -9.695312 3.03125 -10.1875 C 2.425781 -10.675781 1.992188 -11.210938 1.734375 -11.796875 C 1.472656 -12.390625 1.34375 -13.082031 1.34375 -13.875 C 1.34375 -14.925781 1.554688 -15.894531 1.984375 -16.78125 C 2.421875 -17.675781 3.03125 -18.453125 3.8125 -19.109375 C 4.601562 -19.765625 5.546875 -20.269531 6.640625 -20.625 C 7.734375 -20.976562 8.921875 -21.15625 10.203125 -21.15625 C 11.597656 -21.15625 13.085938 -20.957031 14.671875 -20.5625 C 16.265625 -20.175781 17.890625 -19.601562 19.546875 -18.84375 L 16.671875 -14.0625 C 15.203125 -14.75 13.976562 -15.242188 13 -15.546875 C 12.03125 -15.847656 11.097656 -16 10.203125 -16 C 9.628906 -16 9.164062 -15.910156 8.8125 -15.734375 C 8.457031 -15.566406 8.28125 -15.300781 8.28125 -14.9375 C 8.28125 -14.726562 8.332031 -14.550781 8.4375 -14.40625 C 8.539062 -14.257812 8.722656 -14.117188 8.984375 -13.984375 C 9.242188 -13.859375 9.601562 -13.722656 10.0625 -13.578125 C 10.53125 -13.429688 11.101562 -13.28125 11.78125 -13.125 C 13.351562 -12.726562 14.675781 -12.3125 15.75 -11.875 C 16.832031 -11.445312 17.695312 -10.972656 18.34375 -10.453125 C 18.988281 -9.941406 19.445312 -9.363281 19.71875 -8.71875 C 20 -8.082031 20.140625 -7.34375 20.140625 -6.5 C 20.140625 -4.375 19.332031 -2.691406 17.71875 -1.453125 C 16.101562 -0.222656 13.898438 0.390625 11.109375 0.390625 Z M 11.109375 0.390625 "/></g></g></g><g fill="#000000" fill-opacity="1"><g transform="translate(284.318797, 59.728196)"><g><path d="M 1.890625 0 L 1.890625 -20.734375 L 9.375 -20.734375 L 9.375 0 Z M 1.890625 -22.46875 L 1.890625 -28.765625 L 9.375 -28.765625 L 9.375 -22.46875 Z M 1.890625 -22.46875 "/></g></g></g><g fill="#000000" fill-opacity="1"><g transform="translate(295.585048, 59.728196)"><g><path d="M 12.09375 0.390625 C 10.226562 0.390625 8.59375 0.0976562 7.1875 -0.484375 C 5.78125 -1.078125 4.597656 -1.863281 3.640625 -2.84375 C 2.679688 -3.832031 1.957031 -4.976562 1.46875 -6.28125 C 0.988281 -7.582031 0.75 -8.941406 0.75 -10.359375 C 0.75 -11.773438 0.988281 -13.132812 1.46875 -14.4375 C 1.957031 -15.738281 2.679688 -16.878906 3.640625 -17.859375 C 4.597656 -18.847656 5.78125 -19.640625 7.1875 -20.234375 C 8.59375 -20.828125 10.226562 -21.125 12.09375 -21.125 C 13.9375 -21.125 15.566406 -20.828125 16.984375 -20.234375 C 18.398438 -19.640625 19.585938 -18.847656 20.546875 -17.859375 C 21.503906 -16.878906 22.226562 -15.738281 22.71875 -14.4375 C 23.207031 -13.132812 23.453125 -11.773438 23.453125 -10.359375 C 23.453125 -8.941406 23.207031 -7.582031 22.71875 -6.28125 C 22.226562 -4.976562 21.503906 -3.832031 20.546875 -2.84375 C 19.585938 -1.863281 18.398438 -1.078125 16.984375 -0.484375 C 15.566406 0.0976562 13.9375 0.390625 12.09375 0.390625 Z M 8.4375 -10.359375 C 8.4375 -8.972656 8.773438 -7.882812 9.453125 -7.09375 C 10.140625 -6.300781 11.019531 -5.90625 12.09375 -5.90625 C 13.175781 -5.90625 14.054688 -6.300781 14.734375 -7.09375 C 15.421875 -7.882812 15.765625 -8.972656 15.765625 -10.359375 C 15.765625 -11.753906 15.421875 -12.84375 14.734375 -13.625 C 14.054688 -14.414062 13.175781 -14.8125 12.09375 -14.8125 C 11.019531 -14.8125 10.140625 -14.414062 9.453125 -13.625 C 8.773438 -12.84375 8.4375 -11.753906 8.4375 -10.359375 Z M 8.4375 -10.359375 "/></g></g></g><g fill="#000000" fill-opacity="1"><g transform="translate(319.772057, 59.728196)"><g><path d="M 22.734375 0 L 15.25 0 L 15.25 -11.671875 C 15.25 -12.691406 15.019531 -13.429688 14.5625 -13.890625 C 14.101562 -14.347656 13.570312 -14.578125 12.96875 -14.578125 C 12.332031 -14.578125 11.660156 -14.300781 10.953125 -13.75 C 10.242188 -13.195312 9.71875 -12.488281 9.375 -11.625 L 9.375 0 L 1.890625 0 L 1.890625 -20.734375 L 8.625 -20.734375 L 8.625 -17.65625 C 9.363281 -18.78125 10.394531 -19.640625 11.71875 -20.234375 C 13.050781 -20.828125 14.625 -21.125 16.4375 -21.125 C 17.851562 -21.125 18.972656 -20.863281 19.796875 -20.34375 C 20.628906 -19.832031 21.257812 -19.195312 21.6875 -18.4375 C 22.125 -17.675781 22.40625 -16.863281 22.53125 -16 C 22.664062 -15.132812 22.734375 -14.347656 22.734375 -13.640625 Z M 22.734375 0 "/></g></g></g><g fill="#000000" fill-opacity="1"><g transform="translate(344.234806, 59.728196)"><g><path d="M 22.734375 0 L 15.25 0 L 15.25 -11.671875 C 15.25 -12.691406 15.019531 -13.429688 14.5625 -13.890625 C 14.101562 -14.347656 13.570312 -14.578125 12.96875 -14.578125 C 12.332031 -14.578125 11.660156 -14.300781 10.953125 -13.75 C 10.242188 -13.195312 9.71875 -12.488281 9.375 -11.625 L 9.375 0 L 1.890625 0 L 1.890625 -20.734375 L 8.625 -20.734375 L 8.625 -17.65625 C 9.363281 -18.78125 10.394531 -19.640625 11.71875 -20.234375 C 13.050781 -20.828125 14.625 -21.125 16.4375 -21.125 C 17.851562 -21.125 18.972656 -20.863281 19.796875 -20.34375 C 20.628906 -19.832031 21.257812 -19.195312 21.6875 -18.4375 C 22.125 -17.675781 22.40625 -16.863281 22.53125 -16 C 22.664062 -15.132812 22.734375 -14.347656 22.734375 -13.640625 Z M 22.734375 0 "/></g></g></g><g fill="#000000" fill-opacity="1"><g transform="translate(368.697554, 59.728196)"><g><path d="M 12.09375 0.390625 C 10.28125 0.390625 8.664062 0.109375 7.25 -0.453125 C 5.832031 -1.015625 4.644531 -1.78125 3.6875 -2.75 C 2.726562 -3.726562 2 -4.847656 1.5 -6.109375 C 1 -7.367188 0.75 -8.695312 0.75 -10.09375 C 0.75 -11.582031 0.988281 -13 1.46875 -14.34375 C 1.957031 -15.6875 2.679688 -16.851562 3.640625 -17.84375 C 4.597656 -18.84375 5.78125 -19.640625 7.1875 -20.234375 C 8.59375 -20.828125 10.226562 -21.125 12.09375 -21.125 C 13.9375 -21.125 15.566406 -20.828125 16.984375 -20.234375 C 18.398438 -19.640625 19.585938 -18.847656 20.546875 -17.859375 C 21.503906 -16.878906 22.226562 -15.738281 22.71875 -14.4375 C 23.207031 -13.132812 23.453125 -11.773438 23.453125 -10.359375 C 23.453125 -9.960938 23.429688 -9.5625 23.390625 -9.15625 C 23.347656 -8.75 23.300781 -8.390625 23.25 -8.078125 L 8.703125 -8.078125 C 8.785156 -6.972656 9.191406 -6.175781 9.921875 -5.6875 C 10.660156 -5.207031 11.460938 -4.96875 12.328125 -4.96875 C 13.148438 -4.96875 13.921875 -5.148438 14.640625 -5.515625 C 15.359375 -5.878906 15.835938 -6.390625 16.078125 -7.046875 L 22.421875 -5.234375 C 21.578125 -3.585938 20.28125 -2.238281 18.53125 -1.1875 C 16.789062 -0.132812 14.644531 0.390625 12.09375 0.390625 Z M 15.40625 -12.578125 C 15.269531 -13.566406 14.898438 -14.347656 14.296875 -14.921875 C 13.691406 -15.503906 12.921875 -15.796875 11.984375 -15.796875 C 11.035156 -15.796875 10.257812 -15.503906 9.65625 -14.921875 C 9.050781 -14.347656 8.679688 -13.566406 8.546875 -12.578125 Z M 15.40625 -12.578125 "/></g></g></g><g fill="#000000" fill-opacity="1"><g transform="translate(392.726984, 59.728196)"><g><path d="M 1.765625 -28.765625 L 9.265625 -28.765625 L 9.265625 -8.75 C 9.265625 -7.175781 9.90625 -6.390625 11.1875 -6.390625 C 11.507812 -6.390625 11.851562 -6.441406 12.21875 -6.546875 C 12.582031 -6.648438 12.921875 -6.789062 13.234375 -6.96875 L 14.1875 -0.953125 C 13.289062 -0.523438 12.285156 -0.195312 11.171875 0.03125 C 10.054688 0.269531 9 0.390625 8 0.390625 C 6 0.390625 4.457031 -0.117188 3.375 -1.140625 C 2.300781 -2.160156 1.765625 -3.644531 1.765625 -5.59375 Z M 1.765625 -28.765625 "/></g></g></g><g fill="#000000" fill-opacity="1"><g transform="translate(407.026463, 59.728196)"><g><path d="M 11.109375 0.390625 C 10.242188 0.390625 9.3125 0.320312 8.3125 0.1875 C 7.3125 0.0625 6.332031 -0.101562 5.375 -0.3125 C 4.414062 -0.519531 3.488281 -0.773438 2.59375 -1.078125 C 1.707031 -1.378906 0.9375 -1.71875 0.28125 -2.09375 L 3.15625 -7.171875 C 4.59375 -6.410156 5.96875 -5.832031 7.28125 -5.4375 C 8.601562 -5.039062 9.828125 -4.84375 10.953125 -4.84375 C 12.265625 -4.84375 12.921875 -5.171875 12.921875 -5.828125 C 12.921875 -6.171875 12.65625 -6.472656 12.125 -6.734375 C 11.601562 -6.992188 10.609375 -7.3125 9.140625 -7.6875 C 7.671875 -8.082031 6.4375 -8.472656 5.4375 -8.859375 C 4.4375 -9.253906 3.632812 -9.695312 3.03125 -10.1875 C 2.425781 -10.675781 1.992188 -11.210938 1.734375 -11.796875 C 1.472656 -12.390625 1.34375 -13.082031 1.34375 -13.875 C 1.34375 -14.925781 1.554688 -15.894531 1.984375 -16.78125 C 2.421875 -17.675781 3.03125 -18.453125 3.8125 -19.109375 C 4.601562 -19.765625 5.546875 -20.269531 6.640625 -20.625 C 7.734375 -20.976562 8.921875 -21.15625 10.203125 -21.15625 C 11.597656 -21.15625 13.085938 -20.957031 14.671875 -20.5625 C 16.265625 -20.175781 17.890625 -19.601562 19.546875 -18.84375 L 16.671875 -14.0625 C 15.203125 -14.75 13.976562 -15.242188 13 -15.546875 C 12.03125 -15.847656 11.097656 -16 10.203125 -16 C 9.628906 -16 9.164062 -15.910156 8.8125 -15.734375 C 8.457031 -15.566406 8.28125 -15.300781 8.28125 -14.9375 C 8.28125 -14.726562 8.332031 -14.550781 8.4375 -14.40625 C 8.539062 -14.257812 8.722656 -14.117188 8.984375 -13.984375 C 9.242188 -13.859375 9.601562 -13.722656 10.0625 -13.578125 C 10.53125 -13.429688 11.101562 -13.28125 11.78125 -13.125 C 13.351562 -12.726562 14.675781 -12.3125 15.75 -11.875 C 16.832031 -11.445312 17.695312 -10.972656 18.34375 -10.453125 C 18.988281 -9.941406 19.445312 -9.363281 19.71875 -8.71875 C 20 -8.082031 20.140625 -7.34375 20.140625 -6.5 C 20.140625 -4.375 19.332031 -2.691406 17.71875 -1.453125 C 16.101562 -0.222656 13.898438 0.390625 11.109375 0.390625 Z M 11.109375 0.390625 "/></g></g></g><g fill="#000000" fill-opacity="1"><g transform="translate(228.913612, 103.156998)"><g><path d="M 19.9375 0 L 18.4375 -1.578125 C 17.3125 -0.890625 16.132812 -0.390625 14.90625 -0.078125 C 13.6875 0.234375 12.460938 0.390625 11.234375 0.390625 C 9.597656 0.390625 8.171875 0.128906 6.953125 -0.390625 C 5.734375 -0.921875 4.707031 -1.601562 3.875 -2.4375 C 3.050781 -3.28125 2.425781 -4.234375 2 -5.296875 C 1.582031 -6.359375 1.375 -7.429688 1.375 -8.515625 C 1.375 -10.117188 1.757812 -11.503906 2.53125 -12.671875 C 3.3125 -13.835938 4.238281 -14.851562 5.3125 -15.71875 C 4.476562 -16.75 3.890625 -17.660156 3.546875 -18.453125 C 3.203125 -19.253906 3.03125 -20.144531 3.03125 -21.125 C 3.03125 -22.25 3.238281 -23.265625 3.65625 -24.171875 C 4.082031 -25.078125 4.65625 -25.832031 5.375 -26.4375 C 6.101562 -27.039062 6.960938 -27.503906 7.953125 -27.828125 C 8.953125 -28.160156 10.046875 -28.328125 11.234375 -28.328125 C 12.253906 -28.328125 13.253906 -28.203125 14.234375 -27.953125 C 15.222656 -27.703125 16.101562 -27.304688 16.875 -26.765625 C 17.65625 -26.234375 18.28125 -25.539062 18.75 -24.6875 C 19.226562 -23.832031 19.46875 -22.800781 19.46875 -21.59375 C 19.46875 -20.175781 19.140625 -18.898438 18.484375 -17.765625 C 17.828125 -16.640625 16.945312 -15.601562 15.84375 -14.65625 L 19.078125 -11.234375 C 19.359375 -11.960938 19.578125 -12.753906 19.734375 -13.609375 C 19.898438 -14.460938 19.984375 -15.390625 19.984375 -16.390625 L 26.015625 -16.390625 C 25.984375 -14.367188 25.742188 -12.550781 25.296875 -10.9375 C 24.847656 -9.320312 24.242188 -7.867188 23.484375 -6.578125 L 29.75 0 Z M 12.015625 -5.4375 C 12.804688 -5.4375 13.582031 -5.609375 14.34375 -5.953125 L 9.890625 -10.71875 C 8.992188 -9.976562 8.546875 -9.242188 8.546875 -8.515625 C 8.546875 -8.222656 8.601562 -7.898438 8.71875 -7.546875 C 8.84375 -7.191406 9.039062 -6.851562 9.3125 -6.53125 C 9.59375 -6.21875 9.957031 -5.957031 10.40625 -5.75 C 10.851562 -5.539062 11.390625 -5.4375 12.015625 -5.4375 Z M 9.8125 -21.4375 C 9.8125 -21.09375 9.910156 -20.796875 10.109375 -20.546875 C 10.304688 -20.296875 10.640625 -19.945312 11.109375 -19.5 C 11.640625 -19.875 12.019531 -20.195312 12.25 -20.46875 C 12.488281 -20.75 12.609375 -21.097656 12.609375 -21.515625 C 12.609375 -21.960938 12.484375 -22.300781 12.234375 -22.53125 C 11.984375 -22.769531 11.648438 -22.890625 11.234375 -22.890625 C 10.785156 -22.890625 10.4375 -22.75 10.1875 -22.46875 C 9.9375 -22.195312 9.8125 -21.851562 9.8125 -21.4375 Z M 9.8125 -21.4375 "/></g></g></g><g fill="#000000" fill-opacity="1"><g transform="translate(145.390389, 146.5858)"><g><path d="M 2.40625 0 L 2.40625 -27.984375 L 10.09375 -27.984375 L 10.09375 -6.703125 L 22.78125 -6.703125 L 22.78125 0 Z M 2.40625 0 "/></g></g></g><g fill="#000000" fill-opacity="1"><g transform="translate(168.553183, 146.5858)"><g><path d="M 8 0.390625 C 6.976562 0.390625 6.019531 0.222656 5.125 -0.109375 C 4.226562 -0.453125 3.457031 -0.921875 2.8125 -1.515625 C 2.175781 -2.109375 1.671875 -2.8125 1.296875 -3.625 C 0.929688 -4.4375 0.75 -5.316406 0.75 -6.265625 C 0.75 -7.316406 0.972656 -8.273438 1.421875 -9.140625 C 1.867188 -10.003906 2.484375 -10.75 3.265625 -11.375 C 4.054688 -12.007812 4.992188 -12.5 6.078125 -12.84375 C 7.171875 -13.1875 8.375 -13.359375 9.6875 -13.359375 C 11.375 -13.359375 12.769531 -13.097656 13.875 -12.578125 L 13.875 -13.203125 C 13.875 -14.171875 13.585938 -14.890625 13.015625 -15.359375 C 12.453125 -15.835938 11.539062 -16.078125 10.28125 -16.078125 C 9.101562 -16.078125 8.015625 -15.882812 7.015625 -15.5 C 6.015625 -15.125 4.960938 -14.566406 3.859375 -13.828125 L 1.6875 -18.484375 C 4.425781 -20.242188 7.539062 -21.125 11.03125 -21.125 C 14.34375 -21.125 16.890625 -20.382812 18.671875 -18.90625 C 20.460938 -17.4375 21.359375 -15.234375 21.359375 -12.296875 L 21.359375 -8.28125 C 21.359375 -7.570312 21.488281 -7.078125 21.75 -6.796875 C 22.007812 -6.523438 22.484375 -6.363281 23.171875 -6.3125 L 23.171875 0 C 22.484375 0.132812 21.835938 0.234375 21.234375 0.296875 C 20.628906 0.359375 20.09375 0.390625 19.625 0.390625 C 18.28125 0.390625 17.257812 0.148438 16.5625 -0.328125 C 15.875 -0.816406 15.421875 -1.535156 15.203125 -2.484375 L 15.046875 -3.234375 C 14.128906 -2.046875 13.066406 -1.144531 11.859375 -0.53125 C 10.648438 0.0820312 9.363281 0.390625 8 0.390625 Z M 10.25 -4.96875 C 10.695312 -4.96875 11.15625 -5.039062 11.625 -5.1875 C 12.09375 -5.332031 12.515625 -5.519531 12.890625 -5.75 C 13.171875 -5.957031 13.40625 -6.1875 13.59375 -6.4375 C 13.78125 -6.6875 13.875 -6.945312 13.875 -7.21875 L 13.875 -8.75 C 13.425781 -8.90625 12.9375 -9.035156 12.40625 -9.140625 C 11.882812 -9.242188 11.414062 -9.296875 11 -9.296875 C 10.070312 -9.296875 9.304688 -9.070312 8.703125 -8.625 C 8.097656 -8.175781 7.796875 -7.613281 7.796875 -6.9375 C 7.796875 -6.351562 8.023438 -5.878906 8.484375 -5.515625 C 8.953125 -5.148438 9.539062 -4.96875 10.25 -4.96875 Z M 10.25 -4.96875 "/></g></g></g><g fill="#000000" fill-opacity="1"><g transform="translate(192.346258, 146.5858)"><g/></g></g><g fill="#000000" fill-opacity="1"><g transform="translate(201.209573, 146.5858)"><g><path d="M 3.46875 0 L 3.46875 -12.6875 L 0.90625 -12.6875 L 0.90625 -18.328125 L 3.46875 -18.328125 L 3.46875 -20.5625 C 3.46875 -21.851562 3.648438 -23.03125 4.015625 -24.09375 C 4.390625 -25.15625 4.90625 -26.0625 5.5625 -26.8125 C 6.21875 -27.5625 7.007812 -28.140625 7.9375 -28.546875 C 8.875 -28.953125 9.921875 -29.15625 11.078125 -29.15625 C 12.804688 -29.15625 14.722656 -28.765625 16.828125 -27.984375 L 15.5625 -22.296875 C 15.113281 -22.460938 14.632812 -22.597656 14.125 -22.703125 C 13.613281 -22.804688 13.160156 -22.859375 12.765625 -22.859375 C 11.554688 -22.859375 10.953125 -22.1875 10.953125 -20.84375 L 10.953125 -18.328125 L 15.484375 -18.328125 L 15.484375 -12.6875 L 10.953125 -12.6875 L 10.953125 0 Z M 3.46875 0 "/></g></g></g><g fill="#000000" fill-opacity="1"><g transform="translate(217.399891, 146.5858)"><g><path d="M 8 0.390625 C 6.976562 0.390625 6.019531 0.222656 5.125 -0.109375 C 4.226562 -0.453125 3.457031 -0.921875 2.8125 -1.515625 C 2.175781 -2.109375 1.671875 -2.8125 1.296875 -3.625 C 0.929688 -4.4375 0.75 -5.316406 0.75 -6.265625 C 0.75 -7.316406 0.972656 -8.273438 1.421875 -9.140625 C 1.867188 -10.003906 2.484375 -10.75 3.265625 -11.375 C 4.054688 -12.007812 4.992188 -12.5 6.078125 -12.84375 C 7.171875 -13.1875 8.375 -13.359375 9.6875 -13.359375 C 11.375 -13.359375 12.769531 -13.097656 13.875 -12.578125 L 13.875 -13.203125 C 13.875 -14.171875 13.585938 -14.890625 13.015625 -15.359375 C 12.453125 -15.835938 11.539062 -16.078125 10.28125 -16.078125 C 9.101562 -16.078125 8.015625 -15.882812 7.015625 -15.5 C 6.015625 -15.125 4.960938 -14.566406 3.859375 -13.828125 L 1.6875 -18.484375 C 4.425781 -20.242188 7.539062 -21.125 11.03125 -21.125 C 14.34375 -21.125 16.890625 -20.382812 18.671875 -18.90625 C 20.460938 -17.4375 21.359375 -15.234375 21.359375 -12.296875 L 21.359375 -8.28125 C 21.359375 -7.570312 21.488281 -7.078125 21.75 -6.796875 C 22.007812 -6.523438 22.484375 -6.363281 23.171875 -6.3125 L 23.171875 0 C 22.484375 0.132812 21.835938 0.234375 21.234375 0.296875 C 20.628906 0.359375 20.09375 0.390625 19.625 0.390625 C 18.28125 0.390625 17.257812 0.148438 16.5625 -0.328125 C 15.875 -0.816406 15.421875 -1.535156 15.203125 -2.484375 L 15.046875 -3.234375 C 14.128906 -2.046875 13.066406 -1.144531 11.859375 -0.53125 C 10.648438 0.0820312 9.363281 0.390625 8 0.390625 Z M 10.25 -4.96875 C 10.695312 -4.96875 11.15625 -5.039062 11.625 -5.1875 C 12.09375 -5.332031 12.515625 -5.519531 12.890625 -5.75 C 13.171875 -5.957031 13.40625 -6.1875 13.59375 -6.4375 C 13.78125 -6.6875 13.875 -6.945312 13.875 -7.21875 L 13.875 -8.75 C 13.425781 -8.90625 12.9375 -9.035156 12.40625 -9.140625 C 11.882812 -9.242188 11.414062 -9.296875 11 -9.296875 C 10.070312 -9.296875 9.304688 -9.070312 8.703125 -8.625 C 8.097656 -8.175781 7.796875 -7.613281 7.796875 -6.9375 C 7.796875 -6.351562 8.023438 -5.878906 8.484375 -5.515625 C 8.953125 -5.148438 9.539062 -4.96875 10.25 -4.96875 Z M 10.25 -4.96875 "/></g></g></g><g fill="#000000" fill-opacity="1"><g transform="translate(241.192965, 146.5858)"><g><path d="M 35.3125 0 L 27.828125 0 L 27.828125 -11.671875 C 27.828125 -12.691406 27.617188 -13.429688 27.203125 -13.890625 C 26.796875 -14.347656 26.304688 -14.578125 25.734375 -14.578125 C 25.128906 -14.578125 24.488281 -14.300781 23.8125 -13.75 C 23.144531 -13.195312 22.65625 -12.488281 22.34375 -11.625 L 22.34375 0 L 14.859375 0 L 14.859375 -11.671875 C 14.859375 -12.691406 14.65625 -13.429688 14.25 -13.890625 C 13.84375 -14.347656 13.347656 -14.578125 12.765625 -14.578125 C 12.160156 -14.578125 11.523438 -14.300781 10.859375 -13.75 C 10.191406 -13.195312 9.695312 -12.488281 9.375 -11.625 L 9.375 0 L 1.890625 0 L 1.890625 -20.734375 L 8.625 -20.734375 L 8.625 -17.65625 C 9.363281 -18.78125 10.375 -19.640625 11.65625 -20.234375 C 12.945312 -20.828125 14.472656 -21.125 16.234375 -21.125 C 17.078125 -21.125 17.8125 -21.023438 18.4375 -20.828125 C 19.070312 -20.628906 19.617188 -20.359375 20.078125 -20.015625 C 20.535156 -19.671875 20.898438 -19.289062 21.171875 -18.875 C 21.453125 -18.457031 21.671875 -18.007812 21.828125 -17.53125 C 22.566406 -18.664062 23.570312 -19.546875 24.84375 -20.171875 C 26.113281 -20.804688 27.566406 -21.125 29.203125 -21.125 C 30.566406 -21.125 31.648438 -20.863281 32.453125 -20.34375 C 33.253906 -19.832031 33.863281 -19.195312 34.28125 -18.4375 C 34.695312 -17.675781 34.972656 -16.863281 35.109375 -16 C 35.242188 -15.132812 35.3125 -14.347656 35.3125 -13.640625 Z M 35.3125 0 "/></g></g></g><g fill="#000000" fill-opacity="1"><g transform="translate(278.22192, 146.5858)"><g><path d="M 1.890625 0 L 1.890625 -20.734375 L 9.375 -20.734375 L 9.375 0 Z M 1.890625 -22.46875 L 1.890625 -28.765625 L 9.375 -28.765625 L 9.375 -22.46875 Z M 1.890625 -22.46875 "/></g></g></g><g fill="#000000" fill-opacity="1"><g transform="translate(289.488171, 146.5858)"><g><path d="M 1.765625 -28.765625 L 9.265625 -28.765625 L 9.265625 -8.75 C 9.265625 -7.175781 9.90625 -6.390625 11.1875 -6.390625 C 11.507812 -6.390625 11.851562 -6.441406 12.21875 -6.546875 C 12.582031 -6.648438 12.921875 -6.789062 13.234375 -6.96875 L 14.1875 -0.953125 C 13.289062 -0.523438 12.285156 -0.195312 11.171875 0.03125 C 10.054688 0.269531 9 0.390625 8 0.390625 C 6 0.390625 4.457031 -0.117188 3.375 -1.140625 C 2.300781 -2.160156 1.765625 -3.644531 1.765625 -5.59375 Z M 1.765625 -28.765625 "/></g></g></g><g fill="#000000" fill-opacity="1"><g transform="translate(303.78765, 146.5858)"><g><path d="M 1.765625 -28.765625 L 9.265625 -28.765625 L 9.265625 -8.75 C 9.265625 -7.175781 9.90625 -6.390625 11.1875 -6.390625 C 11.507812 -6.390625 11.851562 -6.441406 12.21875 -6.546875 C 12.582031 -6.648438 12.921875 -6.789062 13.234375 -6.96875 L 14.1875 -0.953125 C 13.289062 -0.523438 12.285156 -0.195312 11.171875 0.03125 C 10.054688 0.269531 9 0.390625 8 0.390625 C 6 0.390625 4.457031 -0.117188 3.375 -1.140625 C 2.300781 -2.160156 1.765625 -3.644531 1.765625 -5.59375 Z M 1.765625 -28.765625 "/></g></g></g><g fill="#000000" fill-opacity="1"><g transform="translate(318.087129, 146.5858)"><g><path d="M 12.09375 0.390625 C 10.28125 0.390625 8.664062 0.109375 7.25 -0.453125 C 5.832031 -1.015625 4.644531 -1.78125 3.6875 -2.75 C 2.726562 -3.726562 2 -4.847656 1.5 -6.109375 C 1 -7.367188 0.75 -8.695312 0.75 -10.09375 C 0.75 -11.582031 0.988281 -13 1.46875 -14.34375 C 1.957031 -15.6875 2.679688 -16.851562 3.640625 -17.84375 C 4.597656 -18.84375 5.78125 -19.640625 7.1875 -20.234375 C 8.59375 -20.828125 10.226562 -21.125 12.09375 -21.125 C 13.9375 -21.125 15.566406 -20.828125 16.984375 -20.234375 C 18.398438 -19.640625 19.585938 -18.847656 20.546875 -17.859375 C 21.503906 -16.878906 22.226562 -15.738281 22.71875 -14.4375 C 23.207031 -13.132812 23.453125 -11.773438 23.453125 -10.359375 C 23.453125 -9.960938 23.429688 -9.5625 23.390625 -9.15625 C 23.347656 -8.75 23.300781 -8.390625 23.25 -8.078125 L 8.703125 -8.078125 C 8.785156 -6.972656 9.191406 -6.175781 9.921875 -5.6875 C 10.660156 -5.207031 11.460938 -4.96875 12.328125 -4.96875 C 13.148438 -4.96875 13.921875 -5.148438 14.640625 -5.515625 C 15.359375 -5.878906 15.835938 -6.390625 16.078125 -7.046875 L 22.421875 -5.234375 C 21.578125 -3.585938 20.28125 -2.238281 18.53125 -1.1875 C 16.789062 -0.132812 14.644531 0.390625 12.09375 0.390625 Z M 15.40625 -12.578125 C 15.269531 -13.566406 14.898438 -14.347656 14.296875 -14.921875 C 13.691406 -15.503906 12.921875 -15.796875 11.984375 -15.796875 C 11.035156 -15.796875 10.257812 -15.503906 9.65625 -14.921875 C 9.050781 -14.347656 8.679688 -13.566406 8.546875 -12.578125 Z M 15.40625 -12.578125 "/></g></g></g></svg>