<svg xmlns="http://www.w3.org/2000/svg" xmlns:xlink="http://www.w3.org/1999/xlink" width="300" zoomAndPan="magnify" viewBox="0 0 224.87999 119.999999" height="160" preserveAspectRatio="xMidYMid meet" version="1.0"><defs><g/><clipPath id="6981403d99"><path d="M 0 0.03125 L 224.761719 0.03125 L 224.761719 119.96875 L 0 119.96875 Z M 0 0.03125 " clip-rule="nonzero"/></clipPath><clipPath id="22db28c849"><path d="M 0 0.03125 L 224.761719 0.03125 L 224.761719 119.96875 L 0 119.96875 Z M 0 0.03125 " clip-rule="nonzero"/></clipPath><clipPath id="f00af63361"><path d="M 5.996094 -0.480469 L 218.882812 -0.480469 C 222.195312 -0.480469 224.878906 2.207031 224.878906 5.519531 L 224.878906 114.480469 C 224.878906 117.792969 222.195312 120.480469 218.882812 120.480469 L 5.996094 120.480469 C 2.683594 120.480469 0 117.792969 0 114.480469 L 0 5.519531 C 0 2.207031 2.683594 -0.480469 5.996094 -0.480469 " clip-rule="nonzero"/></clipPath></defs><g clip-path="url(#6981403d99)"><path fill="#ffffff" d="M 0 0.03125 L 224.878906 0.03125 L 224.878906 127.464844 L 0 127.464844 Z M 0 0.03125 " fill-opacity="1" fill-rule="nonzero"/><path fill="#ffffff" d="M 0 0.03125 L 224.878906 0.03125 L 224.878906 119.96875 L 0 119.96875 Z M 0 0.03125 " fill-opacity="1" fill-rule="nonzero"/><path fill="#ffffff" d="M 0 0.03125 L 224.878906 0.03125 L 224.878906 119.96875 L 0 119.96875 Z M 0 0.03125 " fill-opacity="1" fill-rule="nonzero"/></g><g clip-path="url(#22db28c849)"><g clip-path="url(#f00af63361)"><path fill="#233f93" d="M 0 -0.480469 L 224.878906 -0.480469 L 224.878906 120.480469 L 0 120.480469 Z M 0 -0.480469 " fill-opacity="1" fill-rule="nonzero"/></g></g><g fill="#ffffff" fill-opacity="1"><g transform="translate(62.873432, 34.138801)"><g><path d="M 17.515625 0 L 12.59375 0 L 12.59375 -7.390625 L 6.890625 -7.390625 L 6.890625 0 L 1.96875 0 L 1.96875 -18.140625 L 6.890625 -18.140625 L 6.890625 -11.421875 L 12.59375 -11.421875 L 12.59375 -18.140625 L 17.515625 -18.140625 Z M 17.515625 0 "/></g></g></g><g fill="#ffffff" fill-opacity="1"><g transform="translate(82.345061, 34.138801)"><g><path d="M 10.84375 0 L 9.921875 -1.859375 L 9.8125 -1.859375 C 9.164062 -1.046875 8.5 -0.488281 7.8125 -0.1875 C 7.132812 0.101562 6.257812 0.25 5.1875 0.25 C 3.863281 0.25 2.820312 -0.144531 2.0625 -0.9375 C 1.300781 -1.738281 0.921875 -2.859375 0.921875 -4.296875 C 0.921875 -5.796875 1.441406 -6.910156 2.484375 -7.640625 C 3.523438 -8.367188 5.035156 -8.78125 7.015625 -8.875 L 9.359375 -8.953125 L 9.359375 -9.140625 C 9.359375 -10.304688 8.785156 -10.890625 7.640625 -10.890625 C 6.617188 -10.890625 5.316406 -10.539062 3.734375 -9.84375 L 2.328125 -13.046875 C 3.972656 -13.890625 6.046875 -14.3125 8.546875 -14.3125 C 10.347656 -14.3125 11.742188 -13.863281 12.734375 -12.96875 C 13.722656 -12.070312 14.21875 -10.820312 14.21875 -9.21875 L 14.21875 0 Z M 7.25 -3.171875 C 7.832031 -3.171875 8.332031 -3.359375 8.75 -3.734375 C 9.175781 -4.109375 9.390625 -4.59375 9.390625 -5.1875 L 9.390625 -6.28125 L 8.265625 -6.234375 C 6.671875 -6.171875 5.875 -5.582031 5.875 -4.46875 C 5.875 -3.601562 6.332031 -3.171875 7.25 -3.171875 Z M 7.25 -3.171875 "/></g></g></g><g fill="#ffffff" fill-opacity="1"><g transform="translate(98.180497, 34.138801)"><g><path d="M 10.265625 -14.3125 C 11.796875 -14.3125 13.007812 -13.671875 13.90625 -12.390625 C 14.800781 -11.109375 15.25 -9.332031 15.25 -7.0625 C 15.25 -4.78125 14.796875 -2.988281 13.890625 -1.6875 C 12.984375 -0.394531 11.722656 0.25 10.109375 0.25 C 9.585938 0.25 9.125 0.191406 8.71875 0.078125 C 8.320312 -0.0351562 7.960938 -0.191406 7.640625 -0.390625 C 7.316406 -0.585938 6.945312 -0.914062 6.53125 -1.375 L 6.234375 -1.375 L 5.46875 0 L 1.671875 0 L 1.671875 -19.3125 L 6.53125 -19.3125 L 6.53125 -14.9375 C 6.53125 -14.414062 6.472656 -13.519531 6.359375 -12.25 L 6.53125 -12.25 C 7 -12.976562 7.539062 -13.503906 8.15625 -13.828125 C 8.78125 -14.148438 9.484375 -14.3125 10.265625 -14.3125 Z M 8.484375 -10.5 C 7.804688 -10.5 7.3125 -10.265625 7 -9.796875 C 6.6875 -9.328125 6.53125 -8.585938 6.53125 -7.578125 L 6.53125 -6.890625 C 6.53125 -5.734375 6.6875 -4.90625 7 -4.40625 C 7.3125 -3.90625 7.828125 -3.65625 8.546875 -3.65625 C 9.109375 -3.65625 9.539062 -3.945312 9.84375 -4.53125 C 10.15625 -5.113281 10.3125 -5.972656 10.3125 -7.109375 C 10.3125 -9.367188 9.703125 -10.5 8.484375 -10.5 Z M 8.484375 -10.5 "/></g></g></g><g fill="#ffffff" fill-opacity="1"><g transform="translate(114.524751, 34.138801)"><g><path d="M 6.546875 0 L 1.703125 0 L 1.703125 -14.0625 L 6.546875 -14.0625 Z M 1.578125 -17.5625 C 1.578125 -18.289062 1.78125 -18.832031 2.1875 -19.1875 C 2.59375 -19.539062 3.242188 -19.71875 4.140625 -19.71875 C 5.046875 -19.71875 5.703125 -19.535156 6.109375 -19.171875 C 6.523438 -18.804688 6.734375 -18.269531 6.734375 -17.5625 C 6.734375 -16.132812 5.867188 -15.421875 4.140625 -15.421875 C 2.429688 -15.421875 1.578125 -16.132812 1.578125 -17.5625 Z M 1.578125 -17.5625 "/></g></g></g><g fill="#ffffff" fill-opacity="1"><g transform="translate(122.789955, 34.138801)"><g><path d="M 8.5625 -3.59375 C 9.21875 -3.59375 10 -3.753906 10.90625 -4.078125 L 10.90625 -0.53125 C 10.257812 -0.25 9.640625 -0.0507812 9.046875 0.0625 C 8.453125 0.1875 7.757812 0.25 6.96875 0.25 C 5.332031 0.25 4.15625 -0.144531 3.4375 -0.9375 C 2.71875 -1.738281 2.359375 -2.96875 2.359375 -4.625 L 2.359375 -10.421875 L 0.65625 -10.421875 L 0.65625 -12.40625 L 2.8125 -13.921875 L 4.078125 -16.875 L 7.25 -16.875 L 7.25 -14.0625 L 10.703125 -14.0625 L 10.703125 -10.421875 L 7.25 -10.421875 L 7.25 -4.953125 C 7.25 -4.046875 7.6875 -3.59375 8.5625 -3.59375 Z M 8.5625 -3.59375 "/></g></g></g><g fill="#ffffff" fill-opacity="1"><g transform="translate(134.480379, 34.138801)"><g><path d="M 10.84375 0 L 9.921875 -1.859375 L 9.8125 -1.859375 C 9.164062 -1.046875 8.5 -0.488281 7.8125 -0.1875 C 7.132812 0.101562 6.257812 0.25 5.1875 0.25 C 3.863281 0.25 2.820312 -0.144531 2.0625 -0.9375 C 1.300781 -1.738281 0.921875 -2.859375 0.921875 -4.296875 C 0.921875 -5.796875 1.441406 -6.910156 2.484375 -7.640625 C 3.523438 -8.367188 5.035156 -8.78125 7.015625 -8.875 L 9.359375 -8.953125 L 9.359375 -9.140625 C 9.359375 -10.304688 8.785156 -10.890625 7.640625 -10.890625 C 6.617188 -10.890625 5.316406 -10.539062 3.734375 -9.84375 L 2.328125 -13.046875 C 3.972656 -13.890625 6.046875 -14.3125 8.546875 -14.3125 C 10.347656 -14.3125 11.742188 -13.863281 12.734375 -12.96875 C 13.722656 -12.070312 14.21875 -10.820312 14.21875 -9.21875 L 14.21875 0 Z M 7.25 -3.171875 C 7.832031 -3.171875 8.332031 -3.359375 8.75 -3.734375 C 9.175781 -4.109375 9.390625 -4.59375 9.390625 -5.1875 L 9.390625 -6.28125 L 8.265625 -6.234375 C 6.671875 -6.171875 5.875 -5.582031 5.875 -4.46875 C 5.875 -3.601562 6.332031 -3.171875 7.25 -3.171875 Z M 7.25 -3.171875 "/></g></g></g><g fill="#ffffff" fill-opacity="1"><g transform="translate(150.315815, 34.138801)"><g><path d="M 8.5625 -3.59375 C 9.21875 -3.59375 10 -3.753906 10.90625 -4.078125 L 10.90625 -0.53125 C 10.257812 -0.25 9.640625 -0.0507812 9.046875 0.0625 C 8.453125 0.1875 7.757812 0.25 6.96875 0.25 C 5.332031 0.25 4.15625 -0.144531 3.4375 -0.9375 C 2.71875 -1.738281 2.359375 -2.96875 2.359375 -4.625 L 2.359375 -10.421875 L 0.65625 -10.421875 L 0.65625 -12.40625 L 2.8125 -13.921875 L 4.078125 -16.875 L 7.25 -16.875 L 7.25 -14.0625 L 10.703125 -14.0625 L 10.703125 -10.421875 L 7.25 -10.421875 L 7.25 -4.953125 C 7.25 -4.046875 7.6875 -3.59375 8.5625 -3.59375 Z M 8.5625 -3.59375 "/></g></g></g><g fill="#ffffff" fill-opacity="1"><g transform="translate(98.737104, 69.369998)"><g><path d="M 8.46875 0.25 C 6.125 0.25 4.300781 -0.367188 3 -1.609375 C 1.707031 -2.859375 1.0625 -4.632812 1.0625 -6.9375 C 1.0625 -9.3125 1.660156 -11.132812 2.859375 -12.40625 C 4.066406 -13.675781 5.78125 -14.3125 8 -14.3125 C 10.125 -14.3125 11.757812 -13.757812 12.90625 -12.65625 C 14.0625 -11.550781 14.640625 -9.957031 14.640625 -7.875 L 14.640625 -5.71875 L 5.96875 -5.71875 C 6 -4.9375 6.285156 -4.320312 6.828125 -3.875 C 7.367188 -3.425781 8.109375 -3.203125 9.046875 -3.203125 C 9.898438 -3.203125 10.679688 -3.28125 11.390625 -3.4375 C 12.109375 -3.601562 12.890625 -3.878906 13.734375 -4.265625 L 13.734375 -0.78125 C 12.972656 -0.394531 12.1875 -0.128906 11.375 0.015625 C 10.5625 0.171875 9.59375 0.25 8.46875 0.25 Z M 8.1875 -11.015625 C 7.613281 -11.015625 7.132812 -10.832031 6.75 -10.46875 C 6.363281 -10.113281 6.132812 -9.550781 6.0625 -8.78125 L 10.234375 -8.78125 C 10.222656 -9.457031 10.03125 -10 9.65625 -10.40625 C 9.289062 -10.8125 8.800781 -11.015625 8.1875 -11.015625 Z M 8.1875 -11.015625 "/></g></g></g><g fill="#ffffff" fill-opacity="1"><g transform="translate(114.448438, 69.369998)"><g><path d="M 8.5625 -3.59375 C 9.21875 -3.59375 10 -3.753906 10.90625 -4.078125 L 10.90625 -0.53125 C 10.257812 -0.25 9.640625 -0.0507812 9.046875 0.0625 C 8.453125 0.1875 7.757812 0.25 6.96875 0.25 C 5.332031 0.25 4.15625 -0.144531 3.4375 -0.9375 C 2.71875 -1.738281 2.359375 -2.96875 2.359375 -4.625 L 2.359375 -10.421875 L 0.65625 -10.421875 L 0.65625 -12.40625 L 2.8125 -13.921875 L 4.078125 -16.875 L 7.25 -16.875 L 7.25 -14.0625 L 10.703125 -14.0625 L 10.703125 -10.421875 L 7.25 -10.421875 L 7.25 -4.953125 C 7.25 -4.046875 7.6875 -3.59375 8.5625 -3.59375 Z M 8.5625 -3.59375 "/></g></g></g><g fill="#ffffff" fill-opacity="1"><g transform="translate(31.893872, 104.601195)"><g><path d="M 10.046875 -14.390625 C 8.878906 -14.390625 7.96875 -13.910156 7.3125 -12.953125 C 6.65625 -11.992188 6.328125 -10.675781 6.328125 -9 C 6.328125 -5.507812 7.65625 -3.765625 10.3125 -3.765625 C 11.113281 -3.765625 11.890625 -3.875 12.640625 -4.09375 C 13.398438 -4.320312 14.160156 -4.59375 14.921875 -4.90625 L 14.921875 -0.75 C 13.410156 -0.0820312 11.695312 0.25 9.78125 0.25 C 7.039062 0.25 4.941406 -0.539062 3.484375 -2.125 C 2.023438 -3.71875 1.296875 -6.019531 1.296875 -9.03125 C 1.296875 -10.90625 1.644531 -12.550781 2.34375 -13.96875 C 3.050781 -15.394531 4.066406 -16.488281 5.390625 -17.25 C 6.722656 -18.019531 8.289062 -18.40625 10.09375 -18.40625 C 12.050781 -18.40625 13.925781 -17.976562 15.71875 -17.125 L 14.21875 -13.265625 C 13.539062 -13.578125 12.867188 -13.84375 12.203125 -14.0625 C 11.535156 -14.28125 10.816406 -14.390625 10.046875 -14.390625 Z M 10.046875 -14.390625 "/></g></g></g><g fill="#ffffff" fill-opacity="1"><g transform="translate(48.38705, 104.601195)"><g><path d="M 10.84375 0 L 9.921875 -1.859375 L 9.8125 -1.859375 C 9.164062 -1.046875 8.5 -0.488281 7.8125 -0.1875 C 7.132812 0.101562 6.257812 0.25 5.1875 0.25 C 3.863281 0.25 2.820312 -0.144531 2.0625 -0.9375 C 1.300781 -1.738281 0.921875 -2.859375 0.921875 -4.296875 C 0.921875 -5.796875 1.441406 -6.910156 2.484375 -7.640625 C 3.523438 -8.367188 5.035156 -8.78125 7.015625 -8.875 L 9.359375 -8.953125 L 9.359375 -9.140625 C 9.359375 -10.304688 8.785156 -10.890625 7.640625 -10.890625 C 6.617188 -10.890625 5.316406 -10.539062 3.734375 -9.84375 L 2.328125 -13.046875 C 3.972656 -13.890625 6.046875 -14.3125 8.546875 -14.3125 C 10.347656 -14.3125 11.742188 -13.863281 12.734375 -12.96875 C 13.722656 -12.070312 14.21875 -10.820312 14.21875 -9.21875 L 14.21875 0 Z M 7.25 -3.171875 C 7.832031 -3.171875 8.332031 -3.359375 8.75 -3.734375 C 9.175781 -4.109375 9.390625 -4.59375 9.390625 -5.1875 L 9.390625 -6.28125 L 8.265625 -6.234375 C 6.671875 -6.171875 5.875 -5.582031 5.875 -4.46875 C 5.875 -3.601562 6.332031 -3.171875 7.25 -3.171875 Z M 7.25 -3.171875 "/></g></g></g><g fill="#ffffff" fill-opacity="1"><g transform="translate(64.222486, 104.601195)"><g><path d="M 6.046875 0.25 C 5.046875 0.25 4.171875 -0.0351562 3.421875 -0.609375 C 2.671875 -1.179688 2.085938 -2.019531 1.671875 -3.125 C 1.265625 -4.238281 1.0625 -5.535156 1.0625 -7.015625 C 1.0625 -9.296875 1.519531 -11.082031 2.4375 -12.375 C 3.363281 -13.664062 4.628906 -14.3125 6.234375 -14.3125 C 7.015625 -14.3125 7.703125 -14.15625 8.296875 -13.84375 C 8.890625 -13.53125 9.429688 -13 9.921875 -12.25 L 10.015625 -12.25 C 9.859375 -13.351562 9.78125 -14.453125 9.78125 -15.546875 L 9.78125 -19.3125 L 14.671875 -19.3125 L 14.671875 0 L 11.015625 0 L 9.96875 -1.78125 L 9.78125 -1.78125 C 8.945312 -0.425781 7.703125 0.25 6.046875 0.25 Z M 8.03125 -3.59375 C 8.8125 -3.59375 9.359375 -3.832031 9.671875 -4.3125 C 9.992188 -4.800781 10.164062 -5.554688 10.1875 -6.578125 L 10.1875 -6.96875 C 10.1875 -8.207031 10.007812 -9.085938 9.65625 -9.609375 C 9.300781 -10.140625 8.742188 -10.40625 7.984375 -10.40625 C 7.347656 -10.40625 6.851562 -10.101562 6.5 -9.5 C 6.144531 -8.90625 5.96875 -8.050781 5.96875 -6.9375 C 5.96875 -5.84375 6.144531 -5.007812 6.5 -4.4375 C 6.851562 -3.875 7.363281 -3.59375 8.03125 -3.59375 Z M 8.03125 -3.59375 "/></g></g></g><g fill="#ffffff" fill-opacity="1"><g transform="translate(80.56674, 104.601195)"><g><path d="M 10.171875 -14.3125 C 10.585938 -14.3125 10.988281 -14.28125 11.375 -14.21875 L 11.640625 -14.15625 L 11.203125 -9.578125 C 10.804688 -9.679688 10.257812 -9.734375 9.5625 -9.734375 C 8.5 -9.734375 7.726562 -9.488281 7.25 -9 C 6.769531 -8.519531 6.53125 -7.820312 6.53125 -6.90625 L 6.53125 0 L 1.671875 0 L 1.671875 -14.0625 L 5.28125 -14.0625 L 6.046875 -11.8125 L 6.28125 -11.8125 C 6.6875 -12.5625 7.25 -13.164062 7.96875 -13.625 C 8.695312 -14.082031 9.429688 -14.3125 10.171875 -14.3125 Z M 10.171875 -14.3125 "/></g></g></g><g fill="#ffffff" fill-opacity="1"><g transform="translate(92.492958, 104.601195)"><g><path d="M 8.46875 0.25 C 6.125 0.25 4.300781 -0.367188 3 -1.609375 C 1.707031 -2.859375 1.0625 -4.632812 1.0625 -6.9375 C 1.0625 -9.3125 1.660156 -11.132812 2.859375 -12.40625 C 4.066406 -13.675781 5.78125 -14.3125 8 -14.3125 C 10.125 -14.3125 11.757812 -13.757812 12.90625 -12.65625 C 14.0625 -11.550781 14.640625 -9.957031 14.640625 -7.875 L 14.640625 -5.71875 L 5.96875 -5.71875 C 6 -4.9375 6.285156 -4.320312 6.828125 -3.875 C 7.367188 -3.425781 8.109375 -3.203125 9.046875 -3.203125 C 9.898438 -3.203125 10.679688 -3.28125 11.390625 -3.4375 C 12.109375 -3.601562 12.890625 -3.878906 13.734375 -4.265625 L 13.734375 -0.78125 C 12.972656 -0.394531 12.1875 -0.128906 11.375 0.015625 C 10.5625 0.171875 9.59375 0.25 8.46875 0.25 Z M 8.1875 -11.015625 C 7.613281 -11.015625 7.132812 -10.832031 6.75 -10.46875 C 6.363281 -10.113281 6.132812 -9.550781 6.0625 -8.78125 L 10.234375 -8.78125 C 10.222656 -9.457031 10.03125 -10 9.65625 -10.40625 C 9.289062 -10.8125 8.800781 -11.015625 8.1875 -11.015625 Z M 8.1875 -11.015625 "/></g></g></g><g fill="#ffffff" fill-opacity="1"><g transform="translate(108.204292, 104.601195)"><g/></g></g><g fill="#ffffff" fill-opacity="1"><g transform="translate(114.806527, 104.601195)"><g><path d="M 6.046875 0.25 C 5.046875 0.25 4.171875 -0.0351562 3.421875 -0.609375 C 2.671875 -1.179688 2.085938 -2.019531 1.671875 -3.125 C 1.265625 -4.238281 1.0625 -5.535156 1.0625 -7.015625 C 1.0625 -9.296875 1.519531 -11.082031 2.4375 -12.375 C 3.363281 -13.664062 4.628906 -14.3125 6.234375 -14.3125 C 7.015625 -14.3125 7.703125 -14.15625 8.296875 -13.84375 C 8.890625 -13.53125 9.429688 -13 9.921875 -12.25 L 10.015625 -12.25 C 9.859375 -13.351562 9.78125 -14.453125 9.78125 -15.546875 L 9.78125 -19.3125 L 14.671875 -19.3125 L 14.671875 0 L 11.015625 0 L 9.96875 -1.78125 L 9.78125 -1.78125 C 8.945312 -0.425781 7.703125 0.25 6.046875 0.25 Z M 8.03125 -3.59375 C 8.8125 -3.59375 9.359375 -3.832031 9.671875 -4.3125 C 9.992188 -4.800781 10.164062 -5.554688 10.1875 -6.578125 L 10.1875 -6.96875 C 10.1875 -8.207031 10.007812 -9.085938 9.65625 -9.609375 C 9.300781 -10.140625 8.742188 -10.40625 7.984375 -10.40625 C 7.347656 -10.40625 6.851562 -10.101562 6.5 -9.5 C 6.144531 -8.90625 5.96875 -8.050781 5.96875 -6.9375 C 5.96875 -5.84375 6.144531 -5.007812 6.5 -4.4375 C 6.851562 -3.875 7.363281 -3.59375 8.03125 -3.59375 Z M 8.03125 -3.59375 "/></g></g></g><g fill="#ffffff" fill-opacity="1"><g transform="translate(131.150781, 104.601195)"><g><path d="M 8.46875 0.25 C 6.125 0.25 4.300781 -0.367188 3 -1.609375 C 1.707031 -2.859375 1.0625 -4.632812 1.0625 -6.9375 C 1.0625 -9.3125 1.660156 -11.132812 2.859375 -12.40625 C 4.066406 -13.675781 5.78125 -14.3125 8 -14.3125 C 10.125 -14.3125 11.757812 -13.757812 12.90625 -12.65625 C 14.0625 -11.550781 14.640625 -9.957031 14.640625 -7.875 L 14.640625 -5.71875 L 5.96875 -5.71875 C 6 -4.9375 6.285156 -4.320312 6.828125 -3.875 C 7.367188 -3.425781 8.109375 -3.203125 9.046875 -3.203125 C 9.898438 -3.203125 10.679688 -3.28125 11.390625 -3.4375 C 12.109375 -3.601562 12.890625 -3.878906 13.734375 -4.265625 L 13.734375 -0.78125 C 12.972656 -0.394531 12.1875 -0.128906 11.375 0.015625 C 10.5625 0.171875 9.59375 0.25 8.46875 0.25 Z M 8.1875 -11.015625 C 7.613281 -11.015625 7.132812 -10.832031 6.75 -10.46875 C 6.363281 -10.113281 6.132812 -9.550781 6.0625 -8.78125 L 10.234375 -8.78125 C 10.222656 -9.457031 10.03125 -10 9.65625 -10.40625 C 9.289062 -10.8125 8.800781 -11.015625 8.1875 -11.015625 Z M 8.1875 -11.015625 "/></g></g></g><g fill="#ffffff" fill-opacity="1"><g transform="translate(146.862115, 104.601195)"><g/></g></g><g fill="#ffffff" fill-opacity="1"><g transform="translate(153.46435, 104.601195)"><g><path d="M 5.359375 0 L 0 -14.0625 L 5.0625 -14.0625 L 7.453125 -5.75 C 7.453125 -5.707031 7.460938 -5.632812 7.484375 -5.53125 C 7.515625 -5.4375 7.539062 -5.320312 7.5625 -5.1875 C 7.59375 -5.050781 7.617188 -4.90625 7.640625 -4.75 C 7.660156 -4.59375 7.671875 -4.445312 7.671875 -4.3125 L 7.765625 -4.3125 C 7.765625 -4.75 7.835938 -5.21875 7.984375 -5.71875 L 10.484375 -14.0625 L 15.53125 -14.0625 L 10.171875 0 Z M 5.359375 0 "/></g></g></g><g fill="#ffffff" fill-opacity="1"><g transform="translate(168.98953, 104.601195)"><g><path d="M 6.546875 0 L 1.703125 0 L 1.703125 -14.0625 L 6.546875 -14.0625 Z M 1.578125 -17.5625 C 1.578125 -18.289062 1.78125 -18.832031 2.1875 -19.1875 C 2.59375 -19.539062 3.242188 -19.71875 4.140625 -19.71875 C 5.046875 -19.71875 5.703125 -19.535156 6.109375 -19.171875 C 6.523438 -18.804688 6.734375 -18.269531 6.734375 -17.5625 C 6.734375 -16.132812 5.867188 -15.421875 4.140625 -15.421875 C 2.429688 -15.421875 1.578125 -16.132812 1.578125 -17.5625 Z M 1.578125 -17.5625 "/></g></g></g><g fill="#ffffff" fill-opacity="1"><g transform="translate(177.254734, 104.601195)"><g><path d="M 8.46875 0.25 C 6.125 0.25 4.300781 -0.367188 3 -1.609375 C 1.707031 -2.859375 1.0625 -4.632812 1.0625 -6.9375 C 1.0625 -9.3125 1.660156 -11.132812 2.859375 -12.40625 C 4.066406 -13.675781 5.78125 -14.3125 8 -14.3125 C 10.125 -14.3125 11.757812 -13.757812 12.90625 -12.65625 C 14.0625 -11.550781 14.640625 -9.957031 14.640625 -7.875 L 14.640625 -5.71875 L 5.96875 -5.71875 C 6 -4.9375 6.285156 -4.320312 6.828125 -3.875 C 7.367188 -3.425781 8.109375 -3.203125 9.046875 -3.203125 C 9.898438 -3.203125 10.679688 -3.28125 11.390625 -3.4375 C 12.109375 -3.601562 12.890625 -3.878906 13.734375 -4.265625 L 13.734375 -0.78125 C 12.972656 -0.394531 12.1875 -0.128906 11.375 0.015625 C 10.5625 0.171875 9.59375 0.25 8.46875 0.25 Z M 8.1875 -11.015625 C 7.613281 -11.015625 7.132812 -10.832031 6.75 -10.46875 C 6.363281 -10.113281 6.132812 -9.550781 6.0625 -8.78125 L 10.234375 -8.78125 C 10.222656 -9.457031 10.03125 -10 9.65625 -10.40625 C 9.289062 -10.8125 8.800781 -11.015625 8.1875 -11.015625 Z M 8.1875 -11.015625 "/></g></g></g></svg>