<svg xmlns="http://www.w3.org/2000/svg" xmlns:xlink="http://www.w3.org/1999/xlink" width="300" zoomAndPan="magnify" viewBox="0 0 224.87999 119.999999" height="160" preserveAspectRatio="xMidYMid meet" version="1.0"><defs><g/><clipPath id="f3c566dff0"><path d="M 0 0.03125 L 224.761719 0.03125 L 224.761719 119.96875 L 0 119.96875 Z M 0 0.03125 " clip-rule="nonzero"/></clipPath><clipPath id="ba2eba8c78"><path d="M 0 0.03125 L 224.761719 0.03125 L 224.761719 119.96875 L 0 119.96875 Z M 0 0.03125 " clip-rule="nonzero"/></clipPath><clipPath id="896e0ed75f"><path d="M 5.996094 -0.480469 L 218.882812 -0.480469 C 222.195312 -0.480469 224.878906 2.207031 224.878906 5.519531 L 224.878906 114.480469 C 224.878906 117.792969 222.195312 120.480469 218.882812 120.480469 L 5.996094 120.480469 C 2.683594 120.480469 0 117.792969 0 114.480469 L 0 5.519531 C 0 2.207031 2.683594 -0.480469 5.996094 -0.480469 " clip-rule="nonzero"/></clipPath></defs><g clip-path="url(#f3c566dff0)"><path fill="#ffffff" d="M 0 0.03125 L 224.878906 0.03125 L 224.878906 127.464844 L 0 127.464844 Z M 0 0.03125 " fill-opacity="1" fill-rule="nonzero"/><path fill="#ffffff" d="M 0 0.03125 L 224.878906 0.03125 L 224.878906 119.96875 L 0 119.96875 Z M 0 0.03125 " fill-opacity="1" fill-rule="nonzero"/><path fill="#ffffff" d="M 0 0.03125 L 224.878906 0.03125 L 224.878906 119.96875 L 0 119.96875 Z M 0 0.03125 " fill-opacity="1" fill-rule="nonzero"/></g><g clip-path="url(#ba2eba8c78)"><g clip-path="url(#896e0ed75f)"><path fill="#fecb37" d="M 0 -0.480469 L 224.878906 -0.480469 L 224.878906 120.480469 L 0 120.480469 Z M 0 -0.480469 " fill-opacity="1" fill-rule="nonzero"/></g></g><g fill="#ffffff" fill-opacity="1"><g transform="translate(59.465095, 34.138801)"><g><path d="M 10.046875 -14.390625 C 8.878906 -14.390625 7.96875 -13.910156 7.3125 -12.953125 C 6.65625 -11.992188 6.328125 -10.675781 6.328125 -9 C 6.328125 -5.507812 7.65625 -3.765625 10.3125 -3.765625 C 11.113281 -3.765625 11.890625 -3.875 12.640625 -4.09375 C 13.398438 -4.320312 14.160156 -4.59375 14.921875 -4.90625 L 14.921875 -0.75 C 13.410156 -0.0820312 11.695312 0.25 9.78125 0.25 C 7.039062 0.25 4.941406 -0.539062 3.484375 -2.125 C 2.023438 -3.71875 1.296875 -6.019531 1.296875 -9.03125 C 1.296875 -10.90625 1.644531 -12.550781 2.34375 -13.96875 C 3.050781 -15.394531 4.066406 -16.488281 5.390625 -17.25 C 6.722656 -18.019531 8.289062 -18.40625 10.09375 -18.40625 C 12.050781 -18.40625 13.925781 -17.976562 15.71875 -17.125 L 14.21875 -13.265625 C 13.539062 -13.578125 12.867188 -13.84375 12.203125 -14.0625 C 11.535156 -14.28125 10.816406 -14.390625 10.046875 -14.390625 Z M 10.046875 -14.390625 "/></g></g></g><g fill="#ffffff" fill-opacity="1"><g transform="translate(75.958273, 34.138801)"><g><path d="M 11.6875 0 L 11.078125 -1.75 L 10.796875 -1.75 C 10.390625 -1.101562 9.820312 -0.609375 9.09375 -0.265625 C 8.375 0.078125 7.523438 0.25 6.546875 0.25 C 5.003906 0.25 3.800781 -0.195312 2.9375 -1.09375 C 2.082031 -2 1.65625 -3.269531 1.65625 -4.90625 L 1.65625 -14.0625 L 6.5 -14.0625 L 6.5 -6.375 C 6.5 -5.457031 6.628906 -4.765625 6.890625 -4.296875 C 7.148438 -3.828125 7.582031 -3.59375 8.1875 -3.59375 C 9.019531 -3.59375 9.613281 -3.921875 9.96875 -4.578125 C 10.320312 -5.234375 10.5 -6.34375 10.5 -7.90625 L 10.5 -14.0625 L 15.359375 -14.0625 L 15.359375 0 Z M 11.6875 0 "/></g></g></g><g fill="#ffffff" fill-opacity="1"><g transform="translate(92.985089, 34.138801)"><g><path d="M 6.53125 0 L 1.671875 0 L 1.671875 -19.3125 L 6.53125 -19.3125 Z M 6.53125 0 "/></g></g></g><g fill="#ffffff" fill-opacity="1"><g transform="translate(101.200653, 34.138801)"><g><path d="M 8.5625 -3.59375 C 9.21875 -3.59375 10 -3.753906 10.90625 -4.078125 L 10.90625 -0.53125 C 10.257812 -0.25 9.640625 -0.0507812 9.046875 0.0625 C 8.453125 0.1875 7.757812 0.25 6.96875 0.25 C 5.332031 0.25 4.15625 -0.144531 3.4375 -0.9375 C 2.71875 -1.738281 2.359375 -2.96875 2.359375 -4.625 L 2.359375 -10.421875 L 0.65625 -10.421875 L 0.65625 -12.40625 L 2.8125 -13.921875 L 4.078125 -16.875 L 7.25 -16.875 L 7.25 -14.0625 L 10.703125 -14.0625 L 10.703125 -10.421875 L 7.25 -10.421875 L 7.25 -4.953125 C 7.25 -4.046875 7.6875 -3.59375 8.5625 -3.59375 Z M 8.5625 -3.59375 "/></g></g></g><g fill="#ffffff" fill-opacity="1"><g transform="translate(112.891076, 34.138801)"><g><path d="M 11.6875 0 L 11.078125 -1.75 L 10.796875 -1.75 C 10.390625 -1.101562 9.820312 -0.609375 9.09375 -0.265625 C 8.375 0.078125 7.523438 0.25 6.546875 0.25 C 5.003906 0.25 3.800781 -0.195312 2.9375 -1.09375 C 2.082031 -2 1.65625 -3.269531 1.65625 -4.90625 L 1.65625 -14.0625 L 6.5 -14.0625 L 6.5 -6.375 C 6.5 -5.457031 6.628906 -4.765625 6.890625 -4.296875 C 7.148438 -3.828125 7.582031 -3.59375 8.1875 -3.59375 C 9.019531 -3.59375 9.613281 -3.921875 9.96875 -4.578125 C 10.320312 -5.234375 10.5 -6.34375 10.5 -7.90625 L 10.5 -14.0625 L 15.359375 -14.0625 L 15.359375 0 Z M 11.6875 0 "/></g></g></g><g fill="#ffffff" fill-opacity="1"><g transform="translate(129.917893, 34.138801)"><g><path d="M 10.171875 -14.3125 C 10.585938 -14.3125 10.988281 -14.28125 11.375 -14.21875 L 11.640625 -14.15625 L 11.203125 -9.578125 C 10.804688 -9.679688 10.257812 -9.734375 9.5625 -9.734375 C 8.5 -9.734375 7.726562 -9.488281 7.25 -9 C 6.769531 -8.519531 6.53125 -7.820312 6.53125 -6.90625 L 6.53125 0 L 1.671875 0 L 1.671875 -14.0625 L 5.28125 -14.0625 L 6.046875 -11.8125 L 6.28125 -11.8125 C 6.6875 -12.5625 7.25 -13.164062 7.96875 -13.625 C 8.695312 -14.082031 9.429688 -14.3125 10.171875 -14.3125 Z M 10.171875 -14.3125 "/></g></g></g><g fill="#ffffff" fill-opacity="1"><g transform="translate(141.844111, 34.138801)"><g><path d="M 8.46875 0.25 C 6.125 0.25 4.300781 -0.367188 3 -1.609375 C 1.707031 -2.859375 1.0625 -4.632812 1.0625 -6.9375 C 1.0625 -9.3125 1.660156 -11.132812 2.859375 -12.40625 C 4.066406 -13.675781 5.78125 -14.3125 8 -14.3125 C 10.125 -14.3125 11.757812 -13.757812 12.90625 -12.65625 C 14.0625 -11.550781 14.640625 -9.957031 14.640625 -7.875 L 14.640625 -5.71875 L 5.96875 -5.71875 C 6 -4.9375 6.285156 -4.320312 6.828125 -3.875 C 7.367188 -3.425781 8.109375 -3.203125 9.046875 -3.203125 C 9.898438 -3.203125 10.679688 -3.28125 11.390625 -3.4375 C 12.109375 -3.601562 12.890625 -3.878906 13.734375 -4.265625 L 13.734375 -0.78125 C 12.972656 -0.394531 12.1875 -0.128906 11.375 0.015625 C 10.5625 0.171875 9.59375 0.25 8.46875 0.25 Z M 8.1875 -11.015625 C 7.613281 -11.015625 7.132812 -10.832031 6.75 -10.46875 C 6.363281 -10.113281 6.132812 -9.550781 6.0625 -8.78125 L 10.234375 -8.78125 C 10.222656 -9.457031 10.03125 -10 9.65625 -10.40625 C 9.289062 -10.8125 8.800781 -11.015625 8.1875 -11.015625 Z M 8.1875 -11.015625 "/></g></g></g><g fill="#ffffff" fill-opacity="1"><g transform="translate(157.555445, 34.138801)"><g><path d="M 6.1875 -3.71875 L 6.359375 -3.421875 C 5.554688 -0.273438 4.828125 2.039062 4.171875 3.53125 L 0.703125 3.53125 C 0.941406 2.394531 1.179688 1.117188 1.421875 -0.296875 C 1.671875 -1.722656 1.84375 -2.863281 1.9375 -3.71875 Z M 6.1875 -3.71875 "/></g></g></g><g fill="#ffffff" fill-opacity="1"><g transform="translate(60.015582, 69.369998)"><g><path d="M 13.828125 -5.515625 C 13.828125 -4.390625 13.539062 -3.390625 12.96875 -2.515625 C 12.394531 -1.640625 11.570312 -0.957031 10.5 -0.46875 C 9.425781 0.0078125 8.164062 0.25 6.71875 0.25 C 5.507812 0.25 4.492188 0.164062 3.671875 0 C 2.859375 -0.175781 2.003906 -0.472656 1.109375 -0.890625 L 1.109375 -5.265625 C 2.046875 -4.785156 3.019531 -4.410156 4.03125 -4.140625 C 5.039062 -3.867188 5.96875 -3.734375 6.8125 -3.734375 C 7.539062 -3.734375 8.070312 -3.859375 8.40625 -4.109375 C 8.75 -4.367188 8.921875 -4.695312 8.921875 -5.09375 C 8.921875 -5.34375 8.851562 -5.554688 8.71875 -5.734375 C 8.582031 -5.921875 8.363281 -6.109375 8.0625 -6.296875 C 7.757812 -6.492188 6.953125 -6.882812 5.640625 -7.46875 C 4.460938 -8.007812 3.578125 -8.53125 2.984375 -9.03125 C 2.390625 -9.539062 1.945312 -10.117188 1.65625 -10.765625 C 1.375 -11.421875 1.234375 -12.195312 1.234375 -13.09375 C 1.234375 -14.769531 1.84375 -16.070312 3.0625 -17 C 4.28125 -17.9375 5.953125 -18.40625 8.078125 -18.40625 C 9.960938 -18.40625 11.878906 -17.972656 13.828125 -17.109375 L 12.328125 -13.3125 C 10.628906 -14.09375 9.164062 -14.484375 7.9375 -14.484375 C 7.289062 -14.484375 6.820312 -14.367188 6.53125 -14.140625 C 6.25 -13.921875 6.109375 -13.644531 6.109375 -13.3125 C 6.109375 -12.957031 6.289062 -12.640625 6.65625 -12.359375 C 7.03125 -12.078125 8.03125 -11.566406 9.65625 -10.828125 C 11.21875 -10.117188 12.300781 -9.359375 12.90625 -8.546875 C 13.519531 -7.742188 13.828125 -6.734375 13.828125 -5.515625 Z M 13.828125 -5.515625 "/></g></g></g><g fill="#ffffff" fill-opacity="1"><g transform="translate(74.684458, 69.369998)"><g><path d="M 10.109375 0.25 C 9.398438 0.25 8.765625 0.132812 8.203125 -0.09375 C 7.640625 -0.332031 7.082031 -0.757812 6.53125 -1.375 L 6.3125 -1.375 C 6.457031 -0.394531 6.53125 0.210938 6.53125 0.453125 L 6.53125 6.109375 L 1.671875 6.109375 L 1.671875 -14.0625 L 5.625 -14.0625 L 6.3125 -12.28125 L 6.53125 -12.28125 C 7.425781 -13.632812 8.671875 -14.3125 10.265625 -14.3125 C 11.816406 -14.3125 13.035156 -13.664062 13.921875 -12.375 C 14.804688 -11.082031 15.25 -9.3125 15.25 -7.0625 C 15.25 -4.789062 14.785156 -3.003906 13.859375 -1.703125 C 12.941406 -0.398438 11.691406 0.25 10.109375 0.25 Z M 8.484375 -10.5 C 7.773438 -10.5 7.273438 -10.242188 6.984375 -9.734375 C 6.703125 -9.222656 6.550781 -8.46875 6.53125 -7.46875 L 6.53125 -7.09375 C 6.53125 -5.882812 6.691406 -5.007812 7.015625 -4.46875 C 7.335938 -3.925781 7.847656 -3.65625 8.546875 -3.65625 C 9.160156 -3.65625 9.609375 -3.921875 9.890625 -4.453125 C 10.171875 -4.992188 10.3125 -5.878906 10.3125 -7.109375 C 10.3125 -8.316406 10.171875 -9.179688 9.890625 -9.703125 C 9.609375 -10.234375 9.140625 -10.5 8.484375 -10.5 Z M 8.484375 -10.5 "/></g></g></g><g fill="#ffffff" fill-opacity="1"><g transform="translate(91.028712, 69.369998)"><g><path d="M 15.109375 -7.0625 C 15.109375 -4.757812 14.488281 -2.960938 13.25 -1.671875 C 12.007812 -0.390625 10.28125 0.25 8.0625 0.25 C 5.925781 0.25 4.222656 -0.40625 2.953125 -1.71875 C 1.691406 -3.039062 1.0625 -4.820312 1.0625 -7.0625 C 1.0625 -9.351562 1.679688 -11.132812 2.921875 -12.40625 C 4.160156 -13.675781 5.894531 -14.3125 8.125 -14.3125 C 9.507812 -14.3125 10.726562 -14.015625 11.78125 -13.421875 C 12.84375 -12.835938 13.660156 -12 14.234375 -10.90625 C 14.816406 -9.8125 15.109375 -8.53125 15.109375 -7.0625 Z M 6 -7.0625 C 6 -5.851562 6.160156 -4.929688 6.484375 -4.296875 C 6.804688 -3.660156 7.347656 -3.34375 8.109375 -3.34375 C 8.859375 -3.34375 9.390625 -3.660156 9.703125 -4.296875 C 10.015625 -4.929688 10.171875 -5.851562 10.171875 -7.0625 C 10.171875 -8.257812 10.007812 -9.164062 9.6875 -9.78125 C 9.375 -10.394531 8.835938 -10.703125 8.078125 -10.703125 C 7.335938 -10.703125 6.804688 -10.394531 6.484375 -9.78125 C 6.160156 -9.175781 6 -8.269531 6 -7.0625 Z M 6 -7.0625 "/></g></g></g><g fill="#ffffff" fill-opacity="1"><g transform="translate(107.224045, 69.369998)"><g><path d="M 10.171875 -14.3125 C 10.585938 -14.3125 10.988281 -14.28125 11.375 -14.21875 L 11.640625 -14.15625 L 11.203125 -9.578125 C 10.804688 -9.679688 10.257812 -9.734375 9.5625 -9.734375 C 8.5 -9.734375 7.726562 -9.488281 7.25 -9 C 6.769531 -8.519531 6.53125 -7.820312 6.53125 -6.90625 L 6.53125 0 L 1.671875 0 L 1.671875 -14.0625 L 5.28125 -14.0625 L 6.046875 -11.8125 L 6.28125 -11.8125 C 6.6875 -12.5625 7.25 -13.164062 7.96875 -13.625 C 8.695312 -14.082031 9.429688 -14.3125 10.171875 -14.3125 Z M 10.171875 -14.3125 "/></g></g></g><g fill="#ffffff" fill-opacity="1"><g transform="translate(119.150262, 69.369998)"><g><path d="M 8.5625 -3.59375 C 9.21875 -3.59375 10 -3.753906 10.90625 -4.078125 L 10.90625 -0.53125 C 10.257812 -0.25 9.640625 -0.0507812 9.046875 0.0625 C 8.453125 0.1875 7.757812 0.25 6.96875 0.25 C 5.332031 0.25 4.15625 -0.144531 3.4375 -0.9375 C 2.71875 -1.738281 2.359375 -2.96875 2.359375 -4.625 L 2.359375 -10.421875 L 0.65625 -10.421875 L 0.65625 -12.40625 L 2.8125 -13.921875 L 4.078125 -16.875 L 7.25 -16.875 L 7.25 -14.0625 L 10.703125 -14.0625 L 10.703125 -10.421875 L 7.25 -10.421875 L 7.25 -4.953125 C 7.25 -4.046875 7.6875 -3.59375 8.5625 -3.59375 Z M 8.5625 -3.59375 "/></g></g></g><g fill="#ffffff" fill-opacity="1"><g transform="translate(130.840686, 69.369998)"><g/></g></g><g fill="#ffffff" fill-opacity="1"><g transform="translate(137.442921, 69.369998)"><g><path d="M 8.46875 0.25 C 6.125 0.25 4.300781 -0.367188 3 -1.609375 C 1.707031 -2.859375 1.0625 -4.632812 1.0625 -6.9375 C 1.0625 -9.3125 1.660156 -11.132812 2.859375 -12.40625 C 4.066406 -13.675781 5.78125 -14.3125 8 -14.3125 C 10.125 -14.3125 11.757812 -13.757812 12.90625 -12.65625 C 14.0625 -11.550781 14.640625 -9.957031 14.640625 -7.875 L 14.640625 -5.71875 L 5.96875 -5.71875 C 6 -4.9375 6.285156 -4.320312 6.828125 -3.875 C 7.367188 -3.425781 8.109375 -3.203125 9.046875 -3.203125 C 9.898438 -3.203125 10.679688 -3.28125 11.390625 -3.4375 C 12.109375 -3.601562 12.890625 -3.878906 13.734375 -4.265625 L 13.734375 -0.78125 C 12.972656 -0.394531 12.1875 -0.128906 11.375 0.015625 C 10.5625 0.171875 9.59375 0.25 8.46875 0.25 Z M 8.1875 -11.015625 C 7.613281 -11.015625 7.132812 -10.832031 6.75 -10.46875 C 6.363281 -10.113281 6.132812 -9.550781 6.0625 -8.78125 L 10.234375 -8.78125 C 10.222656 -9.457031 10.03125 -10 9.65625 -10.40625 C 9.289062 -10.8125 8.800781 -11.015625 8.1875 -11.015625 Z M 8.1875 -11.015625 "/></g></g></g><g fill="#ffffff" fill-opacity="1"><g transform="translate(153.154255, 69.369998)"><g><path d="M 8.5625 -3.59375 C 9.21875 -3.59375 10 -3.753906 10.90625 -4.078125 L 10.90625 -0.53125 C 10.257812 -0.25 9.640625 -0.0507812 9.046875 0.0625 C 8.453125 0.1875 7.757812 0.25 6.96875 0.25 C 5.332031 0.25 4.15625 -0.144531 3.4375 -0.9375 C 2.71875 -1.738281 2.359375 -2.96875 2.359375 -4.625 L 2.359375 -10.421875 L 0.65625 -10.421875 L 0.65625 -12.40625 L 2.8125 -13.921875 L 4.078125 -16.875 L 7.25 -16.875 L 7.25 -14.0625 L 10.703125 -14.0625 L 10.703125 -10.421875 L 7.25 -10.421875 L 7.25 -4.953125 C 7.25 -4.046875 7.6875 -3.59375 8.5625 -3.59375 Z M 8.5625 -3.59375 "/></g></g></g><g fill="#ffffff" fill-opacity="1"><g transform="translate(69.163044, 104.601195)"><g><path d="M 1.96875 0 L 1.96875 -18.140625 L 6.859375 -18.140625 L 6.859375 -3.953125 L 13.859375 -3.953125 L 13.859375 0 Z M 1.96875 0 "/></g></g></g><g fill="#ffffff" fill-opacity="1"><g transform="translate(83.956022, 104.601195)"><g><path d="M 15.109375 -7.0625 C 15.109375 -4.757812 14.488281 -2.960938 13.25 -1.671875 C 12.007812 -0.390625 10.28125 0.25 8.0625 0.25 C 5.925781 0.25 4.222656 -0.40625 2.953125 -1.71875 C 1.691406 -3.039062 1.0625 -4.820312 1.0625 -7.0625 C 1.0625 -9.351562 1.679688 -11.132812 2.921875 -12.40625 C 4.160156 -13.675781 5.894531 -14.3125 8.125 -14.3125 C 9.507812 -14.3125 10.726562 -14.015625 11.78125 -13.421875 C 12.84375 -12.835938 13.660156 -12 14.234375 -10.90625 C 14.816406 -9.8125 15.109375 -8.53125 15.109375 -7.0625 Z M 6 -7.0625 C 6 -5.851562 6.160156 -4.929688 6.484375 -4.296875 C 6.804688 -3.660156 7.347656 -3.34375 8.109375 -3.34375 C 8.859375 -3.34375 9.390625 -3.660156 9.703125 -4.296875 C 10.015625 -4.929688 10.171875 -5.851562 10.171875 -7.0625 C 10.171875 -8.257812 10.007812 -9.164062 9.6875 -9.78125 C 9.375 -10.394531 8.835938 -10.703125 8.078125 -10.703125 C 7.335938 -10.703125 6.804688 -10.394531 6.484375 -9.78125 C 6.160156 -9.175781 6 -8.269531 6 -7.0625 Z M 6 -7.0625 "/></g></g></g><g fill="#ffffff" fill-opacity="1"><g transform="translate(100.151354, 104.601195)"><g><path d="M 6.546875 0 L 1.703125 0 L 1.703125 -14.0625 L 6.546875 -14.0625 Z M 1.578125 -17.5625 C 1.578125 -18.289062 1.78125 -18.832031 2.1875 -19.1875 C 2.59375 -19.539062 3.242188 -19.71875 4.140625 -19.71875 C 5.046875 -19.71875 5.703125 -19.535156 6.109375 -19.171875 C 6.523438 -18.804688 6.734375 -18.269531 6.734375 -17.5625 C 6.734375 -16.132812 5.867188 -15.421875 4.140625 -15.421875 C 2.429688 -15.421875 1.578125 -16.132812 1.578125 -17.5625 Z M 1.578125 -17.5625 "/></g></g></g><g fill="#ffffff" fill-opacity="1"><g transform="translate(108.416558, 104.601195)"><g><path d="M 12.53125 -4.3125 C 12.53125 -2.8125 12.015625 -1.675781 10.984375 -0.90625 C 9.960938 -0.132812 8.492188 0.25 6.578125 0.25 C 5.535156 0.25 4.628906 0.191406 3.859375 0.078125 C 3.085938 -0.0351562 2.300781 -0.238281 1.5 -0.53125 L 1.5 -4.421875 C 2.25 -4.085938 3.070312 -3.8125 3.96875 -3.59375 C 4.875 -3.382812 5.675781 -3.28125 6.375 -3.28125 C 7.425781 -3.28125 7.953125 -3.519531 7.953125 -4 C 7.953125 -4.25 7.804688 -4.46875 7.515625 -4.65625 C 7.222656 -4.851562 6.367188 -5.234375 4.953125 -5.796875 C 3.660156 -6.328125 2.757812 -6.925781 2.25 -7.59375 C 1.738281 -8.269531 1.484375 -9.128906 1.484375 -10.171875 C 1.484375 -11.472656 1.984375 -12.488281 2.984375 -13.21875 C 3.992188 -13.945312 5.425781 -14.3125 7.28125 -14.3125 C 8.207031 -14.3125 9.078125 -14.207031 9.890625 -14 C 10.703125 -13.800781 11.546875 -13.507812 12.421875 -13.125 L 11.109375 -10 C 10.460938 -10.28125 9.78125 -10.519531 9.0625 -10.71875 C 8.34375 -10.925781 7.753906 -11.03125 7.296875 -11.03125 C 6.503906 -11.03125 6.109375 -10.835938 6.109375 -10.453125 C 6.109375 -10.210938 6.242188 -10.003906 6.515625 -9.828125 C 6.796875 -9.660156 7.597656 -9.316406 8.921875 -8.796875 C 9.910156 -8.390625 10.644531 -7.992188 11.125 -7.609375 C 11.613281 -7.222656 11.96875 -6.765625 12.1875 -6.234375 C 12.414062 -5.710938 12.53125 -5.070312 12.53125 -4.3125 Z M 12.53125 -4.3125 "/></g></g></g><g fill="#ffffff" fill-opacity="1"><g transform="translate(121.968514, 104.601195)"><g><path d="M 6.546875 0 L 1.703125 0 L 1.703125 -14.0625 L 6.546875 -14.0625 Z M 1.578125 -17.5625 C 1.578125 -18.289062 1.78125 -18.832031 2.1875 -19.1875 C 2.59375 -19.539062 3.242188 -19.71875 4.140625 -19.71875 C 5.046875 -19.71875 5.703125 -19.535156 6.109375 -19.171875 C 6.523438 -18.804688 6.734375 -18.269531 6.734375 -17.5625 C 6.734375 -16.132812 5.867188 -15.421875 4.140625 -15.421875 C 2.429688 -15.421875 1.578125 -16.132812 1.578125 -17.5625 Z M 1.578125 -17.5625 "/></g></g></g><g fill="#ffffff" fill-opacity="1"><g transform="translate(130.233718, 104.601195)"><g><path d="M 10.171875 -14.3125 C 10.585938 -14.3125 10.988281 -14.28125 11.375 -14.21875 L 11.640625 -14.15625 L 11.203125 -9.578125 C 10.804688 -9.679688 10.257812 -9.734375 9.5625 -9.734375 C 8.5 -9.734375 7.726562 -9.488281 7.25 -9 C 6.769531 -8.519531 6.53125 -7.820312 6.53125 -6.90625 L 6.53125 0 L 1.671875 0 L 1.671875 -14.0625 L 5.28125 -14.0625 L 6.046875 -11.8125 L 6.28125 -11.8125 C 6.6875 -12.5625 7.25 -13.164062 7.96875 -13.625 C 8.695312 -14.082031 9.429688 -14.3125 10.171875 -14.3125 Z M 10.171875 -14.3125 "/></g></g></g><g fill="#ffffff" fill-opacity="1"><g transform="translate(142.159936, 104.601195)"><g><path d="M 12.53125 -4.3125 C 12.53125 -2.8125 12.015625 -1.675781 10.984375 -0.90625 C 9.960938 -0.132812 8.492188 0.25 6.578125 0.25 C 5.535156 0.25 4.628906 0.191406 3.859375 0.078125 C 3.085938 -0.0351562 2.300781 -0.238281 1.5 -0.53125 L 1.5 -4.421875 C 2.25 -4.085938 3.070312 -3.8125 3.96875 -3.59375 C 4.875 -3.382812 5.675781 -3.28125 6.375 -3.28125 C 7.425781 -3.28125 7.953125 -3.519531 7.953125 -4 C 7.953125 -4.25 7.804688 -4.46875 7.515625 -4.65625 C 7.222656 -4.851562 6.367188 -5.234375 4.953125 -5.796875 C 3.660156 -6.328125 2.757812 -6.925781 2.25 -7.59375 C 1.738281 -8.269531 1.484375 -9.128906 1.484375 -10.171875 C 1.484375 -11.472656 1.984375 -12.488281 2.984375 -13.21875 C 3.992188 -13.945312 5.425781 -14.3125 7.28125 -14.3125 C 8.207031 -14.3125 9.078125 -14.207031 9.890625 -14 C 10.703125 -13.800781 11.546875 -13.507812 12.421875 -13.125 L 11.109375 -10 C 10.460938 -10.28125 9.78125 -10.519531 9.0625 -10.71875 C 8.34375 -10.925781 7.753906 -11.03125 7.296875 -11.03125 C 6.503906 -11.03125 6.109375 -10.835938 6.109375 -10.453125 C 6.109375 -10.210938 6.242188 -10.003906 6.515625 -9.828125 C 6.796875 -9.660156 7.597656 -9.316406 8.921875 -8.796875 C 9.910156 -8.390625 10.644531 -7.992188 11.125 -7.609375 C 11.613281 -7.222656 11.96875 -6.765625 12.1875 -6.234375 C 12.414062 -5.710938 12.53125 -5.070312 12.53125 -4.3125 Z M 12.53125 -4.3125 "/></g></g></g></svg>