<svg xmlns="http://www.w3.org/2000/svg" xmlns:xlink="http://www.w3.org/1999/xlink" width="300" zoomAndPan="magnify" viewBox="0 0 224.87999 119.999999" height="160" preserveAspectRatio="xMidYMid meet" version="1.0"><defs><g/><clipPath id="748e6f4f72"><path d="M 0 0.03125 L 224.761719 0.03125 L 224.761719 119.96875 L 0 119.96875 Z M 0 0.03125 " clip-rule="nonzero"/></clipPath><clipPath id="393b0ee44c"><path d="M 0 0.03125 L 224.761719 0.03125 L 224.761719 119.96875 L 0 119.96875 Z M 0 0.03125 " clip-rule="nonzero"/></clipPath><clipPath id="813cb3fcd9"><path d="M 5.996094 0.03125 L 218.882812 0.03125 C 222.195312 0.03125 224.878906 2.71875 224.878906 6.027344 L 224.878906 114.992188 C 224.878906 118.304688 222.195312 120.988281 218.882812 120.988281 L 5.996094 120.988281 C 2.683594 120.988281 0 118.304688 0 114.992188 L 0 6.027344 C 0 2.71875 2.683594 0.03125 5.996094 0.03125 " clip-rule="nonzero"/></clipPath></defs><g clip-path="url(#748e6f4f72)"><path fill="#ffffff" d="M 0 0.03125 L 224.878906 0.03125 L 224.878906 127.464844 L 0 127.464844 Z M 0 0.03125 " fill-opacity="1" fill-rule="nonzero"/><path fill="#ffffff" d="M 0 0.03125 L 224.878906 0.03125 L 224.878906 119.96875 L 0 119.96875 Z M 0 0.03125 " fill-opacity="1" fill-rule="nonzero"/><path fill="#ffffff" d="M 0 0.03125 L 224.878906 0.03125 L 224.878906 119.96875 L 0 119.96875 Z M 0 0.03125 " fill-opacity="1" fill-rule="nonzero"/></g><g clip-path="url(#393b0ee44c)"><g clip-path="url(#813cb3fcd9)"><path fill="#8a2d88" d="M 0 0.03125 L 224.878906 0.03125 L 224.878906 120.988281 L 0 120.988281 Z M 0 0.03125 " fill-opacity="1" fill-rule="nonzero"/></g></g><g fill="#ffffff" fill-opacity="1"><g transform="translate(67.441795, 52.579546)"><g><path d="M 1.78125 0 L 1.78125 -14.125 L 4.765625 -14.125 L 4.765625 -2.46875 L 10.5 -2.46875 L 10.5 0 Z M 1.78125 0 "/></g></g></g><g fill="#ffffff" fill-opacity="1"><g transform="translate(78.609867, 52.579546)"><g><path d="M 6.015625 -8.90625 C 5.390625 -8.90625 4.898438 -8.707031 4.546875 -8.3125 C 4.191406 -7.914062 3.988281 -7.351562 3.9375 -6.625 L 8.078125 -6.625 C 8.066406 -7.351562 7.875 -7.914062 7.5 -8.3125 C 7.132812 -8.707031 6.640625 -8.90625 6.015625 -8.90625 Z M 6.4375 0.1875 C 4.695312 0.1875 3.335938 -0.289062 2.359375 -1.25 C 1.378906 -2.207031 0.890625 -3.566406 0.890625 -5.328125 C 0.890625 -7.128906 1.34375 -8.523438 2.25 -9.515625 C 3.15625 -10.503906 4.40625 -11 6 -11 C 7.519531 -11 8.707031 -10.5625 9.5625 -9.6875 C 10.414062 -8.820312 10.84375 -7.625 10.84375 -6.09375 L 10.84375 -4.671875 L 3.875 -4.671875 C 3.90625 -3.828125 4.148438 -3.171875 4.609375 -2.703125 C 5.078125 -2.234375 5.726562 -2 6.5625 -2 C 7.21875 -2 7.832031 -2.066406 8.40625 -2.203125 C 8.988281 -2.335938 9.597656 -2.550781 10.234375 -2.84375 L 10.234375 -0.5625 C 9.710938 -0.3125 9.160156 -0.125 8.578125 0 C 7.992188 0.125 7.28125 0.1875 6.4375 0.1875 Z M 6.4375 0.1875 "/></g></g></g><g fill="#ffffff" fill-opacity="1"><g transform="translate(90.289529, 52.579546)"><g><path d="M 9.078125 -3.203125 C 9.078125 -2.097656 8.691406 -1.253906 7.921875 -0.671875 C 7.148438 -0.0976562 6 0.1875 4.46875 0.1875 C 3.6875 0.1875 3.015625 0.132812 2.453125 0.03125 C 1.898438 -0.0703125 1.382812 -0.226562 0.90625 -0.4375 L 0.90625 -2.875 C 1.457031 -2.613281 2.070312 -2.394531 2.75 -2.21875 C 3.4375 -2.039062 4.039062 -1.953125 4.5625 -1.953125 C 5.632812 -1.953125 6.171875 -2.265625 6.171875 -2.890625 C 6.171875 -3.117188 6.097656 -3.304688 5.953125 -3.453125 C 5.816406 -3.597656 5.570312 -3.757812 5.21875 -3.9375 C 4.875 -4.125 4.410156 -4.34375 3.828125 -4.59375 C 3.003906 -4.9375 2.394531 -5.253906 2 -5.546875 C 1.613281 -5.847656 1.332031 -6.1875 1.15625 -6.5625 C 0.976562 -6.945312 0.890625 -7.421875 0.890625 -7.984375 C 0.890625 -8.941406 1.257812 -9.679688 2 -10.203125 C 2.75 -10.734375 3.804688 -11 5.171875 -11 C 6.472656 -11 7.738281 -10.71875 8.96875 -10.15625 L 8.078125 -8.03125 C 7.535156 -8.257812 7.03125 -8.445312 6.5625 -8.59375 C 6.09375 -8.738281 5.613281 -8.8125 5.125 -8.8125 C 4.25 -8.8125 3.8125 -8.578125 3.8125 -8.109375 C 3.8125 -7.847656 3.953125 -7.617188 4.234375 -7.421875 C 4.515625 -7.234375 5.128906 -6.945312 6.078125 -6.5625 C 6.921875 -6.226562 7.535156 -5.910156 7.921875 -5.609375 C 8.316406 -5.316406 8.609375 -4.976562 8.796875 -4.59375 C 8.984375 -4.207031 9.078125 -3.742188 9.078125 -3.203125 Z M 9.078125 -3.203125 "/></g></g></g><g fill="#ffffff" fill-opacity="1"><g transform="translate(100.115888, 52.579546)"><g/></g></g><g fill="#ffffff" fill-opacity="1"><g transform="translate(105.251078, 52.579546)"><g><path d="M 8.40625 0 L 7.828125 -1.46875 L 7.75 -1.46875 C 7.257812 -0.84375 6.75 -0.410156 6.21875 -0.171875 C 5.695312 0.0664062 5.015625 0.1875 4.171875 0.1875 C 3.140625 0.1875 2.320312 -0.101562 1.71875 -0.6875 C 1.125 -1.28125 0.828125 -2.125 0.828125 -3.21875 C 0.828125 -4.375 1.226562 -5.222656 2.03125 -5.765625 C 2.832031 -6.304688 4.039062 -6.609375 5.65625 -6.671875 L 7.53125 -6.71875 L 7.53125 -7.203125 C 7.53125 -8.296875 6.972656 -8.84375 5.859375 -8.84375 C 4.992188 -8.84375 3.976562 -8.582031 2.8125 -8.0625 L 1.828125 -10.046875 C 3.078125 -10.691406 4.457031 -11.015625 5.96875 -11.015625 C 7.414062 -11.015625 8.523438 -10.695312 9.296875 -10.0625 C 10.066406 -9.4375 10.453125 -8.484375 10.453125 -7.203125 L 10.453125 0 Z M 7.53125 -5 L 6.390625 -4.96875 C 5.535156 -4.9375 4.898438 -4.78125 4.484375 -4.5 C 4.066406 -4.21875 3.859375 -3.785156 3.859375 -3.203125 C 3.859375 -2.367188 4.332031 -1.953125 5.28125 -1.953125 C 5.96875 -1.953125 6.515625 -2.148438 6.921875 -2.546875 C 7.328125 -2.941406 7.53125 -3.460938 7.53125 -4.109375 Z M 7.53125 -5 "/></g></g></g><g fill="#ffffff" fill-opacity="1"><g transform="translate(117.191359, 52.579546)"><g><path d="M 5.9375 0.1875 C 2.570312 0.1875 0.890625 -1.65625 0.890625 -5.34375 C 0.890625 -7.175781 1.34375 -8.578125 2.25 -9.546875 C 3.164062 -10.515625 4.476562 -11 6.1875 -11 C 7.4375 -11 8.554688 -10.753906 9.546875 -10.265625 L 8.6875 -7.984375 C 8.21875 -8.171875 7.785156 -8.320312 7.390625 -8.4375 C 6.992188 -8.5625 6.59375 -8.625 6.1875 -8.625 C 4.65625 -8.625 3.890625 -7.535156 3.890625 -5.359375 C 3.890625 -3.242188 4.65625 -2.1875 6.1875 -2.1875 C 6.757812 -2.1875 7.285156 -2.257812 7.765625 -2.40625 C 8.242188 -2.5625 8.726562 -2.800781 9.21875 -3.125 L 9.21875 -0.609375 C 8.738281 -0.304688 8.253906 -0.0976562 7.765625 0.015625 C 7.285156 0.128906 6.675781 0.1875 5.9375 0.1875 Z M 5.9375 0.1875 "/></g></g></g><g fill="#ffffff" fill-opacity="1"><g transform="translate(127.35556, 52.579546)"><g><path d="M 6.09375 -2.15625 C 6.613281 -2.15625 7.234375 -2.265625 7.953125 -2.484375 L 7.953125 -0.296875 C 7.210938 0.0234375 6.3125 0.1875 5.25 0.1875 C 4.070312 0.1875 3.210938 -0.109375 2.671875 -0.703125 C 2.128906 -1.296875 1.859375 -2.1875 1.859375 -3.375 L 1.859375 -8.59375 L 0.453125 -8.59375 L 0.453125 -9.828125 L 2.078125 -10.8125 L 2.921875 -13.09375 L 4.8125 -13.09375 L 4.8125 -10.796875 L 7.828125 -10.796875 L 7.828125 -8.59375 L 4.8125 -8.59375 L 4.8125 -3.375 C 4.8125 -2.957031 4.925781 -2.648438 5.15625 -2.453125 C 5.394531 -2.253906 5.707031 -2.15625 6.09375 -2.15625 Z M 6.09375 -2.15625 "/></g></g></g><g fill="#ffffff" fill-opacity="1"><g transform="translate(135.936732, 52.579546)"><g><path d="M 6.015625 -8.90625 C 5.390625 -8.90625 4.898438 -8.707031 4.546875 -8.3125 C 4.191406 -7.914062 3.988281 -7.351562 3.9375 -6.625 L 8.078125 -6.625 C 8.066406 -7.351562 7.875 -7.914062 7.5 -8.3125 C 7.132812 -8.707031 6.640625 -8.90625 6.015625 -8.90625 Z M 6.4375 0.1875 C 4.695312 0.1875 3.335938 -0.289062 2.359375 -1.25 C 1.378906 -2.207031 0.890625 -3.566406 0.890625 -5.328125 C 0.890625 -7.128906 1.34375 -8.523438 2.25 -9.515625 C 3.15625 -10.503906 4.40625 -11 6 -11 C 7.519531 -11 8.707031 -10.5625 9.5625 -9.6875 C 10.414062 -8.820312 10.84375 -7.625 10.84375 -6.09375 L 10.84375 -4.671875 L 3.875 -4.671875 C 3.90625 -3.828125 4.148438 -3.171875 4.609375 -2.703125 C 5.078125 -2.234375 5.726562 -2 6.5625 -2 C 7.21875 -2 7.832031 -2.066406 8.40625 -2.203125 C 8.988281 -2.335938 9.597656 -2.550781 10.234375 -2.84375 L 10.234375 -0.5625 C 9.710938 -0.3125 9.160156 -0.125 8.578125 0 C 7.992188 0.125 7.28125 0.1875 6.4375 0.1875 Z M 6.4375 0.1875 "/></g></g></g><g fill="#ffffff" fill-opacity="1"><g transform="translate(147.616393, 52.579546)"><g><path d="M 9.078125 -3.203125 C 9.078125 -2.097656 8.691406 -1.253906 7.921875 -0.671875 C 7.148438 -0.0976562 6 0.1875 4.46875 0.1875 C 3.6875 0.1875 3.015625 0.132812 2.453125 0.03125 C 1.898438 -0.0703125 1.382812 -0.226562 0.90625 -0.4375 L 0.90625 -2.875 C 1.457031 -2.613281 2.070312 -2.394531 2.75 -2.21875 C 3.4375 -2.039062 4.039062 -1.953125 4.5625 -1.953125 C 5.632812 -1.953125 6.171875 -2.265625 6.171875 -2.890625 C 6.171875 -3.117188 6.097656 -3.304688 5.953125 -3.453125 C 5.816406 -3.597656 5.570312 -3.757812 5.21875 -3.9375 C 4.875 -4.125 4.410156 -4.34375 3.828125 -4.59375 C 3.003906 -4.9375 2.394531 -5.253906 2 -5.546875 C 1.613281 -5.847656 1.332031 -6.1875 1.15625 -6.5625 C 0.976562 -6.945312 0.890625 -7.421875 0.890625 -7.984375 C 0.890625 -8.941406 1.257812 -9.679688 2 -10.203125 C 2.75 -10.734375 3.804688 -11 5.171875 -11 C 6.472656 -11 7.738281 -10.71875 8.96875 -10.15625 L 8.078125 -8.03125 C 7.535156 -8.257812 7.03125 -8.445312 6.5625 -8.59375 C 6.09375 -8.738281 5.613281 -8.8125 5.125 -8.8125 C 4.25 -8.8125 3.8125 -8.578125 3.8125 -8.109375 C 3.8125 -7.847656 3.953125 -7.617188 4.234375 -7.421875 C 4.515625 -7.234375 5.128906 -6.945312 6.078125 -6.5625 C 6.921875 -6.226562 7.535156 -5.910156 7.921875 -5.609375 C 8.316406 -5.316406 8.609375 -4.976562 8.796875 -4.59375 C 8.984375 -4.207031 9.078125 -3.742188 9.078125 -3.203125 Z M 9.078125 -3.203125 "/></g></g></g><g fill="#ffffff" fill-opacity="1"><g transform="translate(63.354749, 78.551131)"><g><path d="M 6.015625 -8.90625 C 5.390625 -8.90625 4.898438 -8.707031 4.546875 -8.3125 C 4.191406 -7.914062 3.988281 -7.351562 3.9375 -6.625 L 8.078125 -6.625 C 8.066406 -7.351562 7.875 -7.914062 7.5 -8.3125 C 7.132812 -8.707031 6.640625 -8.90625 6.015625 -8.90625 Z M 6.4375 0.1875 C 4.695312 0.1875 3.335938 -0.289062 2.359375 -1.25 C 1.378906 -2.207031 0.890625 -3.566406 0.890625 -5.328125 C 0.890625 -7.128906 1.34375 -8.523438 2.25 -9.515625 C 3.15625 -10.503906 4.40625 -11 6 -11 C 7.519531 -11 8.707031 -10.5625 9.5625 -9.6875 C 10.414062 -8.820312 10.84375 -7.625 10.84375 -6.09375 L 10.84375 -4.671875 L 3.875 -4.671875 C 3.90625 -3.828125 4.148438 -3.171875 4.609375 -2.703125 C 5.078125 -2.234375 5.726562 -2 6.5625 -2 C 7.21875 -2 7.832031 -2.066406 8.40625 -2.203125 C 8.988281 -2.335938 9.597656 -2.550781 10.234375 -2.84375 L 10.234375 -0.5625 C 9.710938 -0.3125 9.160156 -0.125 8.578125 0 C 7.992188 0.125 7.28125 0.1875 6.4375 0.1875 Z M 6.4375 0.1875 "/></g></g></g><g fill="#ffffff" fill-opacity="1"><g transform="translate(75.03441, 78.551131)"><g><path d="M 9.078125 -3.203125 C 9.078125 -2.097656 8.691406 -1.253906 7.921875 -0.671875 C 7.148438 -0.0976562 6 0.1875 4.46875 0.1875 C 3.6875 0.1875 3.015625 0.132812 2.453125 0.03125 C 1.898438 -0.0703125 1.382812 -0.226562 0.90625 -0.4375 L 0.90625 -2.875 C 1.457031 -2.613281 2.070312 -2.394531 2.75 -2.21875 C 3.4375 -2.039062 4.039062 -1.953125 4.5625 -1.953125 C 5.632812 -1.953125 6.171875 -2.265625 6.171875 -2.890625 C 6.171875 -3.117188 6.097656 -3.304688 5.953125 -3.453125 C 5.816406 -3.597656 5.570312 -3.757812 5.21875 -3.9375 C 4.875 -4.125 4.410156 -4.34375 3.828125 -4.59375 C 3.003906 -4.9375 2.394531 -5.253906 2 -5.546875 C 1.613281 -5.847656 1.332031 -6.1875 1.15625 -6.5625 C 0.976562 -6.945312 0.890625 -7.421875 0.890625 -7.984375 C 0.890625 -8.941406 1.257812 -9.679688 2 -10.203125 C 2.75 -10.734375 3.804688 -11 5.171875 -11 C 6.472656 -11 7.738281 -10.71875 8.96875 -10.15625 L 8.078125 -8.03125 C 7.535156 -8.257812 7.03125 -8.445312 6.5625 -8.59375 C 6.09375 -8.738281 5.613281 -8.8125 5.125 -8.8125 C 4.25 -8.8125 3.8125 -8.578125 3.8125 -8.109375 C 3.8125 -7.847656 3.953125 -7.617188 4.234375 -7.421875 C 4.515625 -7.234375 5.128906 -6.945312 6.078125 -6.5625 C 6.921875 -6.226562 7.535156 -5.910156 7.921875 -5.609375 C 8.316406 -5.316406 8.609375 -4.976562 8.796875 -4.59375 C 8.984375 -4.207031 9.078125 -3.742188 9.078125 -3.203125 Z M 9.078125 -3.203125 "/></g></g></g><g fill="#ffffff" fill-opacity="1"><g transform="translate(84.860769, 78.551131)"><g><path d="M 9.078125 -3.203125 C 9.078125 -2.097656 8.691406 -1.253906 7.921875 -0.671875 C 7.148438 -0.0976562 6 0.1875 4.46875 0.1875 C 3.6875 0.1875 3.015625 0.132812 2.453125 0.03125 C 1.898438 -0.0703125 1.382812 -0.226562 0.90625 -0.4375 L 0.90625 -2.875 C 1.457031 -2.613281 2.070312 -2.394531 2.75 -2.21875 C 3.4375 -2.039062 4.039062 -1.953125 4.5625 -1.953125 C 5.632812 -1.953125 6.171875 -2.265625 6.171875 -2.890625 C 6.171875 -3.117188 6.097656 -3.304688 5.953125 -3.453125 C 5.816406 -3.597656 5.570312 -3.757812 5.21875 -3.9375 C 4.875 -4.125 4.410156 -4.34375 3.828125 -4.59375 C 3.003906 -4.9375 2.394531 -5.253906 2 -5.546875 C 1.613281 -5.847656 1.332031 -6.1875 1.15625 -6.5625 C 0.976562 -6.945312 0.890625 -7.421875 0.890625 -7.984375 C 0.890625 -8.941406 1.257812 -9.679688 2 -10.203125 C 2.75 -10.734375 3.804688 -11 5.171875 -11 C 6.472656 -11 7.738281 -10.71875 8.96875 -10.15625 L 8.078125 -8.03125 C 7.535156 -8.257812 7.03125 -8.445312 6.5625 -8.59375 C 6.09375 -8.738281 5.613281 -8.8125 5.125 -8.8125 C 4.25 -8.8125 3.8125 -8.578125 3.8125 -8.109375 C 3.8125 -7.847656 3.953125 -7.617188 4.234375 -7.421875 C 4.515625 -7.234375 5.128906 -6.945312 6.078125 -6.5625 C 6.921875 -6.226562 7.535156 -5.910156 7.921875 -5.609375 C 8.316406 -5.316406 8.609375 -4.976562 8.796875 -4.59375 C 8.984375 -4.207031 9.078125 -3.742188 9.078125 -3.203125 Z M 9.078125 -3.203125 "/></g></g></g><g fill="#ffffff" fill-opacity="1"><g transform="translate(94.687128, 78.551131)"><g><path d="M 6.015625 -8.90625 C 5.390625 -8.90625 4.898438 -8.707031 4.546875 -8.3125 C 4.191406 -7.914062 3.988281 -7.351562 3.9375 -6.625 L 8.078125 -6.625 C 8.066406 -7.351562 7.875 -7.914062 7.5 -8.3125 C 7.132812 -8.707031 6.640625 -8.90625 6.015625 -8.90625 Z M 6.4375 0.1875 C 4.695312 0.1875 3.335938 -0.289062 2.359375 -1.25 C 1.378906 -2.207031 0.890625 -3.566406 0.890625 -5.328125 C 0.890625 -7.128906 1.34375 -8.523438 2.25 -9.515625 C 3.15625 -10.503906 4.40625 -11 6 -11 C 7.519531 -11 8.707031 -10.5625 9.5625 -9.6875 C 10.414062 -8.820312 10.84375 -7.625 10.84375 -6.09375 L 10.84375 -4.671875 L 3.875 -4.671875 C 3.90625 -3.828125 4.148438 -3.171875 4.609375 -2.703125 C 5.078125 -2.234375 5.726562 -2 6.5625 -2 C 7.21875 -2 7.832031 -2.066406 8.40625 -2.203125 C 8.988281 -2.335938 9.597656 -2.550781 10.234375 -2.84375 L 10.234375 -0.5625 C 9.710938 -0.3125 9.160156 -0.125 8.578125 0 C 7.992188 0.125 7.28125 0.1875 6.4375 0.1875 Z M 6.4375 0.1875 "/></g></g></g><g fill="#ffffff" fill-opacity="1"><g transform="translate(106.366789, 78.551131)"><g><path d="M 11.515625 0 L 8.5625 0 L 8.5625 -6.3125 C 8.5625 -7.082031 8.421875 -7.660156 8.140625 -8.046875 C 7.867188 -8.441406 7.429688 -8.640625 6.828125 -8.640625 C 6.003906 -8.640625 5.40625 -8.363281 5.03125 -7.8125 C 4.664062 -7.269531 4.484375 -6.359375 4.484375 -5.078125 L 4.484375 0 L 1.546875 0 L 1.546875 -10.796875 L 3.796875 -10.796875 L 4.1875 -9.421875 L 4.359375 -9.421875 C 4.679688 -9.941406 5.128906 -10.332031 5.703125 -10.59375 C 6.285156 -10.863281 6.941406 -11 7.671875 -11 C 8.929688 -11 9.882812 -10.660156 10.53125 -9.984375 C 11.1875 -9.304688 11.515625 -8.328125 11.515625 -7.046875 Z M 11.515625 0 "/></g></g></g><g fill="#ffffff" fill-opacity="1"><g transform="translate(119.359206, 78.551131)"><g><path d="M 6.09375 -2.15625 C 6.613281 -2.15625 7.234375 -2.265625 7.953125 -2.484375 L 7.953125 -0.296875 C 7.210938 0.0234375 6.3125 0.1875 5.25 0.1875 C 4.070312 0.1875 3.210938 -0.109375 2.671875 -0.703125 C 2.128906 -1.296875 1.859375 -2.1875 1.859375 -3.375 L 1.859375 -8.59375 L 0.453125 -8.59375 L 0.453125 -9.828125 L 2.078125 -10.8125 L 2.921875 -13.09375 L 4.8125 -13.09375 L 4.8125 -10.796875 L 7.828125 -10.796875 L 7.828125 -8.59375 L 4.8125 -8.59375 L 4.8125 -3.375 C 4.8125 -2.957031 4.925781 -2.648438 5.15625 -2.453125 C 5.394531 -2.253906 5.707031 -2.15625 6.09375 -2.15625 Z M 6.09375 -2.15625 "/></g></g></g><g fill="#ffffff" fill-opacity="1"><g transform="translate(127.940378, 78.551131)"><g><path d="M 1.421875 -13.59375 C 1.421875 -14.550781 1.953125 -15.03125 3.015625 -15.03125 C 4.085938 -15.03125 4.625 -14.550781 4.625 -13.59375 C 4.625 -13.132812 4.488281 -12.773438 4.21875 -12.515625 C 3.957031 -12.265625 3.554688 -12.140625 3.015625 -12.140625 C 1.953125 -12.140625 1.421875 -12.625 1.421875 -13.59375 Z M 4.484375 0 L 1.546875 0 L 1.546875 -10.796875 L 4.484375 -10.796875 Z M 4.484375 0 "/></g></g></g><g fill="#ffffff" fill-opacity="1"><g transform="translate(133.973261, 78.551131)"><g><path d="M 6.015625 -8.90625 C 5.390625 -8.90625 4.898438 -8.707031 4.546875 -8.3125 C 4.191406 -7.914062 3.988281 -7.351562 3.9375 -6.625 L 8.078125 -6.625 C 8.066406 -7.351562 7.875 -7.914062 7.5 -8.3125 C 7.132812 -8.707031 6.640625 -8.90625 6.015625 -8.90625 Z M 6.4375 0.1875 C 4.695312 0.1875 3.335938 -0.289062 2.359375 -1.25 C 1.378906 -2.207031 0.890625 -3.566406 0.890625 -5.328125 C 0.890625 -7.128906 1.34375 -8.523438 2.25 -9.515625 C 3.15625 -10.503906 4.40625 -11 6 -11 C 7.519531 -11 8.707031 -10.5625 9.5625 -9.6875 C 10.414062 -8.820312 10.84375 -7.625 10.84375 -6.09375 L 10.84375 -4.671875 L 3.875 -4.671875 C 3.90625 -3.828125 4.148438 -3.171875 4.609375 -2.703125 C 5.078125 -2.234375 5.726562 -2 6.5625 -2 C 7.21875 -2 7.832031 -2.066406 8.40625 -2.203125 C 8.988281 -2.335938 9.597656 -2.550781 10.234375 -2.84375 L 10.234375 -0.5625 C 9.710938 -0.3125 9.160156 -0.125 8.578125 0 C 7.992188 0.125 7.28125 0.1875 6.4375 0.1875 Z M 6.4375 0.1875 "/></g></g></g><g fill="#ffffff" fill-opacity="1"><g transform="translate(145.652922, 78.551131)"><g><path d="M 4.484375 0 L 1.546875 0 L 1.546875 -15.03125 L 4.484375 -15.03125 Z M 4.484375 0 "/></g></g></g><g fill="#ffffff" fill-opacity="1"><g transform="translate(151.685804, 78.551131)"><g><path d="M 9.078125 -3.203125 C 9.078125 -2.097656 8.691406 -1.253906 7.921875 -0.671875 C 7.148438 -0.0976562 6 0.1875 4.46875 0.1875 C 3.6875 0.1875 3.015625 0.132812 2.453125 0.03125 C 1.898438 -0.0703125 1.382812 -0.226562 0.90625 -0.4375 L 0.90625 -2.875 C 1.457031 -2.613281 2.070312 -2.394531 2.75 -2.21875 C 3.4375 -2.039062 4.039062 -1.953125 4.5625 -1.953125 C 5.632812 -1.953125 6.171875 -2.265625 6.171875 -2.890625 C 6.171875 -3.117188 6.097656 -3.304688 5.953125 -3.453125 C 5.816406 -3.597656 5.570312 -3.757812 5.21875 -3.9375 C 4.875 -4.125 4.410156 -4.34375 3.828125 -4.59375 C 3.003906 -4.9375 2.394531 -5.253906 2 -5.546875 C 1.613281 -5.847656 1.332031 -6.1875 1.15625 -6.5625 C 0.976562 -6.945312 0.890625 -7.421875 0.890625 -7.984375 C 0.890625 -8.941406 1.257812 -9.679688 2 -10.203125 C 2.75 -10.734375 3.804688 -11 5.171875 -11 C 6.472656 -11 7.738281 -10.71875 8.96875 -10.15625 L 8.078125 -8.03125 C 7.535156 -8.257812 7.03125 -8.445312 6.5625 -8.59375 C 6.09375 -8.738281 5.613281 -8.8125 5.125 -8.8125 C 4.25 -8.8125 3.8125 -8.578125 3.8125 -8.109375 C 3.8125 -7.847656 3.953125 -7.617188 4.234375 -7.421875 C 4.515625 -7.234375 5.128906 -6.945312 6.078125 -6.5625 C 6.921875 -6.226562 7.535156 -5.910156 7.921875 -5.609375 C 8.316406 -5.316406 8.609375 -4.976562 8.796875 -4.59375 C 8.984375 -4.207031 9.078125 -3.742188 9.078125 -3.203125 Z M 9.078125 -3.203125 "/></g></g></g></svg>