<svg xmlns="http://www.w3.org/2000/svg" xmlns:xlink="http://www.w3.org/1999/xlink" width="300" zoomAndPan="magnify" viewBox="0 0 224.87999 119.999999" height="160" preserveAspectRatio="xMidYMid meet" version="1.0"><defs><g/><clipPath id="5e8f338c1a"><path d="M 0 0.03125 L 224.761719 0.03125 L 224.761719 119.96875 L 0 119.96875 Z M 0 0.03125 " clip-rule="nonzero"/></clipPath><clipPath id="a5273e2085"><path d="M 0 0.03125 L 224.761719 0.03125 L 224.761719 119.96875 L 0 119.96875 Z M 0 0.03125 " clip-rule="nonzero"/></clipPath><clipPath id="48ef740917"><path d="M 5.996094 0.03125 L 218.882812 0.03125 C 222.195312 0.03125 224.878906 2.71875 224.878906 6.027344 L 224.878906 114.992188 C 224.878906 118.304688 222.195312 120.988281 218.882812 120.988281 L 5.996094 120.988281 C 2.683594 120.988281 0 118.304688 0 114.992188 L 0 6.027344 C 0 2.71875 2.683594 0.03125 5.996094 0.03125 " clip-rule="nonzero"/></clipPath></defs><g clip-path="url(#5e8f338c1a)"><path fill="#ffffff" d="M 0 0.03125 L 224.878906 0.03125 L 224.878906 127.464844 L 0 127.464844 Z M 0 0.03125 " fill-opacity="1" fill-rule="nonzero"/><path fill="#ffffff" d="M 0 0.03125 L 224.878906 0.03125 L 224.878906 119.96875 L 0 119.96875 Z M 0 0.03125 " fill-opacity="1" fill-rule="nonzero"/><path fill="#ffffff" d="M 0 0.03125 L 224.878906 0.03125 L 224.878906 119.96875 L 0 119.96875 Z M 0 0.03125 " fill-opacity="1" fill-rule="nonzero"/></g><g clip-path="url(#a5273e2085)"><g clip-path="url(#48ef740917)"><path fill="#4ebcc2" d="M 0 0.03125 L 224.878906 0.03125 L 224.878906 120.988281 L 0 120.988281 Z M 0 0.03125 " fill-opacity="1" fill-rule="nonzero"/></g></g><g fill="#ffffff" fill-opacity="1"><g transform="translate(58.43056, 67.149603)"><g><path d="M 9.984375 -15.203125 C 8.535156 -15.203125 7.414062 -14.65625 6.625 -13.5625 C 5.832031 -12.476562 5.4375 -10.960938 5.4375 -9.015625 C 5.4375 -4.972656 6.953125 -2.953125 9.984375 -2.953125 C 11.253906 -2.953125 12.796875 -3.269531 14.609375 -3.90625 L 14.609375 -0.6875 C 13.117188 -0.0625 11.457031 0.25 9.625 0.25 C 6.988281 0.25 4.96875 -0.546875 3.5625 -2.140625 C 2.164062 -3.742188 1.46875 -6.046875 1.46875 -9.046875 C 1.46875 -10.929688 1.8125 -12.582031 2.5 -14 C 3.1875 -15.414062 4.171875 -16.5 5.453125 -17.25 C 6.742188 -18.007812 8.253906 -18.390625 9.984375 -18.390625 C 11.742188 -18.390625 13.515625 -17.96875 15.296875 -17.125 L 14.0625 -14 C 13.375 -14.320312 12.6875 -14.601562 12 -14.84375 C 11.320312 -15.082031 10.648438 -15.203125 9.984375 -15.203125 Z M 9.984375 -15.203125 "/></g></g></g><g fill="#ffffff" fill-opacity="1"><g transform="translate(74.613062, 67.149603)"><g><path d="M 17.140625 0 L 13.3125 0 L 13.3125 -7.828125 L 6.125 -7.828125 L 6.125 0 L 2.28125 0 L 2.28125 -18.140625 L 6.125 -18.140625 L 6.125 -11.03125 L 13.3125 -11.03125 L 13.3125 -18.140625 L 17.140625 -18.140625 Z M 17.140625 0 "/></g></g></g><g fill="#ffffff" fill-opacity="1"><g transform="translate(94.044465, 67.149603)"><g><path d="M 12.734375 0 L 2.28125 0 L 2.28125 -18.140625 L 12.734375 -18.140625 L 12.734375 -14.984375 L 6.125 -14.984375 L 6.125 -11 L 12.265625 -11 L 12.265625 -7.859375 L 6.125 -7.859375 L 6.125 -3.171875 L 12.734375 -3.171875 Z M 12.734375 0 "/></g></g></g><g fill="#ffffff" fill-opacity="1"><g transform="translate(108.267706, 67.149603)"><g><path d="M 12.984375 -5.03125 C 12.984375 -3.394531 12.394531 -2.101562 11.21875 -1.15625 C 10.039062 -0.21875 8.398438 0.25 6.296875 0.25 C 4.367188 0.25 2.660156 -0.113281 1.171875 -0.84375 L 1.171875 -4.421875 C 2.390625 -3.867188 3.421875 -3.476562 4.265625 -3.25 C 5.117188 -3.03125 5.894531 -2.921875 6.59375 -2.921875 C 7.4375 -2.921875 8.082031 -3.082031 8.53125 -3.40625 C 8.988281 -3.726562 9.21875 -4.207031 9.21875 -4.84375 C 9.21875 -5.207031 9.117188 -5.523438 8.921875 -5.796875 C 8.722656 -6.078125 8.429688 -6.34375 8.046875 -6.59375 C 7.660156 -6.851562 6.875 -7.265625 5.6875 -7.828125 C 4.582031 -8.347656 3.753906 -8.847656 3.203125 -9.328125 C 2.648438 -9.804688 2.207031 -10.363281 1.875 -11 C 1.539062 -11.632812 1.375 -12.378906 1.375 -13.234375 C 1.375 -14.835938 1.914062 -16.097656 3 -17.015625 C 4.09375 -17.929688 5.597656 -18.390625 7.515625 -18.390625 C 8.460938 -18.390625 9.363281 -18.28125 10.21875 -18.0625 C 11.070312 -17.84375 11.96875 -17.53125 12.90625 -17.125 L 11.65625 -14.125 C 10.6875 -14.519531 9.882812 -14.796875 9.25 -14.953125 C 8.625 -15.117188 8.003906 -15.203125 7.390625 -15.203125 C 6.660156 -15.203125 6.101562 -15.03125 5.71875 -14.6875 C 5.332031 -14.34375 5.140625 -13.898438 5.140625 -13.359375 C 5.140625 -13.023438 5.21875 -12.726562 5.375 -12.46875 C 5.53125 -12.21875 5.78125 -11.972656 6.125 -11.734375 C 6.46875 -11.503906 7.28125 -11.082031 8.5625 -10.46875 C 10.257812 -9.65625 11.421875 -8.84375 12.046875 -8.03125 C 12.671875 -7.21875 12.984375 -6.21875 12.984375 -5.03125 Z M 12.984375 -5.03125 "/></g></g></g><g fill="#ffffff" fill-opacity="1"><g transform="translate(122.25534, 67.149603)"><g><path d="M 12.984375 -5.03125 C 12.984375 -3.394531 12.394531 -2.101562 11.21875 -1.15625 C 10.039062 -0.21875 8.398438 0.25 6.296875 0.25 C 4.367188 0.25 2.660156 -0.113281 1.171875 -0.84375 L 1.171875 -4.421875 C 2.390625 -3.867188 3.421875 -3.476562 4.265625 -3.25 C 5.117188 -3.03125 5.894531 -2.921875 6.59375 -2.921875 C 7.4375 -2.921875 8.082031 -3.082031 8.53125 -3.40625 C 8.988281 -3.726562 9.21875 -4.207031 9.21875 -4.84375 C 9.21875 -5.207031 9.117188 -5.523438 8.921875 -5.796875 C 8.722656 -6.078125 8.429688 -6.34375 8.046875 -6.59375 C 7.660156 -6.851562 6.875 -7.265625 5.6875 -7.828125 C 4.582031 -8.347656 3.753906 -8.847656 3.203125 -9.328125 C 2.648438 -9.804688 2.207031 -10.363281 1.875 -11 C 1.539062 -11.632812 1.375 -12.378906 1.375 -13.234375 C 1.375 -14.835938 1.914062 -16.097656 3 -17.015625 C 4.09375 -17.929688 5.597656 -18.390625 7.515625 -18.390625 C 8.460938 -18.390625 9.363281 -18.28125 10.21875 -18.0625 C 11.070312 -17.84375 11.96875 -17.53125 12.90625 -17.125 L 11.65625 -14.125 C 10.6875 -14.519531 9.882812 -14.796875 9.25 -14.953125 C 8.625 -15.117188 8.003906 -15.203125 7.390625 -15.203125 C 6.660156 -15.203125 6.101562 -15.03125 5.71875 -14.6875 C 5.332031 -14.34375 5.140625 -13.898438 5.140625 -13.359375 C 5.140625 -13.023438 5.21875 -12.726562 5.375 -12.46875 C 5.53125 -12.21875 5.78125 -11.972656 6.125 -11.734375 C 6.46875 -11.503906 7.28125 -11.082031 8.5625 -10.46875 C 10.257812 -9.65625 11.421875 -8.84375 12.046875 -8.03125 C 12.671875 -7.21875 12.984375 -6.21875 12.984375 -5.03125 Z M 12.984375 -5.03125 "/></g></g></g><g fill="#ffffff" fill-opacity="1"><g transform="translate(136.242974, 67.149603)"><g><path d="M 12.734375 0 L 2.28125 0 L 2.28125 -18.140625 L 12.734375 -18.140625 L 12.734375 -14.984375 L 6.125 -14.984375 L 6.125 -11 L 12.265625 -11 L 12.265625 -7.859375 L 6.125 -7.859375 L 6.125 -3.171875 L 12.734375 -3.171875 Z M 12.734375 0 "/></g></g></g><g fill="#ffffff" fill-opacity="1"><g transform="translate(150.466215, 67.149603)"><g><path d="M 6.125 -9.609375 L 7.390625 -9.609375 C 8.578125 -9.609375 9.460938 -9.835938 10.046875 -10.296875 C 10.628906 -10.765625 10.921875 -11.445312 10.921875 -12.34375 C 10.921875 -13.25 10.675781 -13.914062 10.1875 -14.34375 C 9.695312 -14.769531 8.925781 -14.984375 7.875 -14.984375 L 6.125 -14.984375 Z M 14.8125 -12.484375 C 14.8125 -10.523438 14.203125 -9.03125 12.984375 -8 C 11.765625 -6.96875 10.03125 -6.453125 7.78125 -6.453125 L 6.125 -6.453125 L 6.125 0 L 2.28125 0 L 2.28125 -18.140625 L 8.078125 -18.140625 C 10.273438 -18.140625 11.945312 -17.664062 13.09375 -16.71875 C 14.238281 -15.769531 14.8125 -14.359375 14.8125 -12.484375 Z M 14.8125 -12.484375 "/></g></g></g></svg>