<svg xmlns="http://www.w3.org/2000/svg" xmlns:xlink="http://www.w3.org/1999/xlink" width="300" zoomAndPan="magnify" viewBox="0 0 224.87999 119.999999" height="160" preserveAspectRatio="xMidYMid meet" version="1.0"><defs><g/><clipPath id="bc22d23dbb"><path d="M 0 0.03125 L 224.761719 0.03125 L 224.761719 119.96875 L 0 119.96875 Z M 0 0.03125 " clip-rule="nonzero"/></clipPath><clipPath id="9fcc139713"><path d="M 0 0.03125 L 224.761719 0.03125 L 224.761719 119.96875 L 0 119.96875 Z M 0 0.03125 " clip-rule="nonzero"/></clipPath><clipPath id="ee30f833cb"><path d="M 5.996094 -0.480469 L 218.882812 -0.480469 C 222.195312 -0.480469 224.878906 2.207031 224.878906 5.519531 L 224.878906 114.480469 C 224.878906 117.792969 222.195312 120.480469 218.882812 120.480469 L 5.996094 120.480469 C 2.683594 120.480469 0 117.792969 0 114.480469 L 0 5.519531 C 0 2.207031 2.683594 -0.480469 5.996094 -0.480469 " clip-rule="nonzero"/></clipPath></defs><g clip-path="url(#bc22d23dbb)"><path fill="#ffffff" d="M 0 0.03125 L 224.878906 0.03125 L 224.878906 127.464844 L 0 127.464844 Z M 0 0.03125 " fill-opacity="1" fill-rule="nonzero"/><path fill="#ffffff" d="M 0 0.03125 L 224.878906 0.03125 L 224.878906 119.96875 L 0 119.96875 Z M 0 0.03125 " fill-opacity="1" fill-rule="nonzero"/><path fill="#ffffff" d="M 0 0.03125 L 224.878906 0.03125 L 224.878906 119.96875 L 0 119.96875 Z M 0 0.03125 " fill-opacity="1" fill-rule="nonzero"/></g><g clip-path="url(#9fcc139713)"><g clip-path="url(#ee30f833cb)"><path fill="#fecb37" d="M 0 -0.480469 L 224.878906 -0.480469 L 224.878906 120.480469 L 0 120.480469 Z M 0 -0.480469 " fill-opacity="1" fill-rule="nonzero"/></g></g><g fill="#ffffff" fill-opacity="1"><g transform="translate(42.599096, 69.369998)"><g><path d="M 1.96875 0 L 1.96875 -18.140625 L 6.859375 -18.140625 L 6.859375 -3.953125 L 13.859375 -3.953125 L 13.859375 0 Z M 1.96875 0 "/></g></g></g><g fill="#ffffff" fill-opacity="1"><g transform="translate(57.392074, 69.369998)"><g><path d="M 10.84375 0 L 9.921875 -1.859375 L 9.8125 -1.859375 C 9.164062 -1.046875 8.5 -0.488281 7.8125 -0.1875 C 7.132812 0.101562 6.257812 0.25 5.1875 0.25 C 3.863281 0.25 2.820312 -0.144531 2.0625 -0.9375 C 1.300781 -1.738281 0.921875 -2.859375 0.921875 -4.296875 C 0.921875 -5.796875 1.441406 -6.910156 2.484375 -7.640625 C 3.523438 -8.367188 5.035156 -8.78125 7.015625 -8.875 L 9.359375 -8.953125 L 9.359375 -9.140625 C 9.359375 -10.304688 8.785156 -10.890625 7.640625 -10.890625 C 6.617188 -10.890625 5.316406 -10.539062 3.734375 -9.84375 L 2.328125 -13.046875 C 3.972656 -13.890625 6.046875 -14.3125 8.546875 -14.3125 C 10.347656 -14.3125 11.742188 -13.863281 12.734375 -12.96875 C 13.722656 -12.070312 14.21875 -10.820312 14.21875 -9.21875 L 14.21875 0 Z M 7.25 -3.171875 C 7.832031 -3.171875 8.332031 -3.359375 8.75 -3.734375 C 9.175781 -4.109375 9.390625 -4.59375 9.390625 -5.1875 L 9.390625 -6.28125 L 8.265625 -6.234375 C 6.671875 -6.171875 5.875 -5.582031 5.875 -4.46875 C 5.875 -3.601562 6.332031 -3.171875 7.25 -3.171875 Z M 7.25 -3.171875 "/></g></g></g><g fill="#ffffff" fill-opacity="1"><g transform="translate(73.22751, 69.369998)"><g/></g></g><g fill="#ffffff" fill-opacity="1"><g transform="translate(79.829745, 69.369998)"><g><path d="M 6.046875 0.25 C 5.046875 0.25 4.171875 -0.0351562 3.421875 -0.609375 C 2.671875 -1.179688 2.085938 -2.019531 1.671875 -3.125 C 1.265625 -4.238281 1.0625 -5.535156 1.0625 -7.015625 C 1.0625 -9.296875 1.519531 -11.082031 2.4375 -12.375 C 3.363281 -13.664062 4.628906 -14.3125 6.234375 -14.3125 C 7.015625 -14.3125 7.703125 -14.15625 8.296875 -13.84375 C 8.890625 -13.53125 9.429688 -13 9.921875 -12.25 L 10.015625 -12.25 C 9.859375 -13.351562 9.78125 -14.453125 9.78125 -15.546875 L 9.78125 -19.3125 L 14.671875 -19.3125 L 14.671875 0 L 11.015625 0 L 9.96875 -1.78125 L 9.78125 -1.78125 C 8.945312 -0.425781 7.703125 0.25 6.046875 0.25 Z M 8.03125 -3.59375 C 8.8125 -3.59375 9.359375 -3.832031 9.671875 -4.3125 C 9.992188 -4.800781 10.164062 -5.554688 10.1875 -6.578125 L 10.1875 -6.96875 C 10.1875 -8.207031 10.007812 -9.085938 9.65625 -9.609375 C 9.300781 -10.140625 8.742188 -10.40625 7.984375 -10.40625 C 7.347656 -10.40625 6.851562 -10.101562 6.5 -9.5 C 6.144531 -8.90625 5.96875 -8.050781 5.96875 -6.9375 C 5.96875 -5.84375 6.144531 -5.007812 6.5 -4.4375 C 6.851562 -3.875 7.363281 -3.59375 8.03125 -3.59375 Z M 8.03125 -3.59375 "/></g></g></g><g fill="#ffffff" fill-opacity="1"><g transform="translate(96.173999, 69.369998)"><g><path d="M 15.109375 -7.0625 C 15.109375 -4.757812 14.488281 -2.960938 13.25 -1.671875 C 12.007812 -0.390625 10.28125 0.25 8.0625 0.25 C 5.925781 0.25 4.222656 -0.40625 2.953125 -1.71875 C 1.691406 -3.039062 1.0625 -4.820312 1.0625 -7.0625 C 1.0625 -9.351562 1.679688 -11.132812 2.921875 -12.40625 C 4.160156 -13.675781 5.894531 -14.3125 8.125 -14.3125 C 9.507812 -14.3125 10.726562 -14.015625 11.78125 -13.421875 C 12.84375 -12.835938 13.660156 -12 14.234375 -10.90625 C 14.816406 -9.8125 15.109375 -8.53125 15.109375 -7.0625 Z M 6 -7.0625 C 6 -5.851562 6.160156 -4.929688 6.484375 -4.296875 C 6.804688 -3.660156 7.347656 -3.34375 8.109375 -3.34375 C 8.859375 -3.34375 9.390625 -3.660156 9.703125 -4.296875 C 10.015625 -4.929688 10.171875 -5.851562 10.171875 -7.0625 C 10.171875 -8.257812 10.007812 -9.164062 9.6875 -9.78125 C 9.375 -10.394531 8.835938 -10.703125 8.078125 -10.703125 C 7.335938 -10.703125 6.804688 -10.394531 6.484375 -9.78125 C 6.160156 -9.175781 6 -8.269531 6 -7.0625 Z M 6 -7.0625 "/></g></g></g><g fill="#ffffff" fill-opacity="1"><g transform="translate(112.369332, 69.369998)"><g><path d="M 11.6875 0 L 11.078125 -1.75 L 10.796875 -1.75 C 10.390625 -1.101562 9.820312 -0.609375 9.09375 -0.265625 C 8.375 0.078125 7.523438 0.25 6.546875 0.25 C 5.003906 0.25 3.800781 -0.195312 2.9375 -1.09375 C 2.082031 -2 1.65625 -3.269531 1.65625 -4.90625 L 1.65625 -14.0625 L 6.5 -14.0625 L 6.5 -6.375 C 6.5 -5.457031 6.628906 -4.765625 6.890625 -4.296875 C 7.148438 -3.828125 7.582031 -3.59375 8.1875 -3.59375 C 9.019531 -3.59375 9.613281 -3.921875 9.96875 -4.578125 C 10.320312 -5.234375 10.5 -6.34375 10.5 -7.90625 L 10.5 -14.0625 L 15.359375 -14.0625 L 15.359375 0 Z M 11.6875 0 "/></g></g></g><g fill="#ffffff" fill-opacity="1"><g transform="translate(129.396149, 69.369998)"><g><path d="M 6.53125 0 L 1.671875 0 L 1.671875 -19.3125 L 6.53125 -19.3125 Z M 6.53125 0 "/></g></g></g><g fill="#ffffff" fill-opacity="1"><g transform="translate(137.611712, 69.369998)"><g><path d="M 8.46875 0.25 C 6.125 0.25 4.300781 -0.367188 3 -1.609375 C 1.707031 -2.859375 1.0625 -4.632812 1.0625 -6.9375 C 1.0625 -9.3125 1.660156 -11.132812 2.859375 -12.40625 C 4.066406 -13.675781 5.78125 -14.3125 8 -14.3125 C 10.125 -14.3125 11.757812 -13.757812 12.90625 -12.65625 C 14.0625 -11.550781 14.640625 -9.957031 14.640625 -7.875 L 14.640625 -5.71875 L 5.96875 -5.71875 C 6 -4.9375 6.285156 -4.320312 6.828125 -3.875 C 7.367188 -3.425781 8.109375 -3.203125 9.046875 -3.203125 C 9.898438 -3.203125 10.679688 -3.28125 11.390625 -3.4375 C 12.109375 -3.601562 12.890625 -3.878906 13.734375 -4.265625 L 13.734375 -0.78125 C 12.972656 -0.394531 12.1875 -0.128906 11.375 0.015625 C 10.5625 0.171875 9.59375 0.25 8.46875 0.25 Z M 8.1875 -11.015625 C 7.613281 -11.015625 7.132812 -10.832031 6.75 -10.46875 C 6.363281 -10.113281 6.132812 -9.550781 6.0625 -8.78125 L 10.234375 -8.78125 C 10.222656 -9.457031 10.03125 -10 9.65625 -10.40625 C 9.289062 -10.8125 8.800781 -11.015625 8.1875 -11.015625 Z M 8.1875 -11.015625 "/></g></g></g><g fill="#ffffff" fill-opacity="1"><g transform="translate(153.323045, 69.369998)"><g><path d="M 11.6875 0 L 11.078125 -1.75 L 10.796875 -1.75 C 10.390625 -1.101562 9.820312 -0.609375 9.09375 -0.265625 C 8.375 0.078125 7.523438 0.25 6.546875 0.25 C 5.003906 0.25 3.800781 -0.195312 2.9375 -1.09375 C 2.082031 -2 1.65625 -3.269531 1.65625 -4.90625 L 1.65625 -14.0625 L 6.5 -14.0625 L 6.5 -6.375 C 6.5 -5.457031 6.628906 -4.765625 6.890625 -4.296875 C 7.148438 -3.828125 7.582031 -3.59375 8.1875 -3.59375 C 9.019531 -3.59375 9.613281 -3.921875 9.96875 -4.578125 C 10.320312 -5.234375 10.5 -6.34375 10.5 -7.90625 L 10.5 -14.0625 L 15.359375 -14.0625 L 15.359375 0 Z M 11.6875 0 "/></g></g></g><g fill="#ffffff" fill-opacity="1"><g transform="translate(170.349862, 69.369998)"><g><path d="M 10.171875 -14.3125 C 10.585938 -14.3125 10.988281 -14.28125 11.375 -14.21875 L 11.640625 -14.15625 L 11.203125 -9.578125 C 10.804688 -9.679688 10.257812 -9.734375 9.5625 -9.734375 C 8.5 -9.734375 7.726562 -9.488281 7.25 -9 C 6.769531 -8.519531 6.53125 -7.820312 6.53125 -6.90625 L 6.53125 0 L 1.671875 0 L 1.671875 -14.0625 L 5.28125 -14.0625 L 6.046875 -11.8125 L 6.28125 -11.8125 C 6.6875 -12.5625 7.25 -13.164062 7.96875 -13.625 C 8.695312 -14.082031 9.429688 -14.3125 10.171875 -14.3125 Z M 10.171875 -14.3125 "/></g></g></g></svg>