<svg xmlns="http://www.w3.org/2000/svg" xmlns:xlink="http://www.w3.org/1999/xlink" width="300" zoomAndPan="magnify" viewBox="0 0 224.87999 119.999999" height="160" preserveAspectRatio="xMidYMid meet" version="1.0"><defs><g/><clipPath id="c87752c14b"><path d="M 0 0.03125 L 224.761719 0.03125 L 224.761719 119.96875 L 0 119.96875 Z M 0 0.03125 " clip-rule="nonzero"/></clipPath><clipPath id="3c856147f2"><path d="M 0 0.03125 L 224.761719 0.03125 L 224.761719 119.96875 L 0 119.96875 Z M 0 0.03125 " clip-rule="nonzero"/></clipPath><clipPath id="c37f3617ac"><path d="M 5.996094 -0.480469 L 218.882812 -0.480469 C 222.195312 -0.480469 224.878906 2.207031 224.878906 5.519531 L 224.878906 114.480469 C 224.878906 117.792969 222.195312 120.480469 218.882812 120.480469 L 5.996094 120.480469 C 2.683594 120.480469 0 117.792969 0 114.480469 L 0 5.519531 C 0 2.207031 2.683594 -0.480469 5.996094 -0.480469 " clip-rule="nonzero"/></clipPath></defs><g clip-path="url(#c87752c14b)"><path fill="#ffffff" d="M 0 0.03125 L 224.878906 0.03125 L 224.878906 127.464844 L 0 127.464844 Z M 0 0.03125 " fill-opacity="1" fill-rule="nonzero"/><path fill="#ffffff" d="M 0 0.03125 L 224.878906 0.03125 L 224.878906 119.96875 L 0 119.96875 Z M 0 0.03125 " fill-opacity="1" fill-rule="nonzero"/><path fill="#ffffff" d="M 0 0.03125 L 224.878906 0.03125 L 224.878906 119.96875 L 0 119.96875 Z M 0 0.03125 " fill-opacity="1" fill-rule="nonzero"/></g><g clip-path="url(#3c856147f2)"><g clip-path="url(#c37f3617ac)"><path fill="#8a2d88" d="M 0 -0.480469 L 224.878906 -0.480469 L 224.878906 120.480469 L 0 120.480469 Z M 0 -0.480469 " fill-opacity="1" fill-rule="nonzero"/></g></g><g fill="#ffffff" fill-opacity="1"><g transform="translate(13.938611, 69.744798)"><g><path d="M 17.21875 0 L 12.375 0 L 12.375 -7.265625 L 6.765625 -7.265625 L 6.765625 0 L 1.921875 0 L 1.921875 -17.828125 L 6.765625 -17.828125 L 6.765625 -11.21875 L 12.375 -11.21875 L 12.375 -17.828125 L 17.21875 -17.828125 Z M 17.21875 0 "/></g></g></g><g fill="#ffffff" fill-opacity="1"><g transform="translate(33.078242, 69.744798)"><g><path d="M 14.84375 -6.9375 C 14.84375 -4.675781 14.234375 -2.910156 13.015625 -1.640625 C 11.804688 -0.378906 10.109375 0.25 7.921875 0.25 C 5.816406 0.25 4.144531 -0.394531 2.90625 -1.6875 C 1.664062 -2.988281 1.046875 -4.738281 1.046875 -6.9375 C 1.046875 -9.195312 1.65625 -10.945312 2.875 -12.1875 C 4.09375 -13.4375 5.796875 -14.0625 7.984375 -14.0625 C 9.347656 -14.0625 10.550781 -13.769531 11.59375 -13.1875 C 12.632812 -12.613281 13.4375 -11.785156 14 -10.703125 C 14.5625 -9.628906 14.84375 -8.375 14.84375 -6.9375 Z M 5.890625 -6.9375 C 5.890625 -5.75 6.046875 -4.84375 6.359375 -4.21875 C 6.679688 -3.601562 7.21875 -3.296875 7.96875 -3.296875 C 8.707031 -3.296875 9.226562 -3.601562 9.53125 -4.21875 C 9.832031 -4.84375 9.984375 -5.75 9.984375 -6.9375 C 9.984375 -8.113281 9.828125 -9.003906 9.515625 -9.609375 C 9.210938 -10.210938 8.6875 -10.515625 7.9375 -10.515625 C 7.207031 -10.515625 6.679688 -10.210938 6.359375 -9.609375 C 6.046875 -9.015625 5.890625 -8.125 5.890625 -6.9375 Z M 5.890625 -6.9375 "/></g></g></g><g fill="#ffffff" fill-opacity="1"><g transform="translate(48.997438, 69.744798)"><g><path d="M 12.328125 -4.25 C 12.328125 -2.769531 11.820312 -1.648438 10.8125 -0.890625 C 9.800781 -0.128906 8.351562 0.25 6.46875 0.25 C 5.4375 0.25 4.539062 0.191406 3.78125 0.078125 C 3.03125 -0.0234375 2.257812 -0.226562 1.46875 -0.53125 L 1.46875 -4.34375 C 2.21875 -4.019531 3.03125 -3.75 3.90625 -3.53125 C 4.789062 -3.320312 5.578125 -3.21875 6.265625 -3.21875 C 7.296875 -3.21875 7.8125 -3.453125 7.8125 -3.921875 C 7.8125 -4.171875 7.664062 -4.390625 7.375 -4.578125 C 7.09375 -4.773438 6.257812 -5.148438 4.875 -5.703125 C 3.601562 -6.222656 2.710938 -6.8125 2.203125 -7.46875 C 1.703125 -8.132812 1.453125 -8.972656 1.453125 -9.984375 C 1.453125 -11.273438 1.945312 -12.273438 2.9375 -12.984375 C 3.925781 -13.703125 5.332031 -14.0625 7.15625 -14.0625 C 8.0625 -14.0625 8.914062 -13.960938 9.71875 -13.765625 C 10.519531 -13.566406 11.351562 -13.273438 12.21875 -12.890625 L 10.921875 -9.828125 C 10.285156 -10.109375 9.613281 -10.347656 8.90625 -10.546875 C 8.195312 -10.742188 7.617188 -10.84375 7.171875 -10.84375 C 6.390625 -10.84375 6 -10.648438 6 -10.265625 C 6 -10.035156 6.132812 -9.835938 6.40625 -9.671875 C 6.675781 -9.503906 7.460938 -9.164062 8.765625 -8.65625 C 9.734375 -8.25 10.457031 -7.851562 10.9375 -7.46875 C 11.414062 -7.09375 11.765625 -6.644531 11.984375 -6.125 C 12.210938 -5.613281 12.328125 -4.988281 12.328125 -4.25 Z M 12.328125 -4.25 "/></g></g></g><g fill="#ffffff" fill-opacity="1"><g transform="translate(62.318323, 69.744798)"><g><path d="M 9.9375 0.25 C 9.238281 0.25 8.613281 0.132812 8.0625 -0.09375 C 7.507812 -0.332031 6.960938 -0.753906 6.421875 -1.359375 L 6.203125 -1.359375 C 6.347656 -0.390625 6.421875 0.210938 6.421875 0.453125 L 6.421875 6 L 1.640625 6 L 1.640625 -13.828125 L 5.53125 -13.828125 L 6.203125 -12.0625 L 6.421875 -12.0625 C 7.304688 -13.394531 8.53125 -14.0625 10.09375 -14.0625 C 11.613281 -14.0625 12.8125 -13.425781 13.6875 -12.15625 C 14.5625 -10.894531 15 -9.15625 15 -6.9375 C 15 -4.707031 14.539062 -2.953125 13.625 -1.671875 C 12.71875 -0.390625 11.488281 0.25 9.9375 0.25 Z M 8.34375 -10.328125 C 7.644531 -10.328125 7.15625 -10.070312 6.875 -9.5625 C 6.59375 -9.0625 6.441406 -8.320312 6.421875 -7.34375 L 6.421875 -6.96875 C 6.421875 -5.78125 6.578125 -4.921875 6.890625 -4.390625 C 7.210938 -3.859375 7.710938 -3.59375 8.390625 -3.59375 C 9.003906 -3.59375 9.445312 -3.851562 9.71875 -4.375 C 10 -4.90625 10.140625 -5.773438 10.140625 -6.984375 C 10.140625 -8.171875 10 -9.023438 9.71875 -9.546875 C 9.445312 -10.066406 8.988281 -10.328125 8.34375 -10.328125 Z M 8.34375 -10.328125 "/></g></g></g><g fill="#ffffff" fill-opacity="1"><g transform="translate(78.383903, 69.744798)"><g><path d="M 6.4375 0 L 1.671875 0 L 1.671875 -13.828125 L 6.4375 -13.828125 Z M 1.546875 -17.265625 C 1.546875 -17.972656 1.742188 -18.503906 2.140625 -18.859375 C 2.546875 -19.210938 3.191406 -19.390625 4.078125 -19.390625 C 4.960938 -19.390625 5.609375 -19.207031 6.015625 -18.84375 C 6.421875 -18.488281 6.625 -17.960938 6.625 -17.265625 C 6.625 -15.859375 5.773438 -15.15625 4.078125 -15.15625 C 2.390625 -15.15625 1.546875 -15.859375 1.546875 -17.265625 Z M 1.546875 -17.265625 "/></g></g></g><g fill="#ffffff" fill-opacity="1"><g transform="translate(86.508179, 69.744798)"><g><path d="M 8.421875 -3.53125 C 9.054688 -3.53125 9.820312 -3.6875 10.71875 -4 L 10.71875 -0.53125 C 10.082031 -0.25 9.472656 -0.0507812 8.890625 0.0625 C 8.304688 0.1875 7.625 0.25 6.84375 0.25 C 5.238281 0.25 4.082031 -0.140625 3.375 -0.921875 C 2.664062 -1.710938 2.3125 -2.921875 2.3125 -4.546875 L 2.3125 -10.25 L 0.640625 -10.25 L 0.640625 -12.1875 L 2.765625 -13.6875 L 4 -16.59375 L 7.125 -16.59375 L 7.125 -13.828125 L 10.515625 -13.828125 L 10.515625 -10.25 L 7.125 -10.25 L 7.125 -4.875 C 7.125 -3.976562 7.554688 -3.53125 8.421875 -3.53125 Z M 8.421875 -3.53125 "/></g></g></g><g fill="#ffffff" fill-opacity="1"><g transform="translate(97.999273, 69.744798)"><g><path d="M 10.65625 0 L 9.75 -1.828125 L 9.65625 -1.828125 C 9.007812 -1.035156 8.351562 -0.488281 7.6875 -0.1875 C 7.019531 0.101562 6.15625 0.25 5.09375 0.25 C 3.789062 0.25 2.765625 -0.140625 2.015625 -0.921875 C 1.273438 -1.703125 0.90625 -2.800781 0.90625 -4.21875 C 0.90625 -5.6875 1.414062 -6.78125 2.4375 -7.5 C 3.46875 -8.226562 4.953125 -8.632812 6.890625 -8.71875 L 9.203125 -8.796875 L 9.203125 -8.984375 C 9.203125 -10.128906 8.640625 -10.703125 7.515625 -10.703125 C 6.503906 -10.703125 5.222656 -10.359375 3.671875 -9.671875 L 2.296875 -12.828125 C 3.898438 -13.648438 5.929688 -14.0625 8.390625 -14.0625 C 10.160156 -14.0625 11.53125 -13.625 12.5 -12.75 C 13.476562 -11.875 13.96875 -10.644531 13.96875 -9.0625 L 13.96875 0 Z M 7.125 -3.125 C 7.695312 -3.125 8.1875 -3.304688 8.59375 -3.671875 C 9.007812 -4.035156 9.21875 -4.507812 9.21875 -5.09375 L 9.21875 -6.171875 L 8.125 -6.125 C 6.550781 -6.0625 5.765625 -5.484375 5.765625 -4.390625 C 5.765625 -3.546875 6.21875 -3.125 7.125 -3.125 Z M 7.125 -3.125 "/></g></g></g><g fill="#ffffff" fill-opacity="1"><g transform="translate(113.564704, 69.744798)"><g><path d="M 6.421875 0 L 1.640625 0 L 1.640625 -18.984375 L 6.421875 -18.984375 Z M 6.421875 0 "/></g></g></g><g fill="#ffffff" fill-opacity="1"><g transform="translate(121.640186, 69.744798)"><g><path d="M 6.4375 0 L 1.671875 0 L 1.671875 -13.828125 L 6.4375 -13.828125 Z M 1.546875 -17.265625 C 1.546875 -17.972656 1.742188 -18.503906 2.140625 -18.859375 C 2.546875 -19.210938 3.191406 -19.390625 4.078125 -19.390625 C 4.960938 -19.390625 5.609375 -19.207031 6.015625 -18.84375 C 6.421875 -18.488281 6.625 -17.960938 6.625 -17.265625 C 6.625 -15.859375 5.773438 -15.15625 4.078125 -15.15625 C 2.390625 -15.15625 1.546875 -15.859375 1.546875 -17.265625 Z M 1.546875 -17.265625 "/></g></g></g><g fill="#ffffff" fill-opacity="1"><g transform="translate(129.764463, 69.744798)"><g><path d="M 12.328125 -4.25 C 12.328125 -2.769531 11.820312 -1.648438 10.8125 -0.890625 C 9.800781 -0.128906 8.351562 0.25 6.46875 0.25 C 5.4375 0.25 4.539062 0.191406 3.78125 0.078125 C 3.03125 -0.0234375 2.257812 -0.226562 1.46875 -0.53125 L 1.46875 -4.34375 C 2.21875 -4.019531 3.03125 -3.75 3.90625 -3.53125 C 4.789062 -3.320312 5.578125 -3.21875 6.265625 -3.21875 C 7.296875 -3.21875 7.8125 -3.453125 7.8125 -3.921875 C 7.8125 -4.171875 7.664062 -4.390625 7.375 -4.578125 C 7.09375 -4.773438 6.257812 -5.148438 4.875 -5.703125 C 3.601562 -6.222656 2.710938 -6.8125 2.203125 -7.46875 C 1.703125 -8.132812 1.453125 -8.972656 1.453125 -9.984375 C 1.453125 -11.273438 1.945312 -12.273438 2.9375 -12.984375 C 3.925781 -13.703125 5.332031 -14.0625 7.15625 -14.0625 C 8.0625 -14.0625 8.914062 -13.960938 9.71875 -13.765625 C 10.519531 -13.566406 11.351562 -13.273438 12.21875 -12.890625 L 10.921875 -9.828125 C 10.285156 -10.109375 9.613281 -10.347656 8.90625 -10.546875 C 8.195312 -10.742188 7.617188 -10.84375 7.171875 -10.84375 C 6.390625 -10.84375 6 -10.648438 6 -10.265625 C 6 -10.035156 6.132812 -9.835938 6.40625 -9.671875 C 6.675781 -9.503906 7.460938 -9.164062 8.765625 -8.65625 C 9.734375 -8.25 10.457031 -7.851562 10.9375 -7.46875 C 11.414062 -7.09375 11.765625 -6.644531 11.984375 -6.125 C 12.210938 -5.613281 12.328125 -4.988281 12.328125 -4.25 Z M 12.328125 -4.25 "/></g></g></g><g fill="#ffffff" fill-opacity="1"><g transform="translate(143.085348, 69.744798)"><g><path d="M 10.65625 0 L 9.75 -1.828125 L 9.65625 -1.828125 C 9.007812 -1.035156 8.351562 -0.488281 7.6875 -0.1875 C 7.019531 0.101562 6.15625 0.25 5.09375 0.25 C 3.789062 0.25 2.765625 -0.140625 2.015625 -0.921875 C 1.273438 -1.703125 0.90625 -2.800781 0.90625 -4.21875 C 0.90625 -5.6875 1.414062 -6.78125 2.4375 -7.5 C 3.46875 -8.226562 4.953125 -8.632812 6.890625 -8.71875 L 9.203125 -8.796875 L 9.203125 -8.984375 C 9.203125 -10.128906 8.640625 -10.703125 7.515625 -10.703125 C 6.503906 -10.703125 5.222656 -10.359375 3.671875 -9.671875 L 2.296875 -12.828125 C 3.898438 -13.648438 5.929688 -14.0625 8.390625 -14.0625 C 10.160156 -14.0625 11.53125 -13.625 12.5 -12.75 C 13.476562 -11.875 13.96875 -10.644531 13.96875 -9.0625 L 13.96875 0 Z M 7.125 -3.125 C 7.695312 -3.125 8.1875 -3.304688 8.59375 -3.671875 C 9.007812 -4.035156 9.21875 -4.507812 9.21875 -5.09375 L 9.21875 -6.171875 L 8.125 -6.125 C 6.550781 -6.0625 5.765625 -5.484375 5.765625 -4.390625 C 5.765625 -3.546875 6.21875 -3.125 7.125 -3.125 Z M 7.125 -3.125 "/></g></g></g><g fill="#ffffff" fill-opacity="1"><g transform="translate(158.650779, 69.744798)"><g><path d="M 8.421875 -3.53125 C 9.054688 -3.53125 9.820312 -3.6875 10.71875 -4 L 10.71875 -0.53125 C 10.082031 -0.25 9.472656 -0.0507812 8.890625 0.0625 C 8.304688 0.1875 7.625 0.25 6.84375 0.25 C 5.238281 0.25 4.082031 -0.140625 3.375 -0.921875 C 2.664062 -1.710938 2.3125 -2.921875 2.3125 -4.546875 L 2.3125 -10.25 L 0.640625 -10.25 L 0.640625 -12.1875 L 2.765625 -13.6875 L 4 -16.59375 L 7.125 -16.59375 L 7.125 -13.828125 L 10.515625 -13.828125 L 10.515625 -10.25 L 7.125 -10.25 L 7.125 -4.875 C 7.125 -3.976562 7.554688 -3.53125 8.421875 -3.53125 Z M 8.421875 -3.53125 "/></g></g></g><g fill="#ffffff" fill-opacity="1"><g transform="translate(170.141873, 69.744798)"><g><path d="M 6.4375 0 L 1.671875 0 L 1.671875 -13.828125 L 6.4375 -13.828125 Z M 1.546875 -17.265625 C 1.546875 -17.972656 1.742188 -18.503906 2.140625 -18.859375 C 2.546875 -19.210938 3.191406 -19.390625 4.078125 -19.390625 C 4.960938 -19.390625 5.609375 -19.207031 6.015625 -18.84375 C 6.421875 -18.488281 6.625 -17.960938 6.625 -17.265625 C 6.625 -15.859375 5.773438 -15.15625 4.078125 -15.15625 C 2.390625 -15.15625 1.546875 -15.859375 1.546875 -17.265625 Z M 1.546875 -17.265625 "/></g></g></g><g fill="#ffffff" fill-opacity="1"><g transform="translate(178.266149, 69.744798)"><g><path d="M 14.84375 -6.9375 C 14.84375 -4.675781 14.234375 -2.910156 13.015625 -1.640625 C 11.804688 -0.378906 10.109375 0.25 7.921875 0.25 C 5.816406 0.25 4.144531 -0.394531 2.90625 -1.6875 C 1.664062 -2.988281 1.046875 -4.738281 1.046875 -6.9375 C 1.046875 -9.195312 1.65625 -10.945312 2.875 -12.1875 C 4.09375 -13.4375 5.796875 -14.0625 7.984375 -14.0625 C 9.347656 -14.0625 10.550781 -13.769531 11.59375 -13.1875 C 12.632812 -12.613281 13.4375 -11.785156 14 -10.703125 C 14.5625 -9.628906 14.84375 -8.375 14.84375 -6.9375 Z M 5.890625 -6.9375 C 5.890625 -5.75 6.046875 -4.84375 6.359375 -4.21875 C 6.679688 -3.601562 7.21875 -3.296875 7.96875 -3.296875 C 8.707031 -3.296875 9.226562 -3.601562 9.53125 -4.21875 C 9.832031 -4.84375 9.984375 -5.75 9.984375 -6.9375 C 9.984375 -8.113281 9.828125 -9.003906 9.515625 -9.609375 C 9.210938 -10.210938 8.6875 -10.515625 7.9375 -10.515625 C 7.207031 -10.515625 6.679688 -10.210938 6.359375 -9.609375 C 6.046875 -9.015625 5.890625 -8.125 5.890625 -6.9375 Z M 5.890625 -6.9375 "/></g></g></g><g fill="#ffffff" fill-opacity="1"><g transform="translate(194.185345, 69.744798)"><g><path d="M 10.375 0 L 10.375 -7.546875 C 10.375 -8.460938 10.238281 -9.15625 9.96875 -9.625 C 9.707031 -10.09375 9.285156 -10.328125 8.703125 -10.328125 C 7.890625 -10.328125 7.304688 -10.003906 6.953125 -9.359375 C 6.597656 -8.710938 6.421875 -7.609375 6.421875 -6.046875 L 6.421875 0 L 1.640625 0 L 1.640625 -13.828125 L 5.25 -13.828125 L 5.84375 -12.109375 L 6.125 -12.109375 C 6.53125 -12.765625 7.09375 -13.253906 7.8125 -13.578125 C 8.53125 -13.898438 9.359375 -14.0625 10.296875 -14.0625 C 11.828125 -14.0625 13.015625 -13.617188 13.859375 -12.734375 C 14.710938 -11.847656 15.140625 -10.597656 15.140625 -8.984375 L 15.140625 0 Z M 10.375 0 "/></g></g></g></svg>