<svg xmlns="http://www.w3.org/2000/svg" xmlns:xlink="http://www.w3.org/1999/xlink" width="300" zoomAndPan="magnify" viewBox="0 0 224.87999 119.999999" height="160" preserveAspectRatio="xMidYMid meet" version="1.0"><defs><g/><clipPath id="120896b031"><path d="M 0 0.03125 L 224.761719 0.03125 L 224.761719 119.96875 L 0 119.96875 Z M 0 0.03125 " clip-rule="nonzero"/></clipPath><clipPath id="00af82e831"><path d="M 0 0.03125 L 224.761719 0.03125 L 224.761719 119.96875 L 0 119.96875 Z M 0 0.03125 " clip-rule="nonzero"/></clipPath><clipPath id="2c273ba50c"><path d="M 5.996094 -0.480469 L 218.882812 -0.480469 C 222.195312 -0.480469 224.878906 2.207031 224.878906 5.519531 L 224.878906 114.480469 C 224.878906 117.792969 222.195312 120.480469 218.882812 120.480469 L 5.996094 120.480469 C 2.683594 120.480469 0 117.792969 0 114.480469 L 0 5.519531 C 0 2.207031 2.683594 -0.480469 5.996094 -0.480469 " clip-rule="nonzero"/></clipPath></defs><g clip-path="url(#120896b031)"><path fill="#ffffff" d="M 0 0.03125 L 224.878906 0.03125 L 224.878906 127.464844 L 0 127.464844 Z M 0 0.03125 " fill-opacity="1" fill-rule="nonzero"/><path fill="#ffffff" d="M 0 0.03125 L 224.878906 0.03125 L 224.878906 119.96875 L 0 119.96875 Z M 0 0.03125 " fill-opacity="1" fill-rule="nonzero"/><path fill="#ffffff" d="M 0 0.03125 L 224.878906 0.03125 L 224.878906 119.96875 L 0 119.96875 Z M 0 0.03125 " fill-opacity="1" fill-rule="nonzero"/></g><g clip-path="url(#00af82e831)"><g clip-path="url(#2c273ba50c)"><path fill="#233f93" d="M 0 -0.480469 L 224.878906 -0.480469 L 224.878906 120.480469 L 0 120.480469 Z M 0 -0.480469 " fill-opacity="1" fill-rule="nonzero"/></g></g><g fill="#ffffff" fill-opacity="1"><g transform="translate(21.247211, 69.744798)"><g><path d="M 1.921875 -17.828125 L 8.15625 -17.828125 C 10.570312 -17.828125 12.367188 -17.46875 13.546875 -16.75 C 14.722656 -16.03125 15.3125 -14.910156 15.3125 -13.390625 C 15.3125 -12.390625 15.050781 -11.535156 14.53125 -10.828125 C 14.019531 -10.117188 13.347656 -9.664062 12.515625 -9.46875 L 12.515625 -9.34375 C 13.617188 -9.050781 14.414062 -8.5625 14.90625 -7.875 C 15.40625 -7.195312 15.65625 -6.3125 15.65625 -5.21875 C 15.65625 -3.601562 15.046875 -2.328125 13.828125 -1.390625 C 12.617188 -0.460938 10.96875 0 8.875 0 L 1.921875 0 Z M 6.75 -10.984375 L 8.203125 -10.984375 C 8.890625 -10.984375 9.421875 -11.125 9.796875 -11.40625 C 10.179688 -11.695312 10.375 -12.125 10.375 -12.6875 C 10.375 -13.6875 9.613281 -14.1875 8.09375 -14.1875 L 6.75 -14.1875 Z M 6.75 -7.46875 L 6.75 -3.71875 L 8.4375 -3.71875 C 9.945312 -3.71875 10.703125 -4.351562 10.703125 -5.625 C 10.703125 -6.21875 10.5 -6.671875 10.09375 -6.984375 C 9.6875 -7.304688 9.101562 -7.46875 8.34375 -7.46875 Z M 6.75 -7.46875 "/></g></g></g><g fill="#ffffff" fill-opacity="1"><g transform="translate(38.081297, 69.744798)"><g><path d="M 6.4375 0 L 1.671875 0 L 1.671875 -13.828125 L 6.4375 -13.828125 Z M 1.546875 -17.265625 C 1.546875 -17.972656 1.742188 -18.503906 2.140625 -18.859375 C 2.546875 -19.210938 3.191406 -19.390625 4.078125 -19.390625 C 4.960938 -19.390625 5.609375 -19.207031 6.015625 -18.84375 C 6.421875 -18.488281 6.625 -17.960938 6.625 -17.265625 C 6.625 -15.859375 5.773438 -15.15625 4.078125 -15.15625 C 2.390625 -15.15625 1.546875 -15.859375 1.546875 -17.265625 Z M 1.546875 -17.265625 "/></g></g></g><g fill="#ffffff" fill-opacity="1"><g transform="translate(46.205574, 69.744798)"><g><path d="M 6.421875 0 L 1.640625 0 L 1.640625 -18.984375 L 6.421875 -18.984375 Z M 6.421875 0 "/></g></g></g><g fill="#ffffff" fill-opacity="1"><g transform="translate(54.281056, 69.744798)"><g><path d="M 10.65625 0 L 9.75 -1.828125 L 9.65625 -1.828125 C 9.007812 -1.035156 8.351562 -0.488281 7.6875 -0.1875 C 7.019531 0.101562 6.15625 0.25 5.09375 0.25 C 3.789062 0.25 2.765625 -0.140625 2.015625 -0.921875 C 1.273438 -1.703125 0.90625 -2.800781 0.90625 -4.21875 C 0.90625 -5.6875 1.414062 -6.78125 2.4375 -7.5 C 3.46875 -8.226562 4.953125 -8.632812 6.890625 -8.71875 L 9.203125 -8.796875 L 9.203125 -8.984375 C 9.203125 -10.128906 8.640625 -10.703125 7.515625 -10.703125 C 6.503906 -10.703125 5.222656 -10.359375 3.671875 -9.671875 L 2.296875 -12.828125 C 3.898438 -13.648438 5.929688 -14.0625 8.390625 -14.0625 C 10.160156 -14.0625 11.53125 -13.625 12.5 -12.75 C 13.476562 -11.875 13.96875 -10.644531 13.96875 -9.0625 L 13.96875 0 Z M 7.125 -3.125 C 7.695312 -3.125 8.1875 -3.304688 8.59375 -3.671875 C 9.007812 -4.035156 9.21875 -4.507812 9.21875 -5.09375 L 9.21875 -6.171875 L 8.125 -6.125 C 6.550781 -6.0625 5.765625 -5.484375 5.765625 -4.390625 C 5.765625 -3.546875 6.21875 -3.125 7.125 -3.125 Z M 7.125 -3.125 "/></g></g></g><g fill="#ffffff" fill-opacity="1"><g transform="translate(69.846487, 69.744798)"><g><path d="M 10.375 0 L 10.375 -7.546875 C 10.375 -8.460938 10.238281 -9.15625 9.96875 -9.625 C 9.707031 -10.09375 9.285156 -10.328125 8.703125 -10.328125 C 7.890625 -10.328125 7.304688 -10.003906 6.953125 -9.359375 C 6.597656 -8.710938 6.421875 -7.609375 6.421875 -6.046875 L 6.421875 0 L 1.640625 0 L 1.640625 -13.828125 L 5.25 -13.828125 L 5.84375 -12.109375 L 6.125 -12.109375 C 6.53125 -12.765625 7.09375 -13.253906 7.8125 -13.578125 C 8.53125 -13.898438 9.359375 -14.0625 10.296875 -14.0625 C 11.828125 -14.0625 13.015625 -13.617188 13.859375 -12.734375 C 14.710938 -11.847656 15.140625 -10.597656 15.140625 -8.984375 L 15.140625 0 Z M 10.375 0 "/></g></g></g><g fill="#ffffff" fill-opacity="1"><g transform="translate(86.582984, 69.744798)"><g/></g></g><g fill="#ffffff" fill-opacity="1"><g transform="translate(93.072647, 69.744798)"><g><path d="M 5.9375 0.25 C 4.957031 0.25 4.097656 -0.03125 3.359375 -0.59375 C 2.617188 -1.15625 2.046875 -1.976562 1.640625 -3.0625 C 1.242188 -4.15625 1.046875 -5.429688 1.046875 -6.890625 C 1.046875 -9.140625 1.492188 -10.894531 2.390625 -12.15625 C 3.296875 -13.425781 4.539062 -14.0625 6.125 -14.0625 C 6.894531 -14.0625 7.570312 -13.90625 8.15625 -13.59375 C 8.738281 -13.289062 9.269531 -12.773438 9.75 -12.046875 L 9.84375 -12.046875 C 9.6875 -13.117188 9.609375 -14.195312 9.609375 -15.28125 L 9.609375 -18.984375 L 14.421875 -18.984375 L 14.421875 0 L 10.828125 0 L 9.796875 -1.75 L 9.609375 -1.75 C 8.785156 -0.414062 7.5625 0.25 5.9375 0.25 Z M 7.890625 -3.53125 C 8.660156 -3.53125 9.203125 -3.769531 9.515625 -4.25 C 9.828125 -4.726562 9.992188 -5.46875 10.015625 -6.46875 L 10.015625 -6.84375 C 10.015625 -8.0625 9.835938 -8.925781 9.484375 -9.4375 C 9.140625 -9.957031 8.59375 -10.21875 7.84375 -10.21875 C 7.21875 -10.21875 6.734375 -9.921875 6.390625 -9.328125 C 6.046875 -8.742188 5.875 -7.90625 5.875 -6.8125 C 5.875 -5.738281 6.046875 -4.921875 6.390625 -4.359375 C 6.742188 -3.804688 7.242188 -3.53125 7.890625 -3.53125 Z M 7.890625 -3.53125 "/></g></g></g><g fill="#ffffff" fill-opacity="1"><g transform="translate(109.138226, 69.744798)"><g><path d="M 8.3125 0.25 C 6.019531 0.25 4.234375 -0.359375 2.953125 -1.578125 C 1.679688 -2.804688 1.046875 -4.550781 1.046875 -6.8125 C 1.046875 -9.15625 1.632812 -10.945312 2.8125 -12.1875 C 4 -13.4375 5.6875 -14.0625 7.875 -14.0625 C 9.945312 -14.0625 11.550781 -13.519531 12.6875 -12.4375 C 13.820312 -11.351562 14.390625 -9.789062 14.390625 -7.75 L 14.390625 -5.625 L 5.875 -5.625 C 5.90625 -4.851562 6.1875 -4.242188 6.71875 -3.796875 C 7.25 -3.359375 7.972656 -3.140625 8.890625 -3.140625 C 9.734375 -3.140625 10.503906 -3.21875 11.203125 -3.375 C 11.910156 -3.539062 12.675781 -3.816406 13.5 -4.203125 L 13.5 -0.765625 C 12.75 -0.378906 11.972656 -0.113281 11.171875 0.03125 C 10.378906 0.175781 9.425781 0.25 8.3125 0.25 Z M 8.046875 -10.828125 C 7.484375 -10.828125 7.007812 -10.648438 6.625 -10.296875 C 6.25 -9.941406 6.03125 -9.382812 5.96875 -8.625 L 10.0625 -8.625 C 10.050781 -9.289062 9.863281 -9.820312 9.5 -10.21875 C 9.132812 -10.625 8.648438 -10.828125 8.046875 -10.828125 Z M 8.046875 -10.828125 "/></g></g></g><g fill="#ffffff" fill-opacity="1"><g transform="translate(124.581671, 69.744798)"><g/></g></g><g fill="#ffffff" fill-opacity="1"><g transform="translate(131.071333, 69.744798)"><g><path d="M 12.328125 -4.25 C 12.328125 -2.769531 11.820312 -1.648438 10.8125 -0.890625 C 9.800781 -0.128906 8.351562 0.25 6.46875 0.25 C 5.4375 0.25 4.539062 0.191406 3.78125 0.078125 C 3.03125 -0.0234375 2.257812 -0.226562 1.46875 -0.53125 L 1.46875 -4.34375 C 2.21875 -4.019531 3.03125 -3.75 3.90625 -3.53125 C 4.789062 -3.320312 5.578125 -3.21875 6.265625 -3.21875 C 7.296875 -3.21875 7.8125 -3.453125 7.8125 -3.921875 C 7.8125 -4.171875 7.664062 -4.390625 7.375 -4.578125 C 7.09375 -4.773438 6.257812 -5.148438 4.875 -5.703125 C 3.601562 -6.222656 2.710938 -6.8125 2.203125 -7.46875 C 1.703125 -8.132812 1.453125 -8.972656 1.453125 -9.984375 C 1.453125 -11.273438 1.945312 -12.273438 2.9375 -12.984375 C 3.925781 -13.703125 5.332031 -14.0625 7.15625 -14.0625 C 8.0625 -14.0625 8.914062 -13.960938 9.71875 -13.765625 C 10.519531 -13.566406 11.351562 -13.273438 12.21875 -12.890625 L 10.921875 -9.828125 C 10.285156 -10.109375 9.613281 -10.347656 8.90625 -10.546875 C 8.195312 -10.742188 7.617188 -10.84375 7.171875 -10.84375 C 6.390625 -10.84375 6 -10.648438 6 -10.265625 C 6 -10.035156 6.132812 -9.835938 6.40625 -9.671875 C 6.675781 -9.503906 7.460938 -9.164062 8.765625 -8.65625 C 9.734375 -8.25 10.457031 -7.851562 10.9375 -7.46875 C 11.414062 -7.09375 11.765625 -6.644531 11.984375 -6.125 C 12.210938 -5.613281 12.328125 -4.988281 12.328125 -4.25 Z M 12.328125 -4.25 "/></g></g></g><g fill="#ffffff" fill-opacity="1"><g transform="translate(144.392219, 69.744798)"><g><path d="M 10.65625 0 L 9.75 -1.828125 L 9.65625 -1.828125 C 9.007812 -1.035156 8.351562 -0.488281 7.6875 -0.1875 C 7.019531 0.101562 6.15625 0.25 5.09375 0.25 C 3.789062 0.25 2.765625 -0.140625 2.015625 -0.921875 C 1.273438 -1.703125 0.90625 -2.800781 0.90625 -4.21875 C 0.90625 -5.6875 1.414062 -6.78125 2.4375 -7.5 C 3.46875 -8.226562 4.953125 -8.632812 6.890625 -8.71875 L 9.203125 -8.796875 L 9.203125 -8.984375 C 9.203125 -10.128906 8.640625 -10.703125 7.515625 -10.703125 C 6.503906 -10.703125 5.222656 -10.359375 3.671875 -9.671875 L 2.296875 -12.828125 C 3.898438 -13.648438 5.929688 -14.0625 8.390625 -14.0625 C 10.160156 -14.0625 11.53125 -13.625 12.5 -12.75 C 13.476562 -11.875 13.96875 -10.644531 13.96875 -9.0625 L 13.96875 0 Z M 7.125 -3.125 C 7.695312 -3.125 8.1875 -3.304688 8.59375 -3.671875 C 9.007812 -4.035156 9.21875 -4.507812 9.21875 -5.09375 L 9.21875 -6.171875 L 8.125 -6.125 C 6.550781 -6.0625 5.765625 -5.484375 5.765625 -4.390625 C 5.765625 -3.546875 6.21875 -3.125 7.125 -3.125 Z M 7.125 -3.125 "/></g></g></g><g fill="#ffffff" fill-opacity="1"><g transform="translate(159.957649, 69.744798)"><g><path d="M 10.375 0 L 10.375 -7.546875 C 10.375 -8.460938 10.238281 -9.15625 9.96875 -9.625 C 9.707031 -10.09375 9.285156 -10.328125 8.703125 -10.328125 C 7.890625 -10.328125 7.304688 -10.003906 6.953125 -9.359375 C 6.597656 -8.710938 6.421875 -7.609375 6.421875 -6.046875 L 6.421875 0 L 1.640625 0 L 1.640625 -13.828125 L 5.25 -13.828125 L 5.84375 -12.109375 L 6.125 -12.109375 C 6.53125 -12.765625 7.09375 -13.253906 7.8125 -13.578125 C 8.53125 -13.898438 9.359375 -14.0625 10.296875 -14.0625 C 11.828125 -14.0625 13.015625 -13.617188 13.859375 -12.734375 C 14.710938 -11.847656 15.140625 -10.597656 15.140625 -8.984375 L 15.140625 0 Z M 10.375 0 "/></g></g></g><g fill="#ffffff" fill-opacity="1"><g transform="translate(176.694147, 69.744798)"><g><path d="M 8.421875 -3.53125 C 9.054688 -3.53125 9.820312 -3.6875 10.71875 -4 L 10.71875 -0.53125 C 10.082031 -0.25 9.472656 -0.0507812 8.890625 0.0625 C 8.304688 0.1875 7.625 0.25 6.84375 0.25 C 5.238281 0.25 4.082031 -0.140625 3.375 -0.921875 C 2.664062 -1.710938 2.3125 -2.921875 2.3125 -4.546875 L 2.3125 -10.25 L 0.640625 -10.25 L 0.640625 -12.1875 L 2.765625 -13.6875 L 4 -16.59375 L 7.125 -16.59375 L 7.125 -13.828125 L 10.515625 -13.828125 L 10.515625 -10.25 L 7.125 -10.25 L 7.125 -4.875 C 7.125 -3.976562 7.554688 -3.53125 8.421875 -3.53125 Z M 8.421875 -3.53125 "/></g></g></g><g fill="#ffffff" fill-opacity="1"><g transform="translate(188.185241, 69.744798)"><g><path d="M 8.3125 0.25 C 6.019531 0.25 4.234375 -0.359375 2.953125 -1.578125 C 1.679688 -2.804688 1.046875 -4.550781 1.046875 -6.8125 C 1.046875 -9.15625 1.632812 -10.945312 2.8125 -12.1875 C 4 -13.4375 5.6875 -14.0625 7.875 -14.0625 C 9.945312 -14.0625 11.550781 -13.519531 12.6875 -12.4375 C 13.820312 -11.351562 14.390625 -9.789062 14.390625 -7.75 L 14.390625 -5.625 L 5.875 -5.625 C 5.90625 -4.851562 6.1875 -4.242188 6.71875 -3.796875 C 7.25 -3.359375 7.972656 -3.140625 8.890625 -3.140625 C 9.734375 -3.140625 10.503906 -3.21875 11.203125 -3.375 C 11.910156 -3.539062 12.675781 -3.816406 13.5 -4.203125 L 13.5 -0.765625 C 12.75 -0.378906 11.972656 -0.113281 11.171875 0.03125 C 10.378906 0.175781 9.425781 0.25 8.3125 0.25 Z M 8.046875 -10.828125 C 7.484375 -10.828125 7.007812 -10.648438 6.625 -10.296875 C 6.25 -9.941406 6.03125 -9.382812 5.96875 -8.625 L 10.0625 -8.625 C 10.050781 -9.289062 9.863281 -9.820312 9.5 -10.21875 C 9.132812 -10.625 8.648438 -10.828125 8.046875 -10.828125 Z M 5.75 -15.140625 L 5.75 -15.5 C 7 -16.832031 7.789062 -17.691406 8.125 -18.078125 C 8.46875 -18.472656 8.75 -18.828125 8.96875 -19.140625 L 14.1875 -19.140625 L 14.1875 -18.890625 C 13.539062 -18.367188 12.644531 -17.703125 11.5 -16.890625 C 10.363281 -16.085938 9.503906 -15.503906 8.921875 -15.140625 Z M 5.75 -15.140625 "/></g></g></g></svg>